<?xml version="1.0" encoding="UTF-8" standalone="no"?>
<svg
   xmlns:dc="http://purl.org/dc/elements/1.1/"
   xmlns:cc="http://creativecommons.org/ns#"
   xmlns:rdf="http://www.w3.org/1999/02/22-rdf-syntax-ns#"
   xmlns:svg="http://www.w3.org/2000/svg"
   xmlns="http://www.w3.org/2000/svg"
   xmlns:sodipodi="http://sodipodi.sourceforge.net/DTD/sodipodi-0.dtd"
   xmlns:inkscape="http://www.inkscape.org/namespaces/inkscape"
   inkscape:export-ydpi="180"
   inkscape:export-xdpi="180"
   inkscape:export-filename="D:\Eoghan\Tribe Website\static\ultimate\frisbee-icon.png"
   version="1.1"
   id="svg2"
   width="80"
   height="80"
   viewBox="0 0 80 80"
   sodipodi:docname="frisbee-icon.svg"
   inkscape:version="1.0 (4035a4fb49, 2020-05-01)">
  <metadata
     id="metadata8">
    <rdf:RDF>
      <cc:Work
         rdf:about="">
        <dc:format>image/svg+xml</dc:format>
        <dc:type
           rdf:resource="http://purl.org/dc/dcmitype/StillImage" />
        <dc:title />
      </cc:Work>
    </rdf:RDF>
  </metadata>
  <defs
     id="defs6" />
  <sodipodi:namedview
     inkscape:document-rotation="0"
     pagecolor="#ffffff"
     bordercolor="#666666"
     borderopacity="1"
     objecttolerance="10"
     gridtolerance="10"
     guidetolerance="10"
     inkscape:pageopacity="0"
     inkscape:pageshadow="2"
     inkscape:window-width="1920"
     inkscape:window-height="1001"
     id="namedview4"
     showgrid="false"
     inkscape:zoom="5.1875"
     inkscape:cx="-26.933613"
     inkscape:cy="62.185656"
     inkscape:window-x="-9"
     inkscape:window-y="-9"
     inkscape:window-maximized="1"
     inkscape:current-layer="g10" />
  <g
     inkscape:groupmode="layer"
     inkscape:label="Image"
     id="g10">
    <path
       style="fill:#14a098;stroke-width:0.256737;fill-opacity:1"
       d="M 34.229616,79.284071 C 21.301308,77.253628 10.266552,69.09066 4.7137635,57.449693 -2.1180889,43.127276 0.14433463,26.515038 10.5786,14.386151 14.836111,9.4371789 21.242386,5.1561849 27.554454,3.0420349 40.839509,-1.4076365 54.917948,1.2525848 65.731256,10.255812 c 6.44621,5.367147 11.157349,13.286373 13.066502,21.964226 0.745527,3.388719 0.943126,10.190647 0.401043,13.804857 -2.584603,17.232038 -15.936418,30.628042 -33.15928,33.269024 -2.822979,0.432883 -9.02387,0.427709 -11.809905,-0.0098 z m 13.855252,-2.19304 C 55.251921,75.556948 61.407648,72.172257 66.721794,66.843626 72.473316,61.07643 75.891151,54.516087 77.232787,46.668376 80.219843,29.196009 70.5404,12.031641 53.993443,5.4584896 44.48526,1.6814363 33.59447,2.0639004 24.111223,6.5078998 16.758403,9.9535466 9.8398039,16.872145 6.3941552,24.224966 -0.28870969,38.485828 2.4130474,55.031011 13.280802,66.397852 c 5.560485,5.815843 13.10849,9.721333 21.462288,11.105016 3.049271,0.505066 10.070695,0.288326 13.341778,-0.411837 z M 35.672825,67.189519 C 24.151987,65.086883 15.469212,56.32265 13.433163,44.741209 11.722716,35.01186 15.915787,24.682891 24.070111,18.538767 c 1.946974,-1.467007 5.563775,-3.317009 7.977241,-4.080381 14.283915,-4.517951 29.500498,3.383162 34.128994,17.721259 3.518948,10.900954 -0.400957,23.012792 -9.720585,30.034949 -5.682987,4.282019 -13.857657,6.238835 -20.782936,4.974925 z m 9.21138,-1.956173 c 9.709313,-1.630892 18.040323,-9.813095 20.181132,-19.820658 0.488629,-2.284183 0.542137,-6.865472 0.109797,-9.400536 C 64.249902,30.587007 60.98042,24.830445 56.813275,21.289467 52.639253,17.742645 47.961968,15.742639 42.637754,15.228015 31.169858,14.119562 20.627545,20.824626 16.469564,31.871363 c -1.021817,2.714717 -1.408266,5.048709 -1.408266,8.505318 0,4.615913 0.812503,7.881582 2.993666,12.032342 3.426283,6.520233 10.739081,11.784092 17.843443,12.843976 3.665148,0.546794 5.639231,0.542479 8.985798,-0.01964 z M 36.37316,62.824726 C 28.931458,61.477996 22.37232,56.360737 19.381113,49.568007 16.91905,43.976906 16.916799,36.76387 19.375413,31.204579 c 2.195908,-4.965336 6.762388,-9.537088 11.696227,-11.709723 5.597426,-2.464845 12.78523,-2.464845 18.382653,0 5.629382,2.478921 10.412543,7.727125 12.339963,13.539715 1.666402,5.025435 1.666402,9.658785 0,14.684218 -3.473006,10.473654 -14.57239,17.069232 -25.42107,15.105937 z m 8.89615,-2.169353 c 7.393873,-1.83281 13.439508,-7.878445 15.272319,-15.272321 0.6964,-2.809401 0.6964,-7.203343 0,-10.012742 -1.832811,-7.393876 -7.878446,-13.439512 -15.272319,-15.272322 -2.809403,-0.696398 -7.203344,-0.696398 -10.012745,0 -7.406588,1.835959 -13.43636,7.865732 -15.27232,15.272322 -0.6964,2.809399 -0.6964,7.203341 0,10.012742 1.820374,7.343707 7.827833,13.395509 15.14395,15.255735 2.719391,0.691442 7.387819,0.699078 10.141115,0.01659 z M 39.877832,48.706474 c -0.141205,-0.04059 -0.804066,-0.147536 -1.473022,-0.237633 -1.505714,-0.20279 -3.723932,-1.642465 -4.809829,-3.121688 -1.092655,-1.488428 -1.582207,-3.026345 -1.582207,-4.970472 0,-4.721 3.529165,-8.250163 8.250163,-8.250163 4.720999,0 8.25016,3.529163 8.25016,8.250163 0,4.411881 -2.949141,7.677846 -7.479948,8.283502 -0.494219,0.06606 -1.014111,0.0869 -1.155317,0.04629 z m 3.345131,-2.623957 c 2.262062,-1.162924 3.319839,-2.980935 3.319839,-5.705836 0,-2.076747 -0.375627,-3.106709 -1.623724,-4.452227 -1.221844,-1.317217 -2.519065,-1.825927 -4.656141,-1.825927 -2.137076,0 -3.434297,0.50871 -4.656142,1.825927 -1.248095,1.345518 -1.623723,2.37548 -1.623723,4.452227 0,3.143122 1.49936,5.215621 4.481045,6.193942 1.057524,0.346984 3.65212,0.08087 4.758846,-0.488106 z M 5.9243607,41.490334 C 5.4621887,41.303842 5.5114041,37.66922 6.0161847,34.709523 6.816597,30.016381 8.7176711,25.239968 11.374355,21.247214 c 1.428102,-2.146303 1.874529,-2.540594 2.573041,-2.27255 0.677228,0.259877 0.416186,1.307261 -0.73993,2.968834 -1.082538,1.55583 -2.882624,4.891338 -3.505132,6.494911 -1.2396359,3.193277 -2.3017298,8.381355 -2.3017298,11.243392 0,1.693089 -0.4366437,2.228018 -1.476238,1.808533 z M 15.680367,17.61379 c -0.66369,-0.267804 -0.318958,-1.33367 0.770211,-2.381394 1.149691,-1.105942 1.86324,-1.243894 2.348598,-0.454061 0.238808,0.388622 0.07564,0.659002 -1.045825,1.732976 -1.326741,1.270557 -1.468977,1.346201 -2.072984,1.102479 z"
       id="path851" />
  </g>
</svg>
