<?xml version="1.0" encoding="UTF-8" standalone="no"?>
<svg
   xmlns:dc="http://purl.org/dc/elements/1.1/"
   xmlns:cc="http://creativecommons.org/ns#"
   xmlns:rdf="http://www.w3.org/1999/02/22-rdf-syntax-ns#"
   xmlns:svg="http://www.w3.org/2000/svg"
   xmlns="http://www.w3.org/2000/svg"
   xmlns:sodipodi="http://sodipodi.sourceforge.net/DTD/sodipodi-0.dtd"
   xmlns:inkscape="http://www.inkscape.org/namespaces/inkscape"
   inkscape:export-ydpi="180"
   inkscape:export-xdpi="180"
   inkscape:export-filename="D:\Eoghan\Tribe Website\static\ultimate\rules-icon.png"
   inkscape:version="1.0 (4035a4fb49, 2020-05-01)"
   sodipodi:docname="rules-icon.svg"
   viewBox="0 0 80 80"
   height="80"
   width="80"
   id="svg2"
   version="1.1">
  <metadata
     id="metadata8">
    <rdf:RDF>
      <cc:Work
         rdf:about="">
        <dc:format>image/svg+xml</dc:format>
        <dc:type
           rdf:resource="http://purl.org/dc/dcmitype/StillImage" />
        <dc:title></dc:title>
      </cc:Work>
    </rdf:RDF>
  </metadata>
  <defs
     id="defs6" />
  <sodipodi:namedview
     inkscape:current-layer="g10"
     inkscape:window-maximized="1"
     inkscape:window-y="-9"
     inkscape:window-x="-9"
     inkscape:cy="36.944372"
     inkscape:cx="29.475188"
     inkscape:zoom="3.6681164"
     showgrid="false"
     id="namedview4"
     inkscape:window-height="1001"
     inkscape:window-width="1920"
     inkscape:pageshadow="2"
     inkscape:pageopacity="0"
     guidetolerance="10"
     gridtolerance="10"
     objecttolerance="10"
     borderopacity="1"
     bordercolor="#666666"
     pagecolor="#ffffff" />
  <g
     id="g10"
     inkscape:label="Image"
     inkscape:groupmode="layer">
    <path
       id="path883"
       d="M 12.655495,78.046124 C 12.45539,77.672229 12.357116,67.77465 12.357116,47.995567 V 18.502536 L 20.933952,9.9292718 29.51079,1.3560095 h 19.948532 c 19.427528,0 19.956322,0.014556 20.246909,0.5575263 0.415662,0.776673 0.415662,75.3559152 0,76.1325882 -0.291881,0.545383 -0.913171,0.557527 -28.525369,0.557527 -27.612198,0 -28.233487,-0.01214 -28.525367,-0.557527 z M 67.41047,39.979829 V 3.9501468 H 49.395629 31.380788 v 7.6876562 c 0,6.748954 -0.05824,7.75202 -0.477031,8.214768 -0.43957,0.485721 -1.084631,0.527111 -8.214766,0.527111 H 14.951252 V 48.194597 76.009512 H 41.180862 67.41047 Z M 25.961923,63.845892 c -0.444606,-0.444607 -0.444606,-1.457761 0,-1.902367 0.260016,-0.260017 4.010872,-0.345885 15.108893,-0.345885 8.119655,0 14.968177,0.07874 15.218939,0.174957 0.538657,0.206701 0.611134,1.572206 0.110045,2.073295 -0.498714,0.498714 -29.939163,0.498714 -30.437877,0 z m 0.158531,-9.477277 c -0.301527,-0.175623 -0.504416,-0.638708 -0.504416,-1.151318 0,-0.655278 0.174376,-0.923822 0.739359,-1.138628 0.443782,-0.168725 6.370626,-0.281103 14.825465,-0.281103 8.454837,0 14.381682,0.112383 14.825465,0.281103 0.93397,0.355095 1.051035,1.837711 0.181832,2.302895 -0.759252,0.406339 -29.368985,0.39402 -30.067705,-0.01294 z m 0.144119,-9.49773 c -0.847272,-0.340561 -0.907338,-1.849891 -0.091,-2.286778 0.36305,-0.194299 5.597915,-0.298377 15.007297,-0.298377 9.409384,0 14.644249,0.104075 15.007297,0.298377 0.869204,0.465183 0.752139,1.9478 -0.181832,2.302893 -0.942887,0.358487 -28.84741,0.343367 -29.741754,-0.01611 z m -0.288238,-9.693749 c -0.459245,-0.18531 -0.469173,-1.602597 -0.01441,-2.057357 0.253765,-0.253766 2.666425,-0.345886 9.058892,-0.345886 7.536601,0 8.774161,0.06116 9.165952,0.452945 0.539441,0.539442 0.585784,1.316583 0.107061,1.795308 -0.254955,0.254954 -2.660805,0.339903 -9.15154,0.323128 -4.84311,-0.01251 -8.967789,-0.08818 -9.165951,-0.168138 z m 2.743291,-23.444578 0.0771,-5.9088681 -5.769782,5.7620471 c -3.173382,3.169125 -5.769784,5.863286 -5.769784,5.987021 0,0.123735 2.561709,0.189806 5.692689,0.146821 l 5.692689,-0.07815 z"
       style="fill:#14a098;stroke-width:0.288238;fill-opacity:1" />
  </g>
</svg>
