<?xml version="1.0" encoding="UTF-8" standalone="no"?>
<svg
   xmlns:dc="http://purl.org/dc/elements/1.1/"
   xmlns:cc="http://creativecommons.org/ns#"
   xmlns:rdf="http://www.w3.org/1999/02/22-rdf-syntax-ns#"
   xmlns:svg="http://www.w3.org/2000/svg"
   xmlns="http://www.w3.org/2000/svg"
   xmlns:sodipodi="http://sodipodi.sourceforge.net/DTD/sodipodi-0.dtd"
   xmlns:inkscape="http://www.inkscape.org/namespaces/inkscape"
   inkscape:export-ydpi="400"
   inkscape:export-xdpi="400"
   inkscape:export-filename="D:\Eoghan\Tribe Website\static\ultimate\spirit-pillars.png"
   sodipodi:docname="spirit-pillars.svg"
   inkscape:version="1.0 (4035a4fb49, 2020-05-01)"
   id="svg900"
   version="1.1"
   viewBox="0 0 177.4783 41.66481"
   height="41.66481mm"
   width="177.4783mm">
  <defs
     id="defs894" />
  <sodipodi:namedview
     inkscape:window-maximized="1"
     inkscape:window-y="-9"
     inkscape:window-x="2391"
     inkscape:window-height="1271"
     inkscape:window-width="2400"
     fit-margin-bottom="0"
     fit-margin-right="0"
     fit-margin-left="0"
     fit-margin-top="0"
     inkscape:pagecheckerboard="true"
     showgrid="false"
     inkscape:document-rotation="0"
     inkscape:current-layer="layer1"
     inkscape:document-units="mm"
     inkscape:cy="192.19073"
     inkscape:cx="269.51525"
     inkscape:zoom="0.98994949"
     inkscape:pageshadow="2"
     inkscape:pageopacity="0.0"
     borderopacity="1.0"
     bordercolor="#666666"
     pagecolor="#ffffff"
     id="base" />
  <metadata
     id="metadata897">
    <rdf:RDF>
      <cc:Work
         rdf:about="">
        <dc:format>image/svg+xml</dc:format>
        <dc:type
           rdf:resource="http://purl.org/dc/dcmitype/StillImage" />
        <dc:title></dc:title>
      </cc:Work>
    </rdf:RDF>
  </metadata>
  <g
     transform="translate(-15.015312,-1.1900565)"
     id="layer1"
     inkscape:groupmode="layer"
     inkscape:label="Layer 1">
    <g
       transform="translate(-2.4568452,-11.150298)"
       id="g1506">
      <path
         id="path1487"
         style="fill:#ffffff;stroke-width:57.3165;stroke-linecap:round;stroke-linejoin:round;stroke-opacity:0.501961"
         d="m 102.14258,65.714844 -21.427736,99.999996 88.638676,-0.20312 16.37109,-98.839845 z m 128.07226,1.464844 -16.78125,98.232422 94.01368,-0.2168 22.38085,-96.874998 z m 126.10352,1.443359 -7.70703,96.478513 88.5332,-0.20117 15.40625,-95.175781 z m 137.52734,1.574219 -19.56054,76.230464 3.50195,18.37891 95.26562,-0.21875 18.58399,-93.273437 z m 126.00196,1.441406 -7.70508,59.076168 2.41211,33.7793 91.16015,-0.20898 20.71289,-91.427738 z"
         transform="scale(0.26458333)" />
      <path
         style="fill:#f7a424;stroke-width:0.264583"
         d="m 86.355458,47.266754 c 0,-0.771995 7.246925,-34.264287 7.477247,-34.556741 0.408329,-0.518486 30.846995,-0.479129 31.046265,0.04014 0.0783,0.203978 -1.50832,8.091869 -3.52576,17.528646 l -3.66808,17.157774 -15.66484,0.06824 c -11.728652,0.0511 -15.664832,-0.0087 -15.664832,-0.238065 z M 107.7742,39.374303 c 4.04034,-2.42832 6.68267,-4.968722 8.09437,-7.782132 1.46761,-2.924857 1.13437,-5.49162 -0.97293,-7.493822 -2.33273,-2.216378 -5.7572,-2.168496 -8.13914,0.113799 -0.64962,0.622446 -1.25759,1.131719 -1.35104,1.131719 -0.0935,0 -0.70142,-0.509273 -1.35104,-1.131719 -2.36795,-2.268894 -5.610615,-2.366441 -7.96946,-0.239736 -2.210308,1.992784 -2.632549,4.518708 -1.245484,7.450728 1.091414,2.307071 4.536244,5.68017 7.909914,7.745206 1.36699,0.836744 2.56436,1.521354 2.66082,1.521354 0.0964,0 1.16025,-0.591929 2.36399,-1.315397 z M 95.869131,30.349786 c -0.491492,-0.918366 -0.198609,-3.438776 0.516266,-4.442727 0.467789,-0.65695 0.773962,-0.838481 1.309566,-0.776447 0.80891,0.09369 1.093388,1.034503 0.520909,1.722734 -0.193072,0.232109 -0.41057,1.20782 -0.48333,2.168247 -0.125672,1.658866 -0.167805,1.750336 -0.8421,1.828234 -0.512213,0.05917 -0.796526,-0.08003 -1.021311,-0.500041 z m 3.464947,-5.121299 c -0.234069,-0.282035 -0.24002,-0.520703 -0.0231,-0.926042 0.358608,-0.670062 1.224422,-0.712239 1.564812,-0.07623 0.5428,1.01423 -0.80475,1.890268 -1.541725,1.002268 z"
         id="path877"
         sodipodi:nodetypes="sssscssssssssssssssssssssssssss" />
      <path
         style="fill:#0bbdf2;stroke-width:0.264583"
         d="m 156.59336,47.238137 c -0.0686,-0.181901 0.89148,-5.093229 2.13341,-10.914062 1.24194,-5.820833 2.86359,-13.440833 3.60368,-16.933333 0.74008,-3.4925 1.46524,-6.498828 1.61146,-6.680729 0.20714,-0.257705 3.64358,-0.33073 15.56366,-0.33073 8.4138,0 15.36139,0.10286 15.43909,0.228579 0.0777,0.125717 -0.63463,3.84642 -1.58295,8.268229 -0.94832,4.421807 -2.55262,11.968713 -3.5651,16.7709 -1.01249,4.802188 -1.95746,8.999141 -2.09993,9.326563 l -0.25904,0.595312 h -15.35982 c -12.04497,0 -15.3867,-0.07138 -15.48446,-0.330729 z m 11.25376,-9.591146 c 1.04801,-1.067842 1.29353,-1.190625 2.38075,-1.190625 0.66674,0 1.89791,-0.178593 2.73595,-0.396875 0.83804,-0.218281 1.59281,-0.396875 1.67726,-0.396875 0.0845,0 0.0727,0.714375 -0.026,1.5875 -0.22637,2.000859 0.18221,2.103448 1.58062,0.396875 0.8774,-1.07075 1.08866,-1.190625 2.09827,-1.190625 7.85566,0 13.54584,-7.418067 8.95755,-11.677607 -1.04845,-0.973323 -2.08475,-1.448935 -3.96158,-1.81818 -1.36439,-0.268427 -1.96936,-0.247851 -3.88418,0.132112 -1.7081,0.338942 -2.4841,0.383011 -3.14303,0.178488 -1.66821,-0.517798 -3.06589,-0.606949 -4.74439,-0.302625 -4.62179,0.83797 -8.1691,4.174781 -8.1691,7.684344 0,1.754857 0.59049,2.962097 2.03955,4.169764 1.23671,1.030698 1.24979,1.095359 0.69183,3.419642 -0.23008,0.958387 0.47483,0.720841 1.76653,-0.595313 z m 8.64771,-1.891527 c -0.3459,-0.345898 -0.17183,-0.610301 1.49139,-2.265347 2.36974,-2.358106 3.10722,-4.73906 2.16579,-6.992231 -0.21732,-0.52011 -0.32936,-1.052065 -0.24897,-1.182126 0.20594,-0.333222 2.24438,-0.294137 3.31658,0.06359 1.27675,0.425971 2.58226,1.747636 2.78294,2.817397 0.52891,2.819331 -2.3292,5.616183 -6.17264,6.040347 -1.18681,0.130977 -1.71442,0.341358 -2.3429,0.934228 -0.44613,0.420849 -0.89262,0.683715 -0.99219,0.584142 z"
         id="path875"
         sodipodi:nodetypes="ssssssssscsscssscssssssssssccsssssssss" />
      <path
         style="fill:#9ccc51;stroke-width:0.264583"
         d="m 121.54504,47.011074 c 0,-1.174078 7.19613,-34.236344 7.49273,-34.424966 0.17186,-0.109297 7.11423,-0.200546 15.42748,-0.202774 11.78002,-0.0031 15.17272,0.06892 15.3766,0.326679 0.1797,0.227184 -0.87483,5.641109 -3.36824,17.292452 -1.99641,9.328949 -3.71392,17.097777 -3.81669,17.264062 -0.13668,0.221149 -4.33915,0.302339 -15.64937,0.302339 h -15.46251 z m 18.4684,-8.76877 c 0.13035,-0.472943 0.81418,-3.591957 1.51962,-6.931141 0.88757,-4.201388 1.42957,-6.218214 1.75979,-6.548438 0.39247,-0.392475 0.92066,-0.477192 2.97512,-0.477192 1.37386,0 2.56015,0.10069 2.63621,0.223753 0.0761,0.123063 -0.95515,1.879235 -2.29157,3.902604 -2.08507,3.156842 -2.42757,3.830619 -2.41371,4.748427 0.0394,2.607934 2.63595,4.012316 5.33433,2.885138 1.82634,-0.762907 3.23264,-2.522786 3.23264,-4.045402 0,-0.850958 -1.44142,-7.219302 -1.85091,-8.177541 -0.24357,-0.569957 -0.38907,-0.595312 -3.41618,-0.595312 -3.44281,0 -3.99332,-0.204362 -3.99332,-1.48241 0,-0.357976 -0.18619,-0.72231 -0.41375,-0.809633 -0.51909,-0.199194 -1.70292,0.320773 -1.70292,0.747964 0,0.175641 -0.25888,0.594913 -0.57529,0.931714 -0.54337,0.578395 -0.76363,0.612365 -3.97035,0.612365 h -3.39507 l -2.90881,4.415652 c -2.4372,3.699727 -2.90881,4.581263 -2.90881,5.437098 0,3.701907 4.57809,4.575085 7.36218,1.404183 1.45649,-1.658847 1.48641,-1.951709 0.58627,-5.7381 -1.15035,-4.838894 -1.30379,-4.4605 1.80874,-4.4605 2.02921,0 2.68894,0.09099 2.95122,0.407014 0.27863,0.335719 0.0983,1.529144 -1.02956,6.813021 -0.75204,3.523305 -1.36572,6.673897 -1.36372,7.001319 0.003,0.501724 0.14724,0.595313 0.91722,0.595313 0.80573,0 0.9416,-0.101537 1.15063,-0.859896 z m -10.24868,-6.796521 c -0.30599,-0.19363 -0.0574,-0.728007 1.2868,-2.766603 0.91633,-1.389642 1.82915,-2.661986 2.0285,-2.827432 0.45237,-0.375428 0.65035,0.102515 1.30647,3.153851 0.40564,1.886437 0.4202,2.240876 0.10035,2.443343 -0.48886,0.309443 -4.23208,0.306938 -4.72212,-0.0032 z m 16.48365,-0.14505 c -0.1603,-0.417738 3.23402,-5.559991 3.67007,-5.559991 0.19409,0 0.57693,1.099568 0.95517,2.743369 0.52441,2.279092 0.57003,2.782731 0.26955,2.975949 -0.57072,0.366982 -4.74497,0.231108 -4.89479,-0.159327 z m -4.65585,-7.164213 c -0.30889,-0.308885 0.11219,-0.90932 0.63769,-0.90932 0.35176,0 0.49157,0.148979 0.43167,0.459983 -0.0902,0.468612 -0.7661,0.7526 -1.06936,0.449337 z"
         id="path873"
         sodipodi:nodetypes="sscsssscssssscssssssssssscssssssscssccsssccssssssscs" />
      <path
         style="fill:#ee5644;stroke-width:0.264583"
         d="m 52.488792,47.235214 c 0,-0.18351 1.374368,-6.761713 3.054152,-14.618229 1.679784,-7.856517 3.299748,-15.475202 3.599918,-16.93041 0.30017,-1.455208 0.666787,-2.794661 0.814702,-2.976562 0.339222,-0.417164 30.76657,-0.489313 31.023517,-0.07357 0.127109,0.205663 -6.640335,32.763536 -7.164768,34.469397 -0.133464,0.434124 -1.115467,0.463021 -15.734935,0.463021 -12.370567,0 -15.592586,-0.06894 -15.592586,-0.333652 z m 23.944791,-7.30173 c 2.467666,-1.103189 3.698457,-2.087095 5.105467,-4.081357 2.527982,-3.583101 2.566908,-8.840118 0.09209,-12.437144 -4.969314,-7.222652 -15.70895,-6.337639 -19.423716,1.600634 -1.474134,3.15015 -1.253604,7.407317 0.535448,10.336373 1.301311,2.130521 3.894566,4.146735 6.334966,4.925333 1.876385,0.598649 5.641192,0.422666 7.355747,-0.343839 z m -7.216375,-1.59289 c -1.395471,-0.491001 -2.440916,-1.214459 -2.440916,-1.689134 0,-0.381911 12.392355,-12.63051 12.778745,-12.63051 0.424484,0 1.091737,1.120026 1.654159,2.776601 0.638104,1.879489 0.431842,4.863624 -0.466444,6.748399 -0.900213,1.888821 -2.564091,3.552735 -4.416539,4.416644 -1.980888,0.923806 -5.088192,1.089028 -7.109005,0.378 z M 63.951481,33.612096 C 63.29002,32.26507 63.204737,31.802721 63.207203,29.5772 c 0.0033,-2.963802 0.483378,-4.274659 2.279052,-6.222733 2.358334,-2.558492 6.070275,-3.60849 9.367798,-2.649876 1.63536,0.475414 3.034739,1.297877 3.034739,1.783625 0,0.47176 -12.269581,12.64235 -12.746686,12.643845 -0.277627,7.93e-4 -0.723037,-0.567746 -1.190625,-1.519965 z"
         id="path871"
         sodipodi:nodetypes="ssssssssssssssssssssssssscssscs" />
      <path
         style="fill:#7843a0;stroke-width:0.264583"
         d="m 17.476292,47.372538 c -0.06673,-0.1103 0.682339,-3.951015 1.66461,-8.534922 0.982268,-4.583906 2.593528,-12.144374 3.580575,-16.801041 0.987049,-4.656667 1.894289,-8.734557 2.016093,-9.061979 l 0.221459,-0.595313 h 15.360684 c 13.99268,0 15.375517,0.03865 15.527197,0.433917 0.134832,0.351367 -5.085334,25.663051 -6.758598,32.771291 l -0.435978,1.852084 -15.527354,0.06825 c -8.540043,0.03754 -15.581953,-0.02199 -15.648688,-0.132291 z m 25.489403,-7.278151 c 0.297648,-0.694497 3.173097,-14.177793 3.173097,-14.879007 0,-0.26062 -0.650957,-1.323737 -1.446569,-2.362481 -2.603421,-3.398993 -1.695712,-3.065282 -8.337707,-3.065282 -3.300121,0 -5.860587,0.106267 -5.947465,0.246837 -0.308631,0.499375 -4.392692,20.150561 -4.239392,20.398603 0.09694,0.15686 3.343679,0.256643 8.350755,0.256643 h 8.19214 z M 28.589752,38.374596 c -0.113831,-0.191807 3.00636,-15.159112 3.343132,-16.036727 0.144357,-0.376184 0.71492,-0.433586 4.309817,-0.433586 h 4.14343 l -0.205869,1.389063 c -0.422945,2.853714 -0.513361,2.701679 1.659051,2.789716 1.77849,0.07207 1.918152,0.120261 1.91716,0.661458 -0.0013,0.7917 -2.051457,10.48738 -2.375093,11.233201 -0.257368,0.593105 -0.281339,0.595312 -6.466091,0.595312 -3.414273,0 -6.260764,-0.0893 -6.325537,-0.198437 z m 11.155577,-3.07715 c 0.05254,-0.273605 -0.06501,-0.599204 -0.261234,-0.723553 -0.508791,-0.322437 -7.03684,-0.28856 -7.650197,0.0397 -0.281474,0.150641 -0.511773,0.510852 -0.511773,0.800471 0,0.506491 0.158809,0.523795 4.163836,0.45371 3.833508,-0.06708 4.171415,-0.112329 4.259368,-0.570326 z m 0.154115,-2.176679 c 0.230185,-0.08833 0.418515,-0.445516 0.418515,-0.79375 v -0.63315 h -4.083212 c -3.844724,0 -4.092977,0.03077 -4.250412,0.526798 -0.09196,0.28974 -0.09296,0.646928 -0.0021,0.79375 0.177948,0.287928 7.198394,0.38223 7.917323,0.106352 z m 1.051525,-3.352662 c 0.49811,-0.79987 -0.268671,-0.976302 -4.261723,-0.980604 -3.505242,-0.0038 -3.780459,0.03231 -4.04713,0.530584 -0.157372,0.294048 -0.212178,0.654289 -0.121793,0.800534 0.101658,0.164484 1.684864,0.238083 4.150974,0.192969 3.486703,-0.06378 4.023386,-0.13194 4.279672,-0.543483 z"
         id="path869"
         sodipodi:nodetypes="sssscssscsssssssssscsssscsscsssssssssscscsscccscssss" />
      <path
         style="fill:#231414;stroke-width:0.264583"
         d="m 60.095563,44.637257 c -0.254662,-0.148326 -0.463021,-0.538287 -0.463021,-0.86658 0,-1.350049 2.814209,-7.314311 3.451222,-7.314311 0.39637,0 1.577708,1.635247 1.401956,1.940632 -0.09759,0.169579 -0.376018,0.605983 -0.61872,0.969785 -0.242703,0.363802 -0.833406,1.647515 -1.31267,2.852695 -0.479266,1.20518 -1.086778,2.306508 -1.350031,2.447396 -0.572315,0.306295 -0.530071,0.307425 -1.108736,-0.02962 z M 80.34327,41.610796 C 80.059092,41.41175 79.491632,40.809749 79.082248,40.273021 l -0.744334,-0.975876 0.635333,-0.488463 c 0.349436,-0.268656 0.718913,-0.491112 0.821063,-0.494348 0.330462,-0.01048 1.798648,2.322232 1.798648,2.857751 0,0.681236 -0.601808,0.892503 -1.249688,0.438711 z M 65.241709,40.3722 c -0.443061,-0.443061 -0.401852,-1.534584 0.05793,-1.534584 0.560715,0 2.002224,0.881756 2.004144,1.225913 7.94e-4,0.164928 -0.266218,0.371663 -0.59364,0.459407 -0.861526,0.23088 -1.112594,0.205107 -1.468437,-0.150736 z m 2.939081,-2.644368 c -0.892431,-0.43126 -0.952227,-0.996942 -0.22202,-2.10036 0.619453,-0.936059 1.894084,-2.02211 2.096858,-1.786633 0.0483,0.05609 -0.0289,1.02472 -0.171546,2.152507 -0.275968,2.18177 -0.43744,2.346198 -1.703292,1.734486 z m 13.059392,0.139645 c -0.334291,-0.334288 -0.175136,-1.065649 0.331721,-1.524347 0.484298,-0.438285 0.521494,-0.434821 0.79375,0.07389 0.49884,0.932093 0.357174,1.626846 -0.331722,1.626846 -0.33955,0 -0.696737,-0.07937 -0.793749,-0.176389 z M 75.772125,34.3397 c -0.641329,-1.636591 -1.291762,-2.910417 -1.486096,-2.910417 -0.337735,0 -0.684903,0.99146 -1.038968,2.967136 -0.328097,1.830763 -1.710748,2.02997 -1.705356,0.245702 0.0077,-2.556962 0.198734,-2.915354 3.017509,-5.661731 l 2.668119,-2.599592 1.719792,0.162536 c 1.756701,0.166026 2.477209,0.613555 2.320372,1.441249 -0.05266,0.277878 -0.463463,0.426889 -1.330563,0.482634 -0.765421,0.04921 -1.254392,0.206267 -1.254392,0.40291 0,0.177247 0.357187,1.249871 0.79375,2.383605 0.436562,1.133737 0.79375,2.309998 0.79375,2.613917 0,0.553876 -2.58707,3.382467 -3.093651,3.382467 -0.145069,0 -0.776989,-1.309687 -1.404266,-2.910416 z m -10.993368,0.243287 c -0.09718,-0.157231 0.183647,-1.020435 0.624054,-1.918229 0.440407,-0.897792 0.875268,-1.971424 0.966359,-2.385849 0.271184,-1.233781 -0.42263,-0.723498 -1.31267,0.965433 -0.436562,0.828418 -0.911032,1.46749 -1.054375,1.420162 -0.143346,-0.04733 -0.373663,-0.48019 -0.511818,-0.961909 -0.212529,-0.741042 -0.136012,-1.095843 0.497118,-2.305103 0.952323,-1.818915 1.768824,-2.466125 3.11118,-2.466125 0.574585,0 1.001194,-0.0893 0.948018,-0.198438 -0.05318,-0.109141 -0.258583,-0.520983 -0.456457,-0.915204 -0.732369,-1.459087 1.099587,-2.779996 2.187826,-1.577504 0.544169,0.6013 0.564148,1.463228 0.04392,1.894977 -0.582509,0.483442 -0.233643,0.796169 0.888175,0.796169 0.545682,0 1.20877,0.158398 1.47353,0.351996 0.442095,0.323265 0.19249,0.64733 -3.058284,3.970628 -1.946817,1.990247 -3.681468,3.617786 -3.854781,3.616754 -0.173312,-0.0011 -0.394623,-0.130524 -0.491795,-0.287758 z m 7.727084,-8.400058 c -0.910471,-1.006057 -0.340458,-2.426562 0.973717,-2.426562 1.564336,0 1.986529,1.123841 0.849384,2.260983 -0.774798,0.774801 -1.234019,0.816507 -1.823101,0.165579 z"
         id="path867" />
    </g>
    <text
       id="text1510"
       y="41.955353"
       x="18.804317"
       style="font-size:4.93889px;line-height:1.25;font-family:'Nordic Alternative';-inkscape-font-specification:'Nordic Alternative';fill:#ffffff;stroke-width:0.264583"
       xml:space="preserve"><tspan
         style="font-style:normal;font-variant:normal;font-weight:normal;font-stretch:normal;font-size:4.93889px;font-family:'Agency FB';-inkscape-font-specification:'Agency FB';fill:#ffffff;stroke-width:0.264583"
         y="41.955353"
         x="18.804317"
         id="tspan1508"
         sodipodi:role="line">Know the Rules</tspan></text>
    <text
       xml:space="preserve"
       style="font-size:4.93889px;line-height:1.25;font-family:'Nordic Alternative';-inkscape-font-specification:'Nordic Alternative';fill:#ffffff;stroke-width:0.264583"
       x="50.837799"
       y="41.965"
       id="text1530"><tspan
         sodipodi:role="line"
         id="tspan1528"
         x="50.837799"
         y="41.965"
         style="font-style:normal;font-variant:normal;font-weight:normal;font-stretch:normal;font-size:4.93889px;font-family:'Agency FB';-inkscape-font-specification:'Agency FB';fill:#ffffff;stroke-width:0.264583">Avoid Body Contact</tspan></text>
    <text
       id="text1534"
       y="41.955353"
       x="87.029022"
       style="font-size:4.93889px;line-height:1.25;font-family:'Nordic Alternative';-inkscape-font-specification:'Nordic Alternative';fill:#ffffff;stroke-width:0.264583"
       xml:space="preserve"><tspan
         style="font-style:normal;font-variant:normal;font-weight:normal;font-stretch:normal;font-size:4.93889px;font-family:'Agency FB';-inkscape-font-specification:'Agency FB';fill:#ffffff;stroke-width:0.264583"
         y="41.955353"
         x="87.029022"
         id="tspan1532"
         sodipodi:role="line">Enjoy the Game</tspan></text>
    <text
       xml:space="preserve"
       style="font-size:4.93889px;line-height:1.25;font-family:'Nordic Alternative';-inkscape-font-specification:'Nordic Alternative';fill:#ffffff;stroke-width:0.264583"
       x="121.51935"
       y="41.955353"
       id="text1538"><tspan
         sodipodi:role="line"
         id="tspan1536"
         x="121.51935"
         y="41.955353"
         style="font-style:normal;font-variant:normal;font-weight:normal;font-stretch:normal;font-size:4.93889px;font-family:'Agency FB';-inkscape-font-specification:'Agency FB';fill:#ffffff;stroke-width:0.264583">Be Fair-Minded</tspan></text>
    <text
       id="text1542"
       y="41.955353"
       x="149.58408"
       style="font-size:4.93889px;line-height:1.25;font-family:'Nordic Alternative';-inkscape-font-specification:'Nordic Alternative';fill:#ffffff;stroke-width:0.264583"
       xml:space="preserve"><tspan
         style="font-style:normal;font-variant:normal;font-weight:normal;font-stretch:normal;font-size:4.93889px;font-family:'Agency FB';-inkscape-font-specification:'Agency FB';fill:#ffffff;stroke-width:0.264583"
         y="41.955353"
         x="149.58408"
         id="tspan1540"
         sodipodi:role="line">Communicate Respectfully</tspan></text>
  </g>
</svg>
