<?xml version="1.0" encoding="UTF-8" standalone="no"?>
<svg
   xmlns:dc="http://purl.org/dc/elements/1.1/"
   xmlns:cc="http://creativecommons.org/ns#"
   xmlns:rdf="http://www.w3.org/1999/02/22-rdf-syntax-ns#"
   xmlns:svg="http://www.w3.org/2000/svg"
   xmlns="http://www.w3.org/2000/svg"
   xmlns:sodipodi="http://sodipodi.sourceforge.net/DTD/sodipodi-0.dtd"
   xmlns:inkscape="http://www.inkscape.org/namespaces/inkscape"
   version="1.1"
   id="svg2"
   width="80"
   height="80"
   viewBox="0 0 80 80"
   sodipodi:docname="spirit-icon.svg"
   inkscape:version="1.0 (4035a4fb49, 2020-05-01)"
   inkscape:export-filename="D:\Eoghan\Tribe Website\static\ultimate\spirit-icon.png"
   inkscape:export-xdpi="180"
   inkscape:export-ydpi="180">
  <metadata
     id="metadata8">
    <rdf:RDF>
      <cc:Work
         rdf:about="">
        <dc:format>image/svg+xml</dc:format>
        <dc:type
           rdf:resource="http://purl.org/dc/dcmitype/StillImage" />
        <dc:title />
      </cc:Work>
    </rdf:RDF>
  </metadata>
  <defs
     id="defs6" />
  <sodipodi:namedview
     inkscape:document-rotation="0"
     pagecolor="#ffffff"
     bordercolor="#666666"
     borderopacity="1"
     objecttolerance="10"
     gridtolerance="10"
     guidetolerance="10"
     inkscape:pageopacity="0"
     inkscape:pageshadow="2"
     inkscape:window-width="1920"
     inkscape:window-height="1001"
     id="namedview4"
     showgrid="false"
     inkscape:zoom="3.6681164"
     inkscape:cx="-51.464021"
     inkscape:cy="74.764779"
     inkscape:window-x="-9"
     inkscape:window-y="-9"
     inkscape:window-maximized="1"
     inkscape:current-layer="g10" />
  <g
     inkscape:groupmode="layer"
     inkscape:label="Image"
     id="g10">
    <path
       style="fill:#14a098;stroke-width:0.265593;fill-opacity:1"
       d="m 43.448906,65.796953 c -0.481536,-0.194262 -3.42563,-1.976438 -5.599657,-3.389693 -0.550563,-0.3579 -0.611639,-0.338264 -0.843343,0.271162 -0.412848,1.085871 -1.542925,1.789135 -2.874971,1.789135 -0.994558,0 -1.331616,-0.145707 -2.088926,-0.903016 -0.582176,-0.582177 -0.903015,-1.158461 -0.903015,-1.621973 0,-0.579612 -0.09009,-0.682351 -0.464788,-0.530085 -1.151497,0.467928 -1.852889,0.561552 -2.63922,0.352289 -0.953695,-0.253801 -1.910156,-1.319795 -2.118394,-2.360986 l -0.139117,-0.695587 -1.10394,0.392503 c -0.982234,0.349234 -1.211462,0.347064 -2.079255,-0.01965 -1.331325,-0.562614 -1.950913,-1.588162 -1.926366,-3.188539 l 0.01984,-1.293535 -0.869028,0.16303 C 18.204761,55.064789 16.523619,53.976764 16.089223,52.348294 15.724678,50.981683 12.30747,48.150082 8.1313522,45.754163 3.9123616,43.333641 1.6264555,41.334172 1.1351484,39.634618 0.33699919,36.873623 0.55175753,30.082136 1.5647316,26.049468 2.4023453,22.714911 4.461269,20.394886 6.5930345,20.3835 c 0.9440871,-0.005 1.3010923,0.172989 8.6333295,4.30522 l 5.467601,3.081378 3.031373,-1.037911 c 1.667254,-0.570849 3.212886,-1.038648 3.434734,-1.039552 0.22185,-9.03e-4 1.270984,-0.765161 2.331408,-1.69835 1.864056,-1.640393 3.663499,-2.485586 4.6163,-2.168262 0.193119,0.06432 2.084119,0.250299 4.202222,0.413292 l 3.851098,0.296351 4.382282,2.003662 c 3.256196,1.488793 4.86002,2.072367 6.241435,2.271045 2.056399,0.295752 6.054709,0.116054 7.702193,-0.346167 1.126262,-0.315984 6.538768,-2.970759 9.428549,-4.624599 0.949495,-0.543402 2.15509,-1.047679 2.679103,-1.120615 3.459003,-0.481454 6.444773,5.365932 6.471646,12.674194 0.01111,3.023671 -0.04704,3.438389 -0.651776,4.647689 -1.092914,2.185524 -4.60687,4.389749 -9.456415,5.931795 -1.224988,0.389518 -2.227795,0.80888 -2.228463,0.931915 -7.97e-4,0.123039 0.234682,0.523589 0.522996,0.890121 2.092777,2.660533 -0.262711,6.986762 -3.804058,6.986762 -0.850224,0 -0.924927,0.07289 -1.201831,1.172575 -0.162393,0.644915 -0.598288,1.532705 -0.968661,1.972864 -0.841185,0.999694 -2.739689,1.754871 -3.927243,1.562156 -0.852653,-0.138366 -0.894147,-0.103606 -1.188132,0.995576 -0.738486,2.761122 -3.598919,4.230993 -6.216819,3.194593 -0.35371,-0.140028 -0.508362,0.04445 -0.731283,0.872308 -0.382002,1.418654 -1.216477,2.414994 -2.517569,3.005922 -1.15884,0.526317 -2.324174,0.61224 -3.248148,0.239491 z m 3.220778,-2.590501 c 0.810806,-0.810809 0.911387,-2.380679 0.205689,-3.210443 -0.255633,-0.300578 -2.008585,-1.506687 -3.895451,-2.68024 l -3.430664,-2.133736 -0.750433,2.318823 c -0.412735,1.275353 -0.701908,2.451056 -0.642602,2.612669 0.130112,0.354558 5.351045,3.628998 6.11838,3.837294 0.858091,0.232931 1.670164,-0.01944 2.395081,-0.744367 z m 6.102285,-3.364286 c 0.494815,-0.206749 1.028804,-0.617201 1.186637,-0.912115 0.359053,-0.670893 0.370989,-2.042622 0.02343,-2.69205 -0.144951,-0.270841 -2.780989,-2.068913 -5.857862,-3.995716 -5.17093,-3.238141 -5.588167,-3.556334 -5.513098,-4.204372 0.05374,-0.463987 0.26086,-0.726682 0.612399,-0.776741 0.317514,-0.04521 3.184615,1.584041 7.127558,4.050292 5.62547,3.518649 6.751138,4.125934 7.647866,4.125934 1.400177,0 2.355318,-0.917677 2.355318,-2.262929 0,-0.527507 -0.118491,-1.180521 -0.263324,-1.451137 -0.14483,-0.270614 -2.326013,-1.778193 -4.847071,-3.350178 -8.318418,-5.186865 -8.96603,-5.634694 -8.96603,-6.200091 0,-0.290293 0.226862,-0.649222 0.504139,-0.797616 0.419288,-0.224397 1.726778,0.494877 7.768593,4.273643 8.576669,5.364154 8.674041,5.412767 9.853986,4.919544 1.200222,-0.501698 1.647884,-1.136235 1.647884,-2.335793 0,-0.749328 -0.178744,-1.198931 -0.657947,-1.654983 C 64.663472,45.882201 43.422039,32.581631 42.161103,32.030031 41.722874,31.838327 40.78259,31.330628 40.071584,30.901812 38.937574,30.217877 38.513633,30.119146 36.618876,30.097711 l -2.15997,-0.02443 -2.058885,1.372471 c -1.267184,0.844714 -2.574348,1.483018 -3.399383,1.659955 -1.743809,0.37398 -2.019728,0.36487 -3.65471,-0.120664 -1.057989,-0.31419 -1.471496,-0.595921 -1.796169,-1.223773 -0.465813,-0.900782 -0.332716,-1.929393 0.347288,-2.68396 0.538989,-0.59809 0.465885,-0.589639 -1.588386,0.183585 l -1.722566,0.648372 -6.210443,-3.457052 C 10.959909,24.550834 8.0516673,22.884622 7.9128961,22.74952 7.7741237,22.61442 7.2188012,22.503882 6.6788423,22.503882 c -0.7857135,0 -1.1415024,0.181961 -1.7818729,0.911302 -2.4357184,2.774128 -3.2595132,14.135485 -1.2189278,16.810828 0.735846,0.964745 2.6808305,2.30549 6.8437834,4.717663 1.442216,0.835675 3.323567,2.164186 4.180782,2.952249 0.857213,0.788065 1.616299,1.432842 1.686854,1.432842 0.07057,0 0.312651,-0.356526 0.53799,-0.792282 1.06506,-2.059602 4.425801,-2.117317 5.447574,-0.09355 0.209109,0.414173 0.398976,0.787776 0.421924,0.830233 0.02295,0.04244 0.480186,-0.181512 1.016089,-0.497705 0.722044,-0.426015 1.222902,-0.534562 1.934081,-0.41915 1.032557,0.167561 2.469521,1.340843 2.471674,2.018122 7.97e-4,0.290803 0.179864,0.203887 0.597585,-0.290264 1.360205,-1.609077 3.225868,-1.764419 4.606718,-0.38357 0.740762,0.740762 0.903014,1.103778 0.903014,2.020362 0,0.957099 0.06666,1.090985 0.464788,0.93354 1.268937,-0.50182 2.072457,-0.439194 3.068611,0.23917 0.764759,0.520788 1.12703,0.625486 1.490738,0.430835 0.385248,-0.206177 1.369366,0.301295 4.965576,2.560566 4.017429,2.523895 7.124657,4.333007 7.442123,4.333007 0.06289,0 0.519208,-0.169156 1.014026,-0.375905 z"
       id="path867" />
  </g>
</svg>
