<?xml version="1.0" encoding="UTF-8" standalone="no"?>
<svg
   xmlns:dc="http://purl.org/dc/elements/1.1/"
   xmlns:cc="http://creativecommons.org/ns#"
   xmlns:rdf="http://www.w3.org/1999/02/22-rdf-syntax-ns#"
   xmlns:svg="http://www.w3.org/2000/svg"
   xmlns="http://www.w3.org/2000/svg"
   xmlns:sodipodi="http://sodipodi.sourceforge.net/DTD/sodipodi-0.dtd"
   xmlns:inkscape="http://www.inkscape.org/namespaces/inkscape"
   inkscape:version="1.0 (4035a4fb49, 2020-05-01)"
   sodipodi:docname="link-icon.svg"
   viewBox="0 0 80 80"
   height="80"
   width="80"
   id="svg2"
   version="1.1"
   inkscape:export-filename="D:\Eoghan\Tribe Website\static\ultimate\link-icon.png"
   inkscape:export-xdpi="180"
   inkscape:export-ydpi="180">
  <metadata
     id="metadata8">
    <rdf:RDF>
      <cc:Work
         rdf:about="">
        <dc:format>image/svg+xml</dc:format>
        <dc:type
           rdf:resource="http://purl.org/dc/dcmitype/StillImage" />
        <dc:title></dc:title>
      </cc:Work>
    </rdf:RDF>
  </metadata>
  <defs
     id="defs6" />
  <sodipodi:namedview
     inkscape:current-layer="g10"
     inkscape:window-maximized="1"
     inkscape:window-y="-9"
     inkscape:window-x="-9"
     inkscape:cy="62.185656"
     inkscape:cx="-26.933613"
     inkscape:zoom="5.1875"
     showgrid="false"
     id="namedview4"
     inkscape:window-height="1001"
     inkscape:window-width="1920"
     inkscape:pageshadow="2"
     inkscape:pageopacity="0"
     guidetolerance="10"
     gridtolerance="10"
     objecttolerance="10"
     borderopacity="1"
     bordercolor="#666666"
     pagecolor="#ffffff"
     inkscape:document-rotation="0" />
  <g
     id="g10"
     inkscape:label="Image"
     inkscape:groupmode="layer">
    <path
       style="fill:#14a098;fill-opacity:0.952941;stroke-width:3.72581"
       id="Shape_2_"
       fill="#3366bb"
       d="M 67.928661,6.3072221 C 77.316477,14.184255 78.542455,28.17899 70.664453,37.570404 l -8.619458,10.272768 c -1.229357,1.464215 -2.609918,2.729768 -4.095605,3.797436 -0.210422,0.151906 -0.420586,0.288458 -0.630751,0.425006 -0.08046,0.05558 -0.16094,0.111181 -0.244036,0.162188 -0.572842,0.367237 -1.078391,0.656075 -1.591842,0.93122 -4.165713,2.216464 -8.921597,3.036615 -13.538925,2.389565 -0.08109,-0.01402 -0.160538,-0.01987 -0.24164,-0.03389 -0.537264,-0.08224 -0.980443,-0.170131 -1.418093,-0.264254 -0.528583,-0.114647 -1.052346,-0.247268 -1.570325,-0.40149 -2.82645,-0.838342 -5.528365,-2.256627 -7.931966,-4.269993 -2.402636,-2.016965 -4.26167,-4.436003 -5.5802,-7.072793 l 2.871868,-3.419459 c 1.394477,-1.662978 3.27874,-2.677849 5.267315,-3.01675 0.01793,0.06266 0.02866,0.123406 0.04657,0.186056 0.624037,2.176837 1.877069,4.194347 3.741443,5.758506 1.914245,1.608378 4.194872,2.497193 6.512319,2.701568 0.0027,0.0046 0.547802,0.100499 1.464895,0.0608 0.417865,-0.01919 0.904882,-0.06612 1.46877,-0.169603 2.677974,-0.435757 5.221452,-1.794719 7.103829,-4.040556 l 1.806662,-2.150407 1.088278,-1.29758 1.115917,-1.328752 5.418317,-6.459383 C 67.278242,25.361332 66.62927,17.951242 61.659998,13.780793 56.690727,9.6103455 49.280634,10.259318 45.110186,15.22859 l -4.753279,5.661698 -0.703731,0.841321 c -4.648596,-0.991009 -9.498721,-0.639694 -13.956539,0.99706 0.118333,-0.2113 0.234028,-0.427163 0.359563,-0.636535 0.581955,-0.962667 1.246424,-1.887797 1.989813,-2.77635 L 36.670041,9.0403785 C 44.547075,-0.34743808 58.545408,-1.5724478 67.928661,6.3072221 Z M 25.79711,38.246298 l -1.806662,2.150406 -1.088278,1.297585 -1.115916,1.32875 -5.418319,6.459386 c -4.170447,4.969271 -3.521475,12.379364 1.447797,16.549812 4.969272,4.170447 12.379365,3.521475 16.549812,-1.447797 l 4.754245,-5.665296 0.703731,-0.841323 c 4.648596,0.991011 9.499683,0.636095 13.956537,-0.997058 -0.118333,0.211299 -0.234028,0.427161 -0.359561,0.636532 -0.581956,0.962668 -1.247391,1.891396 -1.989813,2.776352 L 42.811225,70.76642 C 34.934191,80.154236 20.935858,81.379245 11.548041,73.502208 2.1602247,65.625175 0.93425129,51.63044 8.812251,42.239026 l 8.619457,-10.272771 c 1.230324,-1.467813 2.607283,-2.73433 4.095604,-3.797433 0.210422,-0.151907 0.420586,-0.288458 0.627153,-0.425971 0.08046,-0.05558 0.16094,-0.11118 0.2414,-0.166752 0.572842,-0.367235 1.07839,-0.656071 1.591842,-0.93122 4.165713,-2.216464 8.921598,-3.036613 13.538925,-2.389564 0.08016,0.01757 0.16317,0.02445 0.240675,0.0375 0.537265,0.08224 0.980442,0.170129 1.420724,0.268824 0.528587,0.114631 1.052347,0.247267 1.570326,0.401488 2.82645,0.838343 5.528365,2.256629 7.931965,4.269995 2.402638,2.016966 4.265269,4.436967 5.580201,7.072793 l -2.872829,3.423054 c -1.394479,1.66298 -3.282342,2.676885 -5.270917,3.015786 -0.01434,-0.0617 -0.02866,-0.123406 -0.04657,-0.186056 -0.62044,-2.175874 -1.87707,-4.194347 -3.741445,-5.758507 -1.909682,-1.61101 -4.190308,-2.499823 -6.50872,-2.7006 -0.0036,-9.78e-4 -0.547803,-0.100499 -1.465858,-0.05719 -0.417866,0.01919 -0.903919,0.06251 -1.467805,0.166005 -2.677976,0.435755 -5.217855,1.795681 -7.099267,4.037916 z" />
  </g>
</svg>
