<?xml version="1.0" encoding="UTF-8" standalone="no"?>
<svg
   xmlns:dc="http://purl.org/dc/elements/1.1/"
   xmlns:cc="http://creativecommons.org/ns#"
   xmlns:rdf="http://www.w3.org/1999/02/22-rdf-syntax-ns#"
   xmlns:svg="http://www.w3.org/2000/svg"
   xmlns="http://www.w3.org/2000/svg"
   xmlns:xlink="http://www.w3.org/1999/xlink"
   xmlns:sodipodi="http://sodipodi.sourceforge.net/DTD/sodipodi-0.dtd"
   xmlns:inkscape="http://www.inkscape.org/namespaces/inkscape"
   inkscape:export-ydpi="96"
   inkscape:export-xdpi="96"
   inkscape:export-filename="D:\Eoghan\EoghanStaunton.github.io\static\favicon\android-chrome-256x256.png"
   inkscape:version="1.0 (4035a4fb49, 2020-05-01)"
   sodipodi:docname="android-chrome-256x256.svg"
   viewBox="0 0 256 256"
   height="256"
   width="256"
   id="svg2"
   version="1.1">
  <metadata
     id="metadata8">
    <rdf:RDF>
      <cc:Work
         rdf:about="">
        <dc:format>image/svg+xml</dc:format>
        <dc:type
           rdf:resource="http://purl.org/dc/dcmitype/StillImage" />
        <dc:title></dc:title>
      </cc:Work>
    </rdf:RDF>
  </metadata>
  <defs
     id="defs6">
    <linearGradient
       gradientUnits="userSpaceOnUse"
       y2="1.6656761"
       x2="237.3262"
       y1="9.7354679"
       x1="218.6898"
       id="linearGradient1433-5"
       xlink:href="#linearGradient1431"
       inkscape:collect="always"
       gradientTransform="matrix(9.1218313,0,0,9.1218313,-1984.894,85.462342)" />
    <linearGradient
       inkscape:collect="always"
       id="linearGradient1431">
      <stop
         style="stop-color:#00b5ae;stop-opacity:1"
         offset="0"
         id="stop1427" />
      <stop
         style="stop-color:#90009e;stop-opacity:1"
         offset="1"
         id="stop1429" />
    </linearGradient>
  </defs>
  <sodipodi:namedview
     inkscape:current-layer="g10"
     inkscape:window-maximized="1"
     inkscape:window-y="-9"
     inkscape:window-x="-9"
     inkscape:cy="164.4402"
     inkscape:cx="71.392441"
     inkscape:zoom="2.2925728"
     showgrid="false"
     id="namedview4"
     inkscape:window-height="1001"
     inkscape:window-width="1920"
     inkscape:pageshadow="2"
     inkscape:pageopacity="0"
     guidetolerance="10"
     gridtolerance="10"
     objecttolerance="10"
     borderopacity="1"
     bordercolor="#666666"
     pagecolor="#ffffff" />
  <g
     id="g10"
     inkscape:label="Image"
     inkscape:groupmode="layer">
    <path
       id="path1423-4"
       style="color:#000000;font-style:normal;font-variant:normal;font-weight:normal;font-stretch:normal;font-size:medium;line-height:normal;font-family:sans-serif;font-variant-ligatures:normal;font-variant-position:normal;font-variant-caps:normal;font-variant-numeric:normal;font-variant-alternates:normal;font-variant-east-asian:normal;font-feature-settings:normal;font-variation-settings:normal;text-indent:0;text-align:start;text-decoration:none;text-decoration-line:none;text-decoration-style:solid;text-decoration-color:#000000;letter-spacing:normal;word-spacing:normal;text-transform:none;writing-mode:lr-tb;direction:ltr;text-orientation:mixed;dominant-baseline:auto;baseline-shift:baseline;text-anchor:start;white-space:normal;shape-padding:0;shape-margin:0;inline-size:0;clip-rule:nonzero;display:inline;overflow:visible;visibility:visible;isolation:auto;mix-blend-mode:normal;color-interpolation:sRGB;color-interpolation-filters:linearRGB;solid-color:#000000;solid-opacity:1;vector-effect:none;fill:url(#linearGradient1433-5);fill-opacity:1;fill-rule:nonzero;stroke:none;stroke-width:7.55906;stroke-linecap:round;stroke-linejoin:round;stroke-miterlimit:4;stroke-dasharray:none;stroke-dashoffset:0;stroke-opacity:1;color-rendering:auto;image-rendering:auto;shape-rendering:auto;text-rendering:auto;enable-background:accumulate;stop-color:#000000"
       d="m 106.09506,10.003622 c -4.25989,0.02172 -8.43787,2.314272 -10.742871,5.897013 a 0.14596388,0.14596388 0 0 0 0,0.03743 L 58.848267,72.914212 c -2.140407,3.336299 -2.625737,7.66626 -1.249152,11.383917 1.376484,3.71759 4.574606,6.701235 8.37173,7.839101 l 85.645715,25.67157 58.50814,91.52387 -12.63307,-3.79465 -49.29732,-76.87796 c -1.81462,-2.83125 -4.7658,-4.90805 -8.05119,-5.62833 -3.28532,-0.72027 -6.84459,-0.0867 -9.67754,1.72528 -2.83126,1.81462 -4.90804,4.77054 -5.62831,8.05593 -0.72065,3.28527 -0.0819,6.83988 1.73,9.67279 l 51.86154,80.90359 c 1.64064,2.55724 4.21655,4.50629 7.12732,5.37849 l 50.32964,15.1267 c 4.99113,1.50101 10.80526,-0.386 13.94836,-4.54414 3.14295,-4.15805 3.37619,-10.2675 0.57008,-14.66003 L 170.69339,99.976525 v -0.01907 a 0.14596388,0.14596388 0 0 0 0,-0.01907 c -1.64237,-2.55518 -4.23221,-4.489298 -7.14136,-5.359652 L 89.648462,72.414314 106.16575,46.653192 124.58741,75.516003 c 1.81467,2.831258 4.76585,4.908062 8.05127,5.628345 3.28522,0.720252 6.84459,0.08209 9.67753,-1.729985 2.83535,-1.810692 4.92212,-4.765505 5.64714,-8.05124 0.72522,-3.285792 0.0819,-6.837155 -1.72994,-9.672785 L 116.99809,15.938267 c -2.3304,-3.641104 -6.57963,-5.9661607 -10.90303,-5.934733 z m 0,0.287548 c 4.21739,-0.03074 8.37942,2.235965 10.65332,5.788594 l 29.23518,45.752494 c 1.76743,2.768725 2.39985,6.253816 1.69228,9.460669 -0.70785,3.206916 -2.73753,6.108977 -5.50574,7.876836 -2.76561,1.769063 -6.25386,2.395356 -9.4607,1.692266 -3.20676,-0.703021 -6.10036,-2.727235 -7.87213,-5.491612 L 106.28834,46.3143 a 0.14596388,0.14596388 0 0 0 -0.24531,0 L 89.294675,72.433687 a 0.14596388,0.14596388 0 0 0 0.0909,0.212085 l 74.096815,22.216313 c 2.84123,0.849972 5.36386,2.728858 6.96701,5.222935 a 0.14596388,0.14596388 0 0 0 0,0.0146 l 79.70483,124.73285 c 2.73528,4.2822 2.49355,10.28594 -0.57009,14.3395 -3.06408,4.05348 -8.76155,5.90393 -13.62789,4.44042 L 185.62668,228.4858 c -2.84181,-0.85152 -5.34603,-2.73985 -6.94819,-5.23705 l -51.86608,-80.90372 c -1.76913,-2.76554 -2.39544,-6.25385 -1.6923,-9.46067 0.70329,-3.20671 2.72258,-6.10508 5.48688,-7.87683 2.7655,-1.76907 6.25392,-2.39537 9.46069,-1.69228 3.20676,0.70302 6.10508,2.72254 7.87685,5.48692 l 49.33028,76.92981 a 0.14596388,0.14596388 0 0 0 0.0912,0.0711 l 13.06198,3.92191 a 0.14596388,0.14596388 0 0 0 0.16074,-0.21209 l -58.75989,-91.89704 a 0.14596388,0.14596388 0 0 0 -0.0909,-0.0711 L 66.04033,91.854313 C 62.334681,90.743899 59.223811,87.817108 57.88068,84.189596 56.537617,80.562127 57.003129,76.311618 59.092101,73.055513 L 95.600805,16.060528 a 0.14596388,0.14596388 0 0 0 0,-0.0147 c 2.248661,-3.495207 6.336835,-5.733986 10.493025,-5.755606 z m 0,0.391228 c -4.03603,0.02038 -7.988997,2.182513 -10.172513,5.576474 L 59.413906,73.253869 c -2.02778,3.16077 -2.477852,7.291549 -1.173689,10.813532 1.304028,3.521883 4.33108,6.351014 7.928646,7.429031 l 85.871997,25.742258 59.59698,93.24912 -14.57522,-4.37915 -49.43872,-77.10894 c -1.71899,-2.68216 -4.52909,-4.62554 -7.64103,-5.3078 -3.11247,-0.68239 -6.49438,-0.0811 -9.17786,1.63573 -2.68222,1.71905 -4.62561,4.53387 -5.30782,7.64584 -0.68232,3.11241 -0.0819,6.48969 1.63572,9.17313 l 51.86631,80.90356 c 1.55425,2.42252 3.99317,4.25068 6.75021,5.07682 l 50.32964,15.12668 c 4.72928,1.42234 10.22573,-0.38785 13.20355,-4.32727 2.97776,-3.93952 3.20979,-9.7207 0.55191,-13.88227 a 0.1824549,0.1824549 0 0 0 0,-0.0146 L 170.12301,100.29725 c -1.55983,-2.426709 -4.00339,-4.255675 -6.76903,-5.076793 L 88.616139,72.80614 106.16575,45.423448 125.15776,75.158342 a 0.1824549,0.1824549 0 0 0 0,0.01905 c 1.71912,2.682147 4.52921,4.625536 7.64117,5.307787 3.10715,0.681216 6.47814,0.07389 9.15895,-1.63572 2.68602,-1.715332 4.63994,-4.533484 5.32674,-7.645848 0.68685,-3.11217 0.0932,-6.453994 -1.62163,-9.140114 a 0.1824549,0.1824549 0 0 0 0,-0.03275 L 116.4278,16.278341 c -2.20791,-3.449597 -6.23703,-5.625116 -10.33274,-5.595328 z m 0,0.358343 c 3.96374,-0.02908 7.87525,2.110496 10.01221,5.449185 l 29.23519,45.752499 a 0.1824549,0.1824549 0 0 0 0,0.01905 c 1.66156,2.602373 2.25369,5.856934 1.58857,8.871443 -0.665,3.014345 -2.58347,5.729785 -5.18516,7.391297 -2.59761,1.656711 -5.86813,2.266913 -8.87622,1.607406 -3.01425,-0.660785 -5.72615,-2.568263 -7.39134,-5.166355 a 0.1824549,0.1824549 0 0 0 0,-0.01905 L 106.32607,44.961501 a 0.1824549,0.1824549 0 0 0 -0.3205,0 L 88.154307,72.80614 a 0.1824549,0.1824549 0 0 0 0.108612,0.287549 l 74.987671,22.480289 c 2.67958,0.795602 5.04082,2.583974 6.55222,4.935382 l 79.71111,124.69514 v 0.019 a 0.1824549,0.1824549 0 0 0 0,0.0374 c 2.57064,4.02425 2.36081,9.63931 -0.51794,13.44856 -2.87954,3.80938 -8.23512,5.56106 -12.80759,4.1859 l -50.32968,-15.12191 c -2.67118,-0.80045 -5.03227,-2.58834 -6.53806,-4.93539 l -51.86163,-80.90364 c -1.66278,-2.59947 -2.26823,-5.87652 -1.60745,-8.89032 0.66133,-3.01422 2.56822,-5.73079 5.16632,-7.396 2.5995,-1.66281 5.8766,-2.26344 8.89035,-1.6027 3.01422,0.66078 5.73075,2.56826 7.39596,5.16637 l 49.47652,77.16078 a 0.1824549,0.1824549 0 0 0 0.10394,0.0711 l 15.14564,4.54413 a 0.1824549,0.1824549 0 0 0 0.21254,-0.28281 l -59.9146,-93.73027 a 0.1824549,0.1824549 0 0 0 -0.10861,-0.0711 L 66.277042,91.137754 c -3.48257,-1.043543 -6.416472,-3.802879 -7.67886,-7.212171 -1.262354,-3.409167 -0.822775,-7.399912 1.14067,-10.460009 L 96.242874,16.470582 c 2.11347,-3.285086 5.946156,-5.410604 9.851896,-5.430338 z m 0,0.480819 c -3.76513,0.02038 -7.442432,2.03289 -9.479476,5.199371 L 60.111556,73.715919 c -1.891625,2.94844 -2.30547,6.76432 -1.088869,10.0499 1.216668,3.285829 4.039685,5.94248 7.395923,6.948202 l 86.15955,25.812969 60.98292,95.38921 -17.03108,-5.09567 -49.59897,-77.35875 c -1.60338,-2.50164 -4.22424,-4.33195 -7.12736,-4.9684 -2.90319,-0.63643 -6.03388,-0.0693 -8.53673,1.53201 -2.50167,1.60337 -4.33198,4.22423 -4.96836,7.1273 -0.63669,2.90319 -0.0729,6.02923 1.53198,8.53205 l 51.8615,80.90358 c 1.44974,2.25961 3.73553,3.98565 6.30719,4.75627 l 50.32964,15.12671 c 4.4137,1.3274 9.51511,-0.36845 12.29367,-4.04449 2.77908,-3.67648 2.99952,-9.05083 0.51906,-12.93476 L 169.43071,100.75921 c -1.45496,-2.263493 -3.74615,-3.990304 -6.32601,-4.756258 L 87.315554,73.286972 106.16628,43.87264 125.85121,74.715252 c 1.60344,2.501623 4.22432,4.331912 7.12731,4.968399 2.90328,0.636434 6.03396,0.06932 8.5368,-1.532012 2.50573,-1.600207 4.32794,-4.224808 4.96841,-7.127311 0.6403,-2.902882 0.0818,-6.026388 -1.51318,-8.532045 L 115.73534,16.73979 c -2.06023,-3.218824 -5.81886,-5.246002 -9.63977,-5.21823 z m 0,0.532624 c 3.62355,-0.02674 7.22,1.9216 9.17313,4.973108 l 29.23993,45.747787 c 1.51868,2.379265 2.05063,5.389193 1.44239,8.145509 -0.60842,2.756657 -2.34474,5.250129 -4.72327,6.769054 -2.37695,1.521077 -5.38521,2.065412 -8.1408,1.461292 -2.7556,-0.604136 -5.24641,-2.347577 -6.76899,-4.723265 L 106.39676,43.231503 a 0.27368228,0.27368228 0 0 0 -0.46154,0 L 86.655605,73.305785 a 0.27368228,0.27368228 0 0 0 0.160084,0.410104 l 76.147391,22.824398 c 2.44994,0.727371 4.62333,2.35633 6.00537,4.506423 l 79.70629,124.72815 c 2.34891,3.67733 2.15053,8.85037 -0.48069,12.33138 -2.63165,3.48151 -7.54504,5.08424 -11.72335,3.82764 l -50.32964,-15.12671 c -2.44237,-0.73184 -4.60974,-2.36036 -5.98656,-4.50643 l -51.86164,-80.90357 c -1.52095,-2.37696 -2.06537,-5.38526 -1.46116,-8.1408 0.60384,-2.75563 2.34744,-5.24641 4.72312,-6.76906 2.37699,-1.52107 5.38529,-2.06541 8.14093,-1.46129 2.75561,0.60414 5.24637,2.34759 6.76899,4.72327 l 49.6555,77.44362 a 0.27368228,0.27368228 0 0 0 0.16075,0.12723 l 17.83246,5.3455 a 0.27368228,0.27368228 0 0 0 0.30178,-0.41011 l -61.42704,-96.10098 a 0.27368228,0.27368228 0 0 0 -0.16075,-0.12723 L 66.559576,90.176618 c -3.183552,-0.953933 -5.883885,-3.473467 -7.037823,-6.589945 -1.153971,-3.116678 -0.743402,-6.790177 1.051271,-9.587934 L 97.076951,17.008464 c 1.931868,-3.002954 5.446919,-4.935612 9.017549,-4.95426 z m 0.0168,0.410107 c -3.45286,0.01838 -6.828112,1.851361 -8.697011,4.756278 a 0.36490972,0.36490972 0 0 0 0,0.01905 0.36490972,0.36490972 0 0 0 -0.01675,0.01905 L 60.912909,74.23479 c -1.727063,2.702092 -2.113269,6.202523 -0.999269,9.210843 1.115405,3.01244 3.676778,5.436609 6.754885,6.35897 l 86.513015,25.902547 62.55269,97.84983 -19.81238,-5.91587 -49.79688,-77.67932 c -1.47001,-2.29353 -3.85792,-3.96067 -6.51929,-4.54413 -2.66192,-0.58361 -5.52555,-0.0584 -7.82022,1.40944 a 0.36490972,0.36490972 0 0 0 -0.0168,0 c -2.29354,1.46996 -3.96055,3.85784 -4.54411,6.51922 -0.57559,2.62403 -0.0642,5.43866 1.35757,7.71656 a 0.36490972,0.36490972 0 0 0 0,0.005 0.36490972,0.36490972 0 0 0 0.0548,0.099 0.36490972,0.36490972 0 0 0 0,0.019 l 51.86163,80.90356 c 1.32886,2.0714 3.39838,3.63983 5.75551,4.34616 l 50.32968,15.12671 c 2.01933,0.60733 4.21321,0.58389 6.21756,-0.0712 2.00451,-0.65477 3.80488,-1.95169 5.07675,-3.63437 1.27174,-1.68236 2.00536,-3.73916 2.08837,-5.84516 0.0819,-2.10674 -0.48603,-4.22858 -1.62171,-6.00544 L 168.66802,101.34882 a 0.36490972,0.36490972 0 0 0 -0.0374,-0.0711 0.36490972,0.36490972 0 0 0 0,-0.0191 c -1.33378,-2.074455 -3.40981,-3.643993 -5.77436,-4.346061 L 85.855557,73.824151 106.1676,42.128311 126.62091,74.12583 a 0.36490972,0.36490972 0 0 0 0.0374,0.07118 0.36490972,0.36490972 0 0 0 0,0.01905 c 1.47003,2.293538 3.86264,3.960676 6.52405,4.544131 2.66191,0.58362 5.5254,0.05842 7.82017,-1.409423 2.29685,-1.466746 3.97558,-3.85711 4.56305,-6.519234 0.58743,-2.661249 0.0729,-5.522646 -1.39066,-7.820266 L 114.93886,17.258367 c -1.88901,-2.951445 -5.31411,-4.819461 -8.81956,-4.793971 z m 0,0.711773 c 3.24006,-0.02406 6.46399,1.743293 8.21148,4.473422 l 29.23518,45.752495 c 1.35894,2.128623 1.8265,4.816327 1.28218,7.282889 -0.54369,2.46566 -2.1089,4.702504 -4.2377,6.061994 -2.12688,1.360529 -4.8222,1.836856 -7.28765,1.296309 -2.44941,-0.537008 -4.65932,-2.081991 -6.02425,-4.185905 a 0.36490972,0.36490972 0 0 0 -0.0133,-0.01905 c -0.003,-0.0074 -0.0167,-0.007 -0.0167,-0.0137 a 0.36490972,0.36490972 0 0 0 0,-0.01905 L 106.46817,41.256421 a 0.36490972,0.36490972 0 0 0 -0.60294,0 l -20.882345,32.58204 a 0.36490972,0.36490972 0 0 0 0.197841,0.556249 l 77.462484,23.229783 c 2.1765,0.646277 4.10746,2.089999 5.34541,3.992617 0.0133,0.0146 0.0234,0.0191 0.0374,0.0327 a 0.36490972,0.36490972 0 0 0 0,0.0191 l 79.71093,124.73284 c 1.05316,1.6488 1.5905,3.62147 1.51316,5.57647 -0.0728,1.95572 -0.76258,3.8888 -1.94209,5.44918 -1.17927,1.56006 -2.85917,2.75833 -4.71852,3.36569 -1.85968,0.60733 -3.91997,0.62001 -5.79335,0.0566 l -50.32967,-15.12668 c -2.18614,-0.65504 -4.12741,-2.10502 -5.3596,-4.02562 L 129.2783,140.84564 v -0.0191 a 0.36490972,0.36490972 0 0 0 -0.0374,-0.0327 0.36490972,0.36490972 0 0 0 0,-0.019 c -1.36054,-2.12686 -1.83691,-4.82217 -1.29635,-7.28759 0.53731,-2.44942 2.08197,-4.65468 4.18594,-6.01959 a 0.36490972,0.36490972 0 0 0 0.0168,-0.019 c 0.004,-0.004 0.004,-0.0146 0.0168,-0.019 a 0.36490972,0.36490972 0 0 0 0.0167,0 c 2.12687,-1.36053 4.82216,-1.84156 7.2876,-1.301 2.46607,0.54065 4.69474,2.09779 6.05728,4.2236 l 49.86761,77.78772 a 0.36490972,0.36490972 0 0 0 0.19351,0.16029 l 20.88193,6.2502 a 0.36490972,0.36490972 0 0 0 0.41037,-0.5515 l -63.16935,-98.78704 a 0.36490972,0.36490972 0 0 0 -0.19785,-0.16029 L 66.871654,89.092854 c -2.847646,-0.853349 -5.255617,-3.108287 -6.288236,-5.896992 -1.030417,-2.782748 -0.674122,-6.068732 0.923838,-8.56978 L 98.015964,17.631101 a 0.36490972,0.36490972 0 0 0 0,-0.01905 c 1.727565,-2.685242 4.894706,-4.419064 8.088966,-4.43572 z m 0,0.551506 a 9.1227428,9.1227428 0 0 0 -7.627066,4.190611 L 61.980788,74.908467 a 9.1227428,9.1227428 0 0 0 5.058006,13.665414 l 86.960796,26.067529 64.65492,101.14007 -23.55497,-7.07547 -50.04203,-78.05169 a 9.1218313,9.1218313 0 0 0 -12.59543,-2.7576 9.1218313,9.1218313 0 0 0 -2.76228,12.59537 l 51.86153,80.90357 a 9.1227428,9.1227428 0 0 0 5.058,3.80879 l 50.32961,15.1267 A 9.1227428,9.1227428 0 0 0 247.26757,226.6846 L 167.5568,101.95644 a 9.1227428,9.1227428 0 0 0 -5.07679,-3.813499 L 83.857919,74.56906 106.16384,39.757374 127.72017,73.517867 a 9.1218313,9.1218313 0 0 0 12.59546,2.762306 9.1218313,9.1218313 0 0 0 2.78117,-12.595372 L 113.86159,17.932309 a 9.1227428,9.1227428 0 0 0 -7.74955,-4.204758 z M 51.501939,94.97056 a 0.14596388,0.14596388 0 0 0 -0.103938,0.05217 c -4.170124,0.119143 -8.229894,2.367794 -10.478783,5.88287 L 4.7358402,157.38208 c -2.1404055,3.33631 -2.6209901,7.66628 -1.2444403,11.38391 1.3765512,3.7176 4.574544,6.70126 8.3717641,7.83911 l 128.291856,38.53563 c 3.22315,0.97061 6.81571,0.6138 9.78116,-0.98048 2.96532,-1.5942 5.2494,-4.40281 6.21759,-7.627 0.96964,-3.22675 0.60478,-6.82941 -0.99462,-9.79534 -1.59659,-2.96118 -4.40498,-5.23784 -7.62697,-6.20343 a 0.14596388,0.14596388 0 0 0 -0.0374,0 L 35.541043,156.8824 l 5.147403,-7.98052 70.943334,21.39611 c 4.99815,1.51198 10.82114,-0.39542 13.9672,-4.56301 3.14252,-4.16291 3.36957,-10.26861 0.55642,-14.66 a 0.14596388,0.14596388 0 0 0 0,-0.019 l -23.76725,-37.05543 v -0.019 a 0.14596388,0.14596388 0 0 0 0,-0.019 c -1.58235,-2.4628 -4.025147,-4.36419 -6.806688,-5.27504 a 0.14596388,0.14596388 0 0 0 -0.05483,0 L 55.760728,95.592529 a 0.14596388,0.14596388 0 0 0 -0.03743,0 h -0.03743 c -1.325652,-0.427158 -2.707984,-0.622016 -4.101012,-0.60341 -0.0234,4.1e-4 -0.05481,-0.01905 -0.09091,-0.01905 z m 0,0.282837 c 1.402117,-0.02908 2.799856,0.193035 4.133964,0.626945 a 0.14596388,0.14596388 0 0 0 0.05481,0 l 39.761311,13.095068 a 0.14596388,0.14596388 0 0 0 0.01671,0 c 2.716203,0.88947 5.120366,2.72428 6.665416,5.12865 a 0.14596388,0.14596388 0 0 0 0,0.019 l 23.74833,37.04132 a 0.14596388,0.14596388 0 0 0 0.0168,0.0522 c 2.74285,4.28138 2.51205,10.2811 -0.55182,14.33949 -3.06726,4.06314 -8.77871,5.9286 -13.65131,4.45457 L 40.649048,148.58156 a 0.14596388,0.14596388 0 0 0 -0.160752,0.0711 l -5.312465,8.24923 a 0.14596388,0.14596388 0 0 0 0.09124,0.21208 L 147.44085,190.8226 a 0.14596388,0.14596388 0 0 0 0.0374,0 c 3.14029,0.9451 5.8729,3.17113 7.42912,6.05729 1.56079,2.89491 1.90817,6.43327 0.96153,9.58322 -0.94515,3.14764 -3.18164,5.89175 -6.07612,7.44787 -2.8943,1.55602 -6.42192,1.89049 -9.56911,0.94279 L 11.931474,176.31738 C 8.22586,175.20696 5.1150609,172.2849 3.7718299,168.65738 2.4287674,165.02993 2.8943127,160.77942 4.9832515,157.5233 L 41.166695,101.04681 c 2.216338,-3.463975 6.221633,-5.718528 10.332771,-5.793303 z m 0.01671,0.395968 c -3.992228,0.07208 -7.879215,2.227381 -10.030985,5.590625 L 5.3058928,157.71648 c -2.0278126,3.16076 -2.4778845,7.29627 -1.1737561,10.81825 1.3040288,3.52184 4.3312097,6.35097 7.9287103,7.42902 l 128.291813,38.53558 c 3.05372,0.91968 6.45415,0.56721 9.26266,-0.94274 2.80891,-1.51007 4.97973,-4.16239 5.89708,-7.21689 0.91856,-3.05665 0.57195,-6.47206 -0.94282,-9.28155 -1.51481,-2.80956 -4.17734,-4.97071 -7.23571,-5.88286 l -112.825743,-33.90194 5.878139,-9.17311 71.442934,21.55637 c 4.73182,1.42283 10.24049,-0.38802 13.21755,-4.332 2.98086,-3.94876 3.21283,-9.74868 0.53733,-13.91054 l -23.76722,-37.09318 c -1.5012,-2.33621 -3.826897,-4.13072 -6.467411,-4.99195 L 55.531196,96.23387 C 54.23843,95.813361 52.879493,95.621061 51.519785,95.649341 Z m 0,0.35352 c 1.318065,-0.02707 2.64893,0.181272 3.903129,0.58927 L 95.239533,109.6872 c 2.558134,0.83436 4.800467,2.58181 6.255317,4.84582 l 23.76709,37.09318 c 2.5868,4.02402 2.38257,9.66828 -0.49987,13.48629 -2.87855,3.81321 -8.25128,5.56153 -12.82626,4.1859 l -71.570398,-21.5941 a 0.1824549,0.1824549 0 0 0 -0.211886,0.0711 l -6.113853,9.49838 a 0.1824549,0.1824549 0 0 0 0.108617,0.28287 l 113.08028,33.97735 c 2.96274,0.88363 5.55182,2.97812 7.0189,5.69903 1.46713,2.72099 1.79952,6.03801 0.90941,8.99871 -0.88845,2.95818 -3.00188,5.53735 -5.72257,7.00004 -2.72095,1.46289 -6.01757,1.80045 -8.97513,0.90972 L 12.16378,175.60546 C 8.681246,174.5619 5.7472735,171.79785 4.4848866,168.38857 3.2226671,164.97943 3.6621445,160.99339 5.6256904,157.93328 L 41.809102,101.4568 c 2.082856,-3.255435 5.846656,-5.383917 9.71055,-5.453905 z m 0.01671,0.480819 c -3.72423,0.06751 -7.344524,2.084964 -9.352217,5.222966 L 5.9944425,158.18314 c -1.8916249,2.94843 -2.3007234,6.75958 -1.0841229,10.04519 1.2166018,3.28581 4.0349393,5.94245 7.3912104,6.94818 l 128.27768,38.54032 c 2.84875,0.85782 6.02055,0.53182 8.6405,-0.87678 2.62022,-1.4087 4.65017,-3.90131 5.50574,-6.75021 0.85652,-2.85076 0.54094,-6.0014 -0.87207,-8.62161 -1.41295,-2.6208 -3.91577,-4.65479 -6.76897,-5.50576 l -113.881525,-34.20833 6.820893,-10.62026 72.032142,21.7355 c 4.4199,1.33709 9.54491,-0.35476 12.32673,-4.03976 2.78166,-3.68491 2.9964,-9.06959 0.49986,-12.95361 l -23.76819,-37.09323 c -1.400041,-2.17894 -3.556734,-3.86344 -6.019436,-4.66671 L 55.277068,97.021032 c -1.206475,-0.392351 -2.476147,-0.563728 -3.742778,-0.53737 z m 0,0.537368 c 1.206742,-0.0254 2.417461,0.159916 3.563711,0.532621 l 39.817722,13.095067 c 2.339222,0.76296 4.406411,2.34656 5.736838,4.41685 l 23.7671,37.09319 c 2.3639,3.67729 2.17207,8.8563 -0.46153,12.34554 -2.63389,3.48915 -7.57726,5.098 -11.76102,3.83235 L 39.972587,146.54934 a 0.27368228,0.27368228 0 0 0 -0.301786,0.12262 l -7.127224,11.10108 a 0.27368228,0.27368228 0 0 0 0.160752,0.41011 l 114.235051,34.31199 c 2.70856,0.80783 5.07431,2.7353 6.4156,5.22295 1.3416,2.48823 1.65267,5.52295 0.83919,8.23034 -0.81185,2.70499 -2.73562,5.05948 -5.22284,6.39667 -2.4876,1.33736 -5.54544,1.64857 -8.2493,0.83438 L 12.450426,174.64381 c -3.1835219,-0.95397 -5.8838854,-3.47349 -7.0377904,-6.58994 -1.1540711,-3.11671 -0.7434021,-6.79021 1.0512036,-9.58793 L 42.647217,101.98943 c 1.903824,-2.975641 5.357851,-4.904424 8.890348,-4.968388 z m 0.01671,0.410105 c -3.416562,0.06293 -6.728652,1.911675 -8.569779,4.789283 L 6.8021473,158.6828 c -1.7351175,2.70462 -2.1149731,6.21192 -0.9992676,9.22496 1.1154042,3.01244 3.6721937,5.44135 6.7501743,6.36368 l 128.296536,38.53563 c 2.61123,0.78639 5.52613,0.49029 7.92864,-0.80136 2.402,-1.29138 4.25451,-3.55302 5.03913,-6.16571 0.78631,-2.61508 0.47537,-5.54483 -0.82004,-7.94753 -1.29523,-2.40204 -3.54536,-4.24484 -6.16094,-5.02495 l -115.093014,-34.58069 7.872063,-12.27484 72.710941,21.95233 c 2.02293,0.61199 4.2285,0.56511 6.23647,-0.0894 2.0081,-0.65476 3.80378,-1.92919 5.07679,-3.61548 1.27298,-1.68637 2.00402,-3.75363 2.08352,-5.86403 0.0819,-2.11095 -0.49826,-4.2422 -1.64044,-6.01958 l -23.76714,-37.09317 c -1.28415,-1.99844 -3.263843,-3.5066 -5.519916,-4.24248 L 54.973144,97.945141 c -1.045523,-0.339964 -2.135561,-0.48327 -3.238499,-0.480821 a 0.36490972,0.36490972 0 0 0 -0.09091,-0.01905 c -0.0234,3.57e-4 -0.06417,-0.0147 -0.09091,-0.0147 z m 0,0.711777 c 1.077473,-0.02172 2.177103,0.146381 3.205413,0.48082 l 39.817856,13.095046 c 2.094887,0.68332 3.943444,2.10309 5.133338,3.95493 l 23.766754,37.09318 c 1.05962,1.64829 1.60571,3.63676 1.53206,5.59532 -0.0729,1.9591 -0.76172,3.90412 -1.94216,5.46805 -1.18054,1.56396 -2.85961,2.758 -4.7232,3.36567 -1.86385,0.6077 -3.93254,0.62375 -5.80751,0.0566 l -72.974802,-22.0231 a 0.36490972,0.36490972 0 0 0 -0.410369,0.16029 l -8.282131,12.91588 a 0.36490972,0.36490972 0 0 0 0.193504,0.55152 l 115.554958,34.72683 c 2.42381,0.72291 4.53611,2.44001 5.73674,4.66669 1.20026,2.22607 1.47712,4.95603 0.74978,7.37716 -0.72696,2.41967 -2.45957,4.54003 -4.6855,5.73673 -2.22543,1.19643 -4.93839,1.45941 -7.35832,0.73066 L 12.769156,173.5549 C 9.9214082,172.70155 7.513405,170.44659 6.4808169,167.6579 5.448529,164.86981 5.799376,161.57603 7.4047558,159.07399 L 43.588134,102.61167 c 1.703168,-2.662024 4.807684,-4.410909 7.966375,-4.46876 z m 0.01671,0.551506 a 9.1227428,9.1227428 0 0 0 -7.518577,4.20475 L 7.8617458,159.37569 a 9.1227428,9.1227428 0 0 0 5.0626482,13.66542 l 128.291856,38.53561 a 9.1218313,9.1218313 0 0 0 11.36506,-6.10915 9.1218313,9.1218313 0 0 0 -6.12803,-11.36975 L 29.743385,159.03629 39.057905,144.51768 112.69278,166.734 a 9.1227428,9.1227428 0 0 0 10.31388,-13.66542 l -23.763996,-37.0932 a 9.1227428,9.1227428 0 0 0 -4.850501,-3.7428 L 54.574439,99.13753 a 9.1227428,9.1227428 0 0 0 -3.007464,-0.443017 z m 4.025681,19.99138 30.036507,9.86606 8.692402,13.57585 -45.036064,-13.58999 z m 0.353821,0.71179 a 0.36490972,0.36490972 0 0 0 -0.263687,0.16027 l -5.293683,8.24923 a 0.36490972,0.36490972 0 0 0 0.197849,0.55151 l 41.54264,12.54349 a 0.36490972,0.36490972 0 0 0 0.410362,-0.55626 l -7.199511,-11.22359 a 0.36490972,0.36490972 0 0 0 -0.193172,-0.14139 L 56.09311,119.41178 a 0.36490972,0.36490972 0 0 0 -0.146047,-0.0137 z m 0.197849,0.78246 28.664839,9.44182 6.594606,10.28089 -40.142927,-12.11456 z m 0.287415,0.54211 a 0.27368228,0.27368228 0 0 0 -0.07286,0.009 0.27368228,0.27368228 0 0 0 -0.178799,0.12723 l -4.096332,6.41082 a 0.27368228,0.27368228 0 0 0 0.160751,0.4101 l 37.522134,11.31321 a 0.27368228,0.27368228 0 0 0 0.301784,-0.41011 l -5.468005,-8.53199 a 0.27368228,0.27368228 0 0 0 -0.141701,-0.12723 L 56.50117,120.7316 a 0.27368228,0.27368228 0 0 0 -0.06417,-0.009 z m 0.08188,0.61755 27.670248,9.08356 5.02498,7.82026 -36.471025,-10.99266 z m 0.282737,0.57979 a 0.1824549,0.1824549 0 0 0 -0.05481,0.005 0.1824549,0.1824549 0 0 0 -0.103937,0.0757 l -3.064045,4.78928 a 0.1824549,0.1824549 0 0 0 0.103936,0.28755 l 33.996219,10.26201 a 0.1824549,0.1824549 0 0 0 0.211211,-0.28754 l -3.954829,-6.1987 a 0.1824549,0.1824549 0 0 0 -0.108611,-0.0711 l -26.972999,-8.85741 a 0.1824549,0.1824549 0 0 0 -0.05481,-0.005 z m 0.09425,0.41475 26.755662,8.78661 3.653177,5.71787 -33.260698,-10.04989 z m 0.216898,0.4714 a 0.14596388,0.14596388 0 0 0 -0.05481,0.009 0.14596388,0.14596388 0 0 0 -0.07286,0.0757 l -2.262624,3.52595 a 0.14596388,0.14596388 0 0 0 0.09091,0.21208 L 86.0627,136.0561 a 0.14596388,0.14596388 0 0 0 0.160755,-0.21683 l -2.800462,-4.36507 a 0.14596388,0.14596388 0 0 0 -0.07286,-0.0711 L 57.16009,122.81443 a 0.14596388,0.14596388 0 0 0 -0.04779,-0.009 z m 0.04779,0.32996 26.048723,8.53675 2.545428,3.98792 -30.677642,-9.26268 z"
       inkscape:export-xdpi="300"
       inkscape:export-ydpi="300" />
  </g>
</svg>
