<?xml version="1.0" encoding="UTF-8" standalone="no"?>
<svg
   xmlns:dc="http://purl.org/dc/elements/1.1/"
   xmlns:cc="http://creativecommons.org/ns#"
   xmlns:rdf="http://www.w3.org/1999/02/22-rdf-syntax-ns#"
   xmlns:svg="http://www.w3.org/2000/svg"
   xmlns="http://www.w3.org/2000/svg"
   xmlns:xlink="http://www.w3.org/1999/xlink"
   xmlns:sodipodi="http://sodipodi.sourceforge.net/DTD/sodipodi-0.dtd"
   xmlns:inkscape="http://www.inkscape.org/namespaces/inkscape"
   inkscape:export-ydpi="96"
   inkscape:export-xdpi="96"
   inkscape:export-filename="D:\Eoghan\EoghanStaunton.github.io\static\favicon\apple-touch-icon.png"
   inkscape:version="1.0 (4035a4fb49, 2020-05-01)"
   sodipodi:docname="apple-touch-icon.svg"
   viewBox="0 0 180 180"
   height="180"
   width="180"
   id="svg2"
   version="1.1">
  <metadata
     id="metadata8">
    <rdf:RDF>
      <cc:Work
         rdf:about="">
        <dc:format>image/svg+xml</dc:format>
        <dc:type
           rdf:resource="http://purl.org/dc/dcmitype/StillImage" />
        <dc:title></dc:title>
      </cc:Work>
    </rdf:RDF>
  </metadata>
  <defs
     id="defs6">
    <linearGradient
       gradientUnits="userSpaceOnUse"
       y2="1.6656761"
       x2="237.3262"
       y1="9.7354679"
       x1="218.6898"
       id="linearGradient1433-5"
       xlink:href="#linearGradient1431"
       inkscape:collect="always"
       gradientTransform="matrix(6.4813136,0,0,6.4813136,-1411.1304,58.056244)" />
    <linearGradient
       inkscape:collect="always"
       id="linearGradient1431">
      <stop
         style="stop-color:#00b5ae;stop-opacity:1"
         offset="0"
         id="stop1427" />
      <stop
         style="stop-color:#90009e;stop-opacity:1"
         offset="1"
         id="stop1429" />
    </linearGradient>
  </defs>
  <sodipodi:namedview
     inkscape:current-layer="g10"
     inkscape:window-maximized="1"
     inkscape:window-y="-9"
     inkscape:window-x="-9"
     inkscape:cy="150.63551"
     inkscape:cx="43.187134"
     inkscape:zoom="1.1527778"
     showgrid="false"
     id="namedview4"
     inkscape:window-height="1001"
     inkscape:window-width="1920"
     inkscape:pageshadow="2"
     inkscape:pageopacity="0"
     guidetolerance="10"
     gridtolerance="10"
     objecttolerance="10"
     borderopacity="1"
     bordercolor="#666666"
     pagecolor="#ffffff" />
  <g
     id="g10"
     inkscape:label="Image"
     inkscape:groupmode="layer">
    <path
       id="path1423-4"
       style="color:#000000;font-style:normal;font-variant:normal;font-weight:normal;font-stretch:normal;font-size:medium;line-height:normal;font-family:sans-serif;font-variant-ligatures:normal;font-variant-position:normal;font-variant-caps:normal;font-variant-numeric:normal;font-variant-alternates:normal;font-variant-east-asian:normal;font-feature-settings:normal;font-variation-settings:normal;text-indent:0;text-align:start;text-decoration:none;text-decoration-line:none;text-decoration-style:solid;text-decoration-color:#000000;letter-spacing:normal;word-spacing:normal;text-transform:none;writing-mode:lr-tb;direction:ltr;text-orientation:mixed;dominant-baseline:auto;baseline-shift:baseline;text-anchor:start;white-space:normal;shape-padding:0;shape-margin:0;inline-size:0;clip-rule:nonzero;display:inline;overflow:visible;visibility:visible;isolation:auto;mix-blend-mode:normal;color-interpolation:sRGB;color-interpolation-filters:linearRGB;solid-color:#000000;solid-opacity:1;vector-effect:none;fill:url(#linearGradient1433-5);fill-opacity:1;fill-rule:nonzero;stroke:none;stroke-width:7.55904;stroke-linecap:round;stroke-linejoin:round;stroke-miterlimit:4;stroke-dasharray:none;stroke-dashoffset:0;stroke-opacity:1;color-rendering:auto;image-rendering:auto;shape-rendering:auto;text-rendering:auto;enable-background:accumulate;stop-color:#000000"
       d="m 74.575148,4.4407333 c -3.026772,0.015436 -5.995341,1.6443542 -7.633109,4.1899916 a 0.10371138,0.10371138 0 0 0 0,0.026593 L 41.004994,49.140451 c -1.520817,2.370533 -1.865658,5.44709 -0.887557,8.088587 0.97803,2.641451 3.250387,4.761413 5.948346,5.569899 l 60.853637,18.240358 41.57166,65.030245 -8.97614,-2.6962 -35.02711,-54.623921 c -1.28935,-2.011688 -3.38624,-3.487309 -5.720597,-3.999089 -2.334314,-0.511766 -4.863272,-0.06157 -6.876155,1.22586 -2.011695,1.289335 -3.487302,3.3896 -3.999076,5.723968 -0.512037,2.334267 -0.05817,4.859916 1.229214,6.872781 l 36.849054,57.484241 c 1.16572,1.817 2.99596,3.20184 5.06415,3.82157 l 35.76061,10.74793 c 3.54635,1.0665 7.67744,-0.27426 9.91071,-3.22874 2.23314,-2.9544 2.39886,-7.29534 0.40505,-10.41636 L 120.47405,68.36897 V 68.3554 a 0.10371138,0.10371138 0 0 0 0,-0.0135 c -1.16695,-1.815529 -3.00711,-3.189773 -5.07413,-3.808184 L 62.889385,48.785259 74.625374,30.481269 87.714475,50.989095 c 1.289365,2.011687 3.386263,3.487314 5.720643,3.999094 2.334241,0.511759 4.86327,0.05833 6.876152,-1.229202 2.0146,-1.286545 3.4973,-3.386023 4.01245,-5.720629 0.51529,-2.334645 0.0583,-4.857987 -1.22917,-6.872781 L 82.322046,8.6574631 C 80.666233,6.0703583 77.647039,4.418341 74.575148,4.4406718 Z m 0,0.2043109 c 2.996566,-0.021849 5.953806,1.5887149 7.569471,4.1129574 L 102.91702,41.266416 c 1.25582,1.967255 1.70515,4.443508 1.20241,6.722066 -0.50293,2.278604 -1.94508,4.340596 -3.91197,5.59671 -1.965045,1.256969 -4.443542,1.701966 -6.72209,1.202402 -2.27849,-0.499516 -4.334474,-1.937776 -5.593368,-3.901942 L 74.712471,30.240477 a 0.10371138,0.10371138 0 0 0 -0.174298,0 L 62.638009,48.799024 a 0.10371138,0.10371138 0 0 0 0.06459,0.150693 l 52.647811,15.785305 c 2.01877,0.603928 3.81119,1.938929 4.95026,3.711039 a 0.10371138,0.10371138 0 0 0 0,0.01045 l 56.63248,88.626159 c 1.94349,3.04262 1.77174,7.30842 -0.40506,10.1886 -2.17711,2.88011 -6.22531,4.19492 -9.68299,3.15506 l -35.76055,-10.74788 c -2.01917,-0.60504 -3.79848,-1.94674 -4.93687,-3.72107 L 89.295395,98.473022 c -1.257022,-1.964994 -1.702028,-4.443528 -1.202431,-6.722068 0.49971,-2.278457 1.934474,-4.337826 3.898583,-5.596709 1.964963,-1.256965 4.443578,-1.701971 6.72208,-1.202405 2.278483,0.499516 4.337823,1.934434 5.596723,3.898608 l 35.05052,54.660762 a 0.10371138,0.10371138 0 0 0 0.0648,0.0506 l 9.2809,2.78662 a 0.10371138,0.10371138 0 0 0 0.11421,-0.15071 l -41.7505,-65.295478 a 0.10371138,0.10371138 0 0 0 -0.0645,-0.05058 L 46.115173,62.597915 C 43.482207,61.808935 41.27185,59.72937 40.31752,57.151922 39.363236,54.574505 39.693995,51.5544 41.178267,49.240847 L 67.118688,8.7443341 a 0.10371138,0.10371138 0 0 0 0,-0.010451 C 68.716421,6.2504413 71.621181,4.6597269 74.574269,4.644365 Z m 0,0.277979 c -2.867716,0.014477 -5.676407,1.5507356 -7.227853,3.9622387 L 41.406896,49.381786 c -1.440793,2.245815 -1.760581,5.180848 -0.833939,7.683314 0.92655,2.502396 3.077352,4.512571 5.633522,5.278531 l 61.014431,18.290586 42.3453,66.256093 -10.35609,-3.11152 -35.12759,-54.788041 c -1.22137,-1.905742 -3.21804,-3.286567 -5.42916,-3.771331 -2.211499,-0.484863 -4.614435,-0.05768 -6.521126,1.162229 -1.905792,1.221435 -3.286624,3.221445 -3.771355,5.432581 -0.484801,2.211452 -0.05817,4.611099 1.162227,6.517765 l 36.852454,57.484217 c 1.10433,1.72126 2.83725,3.02022 4.7962,3.60722 l 35.76062,10.74792 c 3.36028,1.01062 7.26564,-0.27557 9.38147,-3.07464 2.11579,-2.79913 2.28065,-6.90683 0.39215,-9.86373 a 0.12963925,0.12963925 0 0 0 0,-0.0109 L 120.06878,68.596859 c -1.10831,-1.724246 -2.84453,-3.023777 -4.80958,-3.607203 L 62.155892,49.063663 74.625374,29.607501 88.119722,50.734967 a 0.12963925,0.12963925 0 0 0 0,0.01352 c 1.221482,1.905739 3.218123,3.286571 5.42926,3.77133 2.207716,0.484023 4.602891,0.05251 6.507678,-1.162225 1.90849,-1.21879 3.29681,-3.221164 3.7848,-5.432585 0.48803,-2.211284 0.0663,-4.585741 -1.15222,-6.494305 a 0.12963925,0.12963925 0 0 0 0,-0.02327 L 81.916847,8.8990954 C 80.34806,6.4480605 77.485256,4.9022953 74.575148,4.9234598 Z m 0,0.2546134 c 2.816336,-0.020654 5.595578,1.4995643 7.113948,3.8717961 L 102.4615,41.55785 a 0.12963925,0.12963925 0 0 0 0,0.01353 c 1.18058,1.849058 1.60131,4.161513 1.12872,6.303404 -0.4725,2.141777 -1.83562,4.071172 -3.684198,5.251723 -1.845665,1.177139 -4.169458,1.610704 -6.30679,1.142106 -2.141712,-0.469506 -4.068583,-1.824823 -5.251757,-3.670838 a 0.12963925,0.12963925 0 0 0 0,-0.01352 L 74.73928,29.279275 a 0.12963925,0.12963925 0 0 0 -0.22772,0 L 61.827745,49.063663 a 0.12963925,0.12963925 0 0 0 0.07717,0.20431 l 53.280805,15.972868 c 1.90391,0.565297 3.58164,1.835985 4.65554,3.506726 l 56.63696,88.599353 v 0.0135 a 0.12963925,0.12963925 0 0 0 0,0.0266 c 1.82649,2.85934 1.67741,6.84899 -0.36803,9.55557 -2.04599,2.70668 -5.85127,3.9513 -9.10014,2.9742 l -35.76062,-10.7445 c -1.89795,-0.56873 -3.57558,-1.83908 -4.64548,-3.50672 L 89.754832,98.181218 c -1.181458,-1.846999 -1.611643,-4.175436 -1.14214,-6.316814 0.469891,-2.141694 1.824793,-4.071888 3.670812,-5.25507 1.847022,-1.181477 4.175488,-1.608237 6.316841,-1.138759 2.141675,0.469502 4.071865,1.824818 5.255025,3.670842 l 35.15444,54.824873 a 0.12963925,0.12963925 0 0 0 0.0739,0.0505 l 10.7614,3.22873 a 0.12963925,0.12963925 0 0 0 0.15102,-0.20094 L 107.42509,80.4467 a 0.12963925,0.12963925 0 0 0 -0.0772,-0.05058 L 46.283345,62.08878 C 43.808883,61.347315 41.724264,59.386731 40.827303,56.964334 39.930365,54.542027 40.242698,51.706492 41.63778,49.532207 L 67.574896,9.0356879 c 1.501682,-2.3341448 4.224906,-3.844384 7.000039,-3.858406 z m 0,0.3416339 c -2.67523,0.014488 -5.28806,1.4444252 -6.735432,3.6942969 L 41.902597,49.710085 c -1.344053,2.094949 -1.6381,4.806238 -0.773672,7.140732 0.864476,2.334673 2.870308,4.222297 5.255008,4.93689 l 61.218737,18.340833 43.33005,67.77668 -12.10104,-3.62061 -35.24146,-54.965552 c -1.13923,-1.777484 -3.00143,-3.077965 -5.064177,-3.530185 -2.062803,-0.452198 -4.287238,-0.04925 -6.065584,1.088538 -1.77751,1.139238 -3.07799,3.001427 -3.530158,5.064145 -0.452388,2.062793 -0.05177,4.283933 1.088517,6.06226 l 36.849032,57.484234 c 1.03008,1.60551 2.65419,2.83191 4.48143,3.37946 l 35.76061,10.74795 c 3.13604,0.94315 6.76074,-0.2618 8.73499,-2.87372 1.97461,-2.61225 2.13123,-6.43087 0.3688,-9.19051 L 119.57687,68.925093 c -1.03378,-1.608276 -2.66174,-2.835222 -4.4948,-3.379454 L 61.23179,49.405307 74.625751,28.505609 88.612435,50.420138 c 1.139287,1.777474 3.001502,3.077945 5.064158,3.530186 2.062848,0.452204 4.287285,0.04925 6.065617,-1.088538 1.78039,-1.13699 3.07514,-3.001841 3.53019,-5.064151 0.45496,-2.062578 0.0583,-4.281914 -1.07515,-6.062254 L 81.424827,9.226968 C 79.960975,6.9399043 77.290369,5.4995377 74.575507,5.5192705 Z m 0,0.3784449 c 2.574624,-0.019005 5.13001,1.365349 6.517758,3.5335311 L 101.86868,41.936316 c 1.07907,1.690533 1.45704,3.82917 1.02486,5.787608 -0.43231,1.958683 -1.666,3.730363 -3.356008,4.809602 -1.688893,1.080767 -3.826352,1.467531 -5.784264,1.038288 -1.957932,-0.429256 -3.727729,-1.668018 -4.809553,-3.356011 L 74.789506,28.050064 a 0.19445885,0.19445885 0 0 0 -0.327932,0 L 60.762875,49.418673 a 0.19445885,0.19445885 0 0 0 0.113744,0.291391 l 54.104821,16.217368 c 1.74075,0.516815 3.285,1.674236 4.26698,3.201942 l 56.63353,88.622806 c 1.66896,2.61284 1.52801,6.28842 -0.34156,8.76178 -1.86984,2.4737 -5.36095,3.61249 -8.32975,2.71964 l -35.7606,-10.74793 c -1.73537,-0.52 -3.27535,-1.67711 -4.25362,-3.20195 L 90.347297,97.799487 c -1.080682,-1.688897 -1.467504,-3.826376 -1.038199,-5.784264 0.429042,-1.957959 1.667925,-3.727723 3.355911,-4.809605 1.688915,-1.080764 3.826396,-1.467527 5.784359,-1.038285 1.957932,0.42926 3.727692,1.668018 4.809552,3.356011 l 35.28159,55.025836 a 0.19445885,0.19445885 0 0 0 0.11423,0.0904 l 12.67045,3.79812 a 0.19445885,0.19445885 0 0 0 0.21442,-0.29138 l -43.6456,-68.28241 a 0.19445885,0.19445885 0 0 0 -0.11422,-0.0904 L 46.484096,61.405868 C 44.222091,60.728071 42.30343,58.937873 41.483526,56.723531 40.663597,54.509043 40.955317,51.89892 42.230481,49.911036 L 68.167528,9.4178666 c 1.372646,-2.1336799 3.870184,-3.5068872 6.407218,-3.5201384 z m 0.01187,0.2913919 c -2.453353,0.013065 -4.85156,1.3154432 -6.179465,3.379468 a 0.25927845,0.25927845 0 0 0 0,0.013542 0.25927845,0.25927845 0 0 0 -0.01188,0.013532 L 42.47198,50.078757 c -1.227126,1.919912 -1.501536,4.407065 -0.710008,6.544559 0.792526,2.140423 2.612451,3.862861 4.799534,4.518225 l 61.469874,18.404475 44.44542,69.525014 -14.07724,-4.20338 -35.38207,-55.193318 c -1.04447,-1.629617 -2.74115,-2.814168 -4.632123,-3.228734 -1.891372,-0.414665 -3.926055,-0.04154 -5.556485,1.001444 a 0.25927845,0.25927845 0 0 0 -0.01187,0 c -1.629624,1.044456 -2.814074,2.741105 -3.228709,4.632089 -0.408981,1.864452 -0.04561,3.864322 0.964589,5.482833 a 0.25927845,0.25927845 0 0 0 0,0.0038 0.25927845,0.25927845 0 0 0 0.03897,0.07032 0.25927845,0.25927845 0 0 0 0,0.0135 l 36.849128,57.484226 c 0.9442,1.47179 2.41466,2.5862 4.08946,3.08806 l 35.76063,10.74796 c 1.43479,0.43152 2.99361,0.41487 4.41775,-0.0505 1.42426,-0.46524 2.70347,-1.38674 3.60717,-2.58233 0.90361,-1.19534 1.42486,-2.65677 1.48384,-4.15314 0.0583,-1.4969 -0.34533,-3.00453 -1.15227,-4.26704 l -56.6126,-88.572801 a 0.25927845,0.25927845 0 0 0 -0.0265,-0.05058 0.25927845,0.25927845 0 0 0 0,-0.01357 c -0.94768,-1.473962 -2.42276,-2.589161 -4.10285,-3.088 L 60.194419,49.786987 74.62668,27.266215 89.159328,50.001337 a 0.25927845,0.25927845 0 0 0 0.02658,0.05058 0.25927845,0.25927845 0 0 0 0,0.01352 c 1.044499,1.629622 2.744505,2.81417 4.63552,3.228731 1.891351,0.414677 3.925941,0.04151 5.556439,-1.001434 1.631973,-1.042164 2.824753,-2.740583 3.242173,-4.632097 0.41739,-1.89089 0.0517,-3.923991 -0.9881,-5.556515 L 80.858909,9.5954309 C 79.516711,7.498348 77.083091,6.17107 74.592363,6.1891805 Z m 0,0.5057353 c 2.302157,-0.017095 4.592846,1.2386564 5.834482,3.178489 l 20.77241,32.5084154 c 0.96556,1.512445 1.29778,3.422134 0.91103,5.174695 -0.38631,1.75192 -1.49844,3.341258 -3.011015,4.307214 -1.511197,0.966693 -3.426295,1.305137 -5.178061,0.921063 -1.740379,-0.381559 -3.310586,-1.479313 -4.280403,-2.974201 a 0.25927845,0.25927845 0 0 0 -0.0095,-0.01353 c -0.0025,-0.0051 -0.01187,-0.0049 -0.01187,-0.0097 a 0.25927845,0.25927845 0 0 0 0,-0.01353 L 74.840251,26.646713 a 0.25927845,0.25927845 0 0 0 -0.428405,0 L 59.57436,49.797155 a 0.25927845,0.25927845 0 0 0 0.140578,0.39523 L 114.75418,66.69779 c 1.54644,0.459197 2.91845,1.485001 3.79805,2.836869 0.009,0.01045 0.0166,0.0135 0.0265,0.02325 a 0.25927845,0.25927845 0 0 0 0,0.01357 l 56.63682,88.626121 c 0.74832,1.17152 1.1301,2.57317 1.07515,3.96225 -0.0517,1.38959 -0.54183,2.76311 -1.37991,3.8718 -0.8379,1.10847 -2.03151,1.95987 -3.35264,2.39141 -1.32135,0.43153 -2.78525,0.44054 -4.11634,0.0403 L 131.6812,157.71532 c -1.5533,-0.46543 -2.93264,-1.49567 -3.80814,-2.86031 L 91.047479,97.407602 v -0.0135 a 0.25927845,0.25927845 0 0 0 -0.02658,-0.02325 0.25927845,0.25927845 0 0 0 0,-0.0135 c -0.966699,-1.511195 -1.30518,-3.426292 -0.921086,-5.178036 0.381769,-1.740378 1.47929,-3.307275 2.974224,-4.277084 a 0.25927845,0.25927845 0 0 0 0.01188,-0.0135 c 0.0025,-0.0031 0.0025,-0.01045 0.01187,-0.0135 a 0.25927845,0.25927845 0 0 0 0.01188,0 c 1.511199,-0.966694 3.426269,-1.308478 5.178044,-0.924397 1.752209,0.384144 3.335729,1.490542 4.303849,3.000982 l 35.43231,55.270343 a 0.25927845,0.25927845 0 0 0 0.1375,0.11389 l 14.8372,4.44094 a 0.25927845,0.25927845 0 0 0 0.29159,-0.39186 L 108.40657,79.194173 a 0.25927845,0.25927845 0 0 0 -0.14058,-0.113889 L 46.705837,60.635823 c -2.023334,-0.606328 -3.734263,-2.208524 -4.46797,-4.189976 -0.732139,-1.97722 -0.478983,-4.312001 0.656412,-6.089066 L 68.834726,9.8602686 a 0.25927845,0.25927845 0 0 0 0,-0.013542 c 1.22748,-1.9079379 3.477823,-3.139866 5.747428,-3.1517007 z m 0,0.3918598 A 6.4819613,6.4819613 0 0 0 69.16779,10.064247 L 43.230739,50.557424 a 6.4819613,6.4819613 0 0 0 3.59385,9.709655 l 61.788041,18.521699 45.93912,71.862822 -16.73645,-5.02731 -35.55626,-55.4579 a 6.4813136,6.4813136 0 0 0 -8.949395,-1.959348 6.4813136,6.4813136 0 0 0 -1.962683,8.949361 l 36.849048,57.484237 a 6.4819613,6.4819613 0 0 0 3.59386,2.70625 l 35.76057,10.74793 a 6.4819613,6.4819613 0 0 0 7.33168,-9.69626 L 118.24541,69.775761 a 6.4819613,6.4819613 0 0 0 -3.6072,-2.709601 L 58.775044,50.316266 74.624016,25.5816 89.940383,49.569363 a 6.4813136,6.4813136 0 0 0 8.949423,1.962695 6.4813136,6.4813136 0 0 0 1.976104,-8.94936 L 80.093479,10.074285 A 6.4819613,6.4819613 0 0 0 74.587212,7.0866884 Z M 35.785225,64.812096 a 0.10371138,0.10371138 0 0 0 -0.07386,0.03707 c -2.96299,0.08465 -5.847568,1.682384 -7.445467,4.179941 L 2.5566173,109.15721 c -1.5208182,2.37055 -1.8622867,5.44711 -0.8842093,8.08859 0.978077,2.64145 3.25034,4.76141 5.9483708,5.5699 l 91.1549052,27.38062 c 2.290146,0.68965 4.842746,0.43613 6.949786,-0.69664 2.10695,-1.13274 3.72984,-3.12832 4.41776,-5.4192 0.68896,-2.2927 0.42971,-4.85248 -0.70669,-6.95987 -1.13443,-2.104 -3.12986,-3.72163 -5.41918,-4.4077 a 0.10371138,0.10371138 0 0 0 -0.0265,0 l -79.546261,-23.91074 3.657373,-5.67038 50.407199,15.20254 c 3.551319,1.07429 7.688717,-0.28097 9.924082,-3.24216 2.232844,-2.95787 2.394174,-7.29613 0.395345,-10.41633 a 0.10371138,0.10371138 0 0 0 0,-0.0135 L 71.941303,78.333423 v -0.0135 a 0.10371138,0.10371138 0 0 0 0,-0.0135 C 70.817,76.556534 69.081326,75.205545 67.104966,74.558359 a 0.10371138,0.10371138 0 0 0 -0.03897,0 L 38.811202,65.254032 a 0.10371138,0.10371138 0 0 0 -0.02659,0 h -0.02659 c -0.941912,-0.303507 -1.924099,-0.44196 -2.913883,-0.42874 -0.01662,2.92e-4 -0.03895,-0.01353 -0.06459,-0.01353 z m 0,0.200963 c 0.996244,-0.02066 1.989376,0.137157 2.937296,0.445463 a 0.10371138,0.10371138 0 0 0 0.03894,0 l 28.251511,9.304402 a 0.10371138,0.10371138 0 0 0 0.01188,0 c 1.929938,0.631996 3.63816,1.935674 4.735964,3.644054 a 0.10371138,0.10371138 0 0 0 0,0.0135 L 88.63466,104.73937 a 0.10371138,0.10371138 0 0 0 0.01188,0.0371 c 1.948867,3.04204 1.784874,7.30501 -0.392091,10.18862 -2.179371,2.88696 -6.237506,4.21243 -9.699634,3.16508 l -50.480872,-15.226 a 0.10371138,0.10371138 0 0 0 -0.114218,0.0505 l -3.774653,5.8613 a 0.10371138,0.10371138 0 0 0 0.06482,0.15069 l 79.702588,23.951 a 0.10371138,0.10371138 0 0 0 0.0265,0 c 2.23125,0.6715 4.17285,2.25317 5.27859,4.30386 1.109,2.05691 1.35582,4.57102 0.68319,6.80916 -0.67155,2.23648 -2.26063,4.18624 -4.31724,5.29191 -2.05647,1.1056 -4.56295,1.34323 -6.799127,0.66987 L 7.6693155,122.61126 c -2.6329422,-0.78899 -4.8432523,-2.86519 -5.7976542,-5.44265 -0.9542839,-2.57741 -0.623501,-5.59749 0.8607476,-7.91106 L 28.441749,69.129442 c 1.574769,-2.461252 4.420642,-4.063174 7.341718,-4.116304 z m 0.01188,0.281347 c -2.836589,0.05122 -5.598402,1.582616 -7.127292,3.972291 L 2.961655,109.3948 c -1.4408172,2.24582 -1.7606058,5.1842 -0.8339854,7.68667 0.9265476,2.50238 3.0774446,4.51255 5.633568,5.27854 l 91.1548814,27.38058 c 2.169741,0.65346 4.585841,0.40302 6.581361,-0.66983 1.99582,-1.07296 3.53823,-2.9575 4.19005,-5.12781 0.65267,-2.17183 0.40639,-4.59857 -0.6699,-6.59479 -1.07631,-1.99627 -2.96812,-3.53183 -5.14118,-4.17995 l -80.165798,-24.08826 4.17658,-6.51775 50.762173,15.3164 c 3.362093,1.01096 7.276157,-0.2757 9.391437,-3.07801 2.117981,-2.80569 2.282805,-6.9267 0.381789,-9.88381 L 71.535363,78.561033 C 70.468717,76.9011 68.816249,75.626045 66.940092,75.014118 L 38.648124,65.709712 C 37.729578,65.41093 36.764015,65.274295 35.797906,65.294389 Z m 0,0.251186 c 0.936521,-0.01924 1.882137,0.128798 2.773282,0.418693 l 28.291615,9.304388 c 1.817618,0.592839 3.41086,1.834444 4.444573,3.44309 L 88.193739,105.0675 c 1.837994,2.85916 1.692886,6.86957 -0.355168,9.58239 -2.045297,2.70937 -5.862767,3.95161 -9.113417,2.9742 L 27.872411,102.28088 a 0.12963925,0.12963925 0 0 0 -0.15055,0.0506 l -4.344061,6.74886 a 0.12963925,0.12963925 0 0 0 0.07717,0.20098 l 80.34667,24.14185 c 2.1051,0.62786 3.94471,2.11604 4.98712,4.04932 1.04244,1.93333 1.2786,4.29018 0.64616,6.39384 -0.63127,2.10187 -2.13292,3.93444 -4.06605,4.97371 -1.93331,1.03943 -4.27565,1.27928 -6.37707,0.64639 l -91.1574228,-27.381 c -2.4744366,-0.74148 -4.5591054,-2.70541 -5.4560668,-5.12781 -0.8968416,-2.42228 -0.5845806,-5.25447 0.8105725,-7.42877 L 28.898195,69.420751 c 1.479928,-2.313079 4.154213,-3.825423 6.899616,-3.875152 z m 0.01187,0.341634 c -2.64617,0.04797 -5.218488,1.481424 -6.645011,3.711059 L 3.4508945,109.72638 c -1.344052,2.09494 -1.6347281,4.80287 -0.7702992,7.1374 0.8644288,2.33465 2.8669365,4.22227 5.2516608,4.93686 l 91.1448329,27.38397 c 2.024111,0.60951 4.277771,0.37788 6.139321,-0.62298 1.86173,-1.00092 3.30407,-2.77198 3.91197,-4.79621 0.60859,-2.02553 0.38435,-4.26416 -0.61963,-6.12589 -1.00392,-1.86216 -2.78225,-3.30735 -4.80953,-3.912 l -80.915974,-24.30596 4.846433,-7.54599 51.180825,15.44366 c 3.140465,0.95006 6.781924,-0.25206 8.758479,-2.87036 1.976456,-2.61822 2.129028,-6.44418 0.355168,-9.20389 L 71.0362,78.889228 C 70.041428,77.341029 68.509044,76.144146 66.759223,75.573402 L 38.467559,66.269014 C 37.610325,65.990237 36.708187,65.86847 35.808211,65.887198 Z m 0,0.381817 c 0.857423,-0.01805 1.717672,0.113624 2.532115,0.37844 l 28.291591,9.304407 c 1.662082,0.542102 3.130873,1.667298 4.07618,3.138294 L 87.59605,105.44592 c 1.679612,2.61282 1.543312,6.29266 -0.327931,8.77185 -1.871451,2.47915 -5.383854,3.62227 -8.35653,2.72299 L 27.593301,101.46025 a 0.19445885,0.19445885 0 0 0 -0.214427,0.0871 l -5.064091,7.88761 a 0.19445885,0.19445885 0 0 0 0.114219,0.29139 l 81.167148,24.37963 c 1.92452,0.57399 3.60545,1.94352 4.55848,3.71106 0.95324,1.76796 1.17426,3.9242 0.59627,5.84789 -0.57684,1.92197 -1.94375,3.59489 -3.71098,4.54501 -1.76752,0.95022 -3.94019,1.17136 -5.861364,0.59285 L 8.0380448,121.42214 c -2.2619816,-0.67781 -4.1806649,-2.468 -5.0005454,-4.68233 -0.8200001,-2.21451 -0.5282084,-4.82463 0.7469089,-6.8125 L 29.493701,69.799197 c 1.352719,-2.114276 3.8069,-3.484729 6.316837,-3.530176 z m 0.01187,0.291389 c -2.427563,0.04471 -4.780894,1.358298 -6.089066,3.402917 L 4.0247949,110.0814 c -1.2328499,1.92171 -1.5027474,4.41375 -0.7100086,6.55461 0.7925256,2.14041 2.6091961,3.86621 4.7961871,4.52156 L 99.269201,148.5382 c 1.855359,0.55875 3.926469,0.34836 5.633529,-0.56939 1.70668,-0.91756 3.02294,-2.52451 3.58043,-4.3809 0.55869,-1.85809 0.33777,-3.93977 -0.58266,-5.64695 -0.9203,-1.70671 -2.51907,-3.01607 -4.37752,-3.57036 l -81.776768,-24.57054 5.593318,-8.72162 51.663133,15.59775 c 1.437345,0.43482 3.004468,0.40152 4.431184,-0.0635 1.426809,-0.46523 2.702684,-1.37074 3.607197,-2.5689 0.904488,-1.19821 1.423906,-2.66706 1.480402,-4.16656 0.05817,-1.49989 -0.35403,-3.01421 -1.165574,-4.27707 L 70.468649,79.244401 C 69.556232,77.824454 68.14961,76.752868 66.546606,76.230006 L 38.251612,66.925618 c -0.742873,-0.241553 -1.517375,-0.343377 -2.301043,-0.341635 a 0.25927845,0.25927845 0 0 0 -0.06458,-0.01353 c -0.01663,2.53e-4 -0.0456,-0.01046 -0.0646,-0.01046 z m 0,0.505738 c 0.765573,-0.01544 1.546891,0.104011 2.277535,0.341635 l 28.291686,9.304389 c 1.488474,0.485518 2.801923,1.494305 3.647376,2.810091 l 16.88694,26.355725 c 0.752889,1.17116 1.140904,2.58402 1.088568,3.97562 -0.05177,1.39202 -0.54122,2.77401 -1.379957,3.88521 -0.838806,1.11125 -2.031833,1.95965 -3.355962,2.39141 -1.324318,0.43179 -2.794178,0.4432 -4.126404,0.0401 l -51.85062,-15.64796 a 0.25927845,0.25927845 0 0 0 -0.291578,0.1139 l -5.884683,9.1771 a 0.25927845,0.25927845 0 0 0 0.13749,0.39186 l 82.104984,24.67438 c 1.72218,0.51364 3.22304,1.73369 4.07611,3.31581 0.85282,1.58169 1.04953,3.5214 0.53274,5.24167 -0.51652,1.71925 -1.7476,3.22583 -3.32917,4.07611 -1.58123,0.85011 -3.50887,1.03696 -5.228292,0.51915 L 8.2645108,120.64845 c -2.0234037,-0.60633 -3.7343568,-2.20854 -4.4680392,-4.18999 -0.733469,-1.98101 -0.4841828,-4.32134 0.6564841,-6.09911 L 30.162247,70.241312 c 1.210148,-1.891437 3.415993,-3.13407 5.66033,-3.175174 z m 0.01188,0.39186 a 6.4819613,6.4819613 0 0 0 -5.342157,2.987592 L 4.7776595,110.57372 a 6.4819613,6.4819613 0 0 0 3.5971523,9.70967 l 91.1548922,27.38062 a 6.4813136,6.4813136 0 0 0 8.075196,-4.34073 6.4813136,6.4813136 0 0 0 -4.35412,-8.07852 l -82.925609,-24.9122 6.618223,-10.31587 52.31961,15.78532 a 6.4819613,6.4819613 0 0 0 7.328305,-9.70967 L 69.706323,79.736599 A 6.4819613,6.4819613 0 0 0 66.259914,77.077237 L 37.968321,67.772843 a 6.4819613,6.4819613 0 0 0 -2.136886,-0.314774 z m 2.860358,14.204428 21.341769,7.01011 6.17619,9.646017 -31.999367,-9.656068 z m 0.251401,0.505741 a 0.25927845,0.25927845 0 0 0 -0.187357,0.113882 l -3.761309,5.861305 a 0.25927845,0.25927845 0 0 0 0.140577,0.391859 l 29.517193,8.912498 A 0.25927845,0.25927845 0 0 0 64.945169,97.05251 L 59.829726,89.077842 A 0.25927845,0.25927845 0 0 0 59.692473,88.977376 L 39.04739,82.178258 a 0.25927845,0.25927845 0 0 0 -0.103774,-0.0097 z m 0.140576,0.555961 20.367158,6.708672 4.685651,7.304865 -28.522658,-8.607732 z m 0.204216,0.385188 a 0.19445885,0.19445885 0 0 0 -0.05176,0.0064 0.19445885,0.19445885 0 0 0 -0.127043,0.09041 l -2.910557,4.555061 a 0.19445885,0.19445885 0 0 0 0.114219,0.291385 l 26.660513,8.038351 A 0.19445885,0.19445885 0 0 0 63.189077,95.7996 l -3.885158,-6.062295 a 0.19445885,0.19445885 0 0 0 -0.100682,-0.09041 L 39.337329,83.11599 a 0.19445885,0.19445885 0 0 0 -0.0456,-0.0064 z m 0.05817,0.438784 19.660476,6.454119 3.570388,5.556519 -25.913673,-7.810599 z m 0.200892,0.411952 a 0.12963925,0.12963925 0 0 0 -0.03895,0.0038 0.12963925,0.12963925 0 0 0 -0.07385,0.05379 l -2.177089,3.402913 a 0.12963925,0.12963925 0 0 0 0.07386,0.20431 l 24.155255,7.291443 a 0.12963925,0.12963925 0 0 0 0.150075,-0.204311 l -2.810018,-4.404343 a 0.12963925,0.12963925 0 0 0 -0.07718,-0.05058 l -19.16505,-6.293472 a 0.12963925,0.12963925 0 0 0 -0.03894,-0.0038 z m 0.06697,0.294695 19.01064,6.24313 2.595683,4.062709 -23.632648,-7.14073 z m 0.154111,0.334944 a 0.10371138,0.10371138 0 0 0 -0.03893,0.0064 0.10371138,0.10371138 0 0 0 -0.05176,0.05379 L 38.071072,87.1552 a 0.10371138,0.10371138 0 0 0 0.06459,0.150688 l 22.205959,6.698634 a 0.10371138,0.10371138 0 0 0 0.114219,-0.154068 l -1.98981,-3.101501 a 0.10371138,0.10371138 0 0 0 -0.05176,-0.05058 l -18.608772,-6.10243 a 0.10371138,0.10371138 0 0 0 -0.03395,-0.0064 z m 0.03395,0.234444 18.50834,6.065601 1.808595,2.833526 L 38.323,87.141904 Z"
       inkscape:export-xdpi="300"
       inkscape:export-ydpi="300" />
  </g>
</svg>
