<?xml version="1.0" encoding="UTF-8" standalone="no"?>
<svg
   xmlns:dc="http://purl.org/dc/elements/1.1/"
   xmlns:cc="http://creativecommons.org/ns#"
   xmlns:rdf="http://www.w3.org/1999/02/22-rdf-syntax-ns#"
   xmlns:svg="http://www.w3.org/2000/svg"
   xmlns="http://www.w3.org/2000/svg"
   xmlns:xlink="http://www.w3.org/1999/xlink"
   xmlns:sodipodi="http://sodipodi.sourceforge.net/DTD/sodipodi-0.dtd"
   xmlns:inkscape="http://www.inkscape.org/namespaces/inkscape"
   inkscape:export-ydpi="96"
   inkscape:export-xdpi="96"
   inkscape:export-filename="D:\Eoghan\EoghanStaunton.github.io\static\favicon\favicon-32x32.png"
   inkscape:version="1.0 (4035a4fb49, 2020-05-01)"
   sodipodi:docname="favicon-32x32.svg"
   viewBox="0 0 32 32"
   height="32"
   width="32"
   id="svg2"
   version="1.1">
  <metadata
     id="metadata8">
    <rdf:RDF>
      <cc:Work
         rdf:about="">
        <dc:format>image/svg+xml</dc:format>
        <dc:type
           rdf:resource="http://purl.org/dc/dcmitype/StillImage" />
        <dc:title></dc:title>
      </cc:Work>
    </rdf:RDF>
  </metadata>
  <defs
     id="defs6">
    <linearGradient
       gradientUnits="userSpaceOnUse"
       y2="1.6656761"
       x2="237.3262"
       y1="9.7354679"
       x1="218.6898"
       id="linearGradient1433-5"
       xlink:href="#linearGradient1431"
       inkscape:collect="always"
       gradientTransform="matrix(1.1575599,0,0,1.1575599,-252.09671,10.702902)" />
    <linearGradient
       inkscape:collect="always"
       id="linearGradient1431">
      <stop
         style="stop-color:#00b5ae;stop-opacity:1"
         offset="0"
         id="stop1427" />
      <stop
         style="stop-color:#90009e;stop-opacity:1"
         offset="1"
         id="stop1429" />
    </linearGradient>
  </defs>
  <sodipodi:namedview
     inkscape:current-layer="g10"
     inkscape:window-maximized="1"
     inkscape:window-y="-9"
     inkscape:window-x="-9"
     inkscape:cy="24.848287"
     inkscape:cx="19.967957"
     inkscape:zoom="12.96875"
     showgrid="false"
     id="namedview4"
     inkscape:window-height="1001"
     inkscape:window-width="1920"
     inkscape:pageshadow="2"
     inkscape:pageopacity="0"
     guidetolerance="10"
     gridtolerance="10"
     objecttolerance="10"
     borderopacity="1"
     bordercolor="#666666"
     pagecolor="#ffffff" />
  <g
     id="g10"
     inkscape:label="Image"
     inkscape:groupmode="layer">
    <path
       id="path1423-4"
       style="color:#000000;font-style:normal;font-variant:normal;font-weight:normal;font-stretch:normal;font-size:medium;line-height:normal;font-family:sans-serif;font-variant-ligatures:normal;font-variant-position:normal;font-variant-caps:normal;font-variant-numeric:normal;font-variant-alternates:normal;font-variant-east-asian:normal;font-feature-settings:normal;font-variation-settings:normal;text-indent:0;text-align:start;text-decoration:none;text-decoration-line:none;text-decoration-style:solid;text-decoration-color:#000000;letter-spacing:normal;word-spacing:normal;text-transform:none;writing-mode:lr-tb;direction:ltr;text-orientation:mixed;dominant-baseline:auto;baseline-shift:baseline;text-anchor:start;white-space:normal;shape-padding:0;shape-margin:0;inline-size:0;clip-rule:nonzero;display:inline;overflow:visible;visibility:visible;isolation:auto;mix-blend-mode:normal;color-interpolation:sRGB;color-interpolation-filters:linearRGB;solid-color:#000000;solid-opacity:1;vector-effect:none;fill:url(#linearGradient1433-5);fill-opacity:1;fill-rule:nonzero;stroke:none;stroke-width:7.55906;stroke-linecap:round;stroke-linejoin:round;stroke-miterlimit:4;stroke-dasharray:none;stroke-dashoffset:0;stroke-opacity:1;color-rendering:auto;image-rendering:auto;shape-rendering:auto;text-rendering:auto;enable-background:accumulate;stop-color:#000000"
       d="m 13.249691,1.1271939 c -0.54058,0.00276 -1.070765,0.2936805 -1.363269,0.7483298 a 0.01852281,0.01852281 0 0 0 0,0.00475 L 7.2540755,9.1105401 C 6.9824585,9.5339163 6.9208699,10.083388 7.0955584,10.555159 7.2702336,11.026921 7.6760759,11.405545 8.157931,11.54994 l 10.868436,3.257725 7.424681,11.614375 -1.603136,-0.481541 -6.255828,-9.755809 c -0.230276,-0.359287 -0.604781,-0.622831 -1.021696,-0.714235 -0.416907,-0.0914 -0.868578,-0.011 -1.228078,0.218938 -0.359288,0.230275 -0.622831,0.605381 -0.714234,1.022299 -0.09145,0.416898 -0.01039,0.867979 0.219538,1.227476 l 6.581226,10.266661 c 0.208197,0.324512 0.53508,0.571848 0.904457,0.682529 l 6.386829,1.919577 c 0.633374,0.190479 1.371188,-0.04898 1.770046,-0.576649 0.39884,-0.527657 0.428438,-1.302947 0.07234,-1.860358 L 21.447217,12.544751 v -0.0024 a 0.01852281,0.01852281 0 0 0 0,-0.0024 C 21.238799,12.215662 20.910148,11.970222 20.540978,11.859775 L 11.16262,9.0471076 13.258662,5.7780224 15.59637,9.4407118 c 0.23028,0.3592865 0.604785,0.6228332 1.021705,0.7142362 0.416895,0.0914 0.868579,0.01042 1.228078,-0.2195346 0.359805,-0.2297767 0.624617,-0.6047423 0.716622,-1.0217019 0.09203,-0.4169669 0.01039,-0.8676347 -0.21953,-1.227476 L 14.633285,1.8802994 C 14.337557,1.4182442 13.79833,1.1231936 13.249691,1.1271826 Z m 0,0.036489 c 0.535186,-0.00391 1.063348,0.2837431 1.351905,0.7345717 l 3.709944,5.8059898 c 0.224287,0.3513511 0.30454,0.7936089 0.214749,1.2005584 -0.08982,0.4069575 -0.347392,0.7752288 -0.698677,0.9995701 -0.350955,0.2244948 -0.793614,0.3039708 -1.200563,0.2147488 -0.406937,-0.08921 -0.774134,-0.3460858 -0.998973,-0.6968851 L 13.274218,5.735017 a 0.01852281,0.01852281 0 0 0 -0.03113,0 l -2.125365,3.314549 a 0.01852281,0.01852281 0 0 0 0.01153,0.026914 l 9.402881,2.819249 c 0.360552,0.107862 0.680675,0.346292 0.884113,0.66279 a 0.01852281,0.01852281 0 0 0 0,0.0018 l 10.114539,15.828592 c 0.347107,0.543411 0.316432,1.305285 -0.07234,1.819682 -0.388831,0.514387 -1.11184,0.749208 -1.729378,0.563489 l -6.386819,-1.9195 C 22.981625,28.744524 22.66384,28.504894 22.460524,28.188 L 15.878722,17.921322 c -0.224504,-0.350947 -0.303981,-0.793612 -0.214753,-1.200559 0.08925,-0.406932 0.345496,-0.774733 0.696284,-0.999569 0.350943,-0.224494 0.793622,-0.303971 1.200562,-0.214749 0.406938,0.08921 0.774734,0.345489 0.999571,0.696289 l 6.260011,9.762389 a 0.01852281,0.01852281 0 0 0 0.01158,0.009 l 1.657564,0.497689 a 0.01852281,0.01852281 0 0 0 0.0204,-0.02691 L 19.053309,14.783163 a 0.01852281,0.01852281 0 0 0 -0.01153,-0.009 L 8.1667477,11.514043 C 7.6965011,11.373131 7.3017326,11.001722 7.131289,10.54139 6.9608541,10.081065 7.0199279,9.5416752 7.2850179,9.1284757 L 11.917971,1.8958148 a 0.01852281,0.01852281 0 0 0 0,-0.00186 c 0.285355,-0.4435416 0.804143,-0.7276426 1.331563,-0.7303862 z m 0,0.049647 C 12.737519,1.2159071 12.235888,1.4902912 11.9588,1.9209846 L 7.3258557,9.153647 c -0.2573261,0.4011016 -0.3144398,0.925297 -0.1489416,1.372237 0.165481,0.446927 0.5496135,0.805943 1.006145,0.942743 l 10.8971519,3.266692 7.562854,11.833309 -1.849594,-0.555715 -6.273773,-9.785121 c -0.218138,-0.340365 -0.574741,-0.586979 -0.969646,-0.673558 -0.394972,-0.0866 -0.824136,-0.0103 -1.16467,0.207574 -0.340373,0.218147 -0.58699,0.575348 -0.673563,0.970256 -0.08659,0.394965 -0.01039,0.82354 0.207574,1.16407 l 6.581833,10.266658 c 0.197234,0.307417 0.506731,0.539411 0.856601,0.644247 l 6.38683,1.919576 c 0.600145,0.180495 1.297644,-0.04922 1.675529,-0.549131 0.377876,-0.499924 0.407322,-1.233556 0.07003,-1.761659 a 0.02315351,0.02315351 0 0 0 0,-0.0018 L 21.374835,12.585451 c -0.197942,-0.307949 -0.50803,-0.540044 -0.858989,-0.644245 l -9.484228,-2.8443757 2.227044,-3.4748625 2.410085,3.7733567 a 0.02315351,0.02315351 0 0 0 0,0.00241 c 0.218156,0.3403643 0.574755,0.5869803 0.969664,0.6735575 0.394298,0.08645 0.822075,0.0094 1.16227,-0.2075723 0.340856,-0.2176757 0.588809,-0.5752989 0.675962,-0.9702577 0.08716,-0.3949343 0.01183,-0.8190116 -0.205784,-1.1598801 a 0.02315351,0.02315351 0 0 0 0,-0.00416 L 14.560916,1.9234557 C 14.280732,1.4857009 13.769435,1.2096285 13.249691,1.2134077 Z m 0,0.045474 c 0.502997,-0.00369 0.999369,0.2678215 1.270548,0.6915018 l 3.709945,5.8059898 a 0.02315351,0.02315351 0 0 0 0,0.00241 c 0.210851,0.330241 0.285994,0.7432445 0.201589,1.1257857 -0.08439,0.3825245 -0.327842,0.7271137 -0.657997,0.9379596 C 17.444141,10.03269 17.029112,10.110124 16.647385,10.026433 16.264877,9.9425795 15.920738,9.7005205 15.709424,9.3708228 a 0.02315351,0.02315351 0 0 0 0,-0.00241 l -2.430418,-3.805066 a 0.02315351,0.02315351 0 0 0 -0.04067,0 l -2.265324,3.5334835 a 0.02315351,0.02315351 0 0 0 0.01379,0.036489 l 9.51593,2.8527487 c 0.340038,0.100962 0.63968,0.327905 0.831477,0.6263 l 10.115335,15.823805 v 0.0024 a 0.02315351,0.02315351 0 0 0 0,0.0048 c 0.326213,0.510678 0.299587,1.223228 -0.06573,1.706622 -0.365412,0.48341 -1.045035,0.705697 -1.625281,0.531191 L 23.371695,28.762189 C 23.032722,28.660614 22.733101,28.433729 22.542016,28.13589 L 15.960777,17.869206 c -0.211008,-0.329873 -0.287838,-0.745731 -0.203986,-1.128181 0.08392,-0.382505 0.325908,-0.727237 0.655606,-0.938553 0.329877,-0.211011 0.745741,-0.28723 1.128185,-0.203381 0.382505,0.08386 0.727232,0.325911 0.938547,0.65561 l 6.278567,9.791699 a 0.02315351,0.02315351 0 0 0 0.01319,0.009 l 1.921981,0.57665 a 0.02315351,0.02315351 0 0 0 0.02697,-0.03589 L 19.116678,14.701801 a 0.02315351,0.02315351 0 0 0 -0.01379,-0.009 L 8.1967867,11.423112 C 7.7548488,11.290685 7.3825364,10.940526 7.2223399,10.507887 7.0621472,10.075264 7.1179293,9.5688386 7.3670911,9.1805124 L 11.99945,1.9478503 c 0.268199,-0.4168769 0.754566,-0.6866048 1.250204,-0.6891094 z m 0,0.061016 c -0.477795,0.0026 -0.944445,0.2579739 -1.202944,0.6598 L 7.414387,9.2122811 C 7.1743399,9.586438 7.1218228,10.070673 7.2762098,10.487613 c 0.1543947,0.416972 0.5126355,0.754101 0.9385418,0.881726 L 19.148394,14.645005 26.887123,26.74989 24.72588,26.103251 18.431773,16.286428 c -0.203468,-0.317458 -0.536055,-0.549724 -0.904462,-0.630489 -0.368415,-0.08076 -0.765698,-0.0088 -1.08331,0.194411 -0.317462,0.203468 -0.549727,0.536054 -0.630484,0.904455 -0.0808,0.368414 -0.0093,0.765109 0.194408,1.082717 l 6.581221,10.266659 c 0.183973,0.286745 0.474039,0.50578 0.800382,0.603572 l 6.386831,1.919578 c 0.560097,0.168446 1.207465,-0.04676 1.560066,-0.513246 0.352665,-0.466545 0.380638,-1.148549 0.06586,-1.64142 L 21.286981,12.644074 c -0.184633,-0.287238 -0.475386,-0.50637 -0.802769,-0.603569 l -9.617638,-2.8826572 2.392155,-3.7326774 2.498016,3.913926 c 0.203477,0.3174558 0.536068,0.5497194 0.904457,0.6304896 0.368424,0.080764 0.765708,0.00879 1.083319,-0.1944123 0.317976,-0.203066 0.549215,-0.5361278 0.63049,-0.9044554 0.08125,-0.3683755 0.0104,-0.7647482 -0.192022,-1.0827161 L 14.473041,1.9820129 C 14.211599,1.573544 13.734629,1.3162949 13.249756,1.3198195 Z m 0,0.06759 c 0.459828,-0.00339 0.916218,0.243851 1.164069,0.6310874 l 3.710546,5.8053918 c 0.192721,0.3019286 0.260226,0.6838883 0.18304,1.0336647 -0.07721,0.3498197 -0.297547,0.6662411 -0.599382,0.8589927 C 17.406328,9.9095711 17.024579,9.9786471 16.674896,9.9019843 16.32521,9.8253194 16.009126,9.6040769 15.815912,9.3026021 L 13.287976,5.3438102 a 0.03473027,0.03473027 0 0 0 -0.05857,0 l -2.446577,3.8164249 a 0.03473027,0.03473027 0 0 0 0.02032,0.052042 l 9.663094,2.8964159 c 0.310899,0.09231 0.586702,0.299018 0.762082,0.571866 l 10.11472,15.827995 c 0.298077,0.466652 0.272903,1.123111 -0.061,1.564851 -0.333957,0.441802 -0.957467,0.64519 -1.487694,0.485728 l -6.38683,-1.919578 c -0.309936,-0.09287 -0.584976,-0.299531 -0.759694,-0.571867 L 16.066591,17.801029 c -0.19301,-0.301636 -0.262095,-0.683389 -0.185421,-1.033068 0.07662,-0.34969 0.29789,-0.665769 0.599363,-0.858993 0.30164,-0.193024 0.683394,-0.2621 1.033084,-0.185437 0.349687,0.07667 0.665763,0.297908 0.858985,0.599383 l 6.30128,9.827589 a 0.03473027,0.03473027 0 0 0 0.0204,0.01614 l 2.262938,0.678344 a 0.03473027,0.03473027 0 0 0 0.03829,-0.05204 l -7.795083,-12.19521 a 0.03473027,0.03473027 0 0 0 -0.0204,-0.01614 L 8.2326408,11.301143 C 7.8286475,11.180089 7.4859756,10.86036 7.3395411,10.464879 7.1931019,10.069373 7.2452032,9.6032063 7.4729474,9.248171 L 12.105293,2.0161071 C 12.350448,1.6350333 12.796507,1.3897785 13.24962,1.387412 Z m 0.0021,0.052042 c -0.438168,0.00233 -0.866487,0.2349381 -1.10365,0.6035722 a 0.04630703,0.04630703 0 0 0 0,0.00241 0.04630703,0.04630703 0 0 0 -0.0021,0.00241 L 7.5160777,9.2781165 c -0.219164,0.3428954 -0.2681738,0.7870995 -0.1268073,1.1688555 0.1415447,0.382278 0.4665822,0.689906 0.8571948,0.806953 l 10.9784968,3.287041 7.937935,12.41714 -2.514191,-0.750724 -6.319222,-9.857502 c -0.186543,-0.291049 -0.489569,-0.50261 -0.827296,-0.576651 -0.337799,-0.07405 -0.701193,-0.0074 -0.992387,0.178857 a 0.04630703,0.04630703 0 0 0 -0.0021,0 c -0.291051,0.18654 -0.502593,0.489561 -0.576647,0.82729 -0.07304,0.33299 -0.0081,0.690166 0.172275,0.979231 a 0.04630703,0.04630703 0 0 0 0,6.74e-4 0.04630703,0.04630703 0 0 0 0.007,0.01256 0.04630703,0.04630703 0 0 0 0,0.0024 l 6.581225,10.266652 c 0.168633,0.262861 0.431255,0.461895 0.730375,0.551528 L 29.808763,30.512 c 0.256253,0.07707 0.534656,0.07409 0.789007,-0.009 0.254374,-0.08309 0.482839,-0.247669 0.64424,-0.461201 0.161384,-0.213491 0.25448,-0.474499 0.265014,-0.74175 0.01039,-0.267346 -0.06168,-0.536607 -0.205796,-0.76209 L 21.190197,12.718896 a 0.04630703,0.04630703 0 0 0 -0.0048,-0.009 0.04630703,0.04630703 0 0 0 0,-0.0024 c -0.169245,-0.26325 -0.432694,-0.462424 -0.732757,-0.551517 l -9.771384,-2.9299077 2.577596,-4.0222006 2.595525,4.0604837 a 0.04630703,0.04630703 0 0 0 0.0048,0.00903 0.04630703,0.04630703 0 0 0 0,0.00241 c 0.186547,0.2910498 0.490167,0.5026095 0.827902,0.5766501 0.337795,0.074061 0.701172,0.00742 0.992378,-0.1788558 0.29147,-0.18613 0.504502,-0.489467 0.579051,-0.8272905 0.07454,-0.3377123 0.0093,-0.7008235 -0.176474,-0.9923913 L 14.371969,2.0478741 C 14.132254,1.6733366 13.69761,1.4362844 13.252768,1.4395194 Z m 0,0.090324 c 0.411164,-0.00305 0.820281,0.2212237 1.042037,0.567677 l 3.709943,5.8059897 c 0.172449,0.2701222 0.231782,0.6111917 0.162709,0.9241984 -0.069,0.3128921 -0.267619,0.5967474 -0.537765,0.7692666 -0.269887,0.1726511 -0.611922,0.2330969 -0.924788,0.1645015 -0.31083,-0.068146 -0.59127,-0.2642046 -0.764478,-0.5311912 a 0.04630703,0.04630703 0 0 0 -0.0017,-0.00241 c -4.5e-4,-9.314e-4 -0.0021,-8.864e-4 -0.0021,-0.00174 a 0.04630703,0.04630703 0 0 0 0,-0.00241 L 13.297022,5.0931735 a 0.04630703,0.04630703 0 0 0 -0.07652,0 l -2.649969,4.1346596 a 0.04630703,0.04630703 0 0 0 0.02511,0.070588 l 9.829984,2.9478589 c 0.276198,0.08202 0.521236,0.265221 0.678332,0.506664 0.0017,0.0018 0.003,0.0024 0.0048,0.0041 a 0.04630703,0.04630703 0 0 0 0,0.0024 l 10.115288,15.828649 c 0.133648,0.209233 0.201835,0.459565 0.192021,0.707654 -0.0093,0.248181 -0.09677,0.493487 -0.246451,0.691501 -0.149649,0.197972 -0.36283,0.350032 -0.598779,0.427106 -0.235993,0.07707 -0.497445,0.07868 -0.735177,0.0072 l -6.386829,-1.91958 c -0.277428,-0.08313 -0.523777,-0.267127 -0.68014,-0.510851 L 16.191643,17.731038 v -0.0024 a 0.04630703,0.04630703 0 0 0 -0.0048,-0.0041 0.04630703,0.04630703 0 0 0 0,-0.0024 c -0.172653,-0.269898 -0.233105,-0.611934 -0.164506,-0.924795 0.06818,-0.310831 0.2642,-0.590677 0.531195,-0.763884 a 0.04630703,0.04630703 0 0 0 0.0021,-0.0024 c 4.49e-4,-5.6e-4 4.49e-4,-0.0018 0.0021,-0.0024 a 0.04630703,0.04630703 0 0 0 0.0021,0 c 0.2699,-0.17265 0.611931,-0.233693 0.924797,-0.165096 0.312943,0.0686 0.59576,0.266209 0.768667,0.535974 l 6.328198,9.871258 a 0.04630703,0.04630703 0 0 0 0.02455,0.02034 l 2.649917,0.79315 a 0.04630703,0.04630703 0 0 0 0.05208,-0.06998 l -8.01607,-12.536178 a 0.04630703,0.04630703 0 0 0 -0.02511,-0.02034 L 8.2722438,11.163614 C 7.9108769,11.055324 7.6053055,10.769172 7.4742666,10.415285 7.3435064,10.062155 7.3887205,9.6451638 7.5915013,9.3277808 L 12.224455,2.0951204 a 0.04630703,0.04630703 0 0 0 0,-0.00241 c 0.219227,-0.3407599 0.621138,-0.5607818 1.026488,-0.5628959 z m 0,0.069986 A 1.1576757,1.1576757 0 0 0 12.283939,2.1315507 L 7.6515926,9.3636155 a 1.1576757,1.1576757 0 0 0 0.64186,1.7341405 l 11.0353214,3.307968 8.204705,12.83467 -2.989123,-0.897876 -6.350331,-9.904757 a 1.1575599,1.1575599 0 0 0 -1.59836,-0.349939 1.1575599,1.1575599 0 0 0 -0.350534,1.598353 l 6.581226,10.266659 a 1.1576757,1.1576757 0 0 0 0.641861,0.483334 l 6.386824,1.919578 a 1.1576757,1.1576757 0 0 0 1.309435,-1.731748 L 21.049183,12.796003 A 1.1576757,1.1576757 0 0 0 20.404938,12.31207 L 10.427799,9.3205448 13.25842,4.9029435 15.993916,9.1871483 A 1.1575599,1.1575599 0 0 0 17.592281,9.5376848 1.1575599,1.1575599 0 0 0 17.94521,7.9393327 L 14.235264,2.1333439 A 1.1576757,1.1576757 0 0 0 13.251846,1.5997598 Z M 6.3218136,11.909494 a 0.01852281,0.01852281 0 0 0 -0.013192,0.0066 c -0.5291892,0.01512 -1.0443741,0.300472 -1.3297579,0.746535 l -4.59166823,7.166874 c -0.27161765,0.423378 -0.33260422,0.972849 -0.15791995,1.444616 0.17468427,0.471765 0.58050945,0.850389 1.06237658,0.994784 l 16.2802299,4.890168 c 0.409018,0.123171 0.864913,0.0779 1.241229,-0.124423 0.376299,-0.202303 0.666149,-0.558714 0.789012,-0.967864 0.123045,-0.409476 0.07675,-0.866653 -0.126217,-1.243028 -0.202609,-0.375774 -0.558991,-0.664682 -0.967861,-0.787215 a 0.01852281,0.01852281 0 0 0 -0.0048,0 L 4.296394,19.766103 4.9495987,18.753376 13.952305,21.468542 c 0.634263,0.19187 1.373201,-0.05018 1.772437,-0.579046 0.398785,-0.528274 0.427598,-1.303087 0.07061,-1.860354 a 0.01852281,0.01852281 0 0 0 0,-0.0024 L 12.77929,14.32441 v -0.0024 a 0.01852281,0.01852281 0 0 0 0,-0.0024 c -0.200804,-0.312513 -0.510795,-0.553799 -0.863771,-0.669387 a 0.01852281,0.01852281 0 0 0 -0.007,0 l -5.04629,-1.661749 a 0.01852281,0.01852281 0 0 0 -0.00479,0 h -0.00479 c -0.1682257,-0.0542 -0.3436433,-0.07893 -0.5204185,-0.07658 -0.00297,5.3e-5 -0.00699,-0.0024 -0.011535,-0.0024 z m 0,0.03589 c 0.1779286,-0.0037 0.3553016,0.0245 0.5245993,0.07956 a 0.01852281,0.01852281 0 0 0 0.00699,0 l 5.0457081,1.661762 a 0.01852281,0.01852281 0 0 0 0.0021,0 c 0.344687,0.112874 0.649774,0.345711 0.845841,0.650827 a 0.01852281,0.01852281 0 0 0 0,0.0024 l 3.013662,4.700542 a 0.01852281,0.01852281 0 0 0 0.0021,0.0066 c 0.348067,0.543307 0.318778,1.304671 -0.07003,1.819681 -0.389234,0.515612 -1.114016,0.75234 -1.73235,0.565285 L 4.9445911,18.7127 a 0.01852281,0.01852281 0 0 0 -0.020396,0.009 l -0.674152,1.046826 a 0.01852281,0.01852281 0 0 0 0.011578,0.02691 L 18.49647,24.073061 a 0.01852281,0.01852281 0 0 0 0.0048,0 c 0.398501,0.119931 0.745269,0.402416 0.942754,0.768669 0.198065,0.367363 0.242146,0.816382 0.122018,1.216111 -0.11994,0.399434 -0.40375,0.747661 -0.771059,0.945134 -0.367287,0.197459 -0.814941,0.239902 -1.214321,0.119639 L 1.3003367,22.232401 C 0.83009457,22.091489 0.43533451,21.720679 0.2648783,21.260348 0.09444345,20.800023 0.15352144,20.260635 0.41860726,19.847434 L 5.010285,12.680571 C 5.2915378,12.240992 5.7998105,11.954889 6.3215128,11.9454 Z m 0.00211,0.05025 c -0.5066143,0.0091 -0.9998728,0.282655 -1.2729316,0.709449 l -4.59146567,7.166864 c -0.25732868,0.401101 -0.3144429,0.925897 -0.14894984,1.372836 0.16548184,0.446921 0.54963127,0.805939 1.00615331,0.942742 l 16.2802222,4.890161 c 0.387517,0.116706 0.819031,0.07198 1.17543,-0.119635 0.356452,-0.191628 0.631929,-0.528206 0.74834,-0.915823 0.116566,-0.387888 0.07258,-0.821303 -0.119644,-1.177827 -0.192229,-0.356533 -0.530104,-0.630783 -0.918209,-0.746536 L 4.1653131,19.815716 4.9112489,18.651648 13.977352,21.38715 c 0.600469,0.180557 1.299519,-0.04924 1.677307,-0.549731 0.378271,-0.501097 0.407708,-1.237106 0.06818,-1.765246 L 12.706784,14.365049 C 12.516281,14.068586 12.221151,13.840862 11.88607,13.731571 L 6.8331356,12.069809 C 6.669084,12.016449 6.4966344,11.992049 6.3240879,11.995629 Z m 0,0.04486 c 0.167262,-0.0034 0.3361488,0.023 0.4953068,0.07477 l 5.0528706,1.66176 c 0.324627,0.105881 0.609179,0.327631 0.793799,0.614935 l 3.016042,4.707123 c 0.328265,0.510647 0.302349,1.226903 -0.06343,1.71141 -0.365289,0.483895 -1.047088,0.705757 -1.627652,0.53119 L 4.908577,18.601396 a 0.02315351,0.02315351 0 0 0 -0.026892,0.009 l -0.7758476,1.205342 a 0.02315351,0.02315351 0 0 0 0.013783,0.0359 l 14.3498816,4.311728 c 0.375972,0.112134 0.704526,0.377923 0.890699,0.723207 0.186178,0.345294 0.22836,0.766223 0.115404,1.141935 -0.112744,0.375394 -0.380939,0.702689 -0.726194,0.888305 -0.345288,0.185641 -0.763629,0.228478 -1.138944,0.115444 L 1.3298167,22.142059 C 0.88788325,22.009631 0.51556191,21.658875 0.35536521,21.226235 0.19518978,20.793616 0.2509597,20.287787 0.50013288,19.89946 L 5.0918064,12.732599 C 5.3561203,12.319484 5.8337467,12.04938 6.3240745,12.040498 Z m 0.00211,0.06102 c -0.4726044,0.0085 -0.9320196,0.264581 -1.1867954,0.662793 l -4.59234344,7.166862 c -0.24004826,0.374155 -0.2919626,0.857789 -0.13757614,1.274733 0.1543876,0.416969 0.51203388,0.754097 0.93794488,0.881723 l 16.2784315,4.890766 c 0.361507,0.108857 0.764008,0.06748 1.096479,-0.111264 0.332506,-0.178764 0.590107,-0.495075 0.698677,-0.856601 0.108694,-0.36176 0.06864,-0.761577 -0.110665,-1.094081 -0.179303,-0.33258 -0.49691,-0.590693 -0.858981,-0.698682 L 3.9996396,19.876727 4.8652109,18.529015 14.006085,21.287249 c 0.560886,0.169677 1.211249,-0.04502 1.564261,-0.512645 0.352994,-0.467615 0.380243,-1.15093 0.06343,-1.643813 l -3.01618,-4.707128 C 12.43993,14.147155 12.166247,13.933393 11.85373,13.831459 L 6.8008904,12.169699 C 6.647789,12.119911 6.486668,12.098163 6.3259321,12.101507 Z m 0,0.06819 c 0.1531358,-0.0033 0.3067756,0.02029 0.4522348,0.06759 l 5.0528676,1.661763 c 0.296847,0.09682 0.559173,0.297779 0.728004,0.560498 l 3.016046,4.707124 c 0.299977,0.466648 0.275634,1.123864 -0.05857,1.566649 -0.334241,0.442773 -0.961554,0.646936 -1.492473,0.486324 L 4.8587088,18.454838 a 0.03473027,0.03473027 0 0 0 -0.038302,0.01556 l -0.904444,1.408726 a 0.03473027,0.03473027 0 0 0 0.020399,0.05204 l 14.4964232,4.35419 c 0.343715,0.102514 0.643929,0.347109 0.81414,0.662792 0.170247,0.315756 0.209723,0.700861 0.106492,1.04443 -0.103024,0.343263 -0.347151,0.642048 -0.662777,0.811737 -0.315678,0.16971 -0.703716,0.209203 -1.046837,0.105883 L 1.3661922,22.020025 C 0.96220268,21.898968 0.61952643,21.579241 0.47309687,21.183762 0.3266448,20.788253 0.37875889,20.322086 0.6064942,19.967054 L 5.1981637,12.800188 C 5.439758,12.42258 5.8780746,12.177818 6.3263479,12.1697 Z m 0.00211,0.05204 c -0.4335619,0.008 -0.8538657,0.242591 -1.0875045,0.607759 l -4.59125756,7.165068 c -0.22018692,0.343216 -0.26839044,0.788293 -0.12680725,1.170648 0.14154506,0.382277 0.46600164,0.690506 0.85659641,0.80755 l 16.2808763,4.890172 c 0.331365,0.09979 0.701265,0.06221 1.006145,-0.101692 0.304813,-0.163877 0.539898,-0.450879 0.639465,-0.782428 0.09978,-0.331855 0.06033,-0.703639 -0.104064,-1.008542 -0.164365,-0.304818 -0.449906,-0.53867 -0.781822,-0.637666 L 3.8144651,19.944325 4.8134296,18.38665 14.040444,21.172399 c 0.256709,0.07766 0.536597,0.07171 0.791408,-0.01134 0.254828,-0.08309 0.482698,-0.244814 0.644244,-0.458805 0.161541,-0.213998 0.254309,-0.476336 0.264399,-0.744145 0.01039,-0.267879 -0.06323,-0.538334 -0.208172,-0.763883 l -3.01605,-4.707123 c -0.162958,-0.253604 -0.414179,-0.44499 -0.700475,-0.538372 L 6.7623231,12.28697 C 6.6296459,12.24383 6.4913202,12.22565 6.3513572,12.22595 a 0.04630703,0.04630703 0 0 0 -0.011535,-0.0024 c -0.00297,4.5e-5 -0.00814,-0.0018 -0.011535,-0.0018 z m 0,0.09032 c 0.1367315,-0.0028 0.2762739,0.01858 0.4067668,0.06102 l 5.0528836,1.661759 c 0.265841,0.08671 0.500423,0.266882 0.65142,0.501882 l 3.016,4.707122 c 0.134466,0.209167 0.203765,0.461504 0.194417,0.710046 -0.0093,0.24861 -0.09666,0.495433 -0.246459,0.693895 -0.149811,0.198466 -0.362885,0.34999 -0.599374,0.427103 -0.236522,0.07712 -0.499039,0.07915 -0.736974,0.0072 L 4.8063191,18.287347 a 0.04630703,0.04630703 0 0 0 -0.052077,0.02034 l -1.0509483,1.639026 a 0.04630703,0.04630703 0 0 0 0.024555,0.06998 l 14.6639182,4.406834 c 0.30758,0.09174 0.575632,0.309635 0.727992,0.592203 0.152312,0.282487 0.187446,0.62892 0.09515,0.936161 -0.09225,0.307055 -0.312119,0.57613 -0.594589,0.72799 -0.282408,0.151828 -0.626682,0.185199 -0.933772,0.09272 L 1.4066385,21.881843 C 1.0452601,21.773553 0.73968402,21.487399 0.60864871,21.133514 0.47765143,20.779706 0.52217335,20.361725 0.72589667,20.044216 L 5.3175655,12.87915 c 0.2161318,-0.337809 0.6100946,-0.559744 1.0109322,-0.567084 z m 0.00211,0.06998 a 1.1576757,1.1576757 0 0 0 -0.9541069,0.533583 l -4.59231496,7.166862 a 1.1576757,1.1576757 0 0 0 0.64244976,1.73414 l 16.2802955,4.890174 a 1.1575599,1.1575599 0 0 0 1.442225,-0.775251 1.1575599,1.1575599 0 0 0 -0.777646,-1.442821 l -14.810479,-4.449307 1.182012,-1.84241 9.344261,2.81925 a 1.1576757,1.1576757 0 0 0 1.308832,-1.734141 l -3.01566,-4.707118 a 1.1576757,1.1576757 0 0 0 -0.615528,-0.474962 l -5.0528672,-1.66176 a 1.1576757,1.1576757 0 0 0 -0.3816464,-0.05622 z m 0.5108584,2.536904 3.811632,1.252003 1.103064,1.722775 -5.7150731,-1.72457 z m 0.044903,0.09032 a 0.04630703,0.04630703 0 0 0 -0.033464,0.02034 l -0.6717676,1.046827 a 0.04630703,0.04630703 0 0 0 0.02511,0.06998 l 5.2717596,1.591769 a 0.04630703,0.04630703 0 0 0 0.05208,-0.07059 l -0.913629,-1.424257 a 0.04630703,0.04630703 0 0 0 -0.02452,-0.01794 L 6.904387,15.011075 a 0.04630703,0.04630703 0 0 0 -0.018538,-0.0017 z m 0.02511,0.09929 3.637567,1.198166 0.836855,1.304646 -5.0941352,-1.537337 z m 0.036472,0.0688 a 0.03473027,0.03473027 0 0 0 -0.00929,0.0011 0.03473027,0.03473027 0 0 0 -0.022686,0.01614 l -0.5198236,0.813533 a 0.03473027,0.03473027 0 0 0 0.020396,0.05204 l 4.7615566,1.435646 a 0.03473027,0.03473027 0 0 0 0.03829,-0.05204 l -0.69389,-1.08271 a 0.03473027,0.03473027 0 0 0 -0.01798,-0.01614 L 6.9561195,15.178561 a 0.03473027,0.03473027 0 0 0 -0.00814,-0.0012 z m 0.010395,0.07837 3.511354,1.152703 0.637669,0.992391 -4.6281716,-1.39497 z m 0.035878,0.07358 a 0.02315351,0.02315351 0 0 0 -0.00699,6.74e-4 0.02315351,0.02315351 0 0 0 -0.013192,0.0096 l -0.3888268,0.607759 a 0.02315351,0.02315351 0 0 0 0.013192,0.03649 l 4.3141058,1.302262 a 0.02315351,0.02315351 0 0 0 0.0268,-0.03649 l -0.501868,-0.786614 a 0.02315351,0.02315351 0 0 0 -0.01379,-0.009 L 7.0004378,15.329977 a 0.02315351,0.02315351 0 0 0 -0.00699,-6.74e-4 z m 0.011956,0.05263 3.395293,1.11502 0.463588,0.725598 -4.2207815,-1.275331 z m 0.027524,0.05982 a 0.01852281,0.01852281 0 0 0 -0.00699,0.0012 0.01852281,0.01852281 0 0 0 -0.00929,0.0096 l -0.2871275,0.447444 a 0.01852281,0.01852281 0 0 0 0.011535,0.02691 l 3.9659755,1.196373 a 0.01852281,0.01852281 0 0 0 0.0204,-0.02751 l -0.355378,-0.553927 a 0.01852281,0.01852281 0 0 0 -0.0093,-0.009 L 7.0396451,15.442914 a 0.01852281,0.01852281 0 0 0 -0.00604,-0.0011 z m 0.00604,0.04188 3.305582,1.083314 0.323015,0.506067 -3.8929924,-1.175434 z"
       inkscape:export-xdpi="300"
       inkscape:export-ydpi="300" />
  </g>
</svg>
