<?xml version="1.0" encoding="UTF-8" standalone="no"?>
<svg
   xmlns:dc="http://purl.org/dc/elements/1.1/"
   xmlns:cc="http://creativecommons.org/ns#"
   xmlns:rdf="http://www.w3.org/1999/02/22-rdf-syntax-ns#"
   xmlns:svg="http://www.w3.org/2000/svg"
   xmlns="http://www.w3.org/2000/svg"
   xmlns:xlink="http://www.w3.org/1999/xlink"
   xmlns:sodipodi="http://sodipodi.sourceforge.net/DTD/sodipodi-0.dtd"
   xmlns:inkscape="http://www.inkscape.org/namespaces/inkscape"
   inkscape:export-ydpi="97.004654"
   inkscape:export-xdpi="97.004654"
   inkscape:export-filename="D:\Eoghan\EoghanStaunton.github.io\static\favicon\favicon-16x16.png"
   inkscape:version="1.0 (4035a4fb49, 2020-05-01)"
   sodipodi:docname="favicon-16x16.svg"
   viewBox="0 0 16 16"
   height="16"
   width="16"
   id="svg2"
   version="1.1">
  <metadata
     id="metadata8">
    <rdf:RDF>
      <cc:Work
         rdf:about="">
        <dc:format>image/svg+xml</dc:format>
        <dc:type
           rdf:resource="http://purl.org/dc/dcmitype/StillImage" />
        <dc:title></dc:title>
      </cc:Work>
    </rdf:RDF>
  </metadata>
  <defs
     id="defs6">
    <linearGradient
       gradientUnits="userSpaceOnUse"
       y2="1.6656761"
       x2="237.3262"
       y1="9.7354679"
       x1="218.6898"
       id="linearGradient1433-5"
       xlink:href="#linearGradient1431"
       inkscape:collect="always"
       gradientTransform="matrix(0.57857393,0,0,0.57857393,-125.95402,5.0947886)" />
    <linearGradient
       inkscape:collect="always"
       id="linearGradient1431">
      <stop
         style="stop-color:#00b5ae;stop-opacity:1"
         offset="0"
         id="stop1427" />
      <stop
         style="stop-color:#90009e;stop-opacity:1"
         offset="1"
         id="stop1429" />
    </linearGradient>
  </defs>
  <sodipodi:namedview
     inkscape:current-layer="g10"
     inkscape:window-maximized="1"
     inkscape:window-y="-9"
     inkscape:window-x="-9"
     inkscape:cy="8.4383608"
     inkscape:cx="7.6635845"
     inkscape:zoom="51.875"
     showgrid="false"
     id="namedview4"
     inkscape:window-height="1001"
     inkscape:window-width="1920"
     inkscape:pageshadow="2"
     inkscape:pageopacity="0"
     guidetolerance="10"
     gridtolerance="10"
     objecttolerance="10"
     borderopacity="1"
     bordercolor="#666666"
     pagecolor="#ffffff" />
  <g
     id="g10"
     inkscape:label="Image"
     inkscape:groupmode="layer">
    <path
       id="path1423-4"
       style="color:#000000;font-style:normal;font-variant:normal;font-weight:normal;font-stretch:normal;font-size:medium;line-height:normal;font-family:sans-serif;font-variant-ligatures:normal;font-variant-position:normal;font-variant-caps:normal;font-variant-numeric:normal;font-variant-alternates:normal;font-variant-east-asian:normal;font-feature-settings:normal;font-variation-settings:normal;text-indent:0;text-align:start;text-decoration:none;text-decoration-line:none;text-decoration-style:solid;text-decoration-color:#000000;letter-spacing:normal;word-spacing:normal;text-transform:none;writing-mode:lr-tb;direction:ltr;text-orientation:mixed;dominant-baseline:auto;baseline-shift:baseline;text-anchor:start;white-space:normal;shape-padding:0;shape-margin:0;inline-size:0;clip-rule:nonzero;display:inline;overflow:visible;visibility:visible;isolation:auto;mix-blend-mode:normal;color-interpolation:sRGB;color-interpolation-filters:linearRGB;solid-color:#000000;solid-opacity:1;vector-effect:none;fill:url(#linearGradient1433-5);fill-opacity:1;fill-rule:nonzero;stroke:none;stroke-width:7.55908;stroke-linecap:round;stroke-linejoin:round;stroke-miterlimit:4;stroke-dasharray:none;stroke-dashoffset:0;stroke-opacity:1;color-rendering:auto;image-rendering:auto;shape-rendering:auto;text-rendering:auto;enable-background:accumulate;stop-color:#000000"
       d="M 6.6719523,0.30863865 C 6.4017583,0.31001842 6.13676,0.45542718 5.9905598,0.68267094 a 0.00925811,0.00925811 0 0 0 0,0.002373 L 3.6752115,4.2988918 C 3.5394511,4.5105046 3.5086679,4.7851427 3.5959811,5.020944 3.6832875,5.2567409 3.8861368,5.4459858 4.1269783,5.5181576 L 9.5592611,7.1464398 13.270281,12.95156 12.468998,12.710874 9.3421974,7.8347071 C 9.2271004,7.6551277 9.0399146,7.523402 8.8315314,7.4777164 8.6231521,7.432032 8.3973968,7.4722201 8.2177108,7.5871466 8.0381307,7.7022428 7.9064061,7.8897293 7.8607212,8.0981137 c -0.045708,0.2083755 -0.00519,0.4338351 0.109729,0.6135195 l 3.2894418,5.1315038 c 0.104062,0.162198 0.267445,0.285822 0.452067,0.341142 l 3.192279,0.959448 c 0.316574,0.0952 0.68535,-0.02449 0.884708,-0.288222 0.199349,-0.263736 0.214142,-0.651241 0.03615,-0.929848 L 10.769252,6.0153851 v -0.00121 a 0.00925811,0.00925811 0 0 0 0,-0.00121 C 10.665083,5.8508992 10.500817,5.7282231 10.316298,5.6730189 L 5.6287874,4.2671863 6.6764356,2.6332256 7.8448736,4.4639183 C 7.9599729,4.6434976 8.1471587,4.7752238 8.3555442,4.8209096 8.5639175,4.8665929 8.7896787,4.826116 8.9693648,4.7111816 9.1492033,4.5963336 9.2815618,4.4089176 9.3275479,4.200512 9.373547,3.9921027 9.3327414,3.766849 9.2178223,3.5869925 L 7.3635022,0.68505794 C 7.2156912,0.45411207 6.9461736,0.30663982 6.6719523,0.30863366 Z m 0,0.0182394 c 0.2674972,-0.001952 0.5314844,0.141821 0.6757114,0.36715498 L 9.2019753,3.5959941 C 9.314079,3.7716071 9.3541913,3.9926573 9.3093116,4.1960596 9.2644146,4.399466 9.1356773,4.583536 8.9600972,4.6956667 8.7846821,4.8078738 8.5634316,4.847598 8.3600299,4.8030028 8.1566337,4.758412 7.9731003,4.6300213 7.8607212,4.4546842 L 6.6842108,2.6117306 a 0.00925811,0.00925811 0 0 0 -0.015559,0 L 5.6063477,4.268415 a 0.00925811,0.00925811 0 0 0 0.00577,0.013452 l 4.6997663,1.4091226 c 0.180211,0.053912 0.340217,0.1730846 0.4419,0.3312771 a 0.00925811,0.00925811 0 0 0 0,9.31e-4 l 5.055469,7.9114783 c 0.173492,0.27161 0.158159,0.652411 -0.03615,0.909517 -0.194347,0.257103 -0.555722,0.374472 -0.864381,0.281645 l -3.192285,-0.95944 C 11.536187,14.112386 11.37735,13.992617 11.27573,13.834226 L 7.9859994,8.7027139 C 7.8737874,8.5273026 7.8340627,8.3060488 7.8786607,8.1026483 7.9232689,7.8992549 8.0513472,7.715419 8.2266794,7.6030412 8.4020877,7.4908343 8.6233489,7.4511095 8.8267467,7.4957047 9.0301428,7.5402956 9.2139753,7.668388 9.3263543,7.8437257 l 3.1288907,4.8794573 a 0.00925811,0.00925811 0 0 0 0.0058,0.0045 l 0.828487,0.248756 a 0.00925811,0.00925811 0 0 0 0.0102,-0.01345 L 9.5727261,7.1342053 a 0.00925811,0.00925811 0 0 0 -0.00577,-0.00451 L 4.1313851,5.5002146 C 3.8963455,5.4297839 3.6990313,5.2441453 3.6138401,5.0140617 3.5286531,4.7839809 3.5581792,4.5143821 3.6906773,4.3078558 L 6.0063288,0.69281284 a 0.00925811,0.00925811 0 0 0 0,-9.3093e-4 C 6.1489553,0.47019004 6.4082575,0.32819003 6.6718737,0.32681881 Z m 0,0.0248138 C 6.4159569,0.35298211 6.1652307,0.49012282 6.0267361,0.70539287 L 3.7110886,4.3204371 C 3.5824718,4.5209165 3.5539249,4.7829209 3.6366449,5.0063112 3.7193563,5.2296951 3.9113538,5.4091393 4.1395381,5.4775152 L 9.5861744,7.1102793 13.366254,13.024828 12.441787,12.747069 9.3060172,7.8562502 C 9.196987,7.6861284 9.0187491,7.5628649 8.8213671,7.519591 8.6239512,7.4763082 8.4094456,7.5144423 8.2392391,7.6233407 8.069113,7.7323759 7.9458488,7.9109128 7.9025778,8.1082965 c -0.043277,0.197412 -0.00519,0.4116237 0.1037497,0.5818279 l 3.2897445,5.1315006 c 0.09859,0.153655 0.253277,0.26961 0.428148,0.32201 l 3.192278,0.959446 c 0.299967,0.09023 0.648591,-0.0246 0.837467,-0.274468 0.188871,-0.249874 0.203589,-0.616559 0.035,-0.880516 a 0.01157264,0.01157264 0 0 0 0,-9.31e-4 L 10.733078,6.0357284 C 10.634142,5.8818083 10.479153,5.7658018 10.303737,5.7137204 L 5.56331,4.2920388 6.6764356,2.555226 7.8810494,4.4412328 a 0.01157264,0.01157264 0 0 0 0,0.00121 C 7.9900886,4.6125632 8.1683247,4.7358273 8.3657085,4.7791007 8.5627873,4.822308 8.7765996,4.7837919 8.9466367,4.6753515 9.1170041,4.566553 9.2409363,4.3878045 9.2844979,4.1903954 9.3280634,3.9929986 9.2904091,3.7810354 9.1816426,3.6106618 a 0.01157264,0.01157264 0 0 0 0,-0.00208 L 7.3273311,0.70662779 C 7.1872885,0.48782887 6.9317316,0.34984184 6.6719523,0.35173077 Z m 0,0.0227288 c 0.2514086,-0.001841 0.499506,0.13386314 0.6350478,0.34562782 L 9.1613117,3.6220098 a 0.01157264,0.01157264 0 0 0 0,0.00121 C 9.2667,3.7882804 9.3042578,3.9947087 9.2620708,4.1859112 9.2198913,4.3771025 9.0982083,4.5493358 8.9331891,4.6547212 8.7684301,4.759802 8.5609897,4.7985055 8.3701943,4.7566747 8.179008,4.714763 8.0069999,4.5937765 7.9013804,4.4289864 a 0.01157264,0.01157264 0 0 0 0,-0.00121 L 6.6866039,2.5259261 a 0.01157264,0.01157264 0 0 0 -0.020327,0 L 5.5340171,4.2920388 a 0.01157264,0.01157264 0 0 0 0.00689,0.018239 l 4.7562709,1.4258661 c 0.169959,0.050463 0.319726,0.1638947 0.415592,0.3130383 l 5.055867,7.9090858 v 0.0012 a 0.01157264,0.01157264 0 0 0 0,0.0023 c 0.163048,0.255247 0.14974,0.611395 -0.03285,0.853006 -0.182642,0.241619 -0.522331,0.352724 -0.812352,0.265502 L 11.731153,14.12118 C 11.561725,14.070408 11.411969,13.957008 11.31646,13.808142 L 8.0270123,8.676665 C 7.9215458,8.5117872 7.8831442,8.3039323 7.9250557,8.1127755 7.967002,7.9215909 8.0879514,7.7492862 8.2527417,7.6436661 8.4176217,7.5381979 8.6254796,7.5001019 8.8166335,7.5420111 9.0078175,7.5839231 9.1801205,7.7049091 9.28574,7.8697 l 3.138166,4.894107 a 0.01157264,0.01157264 0 0 0 0.0066,0.0045 l 0.960648,0.288222 a 0.01157264,0.01157264 0 0 0 0.01349,-0.01793 L 9.6043561,7.0935766 a 0.01157264,0.01157264 0 0 0 -0.00687,-0.00451 L 4.1463993,5.4547652 C 3.9255092,5.388576 3.7394193,5.2135585 3.6593493,4.997316 3.5792814,4.7810815 3.6071628,4.5279589 3.731699,4.3338649 L 6.0470536,0.71882142 C 6.1811057,0.51045719 6.4242025,0.37564115 6.6719331,0.37438937 Z m 0,0.0304966 C 6.4331398,0.40621335 6.1998977,0.53385885 6.0706936,0.73470031 L 3.7553386,4.3497437 c -0.1199808,0.1870118 -0.1462299,0.4290431 -0.069064,0.637439 0.07717,0.2084115 0.2562266,0.3769159 0.4691041,0.4407062 L 9.6202531,7.0651384 13.488241,13.115427 12.408004,12.792221 9.2620703,7.8855576 C 9.1603728,7.7268851 8.9941383,7.6107938 8.8100007,7.5704252 8.6258587,7.5300583 8.4272875,7.5660281 8.2685383,7.6675965 8.1098635,7.7692941 7.9937722,7.9355281 7.953408,8.1196628 7.913024,8.3038044 7.948788,8.5020811 8.050578,8.6608287 l 3.28944,5.1315023 c 0.09195,0.143322 0.236934,0.2528 0.400048,0.301678 l 3.192278,0.959447 c 0.279948,0.0842 0.603518,-0.02337 0.779756,-0.256531 0.176268,-0.233189 0.190251,-0.574071 0.03292,-0.820418 L 10.689167,6.0650291 C 10.596883,5.9214616 10.451558,5.8119344 10.287925,5.763352 L 5.4808172,4.3225367 6.6764693,2.4568623 7.9250327,4.4131288 c 0.1017017,0.1586714 0.2679382,0.2747619 0.4520674,0.3151326 0.1841465,0.040367 0.3827176,0.00439 0.5414664,-0.097171 C 9.0774981,4.5295929 9.1930762,4.3631213 9.2336995,4.179023 9.2743121,3.9949009 9.2388931,3.796785 9.1377227,3.6378577 L 7.2834095,0.73589664 C 7.1527342,0.53173492 6.9143345,0.40315615 6.6719841,0.40491776 Z m 0,0.0337827 C 6.9017837,0.43700693 7.1298978,0.56058314 7.2537795,0.7541324 L 9.1083917,3.6557948 C 9.2047175,3.8067053 9.2384583,3.9976172 9.1998793,4.1724432 9.1612881,4.3472907 9.0511582,4.5054452 8.9002945,4.6017866 8.7495306,4.6982646 8.5587238,4.7327903 8.3839448,4.6944725 8.2091639,4.6561537 8.0511779,4.5455719 7.9546055,4.3948881 L 6.6910875,2.4161968 a 0.01735896,0.01735896 0 0 0 -0.029273,0 L 5.4389582,4.32373 a 0.01735896,0.01735896 0 0 0 0.010159,0.026012 l 4.8298308,1.4476919 c 0.155394,0.046135 0.293246,0.1494558 0.380905,0.2858311 l 5.055562,7.91118 c 0.148985,0.233243 0.136402,0.561355 -0.03049,0.782147 -0.166919,0.220823 -0.478563,0.32248 -0.743582,0.242778 L 11.749066,14.059922 C 11.594154,14.013508 11.456682,13.910211 11.369353,13.77409 L 8.0799005,8.6425886 C 7.98343,8.4918241 7.9488993,8.3010158 7.9872225,8.1262389 8.0255222,7.9514558 8.1361148,7.7934726 8.286798,7.6968952 8.437564,7.6004174 8.628373,7.5658918 8.8031561,7.6042093 8.9779369,7.6425292 9.135919,7.7531101 9.2324953,7.9037939 L 12.382014,12.81584 a 0.01735896,0.01735896 0 0 0 0.0102,0.0081 l 1.131066,0.339051 a 0.01735896,0.01735896 0 0 0 0.01914,-0.02602 L 9.6462603,7.0415145 a 0.01735896,0.01735896 0 0 0 -0.010203,-0.00807 L 4.1643198,5.3938028 C 3.9623953,5.3332974 3.7911202,5.1734899 3.7179291,4.9758198 3.6447356,4.7781371 3.6707769,4.5451367 3.7846084,4.3676822 L 6.0999568,0.75293759 C 6.22249,0.56246859 6.4454404,0.43988478 6.6719162,0.43870198 Z m 0.00106,0.0260116 c -0.219006,0.001168 -0.4330892,0.11742842 -0.5516287,0.30167932 a 0.02314527,0.02314527 0 0 0 0,0.001209 0.02314527,0.02314527 0 0 0 -0.00106,0.001209 L 3.8061664,4.3826549 c -0.1095432,0.1713866 -0.1340391,0.3934098 -0.063381,0.5842196 0.070747,0.1910713 0.2332083,0.3448301 0.428445,0.403333 L 9.6585241,7.0131377 13.626078,13.219498 12.36943,12.844269 9.210944,7.9172724 C 9.1177057,7.7717995 8.9662465,7.6660571 8.7974433,7.6290497 8.6286041,7.5920333 8.4469719,7.6253424 8.3014267,7.7184465 a 0.02314527,0.02314527 0 0 0 -0.00106,0 c -0.1454732,0.093236 -0.2512066,0.244693 -0.2882203,0.4134974 -0.036508,0.1664359 -0.00407,0.3449604 0.086107,0.4894416 a 0.02314527,0.02314527 0 0 0 0,3.365e-4 0.02314527,0.02314527 0 0 0 0.00348,0.00628 0.02314527,0.02314527 0 0 0 0,0.00121 l 3.2894496,5.131498 c 0.08429,0.131383 0.21555,0.230864 0.365058,0.275666 l 3.192279,0.959447 c 0.128082,0.03851 0.267232,0.03703 0.394364,-0.0045 0.127141,-0.04153 0.241332,-0.12379 0.322005,-0.230519 0.08066,-0.106701 0.127194,-0.237164 0.13246,-0.370743 0.0052,-0.133625 -0.03083,-0.268207 -0.102864,-0.380908 L 10.640791,6.1024269 a 0.02314527,0.02314527 0 0 0 -0.0023,-0.00451 0.02314527,0.02314527 0 0 0 0,-0.00121 C 10.55382,5.965123 10.422143,5.8655713 10.272166,5.8210409 L 5.3882132,4.3566085 6.6765523,2.3462241 7.9738528,4.3757433 a 0.02314527,0.02314527 0 0 0 0.00237,0.00451 0.02314527,0.02314527 0 0 0 0,0.00121 c 0.093241,0.1454731 0.2449964,0.2512152 0.4138036,0.2882224 0.1688374,0.037018 0.3504612,0.0037 0.4960126,-0.089396 C 9.0317253,4.4872613 9.1382032,4.3356461 9.1754646,4.1667944 9.2127237,3.9979985 9.1800858,3.8165075 9.0872592,3.6707755 L 7.2328911,0.76878852 C 7.1130756,0.58158589 6.8958314,0.46310256 6.6734891,0.46471944 Z m 0,0.045146 c 0.2055089,-0.001531 0.4099942,0.11057194 0.5208326,0.28373749 L 9.0481564,3.6955562 C 9.1343499,3.8305706 9.164006,4.0010445 9.1294815,4.1574922 9.0949968,4.3138825 8.9957199,4.4557598 8.8606953,4.5419886 8.7257929,4.6282835 8.554836,4.6584956 8.3984591,4.62421 8.243099,4.5901491 8.1029297,4.4921548 8.0163561,4.358709 a 0.02314527,0.02314527 0 0 0 -8.468e-4,-0.00121 c -2.244e-4,-4.628e-4 -0.00106,-4.403e-4 -0.00106,-8.666e-4 a 0.02314527,0.02314527 0 0 0 0,-0.00121 l -1.3188319,-2.0645 a 0.02314527,0.02314527 0 0 0 -0.038243,0 L 5.3328619,4.3575162 a 0.02314527,0.02314527 0 0 0 0.012549,0.03528 l 4.9132421,1.4734045 c 0.138051,0.040992 0.260526,0.1325633 0.339045,0.2532417 8.47e-4,9.311e-4 0.0014,0.00121 0.0023,0.00208 a 0.02314527,0.02314527 0 0 0 0,0.00121 l 5.055855,7.9114766 c 0.0668,0.104584 0.10088,0.229701 0.09598,0.353702 -0.0046,0.124046 -0.04836,0.246656 -0.12318,0.345627 -0.0748,0.09895 -0.181351,0.174954 -0.299285,0.213477 -0.117953,0.03851 -0.248633,0.03933 -0.367457,0.0035 l -3.192268,-0.959437 c -0.13866,-0.04154 -0.261791,-0.133516 -0.339944,-0.255334 L 8.1424043,8.6076059 v -0.00121 a 0.02314527,0.02314527 0 0 0 -0.00237,-0.00208 0.02314527,0.02314527 0 0 0 0,-0.00121 C 8.0537366,8.4682178 8.023521,8.2972609 8.0578083,8.1408862 8.0918881,7.9855261 8.1898615,7.8456522 8.3233113,7.7590793 a 0.02314527,0.02314527 0 0 0 0.00106,-0.00121 c 2.243e-4,-2.805e-4 2.243e-4,-9.31e-4 0.00106,-0.00121 a 0.02314527,0.02314527 0 0 0 0.00106,0 C 8.4613932,7.6703663 8.6323478,7.6398562 8.7887252,7.674142 8.9451409,7.7084337 9.0864993,7.8071998 9.172922,7.9420338 l 3.162973,4.9338732 a 0.02314527,0.02314527 0 0 0 0.01228,0.0102 l 1.324487,0.396434 a 0.02314527,0.02314527 0 0 0 0.02603,-0.03498 L 9.6920162,6.9817292 a 0.02314527,0.02314527 0 0 0 -0.012543,-0.01017 L 4.1841142,5.3250625 C 4.0034954,5.2709369 3.8507641,5.1279119 3.7852676,4.9510316 3.719911,4.7745292 3.7425098,4.5661079 3.8438643,4.407473 L 6.1595162,0.79243018 a 0.02314527,0.02314527 0 0 0 0,-0.001209 C 6.2690911,0.62090381 6.4699744,0.51093197 6.6725776,0.50987527 Z m 0,0.0349805 A 0.57863176,0.57863176 0 0 0 6.1892477,0.81063895 L 3.8738992,4.4253839 a 0.57863176,0.57863176 0 0 0 0.320816,0.8667616 L 9.7104108,6.9455406 13.811304,13.360592 12.317274,12.911813 9.1432386,7.9611974 A 0.57857393,0.57857393 0 0 0 8.3443434,7.7862903 0.57857393,0.57857393 0 0 0 8.1691386,8.5851817 L 11.45858,13.716685 a 0.57863176,0.57863176 0 0 0 0.320816,0.24158 l 3.192276,0.959448 a 0.57863176,0.57863176 0 0 0 0.654483,-0.865567 L 10.570309,6.1409666 A 0.57863176,0.57863176 0 0 0 10.248302,5.8990859 L 5.2615084,4.4038562 6.6763145,2.1958418 8.043576,4.3371818 A 0.57857393,0.57857393 0 0 0 8.8424736,4.5123876 0.57857393,0.57857393 0 0 0 9.018876,3.7134961 L 7.1645627,0.81153517 A 0.57863176,0.57863176 0 0 0 6.6730291,0.54483808 Z M 3.2092531,5.6978687 a 0.00925811,0.00925811 0 0 0 -0.00659,0.00331 C 2.9381606,5.7087361 2.6806599,5.8513621 2.5380188,6.074314 L 0.2430013,9.6564696 C 0.10724147,9.8680835 0.07675899,10.142722 0.1640705,10.378521 c 0.0873108,0.235798 0.29015144,0.425042 0.5309992,0.497215 l 8.1372165,2.444213 c 0.2044365,0.06156 0.4323028,0.03893 0.6203938,-0.06218 0.1880817,-0.101111 0.3329553,-0.279258 0.3943654,-0.48376 C 9.9085417,12.56934 9.8854074,12.340832 9.783963,12.152713 9.6826958,11.964892 9.5045669,11.820489 9.3002044,11.759244 a 0.00925811,0.00925811 0 0 0 -0.00237,0 L 2.1968971,9.6247763 2.5233835,9.1185926 l 4.49975,1.3571004 c 0.3170193,0.0959 0.6863566,-0.02508 0.8859031,-0.28942 0.1993215,-0.2640436 0.2137232,-0.651312 0.035292,-0.9298464 a 0.00925811,0.00925811 0 0 0 0,-0.00121 L 6.4368341,6.9048921 v -0.00121 a 0.00925811,0.00925811 0 0 0 0,-0.00121 C 6.3364697,6.7462717 6.1815296,6.6256718 6.0051039,6.5678987 a 0.00925811,0.00925811 0 0 0 -0.00348,0 L 3.4793769,5.73732 a 0.00925811,0.00925811 0 0 0 -0.00237,0 h -0.00237 C 3.390552,5.7102264 3.3028742,5.6978672 3.2145182,5.6990467 c -0.00148,2.62e-5 -0.00347,-0.00121 -0.00577,-0.00121 z m 0,0.01794 c 0.088932,-0.00184 0.1775876,0.012244 0.2622065,0.039765 a 0.00925811,0.00925811 0 0 0 0.00347,0 l 2.521956,0.8305855 a 0.00925811,0.00925811 0 0 0 0.00106,0 c 0.1722816,0.056417 0.3247713,0.1727936 0.42277,0.3252974 a 0.00925811,0.00925811 0 0 0 0,0.00121 l 1.506295,2.3494354 a 0.00925811,0.00925811 0 0 0 0.00106,0.00331 c 0.1739774,0.2715519 0.159338,0.6520985 -0.034995,0.909512 -0.1945481,0.257713 -0.5568097,0.376035 -0.8658669,0.282542 L 2.5208826,9.0982757 a 0.00925811,0.00925811 0 0 0 -0.010192,0.00451 l -0.33696,0.5232316 a 0.00925811,0.00925811 0 0 0 0.00579,0.013452 L 9.2944099,11.77752 a 0.00925811,0.00925811 0 0 0 0.00237,0 c 0.1991796,0.05994 0.372502,0.201136 0.4712095,0.384198 0.098994,0.183616 0.1210302,0.408046 0.060987,0.607838 -0.059944,0.199646 -0.2018032,0.373698 -0.3853928,0.4724 -0.1835778,0.09869 -0.4073257,0.119908 -0.6069441,0.0598 L 0.69940182,10.857486 C 0.46436445,10.787058 0.26705475,10.601716 0.1818569,10.371632 0.0966698,10.141552 0.12619827,9.8719539 0.25869394,9.665427 L 2.5537157,6.0832709 C 2.6942921,5.8635599 2.9483375,5.7205594 3.2090962,5.7158166 Z m 0.00106,0.025116 C 2.9570966,5.7454969 2.710555,5.8822019 2.574074,6.0955234 L 0.27915855,9.6776794 C 0.15053942,9.8781586 0.121993,10.140463 0.2047105,10.363853 c 0.0827116,0.223382 0.27471772,0.402827 0.50289751,0.471203 l 8.13721429,2.444212 c 0.1936894,0.05834 0.4093695,0.03598 0.5875059,-0.0598 0.178162,-0.09577 0.3158513,-0.26401 0.3740363,-0.45775 0.058258,-0.193874 0.036276,-0.410504 -0.0598,-0.588703 C 9.6504837,11.994816 9.4816062,11.85774 9.2876223,11.799885 L 2.13138,9.6495733 2.5042149,9.0677467 7.035653,10.435011 c 0.3001274,0.09025 0.649528,-0.02461 0.8383548,-0.274768 0.189068,-0.2504589 0.2037815,-0.6183325 0.034082,-0.8823087 L 6.4005968,6.9252102 C 6.3053793,6.7770312 6.1578668,6.6632098 5.990386,6.6085841 L 3.4648184,5.7779985 C 3.3828216,5.7513268 3.2966277,5.7391296 3.210385,5.7409233 Z m 0,0.022423 c 0.083601,-0.00172 0.1680147,0.011497 0.2475654,0.037376 L 5.9834146,6.6313078 C 6.1456697,6.6842298 6.2878952,6.795065 6.3801727,6.9386656 L 7.8876563,9.2913901 C 8.0517308,9.5466223 8.0387774,9.9046226 7.8559517,10.14679 7.6733722,10.388652 7.3325941,10.499543 7.0424153,10.41229 L 2.5028923,9.0426327 a 0.01157264,0.01157264 0 0 0 -0.01344,0.00451 l -0.3877851,0.602462 a 0.01157264,0.01157264 0 0 0 0.00689,0.017942 l 7.1723881,2.1550943 c 0.1879194,0.05605 0.3521378,0.188894 0.4451912,0.361475 0.09306,0.172585 0.1141387,0.382975 0.057681,0.570765 -0.05635,0.187629 -0.1904022,0.351219 -0.3629683,0.443994 -0.1725827,0.09279 -0.3816784,0.114198 -0.569269,0.0577 L 0.71413661,10.812331 C 0.49324846,10.74614 0.3071541,10.570824 0.22708427,10.354581 0.14702507,10.13835 0.17490007,9.8855254 0.29944234,9.6914305 L 2.5944617,6.1092755 C 2.7265719,5.9027917 2.9652999,5.7677875 3.2103766,5.7633484 Z m 0.00106,0.030498 C 2.975156,5.7981257 2.7455302,5.9260887 2.6181875,6.1251237 L 0.32283169,9.7072785 C 0.20285082,9.8942898 0.1769029,10.136021 0.25406863,10.344419 c 0.0771664,0.208411 0.25592581,0.376913 0.46880543,0.440705 l 8.13631804,2.444511 c 0.1806888,0.0544 0.3818674,0.03374 0.5480441,-0.05561 0.1661941,-0.08936 0.2949489,-0.247449 0.3492145,-0.428147 0.054332,-0.180817 0.034314,-0.380653 -0.055308,-0.546846 C 9.6115206,12.032804 9.4527753,11.903793 9.2718044,11.849817 L 2.0485924,9.6800686 2.4812238,9.0064526 7.0500339,10.385078 c 0.2803432,0.08481 0.6054089,-0.0225 0.7818521,-0.256231 C 8.0083202,9.8951234 8.02194,9.5535876 7.8635914,9.3072338 L 6.3560374,6.9545075 C 6.2672362,6.8163029 6.1304431,6.7094595 5.9742401,6.6585103 L 3.4486997,5.8279261 C 3.3721762,5.8030403 3.2916441,5.7921704 3.211305,5.7938422 Z m 0,0.034084 c 0.07654,-0.0016 0.1533333,0.010147 0.226037,0.033782 l 2.5255338,0.8305859 c 0.1483707,0.048392 0.2794867,0.1488362 0.3638724,0.2801491 l 1.5074859,2.3527239 c 0.1499353,0.233241 0.1377683,0.5617318 -0.029274,0.7830454 -0.1670606,0.221308 -0.4806058,0.323353 -0.7459708,0.243075 L 2.4779765,8.9693773 a 0.01735896,0.01735896 0 0 0 -0.019141,0.00778 l -0.452061,0.7041119 a 0.01735896,0.01735896 0 0 0 0.010192,0.026012 L 9.262597,11.883601 c 0.1717965,0.05124 0.3218508,0.173493 0.4069258,0.331278 0.085097,0.157822 0.104827,0.350306 0.053223,0.522028 -0.051493,0.171571 -0.1735148,0.320911 -0.3312718,0.405726 -0.1577824,0.08482 -0.3517327,0.104561 -0.5232319,0.05292 L 0.73231776,10.751336 C 0.53039498,10.690828 0.35911781,10.531022 0.28592916,10.333353 0.2127292,10.135669 0.23877694,9.9026685 0.35260405,9.7252158 L 2.6476212,6.1430586 C 2.7683758,5.9543215 2.9874557,5.8319838 3.2115129,5.8279268 Z m 0.00106,0.026012 C 2.9957295,5.8579322 2.7856523,5.9751931 2.6688744,6.157712 L 0.37406299,9.7389708 c -0.11005402,0.1715469 -0.13414751,0.3940062 -0.0633809,0.5851162 0.0707471,0.19107 0.23291786,0.34513 0.42814578,0.40363 l 8.13751373,2.444215 c 0.1656238,0.04987 0.3505079,0.0311 0.5028932,-0.05082 0.1523523,-0.08191 0.2698525,-0.225361 0.3196187,-0.391076 0.049874,-0.165868 0.030155,-0.351695 -0.052014,-0.504091 -0.082152,-0.152355 -0.224872,-0.26924 -0.3907711,-0.31872 L 1.9560184,9.7138551 2.4553228,8.9352947 7.0671876,10.327674 c 0.128309,0.03882 0.2682029,0.03584 0.395563,-0.0057 C 7.590119,10.280483 7.7040139,10.199645 7.784758,10.092688 7.8654996,9.985721 7.9118672,9.8545994 7.9169104,9.7207424 7.9221039,9.5868502 7.8853068,9.4516707 7.8128618,9.3389366 L 6.3053732,6.9862132 C 6.2239235,6.8594573 6.0983572,6.7637989 5.9552602,6.7171241 L 3.4294227,5.8865401 C 3.3631078,5.8649769 3.2939695,5.8558874 3.224013,5.8560428 a 0.02314527,0.02314527 0 0 0 -0.00577,-0.00121 c -0.00148,2.27e-5 -0.00407,-9.327e-4 -0.00577,-9.327e-4 z m 0,0.045145 c 0.068341,-0.00137 0.1380879,0.00928 0.2033109,0.030498 L 5.9412847,6.7601688 C 6.074158,6.8035102 6.1914069,6.8935624 6.2668789,7.01102 l 1.5074628,2.3527235 c 0.067209,0.1045465 0.101846,0.23067 0.097174,0.3548964 -0.00462,0.1242607 -0.048314,0.2476286 -0.1231862,0.3468251 -0.074879,0.09919 -0.1813776,0.174932 -0.2995798,0.213474 -0.1182193,0.03855 -0.2494307,0.03956 -0.3683559,0.0035 L 2.4517951,8.8856612 a 0.02314527,0.02314527 0 0 0 -0.026028,0.01017 l -0.5253146,0.819218 a 0.02314527,0.02314527 0 0 0 0.012273,0.034981 l 7.3293487,2.2026318 c 0.1537358,0.04585 0.2877133,0.154763 0.363866,0.295996 0.076125,0.141194 0.093692,0.314349 0.047556,0.467914 -0.046114,0.153474 -0.1560043,0.287962 -0.2971888,0.363866 -0.141153,0.0759 -0.3132294,0.09258 -0.4667196,0.04634 L 0.7525338,10.68227 C 0.57190892,10.628143 0.41917524,10.485118 0.35368093,10.308238 0.2882056,10.131397 0.31045862,9.9224808 0.41228406,9.7637829 L 2.7073011,6.1825253 C 2.8153285,6.0136807 3.01224,5.9027533 3.2125875,5.899084 Z m 0.00106,0.034981 A 0.57863176,0.57863176 0 0 0 2.7366095,6.2007638 L 0.44126955,9.7829193 A 0.57863176,0.57863176 0 0 0 0.76238014,10.649681 L 8.8995967,13.093894 A 0.57857393,0.57857393 0 0 0 9.6204528,12.706406 0.57857393,0.57857393 0 0 0 9.2317684,11.985253 L 1.829165,9.7613915 2.4199605,8.8405142 7.0904278,10.249637 A 0.57863176,0.57863176 0 0 0 7.7446107,9.3828758 L 6.2373219,7.0301505 A 0.57863176,0.57863176 0 0 0 5.9296678,6.7927547 L 3.4041337,5.9621701 A 0.57863176,0.57863176 0 0 0 3.2133781,5.9340706 Z M 3.4688316,7.2020682 5.3739689,7.8278468 5.9253049,8.6889274 3.0687853,7.8269495 Z m 0.022441,0.045147 a 0.02314527,0.02314527 0 0 0 -0.016724,0.01017 L 3.1387841,7.7806077 a 0.02314527,0.02314527 0 0 0 0.012549,0.034981 L 5.7862739,8.6111891 A 0.02314527,0.02314527 0 0 0 5.812302,8.5759066 L 5.3556562,7.8640247 a 0.02314527,0.02314527 0 0 0 -0.012253,-0.00897 l -1.842943,-0.606942 a 0.02314527,0.02314527 0 0 0 -0.00926,-8.694e-4 z m 0.012549,0.049629 1.8181355,0.5988699 0.4182787,0.6520905 -2.5461608,-0.768395 z m 0.01823,0.034384 a 0.01735896,0.01735896 0 0 0 -0.00462,5.722e-4 0.01735896,0.01735896 0 0 0 -0.011341,0.00807 L 3.2462714,7.7464925 a 0.01735896,0.01735896 0 0 0 0.010192,0.026012 L 5.6363939,8.4900719 A 0.01735896,0.01735896 0 0 0 5.6555346,8.46406 L 5.3087184,7.9228976 a 0.01735896,0.01735896 0 0 0 -0.00898,-0.00807 L 3.5263425,7.3318219 a 0.01735896,0.01735896 0 0 0 -0.00407,-5.72e-4 z m 0.00519,0.039169 1.7550516,0.5761464 0.3187215,0.4960193 -2.313262,-0.6972364 z m 0.017933,0.036774 a 0.01157264,0.01157264 0 0 0 -0.00347,3.365e-4 0.01157264,0.01157264 0 0 0 -0.00659,0.0048 L 3.3407608,7.7160819 a 0.01157264,0.01157264 0 0 0 0.00659,0.018239 l 2.1562959,0.6508918 a 0.01157264,0.01157264 0 0 0 0.013397,-0.018239 L 5.2662024,7.973807 a 0.01157264,0.01157264 0 0 0 -0.00689,-0.00451 L 3.5484865,7.4074896 a 0.01157264,0.01157264 0 0 0 -0.00347,-3.365e-4 z m 0.00597,0.026307 L 5.2481958,7.9907903 5.4799075,8.3534601 3.370268,7.7160214 Z m 0.013757,0.0299 a 0.00925811,0.00925811 0 0 0 -0.00347,5.72e-4 0.00925811,0.00925811 0 0 0 -0.00462,0.0048 L 3.413305,7.6923943 a 0.00925811,0.00925811 0 0 0 0.00577,0.013452 l 1.9822818,0.5979736 a 0.00925811,0.00925811 0 0 0 0.010192,-0.013754 L 5.2339229,8.0132014 a 0.00925811,0.00925811 0 0 0 -0.00462,-0.00451 L 3.568135,7.4639346 a 0.00925811,0.00925811 0 0 0 -0.00303,-5.72e-4 z m 0.00303,0.020929 L 5.2201383,8.025771 5.381588,8.2787142 3.4357853,7.6912067 Z"
       inkscape:export-xdpi="300"
       inkscape:export-ydpi="300" />
  </g>
</svg>
