<?xml version="1.0" encoding="UTF-8" standalone="no"?>
<svg
   xmlns:dc="http://purl.org/dc/elements/1.1/"
   xmlns:cc="http://creativecommons.org/ns#"
   xmlns:rdf="http://www.w3.org/1999/02/22-rdf-syntax-ns#"
   xmlns:svg="http://www.w3.org/2000/svg"
   xmlns="http://www.w3.org/2000/svg"
   xmlns:xlink="http://www.w3.org/1999/xlink"
   xmlns:sodipodi="http://sodipodi.sourceforge.net/DTD/sodipodi-0.dtd"
   xmlns:inkscape="http://www.inkscape.org/namespaces/inkscape"
   inkscape:export-ydpi="96"
   inkscape:export-xdpi="96"
   inkscape:export-filename="D:\Eoghan\EoghanStaunton.github.io\static\favicon\mstile-150x150.png"
   inkscape:version="1.0 (4035a4fb49, 2020-05-01)"
   sodipodi:docname="mstile-150x150.svg"
   viewBox="0 0 270 270"
   height="270"
   width="270"
   id="svg2"
   version="1.1">
  <metadata
     id="metadata8">
    <rdf:RDF>
      <cc:Work
         rdf:about="">
        <dc:format>image/svg+xml</dc:format>
        <dc:type
           rdf:resource="http://purl.org/dc/dcmitype/StillImage" />
        <dc:title></dc:title>
      </cc:Work>
    </rdf:RDF>
  </metadata>
  <defs
     id="defs6">
    <linearGradient
       gradientUnits="userSpaceOnUse"
       y2="1.6656761"
       x2="237.3262"
       y1="9.7354679"
       x1="218.6898"
       id="linearGradient1433-5"
       xlink:href="#linearGradient1431"
       inkscape:collect="always"
       gradientTransform="matrix(5.4376145,0,0,5.4376145,-1119.1485,89.215432)" />
    <linearGradient
       inkscape:collect="always"
       id="linearGradient1431">
      <stop
         style="stop-color:#00b5ae;stop-opacity:1"
         offset="0"
         id="stop1427" />
      <stop
         style="stop-color:#90009e;stop-opacity:1"
         offset="1"
         id="stop1429" />
    </linearGradient>
  </defs>
  <sodipodi:namedview
     inkscape:current-layer="g10"
     inkscape:window-maximized="1"
     inkscape:window-y="-9"
     inkscape:window-x="-9"
     inkscape:cy="114.87813"
     inkscape:cx="151.9819"
     inkscape:zoom="2.1736986"
     showgrid="false"
     id="namedview4"
     inkscape:window-height="1001"
     inkscape:window-width="1920"
     inkscape:pageshadow="2"
     inkscape:pageopacity="0"
     guidetolerance="10"
     gridtolerance="10"
     objecttolerance="10"
     borderopacity="1"
     bordercolor="#666666"
     pagecolor="#ffffff" />
  <g
     id="g10"
     inkscape:label="Image"
     inkscape:groupmode="layer">
    <path
       id="path1423-4"
       style="color:#000000;font-style:normal;font-variant:normal;font-weight:normal;font-stretch:normal;font-size:medium;line-height:normal;font-family:sans-serif;font-variant-ligatures:normal;font-variant-position:normal;font-variant-caps:normal;font-variant-numeric:normal;font-variant-alternates:normal;font-variant-east-asian:normal;font-feature-settings:normal;font-variation-settings:normal;text-indent:0;text-align:start;text-decoration:none;text-decoration-line:none;text-decoration-style:solid;text-decoration-color:#000000;letter-spacing:normal;word-spacing:normal;text-transform:none;writing-mode:lr-tb;direction:ltr;text-orientation:mixed;dominant-baseline:auto;baseline-shift:baseline;text-anchor:start;white-space:normal;shape-padding:0;shape-margin:0;inline-size:0;clip-rule:nonzero;display:inline;overflow:visible;visibility:visible;isolation:auto;mix-blend-mode:normal;color-interpolation:sRGB;color-interpolation-filters:linearRGB;solid-color:#000000;solid-opacity:1;vector-effect:none;fill:url(#linearGradient1433-5);fill-opacity:1;fill-rule:nonzero;stroke:none;stroke-width:7.55905;stroke-linecap:round;stroke-linejoin:round;stroke-miterlimit:4;stroke-dasharray:none;stroke-dashoffset:0;stroke-opacity:1;color-rendering:auto;image-rendering:auto;shape-rendering:auto;text-rendering:auto;enable-background:accumulate;stop-color:#000000"
       d="m 127.31083,44.233736 c -2.53937,0.01296 -5.0299,1.379561 -6.40393,3.51527 a 0.08701052,0.08701052 0 0 0 0,0.02231 L 99.146548,81.735367 c -1.275918,1.988801 -1.565227,4.569934 -0.744631,6.786066 0.820534,2.216092 2.726963,3.994673 4.990463,4.672965 l 51.05426,15.303072 34.87729,54.55829 -7.53069,-2.26202 -29.38663,-45.82773 c -1.08172,-1.68773 -2.84094,-2.92573 -4.79939,-3.3551 -1.95842,-0.42936 -4.08013,-0.0516 -5.76888,1.02846 -1.68775,1.0817 -2.92573,2.84376 -3.3551,4.80222 -0.42957,1.95838 -0.0488,4.07731 1.03128,5.76604 l 30.91517,48.22743 c 0.97801,1.5244 2.51353,2.68625 4.24866,3.20618 l 30.00201,9.01718 c 2.97527,0.89477 6.44112,-0.23011 8.31475,-2.7088 1.87355,-2.47867 2.01258,-6.12058 0.33984,-8.73899 L 165.81854,97.867475 v -0.01141 a 0.08701052,0.08701052 0 0 0 0,-0.01131 c -0.97904,-1.523169 -2.52287,-2.676112 -4.25704,-3.194938 l -44.05466,-13.212438 9.84613,-15.356461 10.98133,17.205409 c 1.08175,1.687741 2.84097,2.925745 4.79945,3.355112 1.95835,0.42935 4.08012,0.04894 5.76886,-1.031261 1.69018,-1.079371 2.93413,-2.840765 3.36632,-4.799424 0.43231,-1.958693 0.0488,-4.075696 -1.03124,-5.766044 L 133.81022,47.771438 c -1.38917,-2.170498 -3.92218,-3.556488 -6.49939,-3.537753 z m 0,0.171411 c 2.51402,-0.01833 4.99505,1.332881 6.35055,3.450639 l 17.42738,27.273518 c 1.05359,1.650464 1.43057,3.727961 1.00878,5.639598 -0.42195,1.911675 -1.63188,3.641622 -3.28202,4.69546 -1.64862,1.054556 -3.72799,1.427896 -5.63962,1.008778 -1.91158,-0.419078 -3.63649,-1.625732 -4.69266,-3.273606 l -11.0572,-17.32064 a 0.08701052,0.08701052 0 0 0 -0.14623,0 l -9.98386,15.570026 a 0.08701052,0.08701052 0 0 0 0.0542,0.126427 L 161.52,94.81871 c 1.69368,0.506677 3.19746,1.626707 4.1531,3.113447 a 0.08701052,0.08701052 0 0 0 0,0.0092 l 47.51284,74.354493 c 1.63053,2.55266 1.48643,6.13155 -0.33983,8.54792 -1.82653,2.41632 -5.22284,3.51939 -8.12372,2.64699 l -30.00196,-9.01712 c -1.69402,-0.5076 -3.18683,-1.63327 -4.14188,-3.12187 l -30.91789,-48.22751 c -1.0546,-1.64857 -1.42795,-3.72797 -1.00881,-5.6396 0.41925,-1.91156 1.62297,-3.63929 3.27079,-4.69545 1.64855,-1.05456 3.72802,-1.4279 5.63963,-1.00879 1.91158,0.41909 3.63928,1.62294 4.69545,3.27081 l 29.40627,45.85863 a 0.08701052,0.08701052 0 0 0 0.0545,0.0424 l 7.78638,2.33788 a 0.08701052,0.08701052 0 0 0 0.0958,-0.12642 L 154.5733,108.38285 a 0.08701052,0.08701052 0 0 0 -0.0542,-0.0424 L 103.43383,93.026179 c -2.20896,-0.66193 -4.063385,-2.406619 -4.864038,-4.569015 -0.800613,-2.16237 -0.523118,-4.696142 0.722139,-6.637138 L 121.0551,47.844319 a 0.08701052,0.08701052 0 0 0 0,-0.0088 c 1.34044,-2.083529 3.77745,-3.418088 6.25498,-3.430975 z m 0,0.233216 c -2.40592,0.01216 -4.76232,1.301016 -6.06393,3.32419 L 99.483736,81.93784 c -1.208784,1.884166 -1.477076,4.346564 -0.699652,6.446054 0.77734,2.09943 2.581796,3.785902 4.726336,4.428518 l 51.18916,15.345218 35.52635,55.58672 -8.68843,-2.61046 -29.47093,-45.96541 c -1.02469,-1.59884 -2.69983,-2.75731 -4.55489,-3.16402 -1.85537,-0.40679 -3.87136,-0.0484 -5.47101,0.97507 -1.5989,1.02475 -2.75737,2.70269 -3.16405,4.55777 -0.40673,1.85534 -0.0488,3.86855 0.97508,5.46819 l 30.91803,48.22741 c 0.9265,1.4441 2.38036,2.53387 4.02386,3.02635 l 30.00199,9.01716 c 2.81918,0.84788 6.09566,-0.23121 7.87078,-2.57953 1.77506,-2.34838 1.91339,-5.79461 0.32899,-8.27536 a 0.10876317,0.10876317 0 0 0 0,-0.009 L 165.47853,98.05824 c -0.92983,-1.446582 -2.38647,-2.536849 -4.03509,-3.026331 l -44.55196,-13.360965 10.46149,-16.323096 11.32132,17.725266 a 0.10876317,0.10876317 0 0 0 0,0.01136 c 1.02478,1.598855 2.69991,2.757328 4.55498,3.164024 1.85221,0.406081 3.86168,0.04405 5.45974,-0.975068 1.60116,-1.022527 2.76592,-2.702455 3.17533,-4.557766 0.40943,-1.855195 0.0555,-3.847291 -0.96668,-5.448514 a 0.10876317,0.10876317 0 0 0 0,-0.01951 L 133.47028,47.97416 c -1.31616,-2.05634 -3.71796,-3.353188 -6.15945,-3.335431 z m 0,0.213611 c 2.36281,-0.01733 4.69452,1.258088 5.96837,3.248313 l 17.42739,27.273522 a 0.10876317,0.10876317 0 0 0 0,0.01136 c 0.99047,1.5513 1.34345,3.491376 0.94696,5.288355 -0.39642,1.796881 -1.54003,3.415582 -3.09092,4.406027 -1.54846,0.987581 -3.49805,1.351328 -5.2912,0.958189 -1.79684,-0.393899 -3.41341,-1.530966 -4.40607,-3.079715 a 0.10876317,0.10876317 0 0 0 0,-0.01136 L 127.44854,65.072477 a 0.10876317,0.10876317 0 0 0 -0.19106,0 l -10.64131,16.598467 a 0.10876317,0.10876317 0 0 0 0.0647,0.17141 l 44.70089,13.400727 c 1.59733,0.474264 3.00489,1.540334 3.90585,2.942028 l 47.51659,74.332001 v 0.0113 a 0.10876317,0.10876317 0 0 0 0,0.0224 c 1.53238,2.39889 1.4073,5.74609 -0.30875,8.01683 -1.71652,2.27081 -4.90904,3.315 -7.63473,2.49526 l -30.00202,-9.0144 c -1.59232,-0.47715 -2.99979,-1.54294 -3.89741,-2.94203 l -30.91524,-48.22748 c -0.9912,-1.54957 -1.35211,-3.50306 -0.95821,-5.2996 0.39423,-1.79681 1.53094,-3.41619 3.07969,-4.40883 1.5496,-0.99123 3.5031,-1.34927 5.29964,-0.95539 1.79679,0.3939 3.41615,1.53096 4.40879,3.07972 l 29.49344,45.99631 a 0.10876317,0.10876317 0 0 0 0.0619,0.0424 l 9.02848,2.70881 a 0.10876317,0.10876317 0 0 0 0.12671,-0.16859 L 154.8708,108.00031 a 0.10876317,0.10876317 0 0 0 -0.0647,-0.0424 L 103.57493,92.598632 c -2.07599,-0.622067 -3.82492,-2.266934 -4.57744,-4.299248 -0.752501,-2.032237 -0.490464,-4.411159 0.679968,-6.235314 L 121.43784,48.088757 c 1.25987,-1.958274 3.54456,-3.225316 5.87281,-3.23708 z m 0,0.286621 c -2.24443,0.01215 -4.43651,1.211826 -5.65082,3.099397 L 99.899607,82.213271 c -1.127616,1.757595 -1.374312,4.03228 -0.649088,5.990847 0.725267,1.958715 2.408091,3.542371 4.408781,4.141892 l 51.36057,15.38737 36.35253,56.86245 -10.15241,-3.03757 -29.56644,-46.11433 c -0.95579,-1.49126 -2.51811,-2.58232 -4.24869,-2.96172 -1.73062,-0.37937 -3.59685,-0.0414 -5.08883,0.91325 -1.49127,0.95578 -2.58233,2.51811 -2.96169,4.24865 -0.37954,1.73062 -0.0434,3.59409 0.91323,5.08605 l 30.91516,48.22742 c 0.86421,1.34698 2.22678,2.37589 3.75977,2.83527 l 30.00201,9.01717 c 2.63104,0.79128 5.67205,-0.21963 7.32838,-2.41095 1.65664,-2.19159 1.78805,-5.39529 0.30941,-7.71054 L 165.06584,98.334043 c -0.86732,-1.349282 -2.23312,-2.378658 -3.771,-2.835249 l -45.17866,-13.541221 11.2371,-17.534177 11.73438,18.385588 c 0.95583,1.491243 2.51817,2.582296 4.24868,2.961712 1.73065,0.379385 3.59689,0.04132 5.08886,-0.913248 1.49368,-0.953898 2.57993,-2.518449 2.96171,-4.248661 0.38169,-1.730437 0.0488,-3.592389 -0.90202,-5.086036 l -17.4274,-27.273517 c -1.22812,-1.918773 -3.46869,-3.127194 -5.74636,-3.110639 z m 0,0.317502 c 2.16003,-0.01594 4.30391,1.145485 5.46819,2.96452 l 17.4302,27.270711 c 0.90531,1.418304 1.22241,3.212551 0.85983,4.85562 -0.36269,1.64327 -1.39771,3.129654 -2.81558,4.0351 -1.41693,0.906728 -3.21019,1.231212 -4.85281,0.87109 -1.64265,-0.360131 -3.12745,-1.399413 -4.03507,-2.815585 L 127.49067,64.041208 a 0.16314473,0.16314473 0 0 0 -0.27513,0 l -11.49276,17.927579 a 0.16314473,0.16314473 0 0 0 0.0954,0.244467 l 45.39221,13.605855 c 1.46043,0.433585 2.75601,1.404628 3.57986,2.686324 l 47.51371,74.351677 c 1.40021,2.19209 1.28196,5.27579 -0.28654,7.35087 -1.56875,2.07535 -4.49768,3.03076 -6.98841,2.28168 L 175.027,173.47249 c -1.4559,-0.43627 -2.7479,-1.40704 -3.56864,-2.68633 l -30.91523,-48.22742 c -0.90666,-1.41694 -1.2312,-3.21021 -0.87102,-4.85282 0.35995,-1.64267 1.39933,-3.12744 2.8155,-4.0351 1.41696,-0.90672 3.21023,-1.2312 4.85289,-0.87109 1.64265,0.36014 3.12741,1.39941 4.03506,2.81558 l 29.60014,46.16491 a 0.16314473,0.16314473 0 0 0 0.0958,0.0759 l 10.63011,3.1865 a 0.16314473,0.16314473 0 0 0 0.17989,-0.24447 L 155.26423,107.5114 a 0.16314473,0.16314473 0 0 0 -0.0958,-0.0758 L 103.74334,92.025659 c -1.89775,-0.568649 -3.50745,-2.070569 -4.195319,-3.928331 -0.687893,-1.857883 -0.44315,-4.047693 0.626679,-5.715464 l 21.76035,-33.972471 c 1.1516,-1.79009 3.24695,-2.942168 5.37544,-2.953284 z m 0.0102,0.24447 c -2.05828,0.01096 -4.07031,1.103615 -5.18436,2.835263 a 0.21752632,0.21752632 0 0 0 0,0.01136 0.21752632,0.21752632 0 0 0 -0.0102,0.01136 l -21.74916,33.964037 c -1.029523,1.610743 -1.259748,3.697385 -0.595683,5.490675 0.664903,1.795746 2.191753,3.240816 4.026663,3.790646 l 51.57125,15.440752 37.28829,58.32926 -11.81036,-3.5265 -29.68443,-46.30542 c -0.87628,-1.3672 -2.29973,-2.361 -3.8862,-2.7088 -1.5868,-0.3479 -3.29384,-0.0349 -4.66171,0.84017 a 0.21752632,0.21752632 0 0 0 -0.0102,0 c -1.3672,0.87626 -2.36092,2.2997 -2.70878,3.88618 -0.34313,1.56421 -0.0382,3.24205 0.80926,4.59992 a 0.21752632,0.21752632 0 0 0 0,0.003 0.21752632,0.21752632 0 0 0 0.0327,0.059 0.21752632,0.21752632 0 0 0 0,0.0113 l 30.91523,48.22741 c 0.79215,1.23478 2.0258,2.16975 3.43092,2.5908 l 30.00203,9.01717 c 1.20373,0.36203 2.51152,0.34807 3.70634,-0.0424 1.19492,-0.3903 2.26812,-1.16342 3.0263,-2.16648 0.7581,-1.00287 1.19542,-2.22895 1.2449,-3.48435 0.0488,-1.25585 -0.28972,-2.5207 -0.96672,-3.57991 L 164.611,98.685456 a 0.21752632,0.21752632 0 0 0 -0.0224,-0.0424 0.21752632,0.21752632 0 0 0 0,-0.01141 c -0.79507,-1.236614 -2.03262,-2.172228 -3.44215,-2.590739 l -45.90088,-13.763181 12.1082,-18.894207 12.19242,19.074041 a 0.21752632,0.21752632 0 0 0 0.0224,0.04243 0.21752632,0.21752632 0 0 0 0,0.01136 c 0.8763,1.367201 2.30255,2.360999 3.88905,2.708803 1.58679,0.347901 3.29375,0.03483 4.66168,-0.840172 1.36918,-0.874341 2.36989,-2.299261 2.72008,-3.88618 0.35018,-1.586397 0.0434,-3.292104 -0.82897,-4.661738 L 132.58252,48.558292 c -1.12606,-1.759385 -3.16779,-2.872929 -5.25743,-2.857734 z m 0,0.424294 c 1.93144,-0.01434 3.85325,1.039194 4.89495,2.666651 l 17.42738,27.273519 c 0.81008,1.268893 1.08879,2.87106 0.76432,4.341402 -0.3241,1.469805 -1.25714,2.80321 -2.52612,3.613615 -1.26786,0.811025 -2.87457,1.094969 -4.34425,0.772743 -1.46012,-0.320116 -2.77748,-1.241095 -3.59111,-2.495259 a 0.21752632,0.21752632 0 0 0 -0.009,-0.01136 c -0.002,-0.0044 -0.0102,-0.0042 -0.0102,-0.0081 a 0.21752632,0.21752632 0 0 0 0,-0.01136 L 127.5326,62.863899 a 0.21752632,0.21752632 0 0 0 -0.35943,0 l -12.44818,19.422479 a 0.21752632,0.21752632 0 0 0 0.11794,0.331585 l 46.17634,13.847494 c 1.29743,0.385252 2.44849,1.245869 3.18645,2.380036 0.009,0.0092 0.0139,0.01131 0.0224,0.01947 a 0.21752632,0.21752632 0 0 0 0,0.01141 l 47.51647,74.354477 c 0.6278,0.98287 0.94812,2.15879 0.90201,3.32419 -0.0434,1.16582 -0.45457,2.31814 -1.1577,3.2483 -0.70296,0.92997 -1.70438,1.64428 -2.81275,2.00633 -1.10858,0.36204 -2.33673,0.3696 -3.45347,0.0337 l -30.00201,-9.01718 c -1.30317,-0.39048 -2.46038,-1.25483 -3.19491,-2.39971 l -30.89557,-48.19652 v -0.0113 a 0.21752632,0.21752632 0 0 0 -0.0223,-0.0195 0.21752632,0.21752632 0 0 0 0,-0.0113 c -0.81103,-1.26784 -1.095,-2.87454 -0.77276,-4.34419 0.32028,-1.46013 1.24107,-2.77472 2.49528,-3.58835 a 0.21752632,0.21752632 0 0 0 0.0102,-0.0113 c 0.002,-0.003 0.002,-0.009 0.0102,-0.0113 a 0.21752632,0.21752632 0 0 0 0.0102,0 c 1.26784,-0.81103 2.87454,-1.09777 4.34422,-0.77554 1.47004,0.32229 2.79857,1.25052 3.61078,2.51773 l 29.72658,46.37004 a 0.21752632,0.21752632 0 0 0 0.11536,0.0955 l 12.44794,3.7258 a 0.21752632,0.21752632 0 0 0 0.24462,-0.32876 l -37.65654,-58.88797 a 0.21752632,0.21752632 0 0 0 -0.11795,-0.0955 L 103.92937,91.379615 c -1.69751,-0.50869 -3.13292,-1.85288 -3.74848,-3.515255 -0.614247,-1.658824 -0.401852,-3.61763 0.55071,-5.10853 l 21.7632,-33.975276 a 0.21752632,0.21752632 0 0 0 0,-0.01136 c 1.02982,-1.6007 2.91778,-2.634248 4.82191,-2.644177 z m 0,0.32876 a 5.4381579,5.4381579 0 0 0 -4.54656,2.498064 l -21.76062,33.972476 a 5.4381579,5.4381579 0 0 0 3.01512,8.14609 l 51.83819,15.539099 38.54145,60.29061 -14.04136,-4.21776 -29.83055,-46.52739 a 5.4376145,5.4376145 0 0 0 -7.50825,-1.64383 5.4376145,5.4376145 0 0 0 -1.64664,7.50823 l 30.91517,48.22742 a 5.4381579,5.4381579 0 0 0 3.01514,2.27046 l 30.00198,9.01717 a 5.4381579,5.4381579 0 0 0 6.15104,-8.13484 L 163.94878,99.047733 a 5.4381579,5.4381579 0 0 0 -3.02633,-2.273267 l -46.8674,-14.052628 13.29678,-20.751593 12.84994,20.124967 a 5.4376145,5.4376145 0 0 0 7.50828,1.646637 5.4376145,5.4376145 0 0 0 1.65789,-7.508227 L 131.94053,48.960106 a 5.4381579,5.4381579 0 0 0 -4.61958,-2.506498 z m -32.5537,48.429751 a 0.08701052,0.08701052 0 0 0 -0.06196,0.03109 c -2.485853,0.07105 -4.905923,1.411468 -6.246508,3.506843 L 66.889589,132.08749 c -1.275917,1.98881 -1.562399,4.56994 -0.741824,6.78605 0.820576,2.2161 2.726932,3.99469 4.990493,4.67298 l 76.476042,22.97147 c 1.92136,0.5786 4.06292,0.36589 5.83066,-0.58447 1.76765,-0.95032 3.12922,-2.62455 3.70636,-4.54653 0.57801,-1.9235 0.36052,-4.07108 -0.59291,-5.8391 -0.95174,-1.76519 -2.62583,-3.12234 -4.5465,-3.69793 a 0.08701052,0.08701052 0 0 0 -0.0223,0 l -66.736713,-20.06034 3.068418,-4.75727 42.290025,12.75445 c 2.97944,0.90129 6.45059,-0.23573 8.32599,-2.72007 1.87328,-2.48155 2.00863,-6.12121 0.33167,-8.73897 a 0.08701052,0.08701052 0 0 0 0,-0.0113 l -14.16789,-22.0891 v -0.0114 a 0.08701052,0.08701052 0 0 0 0,-0.0113 c -0.94324,-1.46809 -2.39941,-2.60153 -4.05753,-3.14449 a 0.08701052,0.08701052 0 0 0 -0.0327,0 L 97.305971,95.25419 a 0.08701052,0.08701052 0 0 0 -0.02231,0 h -0.02231 c -0.790234,-0.254632 -1.614256,-0.370787 -2.444653,-0.359698 -0.01394,2.45e-4 -0.03267,-0.01131 -0.05419,-0.01131 z m 0,0.168606 c 0.835815,-0.01732 1.669023,0.115066 2.464297,0.373725 a 0.08701052,0.08701052 0 0 0 0.03266,0 l 23.702123,7.806087 a 0.08701052,0.08701052 0 0 0 0.0102,0 c 1.61915,0.53023 3.05228,1.62398 3.97331,3.05725 a 0.08701052,0.08701052 0 0 0 0,0.0113 l 14.15662,22.0807 a 0.08701052,0.08701052 0 0 0 0.0102,0.0311 c 1.63504,2.55216 1.49745,6.12866 -0.32895,8.54791 -1.82842,2.42207 -5.23306,3.5341 -8.13768,2.65541 L 88.297813,126.84142 a 0.08701052,0.08701052 0 0 0 -0.09582,0.0424 l -3.166814,4.91744 a 0.08701052,0.08701052 0 0 0 0.05438,0.12642 l 66.867911,20.09405 a 0.08701052,0.08701052 0 0 0 0.0224,0 c 1.87195,0.56338 3.50089,1.89034 4.42857,3.61081 0.9304,1.72568 1.13749,3.83493 0.57318,5.71266 -0.56341,1.87633 -1.89661,3.51212 -3.62203,4.43974 -1.72532,0.92757 -3.82817,1.12694 -5.70424,0.56201 L 71.178982,143.37502 c -2.208954,-0.66195 -4.063333,-2.40381 -4.864046,-4.5662 -0.800613,-2.16237 -0.523097,-4.69614 0.72214,-6.63714 L 88.606388,98.505494 c 1.321182,-2.064919 3.708776,-3.408881 6.159467,-3.453454 z m 0.01,0.236042 c -2.379807,0.04302 -4.696878,1.327767 -5.979569,3.332621 L 67.229432,132.28683 c -1.208799,1.88418 -1.477091,4.34939 -0.699688,6.44887 0.777345,2.0994 2.581879,3.78589 4.726385,4.42851 l 76.476021,22.97146 c 1.82036,0.54821 3.84738,0.3381 5.52156,-0.56199 1.67442,-0.90017 2.96847,-2.48124 3.51532,-4.30206 0.54756,-1.82209 0.34094,-3.85805 -0.56202,-5.53282 -0.903,-1.67481 -2.49017,-2.9631 -4.31328,-3.50683 l -67.256554,-20.20928 3.504015,-5.46819 42.587839,12.84997 c 2.82068,0.84815 6.10446,-0.23131 7.87911,-2.58236 1.77692,-2.35389 1.9152,-5.81128 0.32031,-8.29221 l -14.16787,-22.11162 c -0.89488,-1.39262 -2.28125,-2.46234 -3.85529,-2.97574 L 97.16921,95.636446 C 96.398579,95.385778 95.588503,95.271141 94.777968,95.288 Z m 0,0.210734 c 0.785713,-0.0161 1.579053,0.108062 2.326694,0.351268 l 23.735766,7.806078 c 1.52492,0.49738 2.86161,1.53904 3.72886,2.88864 l 14.16779,22.11162 c 1.54202,2.39876 1.42029,5.76336 -0.29797,8.03931 -1.71594,2.27309 -4.91867,3.31528 -7.64587,2.49525 L 88.128735,126.31847 a 0.10876317,0.10876317 0 0 0 -0.126307,0.0424 l -3.644529,5.66208 a 0.10876317,0.10876317 0 0 0 0.06475,0.16862 l 67.408281,20.25423 c 1.76611,0.52675 3.30949,1.77529 4.18403,3.39726 0.87456,1.62201 1.07271,3.59931 0.5421,5.3642 -0.52961,1.76342 -1.78946,3.30088 -3.41128,4.17281 -1.62198,0.87204 -3.58712,1.07327 -5.35016,0.54228 L 71.317461,142.95063 c -2.075973,-0.62207 -3.824943,-2.26975 -4.577464,-4.30206 -0.752422,-2.03222 -0.490446,-4.40834 0.680043,-6.2325 L 88.989333,98.749894 c 1.241611,-1.9406 3.48525,-3.209412 5.788555,-3.251131 z m 0.01,0.286617 c -2.220052,0.04026 -4.378144,1.242872 -5.574951,3.113468 L 67.639915,132.56502 c -1.127616,1.75759 -1.371484,4.02945 -0.646256,5.98804 0.725227,1.9587 2.405267,3.54234 4.405974,4.14186 l 76.467597,22.97428 c 1.69817,0.51135 3.58891,0.31703 5.15069,-0.52265 1.56193,-0.83975 2.77201,-2.32561 3.28202,-4.02387 0.51059,-1.69937 0.32245,-3.5775 -0.51986,-5.13943 -0.84227,-1.56229 -2.33422,-2.77477 -4.03504,-3.28204 l -67.885901,-20.39193 4.066003,-6.33084 42.939068,12.95675 c 2.63474,0.79705 5.68982,-0.21148 7.34808,-2.40815 1.65818,-2.19661 1.78618,-5.40646 0.29797,-7.72177 l -14.16845,-22.11163 c -0.83457,-1.29889 -2.1202,-2.30304 -3.58824,-2.78188 L 97.017774,96.105685 c -0.71919,-0.233891 -1.476056,-0.336051 -2.231107,-0.320335 z m 0,0.320334 c 0.719351,-0.01519 1.441072,0.0953 2.124364,0.317502 L 120.6474,104.2293 c 1.39443,0.45481 2.6267,1.39881 3.41977,2.63292 l 14.16782,22.11163 c 1.40914,2.19206 1.29478,5.27932 -0.27513,7.3593 -1.57008,2.07991 -4.51687,3.03897 -7.01085,2.2845 L 87.894567,125.63 a 0.16314473,0.16314473 0 0 0 -0.179897,0.073 l -4.248609,6.61747 a 0.16314473,0.16314473 0 0 0 0.09582,0.24446 l 68.096649,20.45372 c 1.6146,0.48156 3.02484,1.63055 3.82441,3.11346 0.79974,1.48326 0.98517,3.29227 0.50024,4.90618 -0.48395,1.61248 -1.63073,3.01601 -3.11338,3.81313 -1.48289,0.7972 -3.3057,0.98271 -4.91749,0.49737 L 71.488334,142.37738 c -1.89773,-0.56866 -3.507443,-2.07057 -4.195297,-3.92833 -0.687953,-1.85789 -0.44315,-4.0477 0.626633,-5.71546 L 89.488942,99.067395 c 1.134887,-1.773808 3.193868,-2.92358 5.299624,-2.96171 z m 0.01,0.244471 c -2.036646,0.03751 -4.011016,1.139569 -5.10853,2.854932 L 68.121346,132.86287 c -1.034322,1.61225 -1.260758,3.70298 -0.595674,5.4991 0.664903,1.79574 2.189032,3.24364 4.023847,3.79344 l 76.478831,22.97147 c 1.55659,0.46878 3.29418,0.29227 4.72634,-0.4777 1.43186,-0.7698 2.53617,-2.11798 3.00388,-3.67544 0.46873,-1.55887 0.28337,-3.30533 -0.48883,-4.73761 -0.7721,-1.43187 -2.11343,-2.53038 -3.6726,-2.99541 l -68.608093,-20.6139 4.692616,-7.31715 43.343707,13.086 c 1.2059,0.36481 2.52066,0.33687 3.71762,-0.0533 1.19705,-0.39031 2.26747,-1.15001 3.02633,-2.15522 0.75884,-1.00526 1.19461,-2.23758 1.24201,-3.49561 0.0488,-1.25836 -0.29702,-2.52882 -0.97789,-3.58833 L 123.8656,106.99157 c -0.76547,-1.19129 -1.94559,-2.0903 -3.29046,-2.52897 L 96.83655,96.656537 c -0.623248,-0.202661 -1.273031,-0.288086 -1.930503,-0.286628 a 0.21752632,0.21752632 0 0 0 -0.05419,-0.01131 c -0.01394,2.14e-4 -0.03825,-0.0092 -0.05419,-0.0092 z m 0,0.42429 c 0.642293,-0.01294 1.297793,0.08724 1.910778,0.286628 l 23.735822,7.806086 c 1.24878,0.40733 2.35073,1.25366 3.06004,2.35757 l 14.16759,22.11161 c 0.63166,0.98256 0.95718,2.16791 0.91327,3.33543 -0.0434,1.16783 -0.45406,2.32729 -1.15774,3.25955 -0.70373,0.93229 -1.70464,1.64408 -2.81553,2.0063 -1.11107,0.36227 -2.34424,0.37183 -3.46193,0.0337 L 87.648509,124.84321 a 0.21752632,0.21752632 0 0 0 -0.244625,0.0955 l -4.937062,7.6993 a 0.21752632,0.21752632 0 0 0 0.11535,0.32875 l 68.883448,20.70101 c 1.44486,0.43094 2.70403,1.45451 3.41973,2.78186 0.71549,1.32698 0.88053,2.95434 0.44696,4.3976 -0.43335,1.44239 -1.46618,2.70636 -2.79307,3.41972 -1.32661,0.71321 -2.94383,0.86997 -4.38638,0.43555 L 71.678332,141.72827 c -1.697571,-0.50868 -3.133006,-1.85289 -3.748542,-3.51526 -0.615357,-1.662 -0.406214,-3.62546 0.550769,-5.11695 L 90.049831,99.438315 c 1.015275,-1.586852 2.865909,-2.629388 4.748836,-2.66387 z m 0.01,0.328764 a 5.4381579,5.4381579 0 0 0 -4.481899,2.506495 l -21.57235,33.666185 a 5.4381579,5.4381579 0 0 0 3.017896,8.14609 l 76.476033,22.97146 a 5.4376145,5.4376145 0 0 0 6.77484,-3.64173 5.4376145,5.4376145 0 0 0 -3.65298,-6.77762 l -69.571925,-20.90053 5.552477,-8.65468 43.894468,13.24337 a 5.4381579,5.4381579 0 0 0 6.14821,-8.14609 l -14.16596,-22.11164 a 5.4381579,5.4381579 0 0 0 -2.89142,-2.23111 L 96.598983,97.367352 A 5.4381579,5.4381579 0 0 0 94.806205,97.10326 Z m 2.399749,11.91705 17.905051,5.88126 5.18162,8.09269 -26.846429,-8.10112 z m 0.210916,0.4243 a 0.21752632,0.21752632 0 0 0 -0.157187,0.0955 l -3.155617,4.91744 a 0.21752632,0.21752632 0 0 0 0.117939,0.32875 l 24.76398,7.47731 a 0.21752632,0.21752632 0 0 0 0.24461,-0.33159 l -4.2917,-6.69049 a 0.21752632,0.21752632 0 0 0 -0.11515,-0.0843 l -17.320537,-5.70423 a 0.21752632,0.21752632 0 0 0 -0.08707,-0.009 z m 0.117939,0.46644 17.087376,5.62836 3.93111,6.12855 -23.929579,-7.22162 z m 0.171331,0.32316 a 0.16314473,0.16314473 0 0 0 -0.04343,0.005 0.16314473,0.16314473 0 0 0 -0.106584,0.0758 l -2.441865,3.82155 a 0.16314473,0.16314473 0 0 0 0.09582,0.24446 l 22.367314,6.74392 a 0.16314473,0.16314473 0 0 0 0.1799,-0.24447 l -3.25954,-5.086 a 0.16314473,0.16314473 0 0 0 -0.0845,-0.0759 l -16.666845,-5.47926 a 0.16314473,0.16314473 0 0 0 -0.03825,-0.005 z m 0.04881,0.36812 16.494515,5.4148 2.99544,4.66174 -21.740746,-6.55284 z m 0.168542,0.34562 a 0.10876317,0.10876317 0 0 0 -0.03267,0.003 0.10876317,0.10876317 0 0 0 -0.06196,0.0452 l -1.826508,2.85493 a 0.10876317,0.10876317 0 0 0 0.06196,0.17141 l 20.265481,6.11729 a 0.10876317,0.10876317 0 0 0 0.1259,-0.17141 l -2.3575,-3.6951 a 0.10876317,0.10876317 0 0 0 -0.0647,-0.0424 l -16.078883,-5.27999 a 0.10876317,0.10876317 0 0 0 -0.03267,-0.003 z m 0.05618,0.24724 15.949333,5.23778 2.17769,3.40848 -19.827044,-5.99084 z m 0.129295,0.28101 a 0.08701052,0.08701052 0 0 0 -0.03267,0.005 0.08701052,0.08701052 0 0 0 -0.04343,0.0452 l -1.348772,2.10185 a 0.08701052,0.08701052 0 0 0 0.05419,0.12642 l 18.63009,5.61994 a 0.08701052,0.08701052 0 0 0 0.0958,-0.12925 l -1.66939,-2.60206 a 0.08701052,0.08701052 0 0 0 -0.0434,-0.0424 l -15.612161,-5.11974 a 0.08701052,0.08701052 0 0 0 -0.02849,-0.005 z m 0.02848,0.19669 15.527908,5.08884 1.51735,2.37724 -18.287248,-5.52158 z"
       inkscape:export-xdpi="300"
       inkscape:export-ydpi="300" />
  </g>
</svg>
