<?xml version="1.0" encoding="UTF-8" standalone="no"?>
<svg
   xmlns:dc="http://purl.org/dc/elements/1.1/"
   xmlns:cc="http://creativecommons.org/ns#"
   xmlns:rdf="http://www.w3.org/1999/02/22-rdf-syntax-ns#"
   xmlns:svg="http://www.w3.org/2000/svg"
   xmlns="http://www.w3.org/2000/svg"
   xmlns:sodipodi="http://sodipodi.sourceforge.net/DTD/sodipodi-0.dtd"
   xmlns:inkscape="http://www.inkscape.org/namespaces/inkscape"
   inkscape:export-ydpi="300"
   inkscape:export-xdpi="300"
   inkscape:export-filename="D:\Eoghan\Tribe Website\static\social\eoghan-white.png"
   height="47.817959"
   width="265.34961"
   version="1.1"
   id="Layer_1"
   x="0px"
   y="0px"
   viewBox="0 0 265.3496 47.817958"
   enable-background="new 0 0 182.7 44.4"
   xml:space="preserve"
   sodipodi:docname="eoghan-white.svg"
   inkscape:version="1.0 (4035a4fb49, 2020-05-01)"><metadata
   id="metadata3056"><rdf:RDF><cc:Work
       rdf:about=""><dc:format>image/svg+xml</dc:format><dc:type
         rdf:resource="http://purl.org/dc/dcmitype/StillImage" /><dc:title></dc:title></cc:Work></rdf:RDF></metadata><defs
   id="defs3054" /><sodipodi:namedview
   fit-margin-bottom="0"
   fit-margin-right="0"
   fit-margin-left="0"
   fit-margin-top="0"
   inkscape:guide-bbox="true"
   showguides="true"
   inkscape:document-rotation="0"
   pagecolor="#ffffff"
   bordercolor="#666666"
   borderopacity="1"
   objecttolerance="10"
   gridtolerance="10"
   guidetolerance="10"
   inkscape:pageopacity="0"
   inkscape:pageshadow="2"
   inkscape:window-width="1920"
   inkscape:window-height="1001"
   id="namedview3052"
   showgrid="false"
   inkscape:pagecheckerboard="true"
   inkscape:zoom="2.5408626"
   inkscape:cx="167.43836"
   inkscape:cy="104.191"
   inkscape:window-x="-9"
   inkscape:window-y="-9"
   inkscape:window-maximized="1"
   inkscape:current-layer="Layer_1"><sodipodi:guide
     id="guide1032"
     orientation="1,0"
     position="273.98042,40.025726" /><sodipodi:guide
     id="guide917"
     orientation="1,0"
     position="185.27172,30.107438" /></sodipodi:namedview>


<text
   id="text836"
   y="28.354374"
   x="197.2957"
   style="font-size:40px;line-height:1.25;font-family:'Nordic Alternative';-inkscape-font-specification:'Nordic Alternative'"
   xml:space="preserve"><tspan
     y="28.354374"
     x="197.2957"
     id="tspan834"
     sodipodi:role="line"></tspan></text><g
   id="g955"><path
     id="path1423-4"
     style="color:#000000;font-style:normal;font-variant:normal;font-weight:normal;font-stretch:normal;font-size:medium;line-height:normal;font-family:sans-serif;font-variant-ligatures:normal;font-variant-position:normal;font-variant-caps:normal;font-variant-numeric:normal;font-variant-alternates:normal;font-variant-east-asian:normal;font-feature-settings:normal;font-variation-settings:normal;text-indent:0;text-align:start;text-decoration:none;text-decoration-line:none;text-decoration-style:solid;text-decoration-color:#000000;letter-spacing:normal;word-spacing:normal;text-transform:none;writing-mode:lr-tb;direction:ltr;text-orientation:mixed;dominant-baseline:auto;baseline-shift:baseline;text-anchor:start;white-space:normal;shape-padding:0;shape-margin:0;inline-size:0;clip-rule:nonzero;display:inline;overflow:visible;visibility:visible;isolation:auto;mix-blend-mode:normal;color-interpolation:sRGB;color-interpolation-filters:linearRGB;solid-color:#000000;solid-opacity:1;vector-effect:none;fill:#ffffff;fill-opacity:1;fill-rule:nonzero;stroke:none;stroke-width:7.55907;stroke-linecap:round;stroke-linejoin:round;stroke-miterlimit:4;stroke-dasharray:none;stroke-dashoffset:0;stroke-opacity:1;color-rendering:auto;image-rendering:auto;shape-rendering:auto;text-rendering:auto;enable-background:accumulate;stop-color:#000000"
     d="M 19.602678,4.541634e-4 C 18.794928,0.00457416 18.002708,0.43928156 17.565638,1.1186295 a 0.02767726,0.02767726 0 0 0 0,0.0071 l -6.92177,10.8036355 c -0.40585,0.632626 -0.49788,1.453654 -0.23686,2.158582 0.26101,0.704924 0.86743,1.270673 1.58743,1.486434 l 16.23989,4.867771 11.09415,17.354495 -2.39544,-0.71953 -9.34762,-14.577381 c -0.34409,-0.536853 -0.90368,-0.93065 -1.52665,-1.067226 -0.62295,-0.136579 -1.29785,-0.01641 -1.83502,0.327142 -0.53686,0.34408 -0.93065,0.904573 -1.06723,1.527542 -0.13665,0.622944 -0.0155,1.296956 0.32804,1.834124 l 9.83384,15.340716 c 0.31109,0.484894 0.79952,0.854465 1.35146,1.01985 l 9.54336,2.868279 c 0.94641,0.284622 2.04887,-0.07319 2.64485,-0.861644 0.59596,-0.788434 0.64019,-1.946896 0.1081,-2.779791 L 31.851628,17.060867 v -0.0038 a 0.02767726,0.02767726 0 0 0 0,-0.0038 c -0.31142,-0.48452 -0.8025,-0.851265 -1.35412,-1.016296 l -14.01339,-4.202762 3.13196,-4.8847514 3.49306,5.4728854 c 0.34409,0.536857 0.90369,0.930649 1.52666,1.067231 0.62294,0.136574 1.29785,0.0156 1.83503,-0.328039 0.53763,-0.343336 0.93332,-0.903621 1.07079,-1.52665 0.13752,-0.623042 0.0155,-1.296445 -0.32802,-1.834127 l -5.54352,-8.6753734 c -0.44189,-0.69041394 -1.24761,-1.13128404 -2.0674,-1.125324936598 z m 0,0.0545259966 c 0.79969,-0.00582 1.58888,0.4239746 2.02005,1.09761724 l 5.54349,8.6754559 c 0.33514,0.5249997 0.45505,1.1858297 0.32089,1.7939037 -0.13422,0.608088 -0.51909,1.158367 -1.04399,1.493587 -0.5244,0.335443 -1.18583,0.4542 -1.79391,0.320884 -0.60805,-0.133309 -1.15673,-0.517131 -1.49269,-1.041309 l -3.5172,-5.5095376 a 0.02767726,0.02767726 0 0 0 -0.0465,0 l -3.17577,4.9526866 a 0.02767726,0.02767726 0 0 0 0.0172,0.04025 l 14.05003,4.212591 c 0.53874,0.161171 1.01708,0.51744 1.32106,0.990356 a 0.02767726,0.02767726 0 0 0 0,0.0025 l 15.1134,23.651484 c 0.51866,0.811986 0.47282,1.950394 -0.1081,2.71902 -0.581,0.768608 -1.66134,1.119486 -2.58408,0.841981 l -9.54335,-2.86823 c -0.53886,-0.161464 -1.0137,-0.519526 -1.3175,-0.993041 l -9.8347,-15.340734 c -0.33546,-0.524401 -0.45421,-1.185839 -0.32089,-1.793906 0.13336,-0.608046 0.51625,-1.157629 1.04041,-1.493583 0.52438,-0.335445 1.18585,-0.454205 1.79391,-0.320885 0.60805,0.133306 1.15762,0.516237 1.49358,1.040415 l 9.35387,14.587213 a 0.02767726,0.02767726 0 0 0 0.0173,0.01349 l 2.47678,0.743662 a 0.02767726,0.02767726 0 0 0 0.0305,-0.04025 L 28.274588,20.405338 a 0.02767726,0.02767726 0 0 0 -0.0172,-0.01349 l -16.24975,-4.871339 c -0.70266,-0.210557 -1.29253,-0.765527 -1.54721,-1.453363 -0.25467,-0.687832 -0.1664,-1.493802 0.22971,-2.111216 l 6.92267,-10.8069805 a 0.02767726,0.02767726 0 0 0 0,-0.00284 c 0.42639,-0.66274904 1.20158,-1.08725934 1.98966,-1.09135884 z m 0,0.074182 c -0.76531,0.0039 -1.51486,0.4138429 -1.92889,1.05739334 l -6.92266,10.8072325 c -0.3845,0.59934 -0.46985,1.382603 -0.22255,2.050435 0.24726,0.667806 0.82124,1.204261 1.5034,1.408668 l 16.28281,4.881177 11.30061,17.681634 -2.76371,-0.830366 -9.37443,-14.62118 c -0.32595,-0.508579 -0.8588,-0.877073 -1.44887,-1.006445 -0.59018,-0.129396 -1.23145,-0.01539 -1.74028,0.31016 -0.5086,0.325967 -0.8771,0.8597 -1.00646,1.449785 -0.12938,0.590165 -0.0155,1.230557 0.31016,1.739386 l 9.83475,15.340702 c 0.29471,0.459346 0.75717,0.805997 1.27995,0.962654 l 9.54337,2.868275 c 0.89675,0.2697 1.93897,-0.07355 2.50362,-0.820521 0.56463,-0.747002 0.60863,-1.843213 0.10465,-2.632321 a 0.03459658,0.03459658 0 0 0 0,-0.0025 L 31.743478,17.121937 c -0.29577,-0.460149 -0.75912,-0.806952 -1.28353,-0.962652 l -14.17158,-4.250144 3.32771,-5.1922246 3.60121,5.6382506 a 0.03459658,0.03459658 0 0 0 0,0.0038 c 0.32597,0.508583 0.85881,0.877084 1.4489,1.006448 0.58917,0.129168 1.22836,0.01402 1.73669,-0.310163 0.50932,-0.325255 0.87982,-0.859622 1.01004,-1.449781 0.13024,-0.590122 0.0177,-1.223791 -0.30749,-1.7331249 a 0.03459658,0.03459658 0 0 0 0,-0.00634 l -5.54349,-8.6754377 c -0.41866,-0.65410214 -1.18265,-1.06661764 -1.95926,-1.06096784 z m 0,0.067949 c 0.75159,-0.00553 1.49328,0.4001849 1.89848,1.03325814 l 5.5435,8.6754565 a 0.03459658,0.03459658 0 0 0 0,0.00383 c 0.31506,0.4934582 0.42734,1.1105802 0.30122,1.6821852 -0.1261,0.571566 -0.48987,1.086468 -0.9832,1.401512 -0.49255,0.314144 -1.1127,0.429843 -1.68308,0.304797 -0.57156,-0.125297 -1.08578,-0.486994 -1.40153,-0.979629 a 0.03459658,0.03459658 0 0 0 0,-0.0038 l -3.63159,-5.6856538 a 0.03459658,0.03459658 0 0 0 -0.0608,0 l -3.38491,5.2798198 a 0.03459658,0.03459658 0 0 0 0.0206,0.0545 l 14.21895,4.262652 c 0.5081,0.150859 0.95583,0.48997 1.24242,0.935834 l 15.11459,23.644339 v 0.0038 a 0.03459658,0.03459658 0 0 0 0,0.007 c 0.48744,0.763069 0.44766,1.827777 -0.0982,2.550079 -0.546,0.722323 -1.56151,1.054474 -2.42853,0.793716 l -9.54338,-2.867409 c -0.5065,-0.151725 -0.9542,-0.490741 -1.23973,-0.93578 l -9.83385,-15.34089 c -0.3153,-0.492903 -0.4301,-1.114291 -0.3048,-1.685754 0.12539,-0.571548 0.48698,-1.086658 0.97962,-1.402411 0.49291,-0.315299 1.1143,-0.429188 1.68576,-0.303897 0.57155,0.125296 1.08665,0.486985 1.4024,0.979628 l 9.3816,14.631005 a 0.03459658,0.03459658 0 0 0 0.0197,0.01349 l 2.87187,0.861651 a 0.03459658,0.03459658 0 0 0 0.0403,-0.05362 L 28.369278,20.284042 a 0.03459658,0.03459658 0 0 0 -0.0206,-0.01348 l -16.29619,-4.885658 c -0.66036,-0.197874 -1.21668,-0.72109 -1.45605,-1.367554 -0.23936,-0.646439 -0.15601,-1.403147 0.21629,-1.983395 l 6.92179,-10.8072515 c 0.40075,-0.62291224 1.12749,-1.02594584 1.86809,-1.02968634 z m 0,0.091173 c -0.71394,0.00383 -1.41122,0.3854698 -1.79748,0.98588724 l -6.92179,10.8072316 c -0.35868,0.559077 -0.43715,1.282629 -0.20646,1.905632 0.2307,0.623051 0.76599,1.126799 1.40239,1.317501 l 16.33733,4.894581 11.56341,18.087432 -3.22939,-0.966228 -9.40481,-14.668549 c -0.30403,-0.474353 -0.80099,-0.82141 -1.35147,-0.942092 -0.5505,-0.12068 -1.14413,-0.0131 -1.61871,0.290496 -0.47436,0.304029 -0.82142,0.800986 -0.94209,1.351459 -0.12073,0.550494 -0.0138,1.143244 0.29049,1.61782 l 9.83383,15.340708 c 0.2749,0.428463 0.70832,0.755747 1.19595,0.901876 l 9.54337,2.868279 c 0.83691,0.251703 1.80423,-0.06986 2.33109,-0.7669 0.52696,-0.697129 0.56876,-1.716191 0.0984,-2.452658 L 31.612198,17.209271 c -0.27588,-0.429195 -0.71033,-0.756623 -1.19952,-0.901864 l -14.37092,-4.30734 3.57442,-5.5774622 3.7326,5.8482892 c 0.30404,0.47435 0.80101,0.821402 1.35146,0.942096 0.55051,0.120676 1.14414,0.0131 1.61873,-0.290501 0.47512,-0.303422 0.82065,-0.801091 0.94209,-1.351462 0.12141,-0.55043 0.0155,-1.142706 -0.28692,-1.6178235 l -5.5435,-8.6754524 c -0.39066,-0.61034624 -1.10336,-0.99473464 -1.82787,-0.98946594 z m 0,0.1009919 c 0.68708,-0.00504 1.36903,0.3643697 1.73938,0.94298614 l 5.54439,8.6745658 c 0.28797,0.451152 0.38884,1.021886 0.2735,1.544528 -0.11536,0.522713 -0.4446,0.995518 -0.89561,1.283531 -0.45071,0.288427 -1.02113,0.391641 -1.54363,0.277089 -0.52251,-0.114554 -0.99482,-0.445142 -1.28352,-0.895613 l -3.77731,-5.9153292 a 0.05189487,0.05189487 0 0 0 -0.0875,0 l -3.65575,5.7026012 a 0.05189487,0.05189487 0 0 0 0.0303,0.07776 l 14.43886,4.327901 c 0.46455,0.13792 0.87666,0.446797 1.13872,0.854495 l 15.11368,23.650591 c 0.44539,0.697288 0.40777,1.678186 -0.0911,2.338247 -0.49901,0.660154 -1.43068,0.964058 -2.22296,0.725785 l -9.54335,-2.868282 c -0.46311,-0.138769 -0.87408,-0.447562 -1.13515,-0.854494 l -9.83386,-15.340707 c -0.2884,-0.450717 -0.39163,-1.021134 -0.27706,-1.54364 0.1145,-0.522508 0.44511,-0.994805 0.89558,-1.283531 0.45072,-0.288415 1.02115,-0.391629 1.54367,-0.277082 0.5225,0.114559 0.99479,0.445142 1.28351,0.895613 l 9.41553,14.684639 a 0.05189487,0.05189487 0 0 0 0.0305,0.02416 l 3.38135,1.013602 a 0.05189487,0.05189487 0 0 0 0.0572,-0.07776 L 28.494418,20.128527 a 0.05189487,0.05189487 0 0 0 -0.0305,-0.02413 l -16.35787,-4.901761 c -0.60366,-0.180881 -1.11569,-0.658636 -1.33449,-1.249569 -0.21881,-0.590979 -0.14096,-1.287539 0.19934,-1.818038 l 6.92179,-10.8063332 c 0.36631,-0.56941414 1.03282,-0.93587974 1.70988,-0.93941524 z m 0.003,0.077764 c -0.65473,0.00355 -1.29473,0.3510501 -1.64911,0.90187164 a 0.06919316,0.06919316 0 0 0 0,0.00361 0.06919316,0.06919316 0 0 0 -0.003,0.00361 l -6.91821,10.8036433 c -0.32748,0.512365 -0.40071,1.176111 -0.18947,1.746536 0.2115,0.57121 0.69718,1.030876 1.28084,1.205773 l 16.40435,4.911567 11.86107,18.554013 -3.75677,-1.121753 -9.44235,-14.729339 c -0.27873,-0.43489 -0.73152,-0.751008 -1.23616,-0.861647 -0.50475,-0.11066 -1.04774,-0.0111 -1.48285,0.267255 a 0.06919316,0.06919316 0 0 0 -0.003,0 c -0.4349,0.278734 -0.75099,0.731512 -0.86164,1.236157 -0.10915,0.497566 -0.0122,1.031268 0.25742,1.463196 a 0.06919316,0.06919316 0 0 0 0,0.0014 0.06919316,0.06919316 0 0 0 0.0104,0.01877 0.06919316,0.06919316 0 0 0 0,0.0038 l 9.83386,15.340691 c 0.25197,0.392771 0.64439,0.690171 1.09134,0.824104 l 9.54337,2.868286 c 0.3829,0.115157 0.7989,0.110716 1.17896,-0.01348 0.38009,-0.124159 0.72147,-0.370072 0.96264,-0.689139 0.24114,-0.31901 0.38025,-0.709013 0.39599,-1.108345 0.0155,-0.399473 -0.0922,-0.801806 -0.30751,-1.13873 L 31.467578,17.321509 a 0.06919316,0.06919316 0 0 0 -0.007,-0.01348 0.06919316,0.06919316 0 0 0 0,-0.0038 c -0.253,-0.393406 -0.64665,-0.691017 -1.09501,-0.824139 l -14.60067,-4.377962 3.85151,-6.0100736 3.87831,6.0672766 a 0.06919316,0.06919316 0 0 0 0.007,0.01349 0.06919316,0.06919316 0 0 0 0,0.0038 c 0.27874,0.434896 0.73242,0.751012 1.23707,0.861647 0.50474,0.110664 1.04771,0.0111 1.48284,-0.267256 0.43552,-0.278113 0.75384,-0.731373 0.86523,-1.236153 0.11139,-0.504621 0.0138,-1.047187 -0.26369,-1.482863 l -5.54356,-8.6754901 c -0.35819,-0.55964354 -1.00764,-0.91385314 -1.67234,-0.90902074 z m 0,0.134965 c 0.61437,-0.00454 1.22568,0.330559 1.55703,0.84823524 l 5.5435,8.6754577 c 0.25768,0.403629 0.34633,0.913262 0.24312,1.380966 -0.10309,0.467527 -0.39988,0.891675 -0.80354,1.149453 -0.40329,0.257982 -0.91437,0.348306 -1.38187,0.245803 -0.46442,-0.101822 -0.88346,-0.394778 -1.14227,-0.793716 a 0.06919316,0.06919316 0 0 0 -0.003,-0.0038 c -6.7e-4,-0.0014 -0.003,-0.0014 -0.003,-0.0025 a 0.06919316,0.06919316 0 0 0 0,-0.0038 l -3.94274,-6.1719736 a 0.06919316,0.06919316 0 0 0 -0.11433,0 l -3.95965,6.1781096 a 0.06919316,0.06919316 0 0 0 0.0375,0.105475 l 14.68821,4.404766 c 0.4127,0.122547 0.77885,0.3963 1.01358,0.757074 0.002,0.0025 0.004,0.0038 0.007,0.0063 a 0.06919316,0.06919316 0 0 0 0,0.0038 l 15.11461,23.651566 c 0.1997,0.312646 0.30159,0.686698 0.28693,1.057397 -0.0138,0.37084 -0.1446,0.737383 -0.36826,1.033261 -0.22361,0.295813 -0.54215,0.523023 -0.89471,0.638188 -0.35263,0.11516 -0.7433,0.117562 -1.09852,0.0107 l -9.54335,-2.868218 c -0.41453,-0.124206 -0.78263,-0.399146 -1.01627,-0.763327 l -9.82755,-15.330889 v -0.0038 a 0.06919316,0.06919316 0 0 0 -0.007,-0.0063 0.06919316,0.06919316 0 0 0 0,-0.0038 c -0.25799,-0.403288 -0.34831,-0.914364 -0.24581,-1.381849 0.10188,-0.464451 0.39477,-0.882611 0.79372,-1.14142 a 0.06919316,0.06919316 0 0 0 0.003,-0.0038 c 6.7e-4,-7.05e-4 6.7e-4,-0.0025 0.003,-0.0038 a 0.06919316,0.06919316 0 0 0 0.003,0 c 0.40329,-0.257976 0.91436,-0.349183 1.38186,-0.246687 0.4676,0.102512 0.8902,0.397774 1.14856,0.800864 l 9.45569,14.750007 a 0.06919316,0.06919316 0 0 0 0.0367,0.03043 l 3.95957,1.185146 a 0.06919316,0.06919316 0 0 0 0.0778,-0.104574 L 28.631198,19.948883 a 0.06919316,0.06919316 0 0 0 -0.0375,-0.03043 l -16.42844,-4.922239 c -0.53997,-0.161812 -0.99656,-0.589387 -1.19236,-1.118168 -0.19539,-0.527665 -0.12783,-1.150739 0.17517,-1.624979 l 6.92268,-10.8063122 a 0.06919316,0.06919316 0 0 0 0,-0.00362 c 0.32758,-0.50916784 0.92812,-0.83792744 1.53381,-0.84108614 z m 0,0.1045734 A 1.7298286,1.7298286 0 0 0 18.159668,1.5011928 L 11.237848,12.30753 a 1.7298286,1.7298286 0 0 0 0.95909,2.591198 l 16.48926,4.942852 12.25968,19.177893 -4.46643,-1.341632 -9.48882,-14.799939 a 1.7296559,1.7296559 0 0 0 -2.38831,-0.522889 1.7296559,1.7296559 0 0 0 -0.52378,2.388297 l 9.83384,15.34071 a 1.7298286,1.7298286 0 0 0 0.95908,0.722213 l 9.54336,2.868277 a 1.7298286,1.7298286 0 0 0 1.95659,-2.58762 L 31.256878,17.436295 a 1.7298286,1.7298286 0 0 0 -0.96265,-0.723111 l -14.9081,-4.470014 4.22959,-6.6008908 4.08745,6.4015698 a 1.7296559,1.7296559 0 0 0 2.38831,0.52378 1.7296559,1.7296559 0 0 0 0.52736,-2.388298 l -5.5435,-8.6754609 A 1.7298286,1.7298286 0 0 0 19.605888,0.70657596 Z M 9.250678,16.111646 a 0.02767726,0.02767726 0 0 0 -0.0197,0.0099 c -0.79072,0.02258 -1.56053,0.448945 -1.98695,1.11546 l -6.86099,10.708909 c -0.40586,0.632624 -0.49699,1.453663 -0.23597,2.158584 0.26102,0.704924 0.86741,1.270672 1.58743,1.486434 l 24.32634,7.307014 c 0.61117,0.184049 1.29238,0.116389 1.85468,-0.185917 0.56227,-0.302285 0.99537,-0.834845 1.17896,-1.446209 0.18386,-0.611843 0.11467,-1.294973 -0.1886,-1.857361 -0.30274,-0.561494 -0.83526,-0.993185 -1.4462,-1.176277 a 0.02767726,0.02767726 0 0 0 -0.007,0 l -21.22839,-6.381015 0.97603,-1.513242 13.45207,4.057069 c 0.94774,0.286698 2.05188,-0.07498 2.64843,-0.865226 0.59587,-0.789356 0.63893,-1.9471 0.1055,-2.779786 a 0.02767726,0.02767726 0 0 0 0,-0.0038 l -4.50668,-7.026371 v -0.0038 a 0.02767726,0.02767726 0 0 0 0,-0.0038 c -0.30009,-0.46689 -0.76328,-0.827428 -1.29071,-1.000138 a 0.02767726,0.02767726 0 0 0 -0.0104,0 l -7.54031,-2.483024 a 0.02767726,0.02767726 0 0 0 -0.007,0 h -0.007 c -0.25137,-0.081 -0.51348,-0.117946 -0.77762,-0.114417 -0.004,6.7e-5 -0.0104,-0.0038 -0.0172,-0.0038 z m 0,0.05362 c 0.26587,-0.0056 0.5309,0.03663 0.78387,0.118876 a 0.02767726,0.02767726 0 0 0 0.0104,0 l 7.53943,2.483046 a 0.02767726,0.02767726 0 0 0 0.003,0 c 0.51504,0.168664 0.97091,0.516575 1.26388,0.972481 a 0.02767726,0.02767726 0 0 0 0,0.0038 l 4.50309,7.023675 a 0.02767726,0.02767726 0 0 0 0.003,0.0099 c 0.52009,0.811822 0.47633,1.949474 -0.10463,2.719015 -0.58161,0.770443 -1.66459,1.124166 -2.58853,0.844668 l -13.4712,-4.063349 a 0.02767726,0.02767726 0 0 0 -0.0305,0.01348 l -1.00734,1.564194 a 0.02767726,0.02767726 0 0 0 0.0173,0.04024 l 21.27007,6.391736 a 0.02767726,0.02767726 0 0 0 0.007,0 c 0.59546,0.179211 1.11361,0.601309 1.40869,1.148569 0.29596,0.548927 0.36182,1.219861 0.18233,1.817144 -0.17922,0.596846 -0.6033,1.117176 -1.15214,1.412243 -0.54881,0.295049 -1.21771,0.358468 -1.81447,0.178768 L 1.747578,31.53638 c -0.7026,-0.210547 -1.29246,-0.764615 -1.54716,-1.452462 -0.25467,-0.687826 -0.1664,-1.49379 0.2297,-2.111205 l 6.861,-10.708912 c 0.42026,-0.656832 1.17973,-1.084336 1.95928,-1.098512 z m 0.003,0.07508 c -0.75699,0.0137 -1.49403,0.422346 -1.90204,1.060076 l -6.8607,10.708911 c -0.3845,0.599337 -0.46984,1.383498 -0.22256,2.051332 0.24727,0.6678 0.82127,1.204252 1.50342,1.408666 l 24.32631,7.307005 c 0.57904,0.174389 1.22382,0.107553 1.75636,-0.178756 0.53262,-0.286341 0.94424,-0.789265 1.11819,-1.368449 0.17417,-0.579596 0.10845,-1.22721 -0.17878,-1.759945 -0.28723,-0.532736 -0.79209,-0.942532 -1.37201,-1.115491 l -21.3937,-6.428388 1.11459,-1.73938 13.54681,4.087458 c 0.89724,0.269795 1.94177,-0.07358 2.50628,-0.821421 0.56522,-0.748754 0.6092,-1.848517 0.10188,-2.637679 l -4.5067,-7.0335 c -0.28465,-0.442991 -0.72564,-0.78326 -1.22633,-0.946565 l -7.55022,-2.48305 c -0.24513,-0.07973 -0.50281,-0.116195 -0.76063,-0.110835 z m 0,0.06703 c 0.24993,-0.005 0.50228,0.03434 0.7401,0.111737 l 7.55013,2.483042 c 0.48507,0.158213 0.91025,0.489558 1.18612,0.91885 l 4.50665,7.033506 c 0.4905,0.763025 0.45177,1.833267 -0.0948,2.557235 -0.54583,0.723048 -1.56459,1.054558 -2.43208,0.793719 l -13.5706,-4.094611 a 0.03459658,0.03459658 0 0 0 -0.0402,0.01348 l -1.15929,1.801052 a 0.03459658,0.03459658 0 0 0 0.0206,0.05361 l 21.44196,6.442686 c 0.56179,0.167552 1.05272,0.564705 1.33091,1.080638 0.27818,0.515944 0.34121,1.144914 0.17243,1.706306 -0.16845,0.56093 -0.5692,1.049979 -1.08508,1.327333 -0.51594,0.277387 -1.14104,0.341399 -1.70184,0.172494 L 1.791688,31.4014 C 1.131338,31.203523 0.575008,30.679419 0.335638,30.032955 0.096298,29.386523 0.179628,28.6307 0.551958,28.050453 l 6.86099,-10.708912 c 0.39495,-0.61728 1.10863,-1.020882 1.84129,-1.034152 z m 0.003,0.09117 c -0.70618,0.01279 -1.39265,0.395345 -1.77334,0.990363 L 0.621878,28.09782 c -0.35869,0.559073 -0.43626,1.281734 -0.20557,1.904745 0.23068,0.623043 0.76509,1.12679 1.4015,1.317494 l 24.32365,7.307898 c 0.54017,0.16266 1.14159,0.10085 1.63838,-0.166251 0.49684,-0.267114 0.88176,-0.739752 1.04398,-1.279956 0.16242,-0.540555 0.10258,-1.137968 -0.16535,-1.634803 -0.26792,-0.496953 -0.7425,-0.882623 -1.28352,-1.043988 l -21.59389,-6.486486 1.29336,-2.013782 13.65853,4.121423 c 0.83809,0.253534 1.80988,-0.06726 2.33736,-0.766009 0.52746,-0.698723 0.56817,-1.719745 0.0948,-2.456226 l -4.50686,-7.033511 c -0.26547,-0.413167 -0.67441,-0.732579 -1.14139,-0.884892 l -7.55014,-2.483042 c -0.22877,-0.07439 -0.46952,-0.106895 -0.70969,-0.101893 z m 0,0.101893 c 0.22882,-0.005 0.45839,0.03029 0.67574,0.100991 l 7.55012,2.483049 c 0.44356,0.144672 0.83553,0.444956 1.08781,0.837509 l 4.50665,7.033512 c 0.44824,0.697273 0.41186,1.679304 -0.0875,2.340927 -0.49943,0.661603 -1.43678,0.966668 -2.23009,0.726679 l -13.6947,-4.131254 a 0.05189487,0.05189487 0 0 0 -0.0572,0.02324 l -1.35144,2.104962 a 0.05189487,0.05189487 0 0 0 0.0305,0.07777 l 21.66093,6.506135 c 0.51358,0.153183 0.96217,0.518666 1.21651,0.990368 0.25438,0.471806 0.31337,1.047243 0.15912,1.560613 -0.15394,0.512914 -0.51872,0.959367 -0.99034,1.212919 -0.47169,0.253583 -1.05151,0.312597 -1.56421,0.158213 L 1.846088,31.219045 C 1.242438,31.038154 0.730398,30.560416 0.511598,29.969475 0.292768,29.3785 0.370638,28.68194 0.710928,28.151437 L 7.571918,17.44253 c 0.361,-0.564233 1.01594,-0.929967 1.68576,-0.942096 z m 0.003,0.07777 c -0.64784,0.0119 -1.27587,0.362481 -1.62498,0.908122 l -6.86046,10.70623 c -0.329,0.512845 -0.40103,1.177891 -0.18947,1.749214 0.2115,0.571206 0.69631,1.031772 1.27995,1.206661 l 24.32723,7.307015 c 0.49514,0.149118 1.04785,0.09297 1.50341,-0.151951 0.45546,-0.244867 0.80673,-0.673713 0.9555,-1.169121 0.1491,-0.495865 0.0901,-1.051395 -0.15549,-1.506987 -0.2456,-0.455472 -0.67226,-0.804898 -1.16822,-0.952816 l -21.82361,-6.557095 1.49268,-2.327519 13.78724,4.162537 c 0.38358,0.116045 0.8018,0.107151 1.18254,-0.01691 0.38077,-0.124158 0.72126,-0.36581 0.96265,-0.685556 0.24138,-0.319761 0.37999,-0.711757 0.39507,-1.111925 0.0155,-0.400272 -0.0945,-0.804395 -0.31106,-1.141413 l -4.50665,-7.033513 c -0.24349,-0.378937 -0.61888,-0.664912 -1.04667,-0.804448 l -7.55103,-2.483041 c -0.19825,-0.06445 -0.40494,-0.09163 -0.61407,-0.09117 a 0.06919316,0.06919316 0 0 0 -0.0172,-0.0038 c -0.004,6.3e-5 -0.0122,-0.0025 -0.0172,-0.0025 z m 0,0.134964 c 0.20431,-0.0044 0.41282,0.02775 0.6078,0.09117 l 7.55015,2.483041 c 0.39723,0.129569 0.74775,0.398787 0.97337,0.749921 l 4.50659,7.033504 c 0.20092,0.312545 0.30447,0.689597 0.2905,1.060972 -0.0138,0.371481 -0.14444,0.740292 -0.36827,1.036836 -0.22385,0.296556 -0.54223,0.522964 -0.8956,0.638188 -0.35342,0.115234 -0.74568,0.118274 -1.1012,0.0107 L 6.986438,25.641551 a 0.06919316,0.06919316 0 0 0 -0.0778,0.03043 l -1.57043,2.449075 a 0.06919316,0.06919316 0 0 0 0.0367,0.104575 l 21.9112,6.584808 c 0.4596,0.137078 0.86013,0.462664 1.08779,0.884884 0.22759,0.422098 0.28008,0.939747 0.14217,1.398833 -0.13785,0.458813 -0.46638,0.860873 -0.88845,1.08778 -0.42198,0.226871 -0.9364,0.276738 -1.39527,0.13855 L 1.906508,31.012591 c -0.53998,-0.161811 -0.99658,-0.589393 -1.19238,-1.118178 -0.19573,-0.528669 -0.12921,-1.153226 0.1752,-1.627656 l 6.86099,-10.706225 c 0.32295,-0.504762 0.91162,-0.836388 1.51056,-0.847348 z m 0.003,0.104577 a 1.7298286,1.7298286 0 0 0 -1.42564,0.797291 l -6.86205,10.708911 a 1.7298286,1.7298286 0 0 0 0.95997,2.591197 l 24.32633,7.307008 a 1.7296559,1.7296559 0 0 0 2.15501,-1.158399 1.7296559,1.7296559 0 0 0 -1.16198,-2.155903 l -22.1302,-6.64825 1.76619,-2.752973 13.96244,4.212595 a 1.7298286,1.7298286 0 0 0 1.95569,-2.591198 l -4.50606,-7.033504 a 1.7298286,1.7298286 0 0 0 -0.91974,-0.709704 l -7.55012,-2.483049 a 1.7298286,1.7298286 0 0 0 -0.57027,-0.084 z m 0.76334,3.790708 5.69544,1.870773 1.64823,2.574215 -8.53963,-2.576899 z m 0.0671,0.134965 a 0.06919316,0.06919316 0 0 0 -0.05,0.03043 l -1.00377,1.56419 a 0.06919316,0.06919316 0 0 0 0.0375,0.104577 l 7.87722,2.378462 a 0.06919316,0.06919316 0 0 0 0.0778,-0.105476 l -1.36515,-2.128189 a 0.06919316,0.06919316 0 0 0 -0.0366,-0.0268 l -5.50952,-1.81447 a 0.06919316,0.06919316 0 0 0 -0.0277,-0.0025 z m 0.0375,0.148366 5.43534,1.790331 1.25045,1.949432 -7.61179,-2.297127 z m 0.0545,0.102795 a 0.05189487,0.05189487 0 0 0 -0.0138,0.0018 0.05189487,0.05189487 0 0 0 -0.0339,0.02416 l -0.77674,1.215604 a 0.05189487,0.05189487 0 0 0 0.0305,0.07776 l 7.11475,2.145174 a 0.05189487,0.05189487 0 0 0 0.0572,-0.07777 l -1.03683,-1.617806 a 0.05189487,0.05189487 0 0 0 -0.0269,-0.02416 l -5.30157,-1.742782 a 0.05189487,0.05189487 0 0 0 -0.0122,-0.0018 z m 0.0155,0.117101 5.24675,1.722396 0.95283,1.482856 -6.91554,-2.084404 z m 0.0536,0.109934 a 0.03459658,0.03459658 0 0 0 -0.0104,0.0014 0.03459658,0.03459658 0 0 0 -0.0197,0.01433 l -0.581,0.90813 a 0.03459658,0.03459658 0 0 0 0.0197,0.0545 l 6.44627,1.945853 a 0.03459658,0.03459658 0 0 0 0.0401,-0.0545 l -0.74991,-1.175382 a 0.03459658,0.03459658 0 0 0 -0.0206,-0.01348 l -5.11454,-1.67969 a 0.03459658,0.03459658 0 0 0 -0.0104,-0.0014 z m 0.0179,0.07864 5.07333,1.666092 0.6927,1.08421 -6.3068,-1.905634 z m 0.0411,0.08939 a 0.02767726,0.02767726 0 0 0 -0.0104,0.0018 0.02767726,0.02767726 0 0 0 -0.0138,0.0143 l -0.42902,0.668594 a 0.02767726,0.02767726 0 0 0 0.0172,0.04024 l 5.92606,1.787658 a 0.02767726,0.02767726 0 0 0 0.0305,-0.04112 l -0.53101,-0.827696 a 0.02767726,0.02767726 0 0 0 -0.0138,-0.01348 l -4.9661,-1.628573 a 0.02767726,0.02767726 0 0 0 -0.009,-0.0018 z m 0.009,0.06254 4.93928,1.618718 0.48266,0.75618 -5.81701,-1.756366 z"
     inkscape:export-xdpi="300"
     inkscape:export-ydpi="300" /><text
     xml:space="preserve"
     style="font-size:22.9141px;line-height:1.25;font-family:'Nordic Alternative';-inkscape-font-specification:'Nordic Alternative';stroke-width:0.572853"
     x="54.387978"
     y="22.30327"
     id="text911"><tspan
       sodipodi:role="line"
       id="tspan909"
       x="54.387978"
       y="22.30327"
       style="font-style:normal;font-variant:normal;font-weight:normal;font-stretch:normal;font-family:'Amsterdam Superstar';-inkscape-font-specification:'Amsterdam Superstar';fill:#ffffff;stroke:#ffffff;stroke-width:0.572853">EOGHAN</tspan></text><text
     id="text915"
     y="41.210339"
     x="54.387978"
     style="font-size:17.1063px;line-height:1.25;font-family:'Nordic Alternative';-inkscape-font-specification:'Nordic Alternative';stroke-width:0.427654"
     xml:space="preserve"><tspan
       style="font-style:normal;font-variant:normal;font-weight:normal;font-stretch:normal;font-family:'Amsterdam Superstar';-inkscape-font-specification:'Amsterdam Superstar';fill:#ffffff;stroke:#ffffff;stroke-width:0.427654"
       y="41.210339"
       x="54.387978"
       id="tspan913"
       sodipodi:role="line">STAUNTON</tspan></text><g
     id="g943"
     transform="translate(0,-0.30744651)"><text
       id="text840"
       y="43.04108"
       x="207.48232"
       style="font-style:normal;font-variant:normal;font-weight:normal;font-stretch:normal;font-size:28.2187px;line-height:1.25;font-family:'Agency FB';-inkscape-font-specification:'Agency FB';fill:#ffffff;stroke-width:0.70547"
       xml:space="preserve"><tspan
         style="fill:#ffffff;stroke-width:0.70547"
         y="43.04108"
         x="207.48232"
         id="tspan838"
         sodipodi:role="line">Design</tspan></text><text
       id="text930"
       y="20.04126"
       x="208.50227"
       style="font-size:23.5818px;line-height:1.25;font-family:'Nordic Alternative';-inkscape-font-specification:'Nordic Alternative';stroke-width:0.589548"
       xml:space="preserve"><tspan
         style="font-style:normal;font-variant:normal;font-weight:normal;font-stretch:normal;font-family:'Agency FB';-inkscape-font-specification:'Agency FB';fill:#ffffff;stroke-width:0.589548"
         y="20.04126"
         x="208.50227"
         id="tspan928"
         sodipodi:role="line">Website</tspan></text></g></g></svg>
