<?xml version="1.0" encoding="UTF-8" standalone="no"?>
<svg
   xmlns:dc="http://purl.org/dc/elements/1.1/"
   xmlns:cc="http://creativecommons.org/ns#"
   xmlns:rdf="http://www.w3.org/1999/02/22-rdf-syntax-ns#"
   xmlns:svg="http://www.w3.org/2000/svg"
   xmlns="http://www.w3.org/2000/svg"
   xmlns:sodipodi="http://sodipodi.sourceforge.net/DTD/sodipodi-0.dtd"
   xmlns:inkscape="http://www.inkscape.org/namespaces/inkscape"
   height="44.447174"
   width="267.03708"
   version="1.1"
   id="Layer_1"
   x="0px"
   y="0px"
   viewBox="0 0 267.03708 44.447173"
   enable-background="new 0 0 182.7 44.4"
   xml:space="preserve"
   sodipodi:docname="eoghan-white.svg"
   inkscape:version="1.0 (4035a4fb49, 2020-05-01)"><metadata
   id="metadata3056"><rdf:RDF><cc:Work
       rdf:about=""><dc:format>image/svg+xml</dc:format><dc:type
         rdf:resource="http://purl.org/dc/dcmitype/StillImage" /><dc:title></dc:title></cc:Work></rdf:RDF></metadata><defs
   id="defs3054" /><sodipodi:namedview
   fit-margin-bottom="0"
   fit-margin-right="0"
   fit-margin-left="0"
   fit-margin-top="0"
   inkscape:guide-bbox="true"
   showguides="true"
   inkscape:document-rotation="0"
   pagecolor="#ffffff"
   bordercolor="#666666"
   borderopacity="1"
   objecttolerance="10"
   gridtolerance="10"
   guidetolerance="10"
   inkscape:pageopacity="0"
   inkscape:pageshadow="2"
   inkscape:window-width="1920"
   inkscape:window-height="1001"
   id="namedview3052"
   showgrid="false"
   inkscape:pagecheckerboard="true"
   inkscape:zoom="1.2704313"
   inkscape:cx="182.51936"
   inkscape:cy="-130.41712"
   inkscape:window-x="-9"
   inkscape:window-y="-9"
   inkscape:window-maximized="1"
   inkscape:current-layer="Layer_1"><sodipodi:guide
     id="guide1032"
     orientation="1,0"
     position="369.8134,20.936191" /></sodipodi:namedview>


<path
   inkscape:export-ydpi="300"
   inkscape:export-xdpi="300"
   d="M 110.84049,4.5415419e-4 C 110.03274,0.00456955 109.24052,0.4392816 108.80345,1.1186295 a 0.02767726,0.02767726 0 0 0 0,0.0071 l -6.92177,10.8036355 c -0.40585,0.632626 -0.49788,1.453654 -0.23686,2.158582 0.26101,0.704924 0.86743,1.270673 1.58743,1.486434 l 16.23989,4.867771 11.09415,17.354495 -2.39544,-0.71953 -9.34762,-14.577381 c -0.34409,-0.536853 -0.90368,-0.93065 -1.52665,-1.067226 -0.62295,-0.136579 -1.29785,-0.01641 -1.83502,0.327142 -0.53686,0.34408 -0.93065,0.904573 -1.06723,1.527542 -0.13665,0.622944 -0.0155,1.296956 0.32804,1.834124 l 9.83384,15.340716 c 0.31109,0.484894 0.79952,0.854465 1.35146,1.01985 l 9.54336,2.868279 c 0.94641,0.284622 2.04887,-0.07319 2.64485,-0.861644 0.59596,-0.788434 0.64019,-1.946896 0.1081,-2.779791 L 123.08944,17.060867 v -0.0038 a 0.02767726,0.02767726 0 0 0 0,-0.0038 c -0.31142,-0.48452 -0.8025,-0.851265 -1.35412,-1.016296 l -14.01339,-4.202762 3.13196,-4.8847514 3.49306,5.4728854 c 0.34409,0.536857 0.90369,0.930649 1.52666,1.067231 0.62294,0.136574 1.29785,0.0156 1.83503,-0.328039 0.53763,-0.343336 0.93332,-0.903621 1.07079,-1.52665 0.13752,-0.623042 0.0155,-1.296445 -0.32802,-1.834127 L 112.90789,1.1253846 C 112.466,0.43497064 111.66028,-0.00589948 110.84049,5.9664195e-5 Z m 0,0.0545255658 c 0.79969,-0.0058182 1.58888,0.42397465 2.02005,1.09761728 l 5.54349,8.6754559 c 0.33514,0.5250001 0.45505,1.1858301 0.32089,1.7939041 -0.13422,0.608088 -0.51909,1.158367 -1.04399,1.493587 -0.5244,0.335443 -1.18583,0.4542 -1.79391,0.320884 -0.60805,-0.133309 -1.15673,-0.517131 -1.49269,-1.041309 l -3.5172,-5.509538 a 0.02767726,0.02767726 0 0 0 -0.0465,0 l -3.17577,4.952687 a 0.02767726,0.02767726 0 0 0 0.0172,0.04025 l 14.05003,4.212591 c 0.53874,0.161171 1.01708,0.51744 1.32106,0.990356 a 0.02767726,0.02767726 0 0 0 0,0.0025 l 15.1134,23.651484 c 0.51866,0.811986 0.47282,1.950394 -0.1081,2.71902 -0.581,0.768608 -1.66134,1.119486 -2.58408,0.841981 l -9.54335,-2.86823 c -0.53886,-0.161464 -1.0137,-0.519526 -1.3175,-0.993041 l -9.8347,-15.340734 c -0.33546,-0.524401 -0.45421,-1.185839 -0.32089,-1.793906 0.13336,-0.608046 0.51625,-1.157629 1.04041,-1.493583 0.52438,-0.335445 1.18585,-0.454205 1.79391,-0.320885 0.60805,0.133306 1.15762,0.516237 1.49358,1.040415 l 9.35387,14.587213 a 0.02767726,0.02767726 0 0 0 0.0173,0.01349 l 2.47678,0.743662 a 0.02767726,0.02767726 0 0 0 0.0305,-0.04025 L 119.5124,20.405338 a 0.02767726,0.02767726 0 0 0 -0.0172,-0.01349 l -16.24975,-4.871339 c -0.70266,-0.210557 -1.29253,-0.765527 -1.54721,-1.453363 -0.25467,-0.687832 -0.1664,-1.493802 0.22971,-2.111216 l 6.92267,-10.8069805 a 0.02767726,0.02767726 0 0 0 0,-0.00284 c 0.42639,-0.662749 1.20158,-1.08725933 1.98966,-1.09135886 z m 0,0.07418246 c -0.76531,0.003902 -1.51486,0.41384285 -1.92889,1.05739332 l -6.92266,10.8072325 c -0.3845,0.59934 -0.46985,1.382603 -0.22255,2.050435 0.24726,0.667806 0.82124,1.204261 1.5034,1.408668 l 16.28281,4.881177 11.30061,17.681634 -2.76371,-0.830366 -9.37443,-14.62118 c -0.32595,-0.508579 -0.8588,-0.877073 -1.44887,-1.006445 -0.59018,-0.129396 -1.23145,-0.01539 -1.74028,0.31016 -0.5086,0.325967 -0.8771,0.8597 -1.00646,1.449785 -0.12938,0.590165 -0.0155,1.230557 0.31016,1.739386 l 9.83475,15.340702 c 0.29471,0.459346 0.75717,0.805997 1.27995,0.962654 l 9.54337,2.868275 c 0.89675,0.2697 1.93897,-0.07355 2.50362,-0.820521 0.56463,-0.747002 0.60863,-1.843213 0.10465,-2.632321 a 0.03459658,0.03459658 0 0 0 0,-0.0025 L 122.98129,17.121937 c -0.29577,-0.460149 -0.75912,-0.806952 -1.28353,-0.962652 l -14.17158,-4.250144 3.32771,-5.1922246 3.60121,5.6382506 a 0.03459658,0.03459658 0 0 0 0,0.0038 c 0.32597,0.508583 0.85881,0.877084 1.4489,1.006448 0.58917,0.129168 1.22836,0.01402 1.73669,-0.310163 0.50932,-0.325255 0.87982,-0.859622 1.01004,-1.449781 0.13024,-0.590122 0.0177,-1.223791 -0.30749,-1.7331249 a 0.03459658,0.03459658 0 0 0 0,-0.00634 L 112.79975,1.1905684 C 112.38109,0.53646626 111.6171,0.12395079 110.84049,0.12960059 Z m 0,0.0679494 c 0.75159,-0.005534 1.49328,0.40018489 1.89848,1.03325812 l 5.5435,8.6754565 a 0.03459658,0.03459658 0 0 0 0,0.00383 c 0.31506,0.4934578 0.42734,1.1105798 0.30122,1.6821848 -0.1261,0.571566 -0.48987,1.086468 -0.9832,1.401512 -0.49255,0.314144 -1.1127,0.429843 -1.68308,0.304797 -0.57156,-0.125297 -1.08578,-0.486994 -1.40153,-0.979629 a 0.03459658,0.03459658 0 0 0 0,-0.0038 l -3.63159,-5.6856534 a 0.03459658,0.03459658 0 0 0 -0.0608,0 l -3.38491,5.2798194 a 0.03459658,0.03459658 0 0 0 0.0206,0.0545 l 14.21895,4.262652 c 0.5081,0.150859 0.95583,0.48997 1.24242,0.935834 l 15.11459,23.644339 v 0.0038 a 0.03459658,0.03459658 0 0 0 0,0.007 c 0.48744,0.763069 0.44766,1.827777 -0.0982,2.550079 -0.546,0.722323 -1.56151,1.054474 -2.42853,0.793716 l -9.54338,-2.867409 c -0.5065,-0.151725 -0.9542,-0.490741 -1.23973,-0.93578 l -9.83385,-15.34089 c -0.3153,-0.492903 -0.4301,-1.114291 -0.3048,-1.685754 0.12539,-0.571548 0.48698,-1.086658 0.97962,-1.402411 0.49291,-0.315299 1.1143,-0.429188 1.68576,-0.303897 0.57155,0.125296 1.08665,0.486985 1.4024,0.979628 l 9.3816,14.631005 a 0.03459658,0.03459658 0 0 0 0.0197,0.01349 l 2.87187,0.861651 a 0.03459658,0.03459658 0 0 0 0.0403,-0.05362 L 119.60709,20.284042 a 0.03459658,0.03459658 0 0 0 -0.0206,-0.01348 l -16.29619,-4.885658 c -0.66036,-0.197874 -1.21668,-0.72109 -1.45605,-1.367554 -0.23936,-0.646439 -0.15601,-1.403147 0.21629,-1.983395 l 6.92179,-10.8072515 c 0.40075,-0.62291225 1.12749,-1.02594583 1.86809,-1.02968634 z m 0,0.0911729 c -0.71394,0.003831 -1.41122,0.38546978 -1.79748,0.98588722 l -6.92179,10.8072313 c -0.35868,0.559077 -0.43715,1.282629 -0.20646,1.905632 0.2307,0.623051 0.76599,1.126799 1.40239,1.317501 l 16.33733,4.894581 11.56341,18.087432 -3.22939,-0.966228 -9.40481,-14.668549 c -0.30403,-0.474353 -0.80099,-0.82141 -1.35147,-0.942092 -0.5505,-0.12068 -1.14413,-0.0131 -1.61871,0.290496 -0.47436,0.304029 -0.82142,0.800986 -0.94209,1.351459 -0.12073,0.550494 -0.0138,1.143244 0.29049,1.61782 l 9.83383,15.340708 c 0.2749,0.428463 0.70832,0.755747 1.19595,0.901876 l 9.54337,2.868279 c 0.83691,0.251703 1.80423,-0.06986 2.33109,-0.7669 0.52696,-0.697129 0.56876,-1.716191 0.0984,-2.452658 L 122.85001,17.209271 c -0.27588,-0.429195 -0.71033,-0.756623 -1.19952,-0.901864 l -14.37092,-4.30734 3.57442,-5.5774622 3.7326,5.8482892 c 0.30404,0.47435 0.80101,0.821402 1.35146,0.942096 0.55051,0.120676 1.14414,0.0131 1.61873,-0.290501 0.47512,-0.303422 0.82065,-0.801091 0.94209,-1.351462 0.12141,-0.55043 0.0155,-1.142706 -0.28692,-1.6178235 l -5.5435,-8.6754524 c -0.39066,-0.6103462 -1.10336,-0.99473469 -1.82787,-0.9894659 z m 0,0.10099183 c 0.68708,-0.005038 1.36903,0.36436972 1.73938,0.94298619 l 5.54439,8.6745655 c 0.28797,0.451152 0.38884,1.021886 0.2735,1.544528 -0.11536,0.522713 -0.4446,0.995518 -0.89561,1.283531 -0.45071,0.288427 -1.02113,0.391641 -1.54363,0.277089 -0.52251,-0.114554 -0.99482,-0.445142 -1.28352,-0.895613 l -3.77731,-5.9153292 a 0.05189487,0.05189487 0 0 0 -0.0875,0 l -3.65575,5.7026012 a 0.05189487,0.05189487 0 0 0 0.0303,0.07776 l 14.43886,4.327901 c 0.46455,0.13792 0.87666,0.446797 1.13872,0.854495 l 15.11368,23.650591 c 0.44539,0.697288 0.40777,1.678186 -0.0911,2.338247 -0.49901,0.660154 -1.43068,0.964058 -2.22296,0.725785 l -9.54335,-2.868282 c -0.46311,-0.138769 -0.87408,-0.447562 -1.13515,-0.854494 l -9.83386,-15.340707 c -0.2884,-0.450717 -0.39163,-1.021134 -0.27706,-1.54364 0.1145,-0.522508 0.44511,-0.994805 0.89558,-1.283531 0.45072,-0.288415 1.02115,-0.391629 1.54367,-0.277082 0.5225,0.114559 0.99479,0.445142 1.28351,0.895613 l 9.41553,14.684639 a 0.05189487,0.05189487 0 0 0 0.0305,0.02416 l 3.38135,1.013602 a 0.05189487,0.05189487 0 0 0 0.0572,-0.07776 L 119.73223,20.128527 a 0.05189487,0.05189487 0 0 0 -0.0305,-0.02413 l -16.35787,-4.901761 c -0.60366,-0.180881 -1.11569,-0.658636 -1.33449,-1.249569 -0.21881,-0.590979 -0.14096,-1.287539 0.19934,-1.818038 L 109.1305,1.3286958 c 0.36631,-0.5694141 1.03282,-0.93587976 1.70988,-0.93941523 z m 0.003,0.077764 c -0.65473,0.003548 -1.29473,0.35105011 -1.64911,0.90187169 a 0.06919316,0.06919316 0 0 0 0,0.00361 0.06919316,0.06919316 0 0 0 -0.003,0.00361 l -6.91821,10.803643 c -0.32748,0.512365 -0.40071,1.176111 -0.18947,1.746536 0.2115,0.57121 0.69718,1.030876 1.28084,1.205773 l 16.40435,4.911567 11.86107,18.554013 -3.75677,-1.121753 -9.44235,-14.729339 c -0.27873,-0.43489 -0.73152,-0.751008 -1.23616,-0.861647 -0.50475,-0.11066 -1.04774,-0.0111 -1.48285,0.267255 a 0.06919316,0.06919316 0 0 0 -0.003,0 c -0.4349,0.278734 -0.75099,0.731512 -0.86164,1.236157 -0.10915,0.497566 -0.0122,1.031268 0.25742,1.463196 a 0.06919316,0.06919316 0 0 0 0,0.0014 0.06919316,0.06919316 0 0 0 0.0104,0.01877 0.06919316,0.06919316 0 0 0 0,0.0038 l 9.83386,15.340691 c 0.25197,0.392771 0.64439,0.690171 1.09134,0.824104 l 9.54337,2.868286 c 0.3829,0.115157 0.7989,0.110716 1.17896,-0.01348 0.38009,-0.124159 0.72147,-0.370072 0.96264,-0.689139 0.24114,-0.31901 0.38025,-0.709013 0.39599,-1.108345 0.0155,-0.399473 -0.0922,-0.801806 -0.30751,-1.13873 L 122.70539,17.321509 a 0.06919316,0.06919316 0 0 0 -0.007,-0.01348 0.06919316,0.06919316 0 0 0 0,-0.0038 c -0.253,-0.393406 -0.64665,-0.691017 -1.09501,-0.824139 l -14.60067,-4.377962 3.85151,-6.0100736 3.87831,6.0672766 a 0.06919316,0.06919316 0 0 0 0.007,0.01349 0.06919316,0.06919316 0 0 0 0,0.0038 c 0.27874,0.434896 0.73242,0.751012 1.23707,0.861647 0.50474,0.110664 1.04771,0.0111 1.48284,-0.267256 0.43552,-0.278113 0.75384,-0.731373 0.86523,-1.236153 0.11139,-0.504621 0.0138,-1.047187 -0.26369,-1.482863 l -5.54356,-8.6754901 c -0.35819,-0.55964353 -1.00764,-0.91385317 -1.67234,-0.90902071 z m 0,0.13496506 c 0.61437,-0.004541 1.22568,0.33055895 1.55703,0.84823523 l 5.5435,8.6754574 c 0.25768,0.403629 0.34633,0.913262 0.24312,1.380966 -0.10309,0.467527 -0.39988,0.891675 -0.80354,1.149453 -0.40329,0.257982 -0.91437,0.348306 -1.38187,0.245803 -0.46442,-0.101822 -0.88346,-0.394778 -1.14227,-0.793716 a 0.06919316,0.06919316 0 0 0 -0.003,-0.0038 c -6.7e-4,-0.0014 -0.003,-0.0014 -0.003,-0.0025 a 0.06919316,0.06919316 0 0 0 0,-0.0038 l -3.94274,-6.1719733 a 0.06919316,0.06919316 0 0 0 -0.11433,0 l -3.95965,6.1781093 a 0.06919316,0.06919316 0 0 0 0.0375,0.105475 l 14.68821,4.404766 c 0.4127,0.122547 0.77885,0.3963 1.01358,0.757074 0.002,0.0025 0.004,0.0038 0.007,0.0063 a 0.06919316,0.06919316 0 0 0 0,0.0038 l 15.11461,23.651566 c 0.1997,0.312646 0.30159,0.686698 0.28693,1.057397 -0.0138,0.37084 -0.1446,0.737383 -0.36826,1.033261 -0.22361,0.295813 -0.54215,0.523023 -0.89471,0.638188 -0.35263,0.11516 -0.7433,0.117562 -1.09852,0.0107 l -9.54335,-2.868218 c -0.41453,-0.124206 -0.78263,-0.399146 -1.01627,-0.763327 l -9.82755,-15.330889 v -0.0038 a 0.06919316,0.06919316 0 0 0 -0.007,-0.0063 0.06919316,0.06919316 0 0 0 0,-0.0038 c -0.25799,-0.403288 -0.34831,-0.914364 -0.24581,-1.381849 0.10188,-0.464451 0.39477,-0.882611 0.79372,-1.14142 a 0.06919316,0.06919316 0 0 0 0.003,-0.0038 c 6.7e-4,-7.05e-4 6.7e-4,-0.0025 0.003,-0.0038 a 0.06919316,0.06919316 0 0 0 0.003,0 c 0.40329,-0.257976 0.91436,-0.349183 1.38186,-0.246687 0.4676,0.102512 0.8902,0.397774 1.14856,0.800864 l 9.45569,14.750007 a 0.06919316,0.06919316 0 0 0 0.0367,0.03043 l 3.95957,1.185146 a 0.06919316,0.06919316 0 0 0 0.0778,-0.104574 L 119.86901,19.948883 a 0.06919316,0.06919316 0 0 0 -0.0375,-0.03043 l -16.42844,-4.922239 c -0.53997,-0.161812 -0.99656,-0.589387 -1.19236,-1.118168 -0.19539,-0.527665 -0.12783,-1.150739 0.17517,-1.624979 l 6.92268,-10.8063122 a 0.06919316,0.06919316 0 0 0 0,-0.00362 c 0.32758,-0.50916782 0.92812,-0.83792744 1.53381,-0.84108616 z m 0,0.10457341 A 1.7298286,1.7298286 0 0 0 109.39748,1.5011931 L 102.47566,12.30753 a 1.7298286,1.7298286 0 0 0 0.95909,2.591198 l 16.48926,4.942852 12.25968,19.177893 -4.46643,-1.341632 -9.48882,-14.799939 a 1.7296559,1.7296559 0 0 0 -2.38831,-0.522889 1.7296559,1.7296559 0 0 0 -0.52378,2.388297 l 9.83384,15.34071 a 1.7298286,1.7298286 0 0 0 0.95908,0.722213 l 9.54336,2.868277 a 1.7298286,1.7298286 0 0 0 1.95659,-2.58762 L 122.49469,17.436295 a 1.7298286,1.7298286 0 0 0 -0.96265,-0.723111 l -14.9081,-4.470014 4.22959,-6.6008908 4.08745,6.4015698 a 1.7296559,1.7296559 0 0 0 2.38831,0.52378 1.7296559,1.7296559 0 0 0 0.52736,-2.388298 l -5.5435,-8.6754609 A 1.7298286,1.7298286 0 0 0 110.8437,0.706576 Z m -10.355,15.40506722 a 0.02767726,0.02767726 0 0 0 -0.0197,0.0099 c -0.790722,0.02258 -1.560526,0.448945 -1.986953,1.11546 l -6.86099,10.708909 c -0.405858,0.632624 -0.496985,1.453663 -0.235968,2.158584 0.261018,0.704924 0.867412,1.270672 1.58743,1.486434 l 24.326341,7.307014 c 0.61117,0.184049 1.29238,0.116389 1.85468,-0.185917 0.56227,-0.302285 0.99537,-0.834845 1.17896,-1.446209 0.18386,-0.611843 0.11467,-1.294973 -0.1886,-1.857361 -0.30274,-0.561494 -0.83526,-0.993185 -1.4462,-1.176277 a 0.02767726,0.02767726 0 0 0 -0.007,0 l -21.228395,-6.381015 0.976035,-1.513242 13.45207,4.057069 c 0.94774,0.286698 2.05188,-0.07498 2.64843,-0.865226 0.59587,-0.789356 0.63893,-1.9471 0.1055,-2.779786 a 0.02767726,0.02767726 0 0 0 0,-0.0038 l -4.50668,-7.026371 v -0.0038 a 0.02767726,0.02767726 0 0 0 0,-0.0038 c -0.30009,-0.46689 -0.76328,-0.827428 -1.29071,-1.000138 a 0.02767726,0.02767726 0 0 0 -0.0104,0 l -7.54031,-2.483024 a 0.02767726,0.02767726 0 0 0 -0.007,0 h -0.007 c -0.25137,-0.081 -0.51348,-0.117946 -0.77762,-0.114417 -0.004,6.7e-5 -0.0104,-0.0038 -0.0172,-0.0038 z m 0,0.05362 c 0.26587,-0.0056 0.5309,0.03663 0.78387,0.118876 a 0.02767726,0.02767726 0 0 0 0.0104,0 l 7.53943,2.483046 a 0.02767726,0.02767726 0 0 0 0.003,0 c 0.51504,0.168664 0.97091,0.516575 1.26388,0.972481 a 0.02767726,0.02767726 0 0 0 0,0.0038 l 4.50309,7.023675 a 0.02767726,0.02767726 0 0 0 0.003,0.0099 c 0.52009,0.811822 0.47633,1.949474 -0.10463,2.719015 -0.58161,0.770443 -1.66459,1.124166 -2.58853,0.844668 L 98.430796,26.277378 a 0.02767726,0.02767726 0 0 0 -0.03048,0.01348 l -1.007334,1.564194 a 0.02767726,0.02767726 0 0 0 0.0173,0.04024 l 21.270069,6.391736 a 0.02767726,0.02767726 0 0 0 0.007,0 c 0.59546,0.179211 1.11361,0.601309 1.40869,1.148569 0.29596,0.548927 0.36182,1.219861 0.18233,1.817144 -0.17922,0.596846 -0.6033,1.117176 -1.15214,1.412243 -0.54881,0.295049 -1.21771,0.358468 -1.81447,0.178768 L 92.985408,31.53638 c -0.702602,-0.210547 -1.292463,-0.764615 -1.547163,-1.452462 -0.254666,-0.687826 -0.166393,-1.49379 0.229708,-2.111205 l 6.861001,-10.708912 c 0.420256,-0.656832 1.179729,-1.084336 1.959276,-1.098512 z m 0.003,0.07508 c -0.756992,0.0137 -1.494031,0.422346 -1.902044,1.060076 l -6.860692,10.708911 c -0.384507,0.599337 -0.469847,1.383498 -0.222563,2.051332 0.247266,0.6678 0.821272,1.204252 1.503419,1.408666 l 24.32631,7.307005 c 0.57904,0.174389 1.22382,0.107553 1.75636,-0.178756 0.53262,-0.286341 0.94424,-0.789265 1.11819,-1.368449 0.17417,-0.579596 0.10845,-1.22721 -0.17878,-1.759945 -0.28723,-0.532736 -0.79209,-0.942532 -1.37201,-1.115491 l -21.393702,-6.428388 1.114595,-1.73938 13.546807,4.087458 c 0.89724,0.269795 1.94177,-0.07358 2.50628,-0.821421 0.56522,-0.748754 0.6092,-1.848517 0.10188,-2.637679 l -4.5067,-7.0335 c -0.28465,-0.442991 -0.72564,-0.78326 -1.22633,-0.946565 l -7.55022,-2.48305 c -0.24513,-0.07973 -0.50281,-0.116195 -0.76063,-0.110835 z m 0,0.06703 c 0.24993,-0.005 0.50228,0.03434 0.7401,0.111737 l 7.55013,2.483042 c 0.48507,0.158213 0.91025,0.489558 1.18612,0.91885 l 4.50665,7.033506 c 0.4905,0.763025 0.45177,1.833267 -0.0948,2.557235 -0.54583,0.723048 -1.56459,1.054558 -2.43208,0.793719 L 98.377014,26.110854 a 0.03459658,0.03459658 0 0 0 -0.04018,0.01348 l -1.159294,1.801052 a 0.03459658,0.03459658 0 0 0 0.02059,0.05361 l 21.441965,6.442686 c 0.56179,0.167552 1.05272,0.564705 1.33091,1.080638 0.27818,0.515944 0.34121,1.144914 0.17243,1.706306 -0.16846,0.56093 -0.56921,1.049979 -1.08509,1.327333 -0.51594,0.277387 -1.14104,0.341399 -1.70184,0.172494 L 93.029501,31.4014 c -0.66035,-0.197877 -1.21668,-0.721981 -1.456051,-1.368445 -0.239339,-0.646432 -0.156006,-1.402255 0.216317,-1.982502 l 6.860995,-10.708912 c 0.394946,-0.61728 1.108627,-1.020882 1.841288,-1.034152 z m 0.003,0.09117 c -0.706178,0.01279 -1.392647,0.395345 -1.773341,0.990363 L 91.859685,28.09782 c -0.358685,0.559073 -0.436257,1.281734 -0.205568,1.904745 0.230687,0.623043 0.765094,1.12679 1.4015,1.317494 l 24.323653,7.307898 c 0.54017,0.16266 1.14159,0.10085 1.63838,-0.166251 0.49684,-0.267114 0.88176,-0.739752 1.04398,-1.279956 0.16242,-0.540555 0.10258,-1.137968 -0.16535,-1.634803 -0.26792,-0.496953 -0.7425,-0.882623 -1.28352,-1.043988 l -21.593886,-6.486486 1.293359,-2.013782 13.658527,4.121423 c 0.83809,0.253534 1.80988,-0.06726 2.33736,-0.766009 0.52746,-0.698723 0.56817,-1.719745 0.0948,-2.456226 l -4.50686,-7.033511 c -0.26547,-0.413167 -0.67441,-0.732579 -1.14139,-0.884892 l -7.55014,-2.483042 c -0.22877,-0.07439 -0.46952,-0.106895 -0.70969,-0.101893 z m 0,0.101893 c 0.22882,-0.005 0.45839,0.03029 0.67574,0.100991 l 7.55012,2.483049 c 0.44356,0.144672 0.83553,0.444956 1.08781,0.837509 l 4.50665,7.033512 c 0.44824,0.697273 0.41186,1.679304 -0.0875,2.340927 -0.49943,0.661603 -1.43678,0.966668 -2.23009,0.726679 L 98.302524,25.891852 a 0.05189487,0.05189487 0 0 0 -0.05723,0.02324 l -1.351443,2.104962 a 0.05189487,0.05189487 0 0 0 0.03048,0.07777 l 21.660933,6.506135 c 0.51358,0.153183 0.96217,0.518666 1.21651,0.990368 0.25438,0.471806 0.31337,1.047243 0.15912,1.560613 -0.15394,0.512914 -0.51872,0.959367 -0.99034,1.212919 -0.47169,0.253583 -1.05151,0.312597 -1.56421,0.158213 L 93.08385,31.219045 C 92.4802,31.038154 91.968163,30.560416 91.749363,29.969475 91.53053,29.3785 91.6084,28.68194 91.948689,28.151437 L 98.809677,17.44253 c 0.360999,-0.564233 1.015942,-0.929967 1.685763,-0.942096 z m 0.003,0.07777 c -0.647844,0.0119 -1.275873,0.362481 -1.624981,0.908122 l -6.860456,10.70623 c -0.329002,0.512845 -0.401029,1.177891 -0.189471,1.749214 0.2115,0.571206 0.696311,1.031772 1.279949,1.206661 l 24.327229,7.307015 c 0.49514,0.149118 1.04785,0.09297 1.50341,-0.151951 0.45546,-0.244867 0.80673,-0.673713 0.9555,-1.169121 0.1491,-0.495865 0.0901,-1.051395 -0.15549,-1.506987 -0.2456,-0.455472 -0.67226,-0.804898 -1.16822,-0.952816 l -21.823611,-6.557095 1.492678,-2.327519 13.787243,4.162537 c 0.38358,0.116045 0.8018,0.107151 1.18254,-0.01691 0.38077,-0.124158 0.72126,-0.36581 0.96265,-0.685556 0.24138,-0.319761 0.37999,-0.711757 0.39507,-1.111925 0.0155,-0.400272 -0.0945,-0.804395 -0.31106,-1.141413 l -4.50665,-7.033513 c -0.24349,-0.378937 -0.61888,-0.664912 -1.04667,-0.804448 l -7.55103,-2.483041 c -0.19825,-0.06445 -0.40494,-0.09163 -0.61407,-0.09117 a 0.06919316,0.06919316 0 0 0 -0.0172,-0.0038 c -0.004,6.3e-5 -0.0122,-0.0025 -0.0172,-0.0025 z m 0,0.134964 c 0.20431,-0.0044 0.41282,0.02775 0.6078,0.09117 l 7.55015,2.483041 c 0.39723,0.129569 0.74775,0.398787 0.97337,0.749921 l 4.50659,7.033504 c 0.20092,0.312545 0.30447,0.689597 0.2905,1.060972 -0.0138,0.371481 -0.14444,0.740292 -0.36827,1.036836 -0.22385,0.296556 -0.54223,0.522964 -0.8956,0.638188 -0.35342,0.115234 -0.74568,0.118274 -1.1012,0.0107 L 98.224254,25.641551 a 0.06919316,0.06919316 0 0 0 -0.07782,0.03043 l -1.570432,2.449075 a 0.06919316,0.06919316 0 0 0 0.03669,0.104575 l 21.911202,6.584808 c 0.4596,0.137078 0.86013,0.462664 1.08779,0.884884 0.22759,0.422098 0.28008,0.939747 0.14217,1.398833 -0.13785,0.458813 -0.46638,0.860873 -0.88845,1.08778 -0.42198,0.226871 -0.9364,0.276738 -1.39527,0.13855 L 93.144293,31.012591 C 92.60431,30.85078 92.147711,30.423198 91.951914,29.894413 91.756175,29.365744 91.822703,28.741187 92.127109,28.266757 l 6.860989,-10.706225 c 0.322951,-0.504762 0.911621,-0.836388 1.510562,-0.847348 z m 0.003,0.104577 a 1.7298286,1.7298286 0 0 0 -1.425642,0.797291 l -6.862047,10.708911 a 1.7298286,1.7298286 0 0 0 0.959965,2.591197 l 24.326334,7.307008 a 1.7296559,1.7296559 0 0 0 2.15501,-1.158399 1.7296559,1.7296559 0 0 0 -1.16198,-2.155903 l -22.130203,-6.64825 1.766193,-2.752973 13.96244,4.212595 a 1.7298286,1.7298286 0 0 0 1.95569,-2.591198 l -4.50606,-7.033504 a 1.7298286,1.7298286 0 0 0 -0.91974,-0.709704 l -7.55012,-2.483049 a 1.7298286,1.7298286 0 0 0 -0.57027,-0.084 z m 0.76334,3.790708 5.69544,1.870773 1.64823,2.574215 -8.53963,-2.576899 z m 0.0671,0.134965 a 0.06919316,0.06919316 0 0 0 -0.05,0.03043 l -1.00377,1.56419 a 0.06919316,0.06919316 0 0 0 0.0375,0.104577 l 7.87722,2.378462 a 0.06919316,0.06919316 0 0 0 0.0778,-0.105476 l -1.36515,-2.128189 a 0.06919316,0.06919316 0 0 0 -0.0366,-0.0268 l -5.50952,-1.81447 a 0.06919316,0.06919316 0 0 0 -0.0277,-0.0025 z m 0.0375,0.148366 5.43534,1.790331 1.25045,1.949432 -7.61179,-2.297127 z m 0.0545,0.102795 a 0.05189487,0.05189487 0 0 0 -0.0138,0.0018 0.05189487,0.05189487 0 0 0 -0.0339,0.02416 l -0.77674,1.215604 a 0.05189487,0.05189487 0 0 0 0.0305,0.07776 l 7.11475,2.145174 a 0.05189487,0.05189487 0 0 0 0.0572,-0.07777 l -1.03683,-1.617806 a 0.05189487,0.05189487 0 0 0 -0.0269,-0.02416 l -5.30157,-1.742782 a 0.05189487,0.05189487 0 0 0 -0.0122,-0.0018 z m 0.0155,0.117101 5.24675,1.722396 0.95283,1.482856 -6.91554,-2.084404 z m 0.0536,0.109934 a 0.03459658,0.03459658 0 0 0 -0.0104,0.0014 0.03459658,0.03459658 0 0 0 -0.0197,0.01433 l -0.581,0.90813 a 0.03459658,0.03459658 0 0 0 0.0197,0.0545 l 6.44627,1.945853 a 0.03459658,0.03459658 0 0 0 0.0401,-0.0545 l -0.74991,-1.175382 a 0.03459658,0.03459658 0 0 0 -0.0206,-0.01348 l -5.11454,-1.67969 a 0.03459658,0.03459658 0 0 0 -0.0104,-0.0014 z m 0.0179,0.07864 5.07333,1.666092 0.6927,1.08421 -6.3068,-1.905634 z m 0.0411,0.08939 a 0.02767726,0.02767726 0 0 0 -0.0104,0.0018 0.02767726,0.02767726 0 0 0 -0.0138,0.0143 l -0.42902,0.668594 a 0.02767726,0.02767726 0 0 0 0.0172,0.04024 l 5.92606,1.787658 a 0.02767726,0.02767726 0 0 0 0.0305,-0.04112 l -0.53101,-0.827696 a 0.02767726,0.02767726 0 0 0 -0.0138,-0.01348 l -4.9661,-1.628573 a 0.02767726,0.02767726 0 0 0 -0.009,-0.0018 z m 0.009,0.06254 4.93928,1.618718 0.48266,0.75618 -5.81701,-1.756366 z"
   style="color:#000000;font-style:normal;font-variant:normal;font-weight:normal;font-stretch:normal;font-size:medium;line-height:normal;font-family:sans-serif;font-variant-ligatures:normal;font-variant-position:normal;font-variant-caps:normal;font-variant-numeric:normal;font-variant-alternates:normal;font-variant-east-asian:normal;font-feature-settings:normal;font-variation-settings:normal;text-indent:0;text-align:start;text-decoration:none;text-decoration-line:none;text-decoration-style:solid;text-decoration-color:#000000;letter-spacing:normal;word-spacing:normal;text-transform:none;writing-mode:lr-tb;direction:ltr;text-orientation:mixed;dominant-baseline:auto;baseline-shift:baseline;text-anchor:start;white-space:normal;shape-padding:0;shape-margin:0;inline-size:0;clip-rule:nonzero;display:inline;overflow:visible;visibility:visible;isolation:auto;mix-blend-mode:normal;color-interpolation:sRGB;color-interpolation-filters:linearRGB;solid-color:#000000;solid-opacity:1;vector-effect:none;fill:#ffffff;fill-opacity:1;fill-rule:nonzero;stroke:none;stroke-width:7.55907;stroke-linecap:round;stroke-linejoin:round;stroke-miterlimit:4;stroke-dasharray:none;stroke-dashoffset:0;stroke-opacity:1;color-rendering:auto;image-rendering:auto;shape-rendering:auto;text-rendering:auto;enable-background:accumulate;stop-color:#000000"
   id="path1423-4" /><g
   style="fill:#ffffff;stroke-width:1.90202"
   transform="matrix(0.52575682,0,0,0.52575682,120.35549,12.317656)"
   id="g1036"><path
     id="path884"
     style="font-style:normal;font-variant:normal;font-weight:normal;font-stretch:normal;font-size:40px;line-height:0.75;font-family:'Amsterdam Superstar';-inkscape-font-specification:'Amsterdam Superstar';letter-spacing:-0.3px;fill:#ffffff;stroke:none;stroke-width:3.42364;stroke-miterlimit:4;stroke-dasharray:none"
     d="m 49.055658,24.579264 c -0.883072,3.16e-4 -1.600264,0.717508 -1.60058,1.600579 v 14.526753 c 3.16e-4,0.88307 0.717508,1.600263 1.60058,1.600579 h 20.892458 v 5.702336 H 49.055658 c -0.883072,3.16e-4 -1.600264,0.717509 -1.60058,1.600579 v 2.811629 c 3.16e-4,0.883071 0.717508,1.600263 1.60058,1.60058 h 25.304666 c 0.883071,-3.17e-4 1.600263,-0.717509 1.600579,-1.60058 V 37.894966 c -3.17e-4,-0.883069 -0.717508,-1.600262 -1.600579,-1.600578 H 53.467865 v -5.702337 h 20.892459 c 0.883071,-3.16e-4 1.600263,-0.717509 1.600579,-1.600579 v -2.811629 c -3.17e-4,-0.883071 -0.717508,-1.600263 -1.600579,-1.600579 z m 29.003717,0 c -0.88307,3.16e-4 -1.600263,0.717508 -1.600579,1.600579 v 2.811629 c 3.16e-4,0.88307 0.717509,1.600263 1.600579,1.600579 h 9.645939 v 21.829668 c 3.14e-4,0.883072 0.717504,1.600266 1.600582,1.60058 h 2.811629 c 0.883069,-3.18e-4 1.60026,-0.717511 1.600575,-1.60058 V 30.592051 h 9.64594 c 0.88307,-3.18e-4 1.60027,-0.71751 1.60058,-1.600579 v -2.811629 c -3.1e-4,-0.88307 -0.71751,-1.600261 -1.60058,-1.600579 z m 29.005175,0 c -0.88306,3.18e-4 -1.60025,0.717509 -1.60057,1.600579 v 26.241876 c 3.2e-4,0.883069 0.71751,1.600262 1.60057,1.60058 h 1.87443 c 0.42447,3.48e-4 0.83158,-0.168708 1.13197,-0.468605 l 17.88607,-17.886066 v 16.754091 c 3.2e-4,0.883069 0.7175,1.600262 1.60057,1.60058 h 2.81163 c 0.88307,-3.14e-4 1.60027,-0.717508 1.60058,-1.60058 V 26.179843 c -3.1e-4,-0.883073 -0.71751,-1.600266 -1.60058,-1.600579 z m 29.00373,0 c -0.88308,3.13e-4 -1.60027,0.717506 -1.60058,1.600579 v 26.241876 c 3.1e-4,0.883072 0.7175,1.600266 1.60058,1.60058 h 25.30466 c 0.88307,-3.18e-4 1.60027,-0.717511 1.60058,-1.60058 V 26.179843 c -3.1e-4,-0.88307 -0.71751,-1.600261 -1.60058,-1.600579 h -2.81162 c -0.88308,3.13e-4 -1.60028,0.717506 -1.60059,1.600579 V 48.009511 H 140.48048 V 26.179843 c -3.1e-4,-0.88307 -0.71751,-1.600261 -1.60057,-1.600579 z m 29.00372,0 c -0.88308,3.18e-4 -1.60027,0.717509 -1.60059,1.600579 v 26.241876 c 3.2e-4,0.883069 0.71751,1.600262 1.60059,1.60058 h 2.81162 c 0.88308,-3.14e-4 1.60027,-0.717508 1.60059,-1.60058 V 35.667628 l 17.88606,17.886066 c 0.3004,0.299897 0.7075,0.468953 1.13197,0.468605 h 1.87442 c 0.88308,-3.14e-4 1.60026,-0.717508 1.60058,-1.60058 V 26.179843 c -3.2e-4,-0.883073 -0.7175,-1.600266 -1.60058,-1.600579 h -2.81163 c -0.88307,3.18e-4 -1.60026,0.717509 -1.60058,1.600579 V 43.871144 L 167.14117,25.047868 c -0.30039,-0.299896 -0.70749,-0.468953 -1.13197,-0.468604 z m 29.00518,0 c -0.88308,3.13e-4 -1.60026,0.717506 -1.60058,1.600579 v 2.811629 c 3.1e-4,0.883072 0.7175,1.600265 1.60058,1.600579 h 9.64593 v 21.829668 c 3.2e-4,0.883072 0.71751,1.600266 1.60058,1.60058 h 2.81163 c 0.88308,-3.18e-4 1.60026,-0.717511 1.60058,-1.60058 V 30.592051 h 9.64595 c 0.88306,-3.18e-4 1.60026,-0.71751 1.60057,-1.600579 v -2.811629 c -3.1e-4,-0.88307 -0.71751,-1.600261 -1.60057,-1.600579 z m 29.00371,0 c -0.88307,3.18e-4 -1.60026,0.717509 -1.60058,1.600579 v 26.241876 c 3.2e-4,0.883069 0.71751,1.600262 1.60058,1.60058 h 25.30467 c 0.88308,-3.14e-4 1.60027,-0.717508 1.60058,-1.60058 V 26.179843 c -3.1e-4,-0.883073 -0.7175,-1.600266 -1.60058,-1.600579 z m 29.00519,0 c -0.88308,3.18e-4 -1.60026,0.717509 -1.60058,1.600579 v 26.241876 c 3.2e-4,0.883069 0.7175,1.600262 1.60058,1.60058 h 2.81163 c 0.88306,-3.18e-4 1.60027,-0.717511 1.60057,-1.60058 V 35.667628 l 17.88606,17.886066 c 0.30041,0.299897 0.70751,0.468953 1.13198,0.468605 h 1.87443 c 0.88306,-3.18e-4 1.60027,-0.717511 1.60057,-1.60058 V 26.179843 c -3.1e-4,-0.88307 -0.71751,-1.600261 -1.60057,-1.600579 h -2.81163 c -0.88308,3.18e-4 -1.60027,0.717509 -1.60058,1.600579 V 43.871144 L 254.15526,25.047868 c -0.3004,-0.299896 -0.7075,-0.468953 -1.13198,-0.468604 z m -203.030422,0.07615 h 25.304666 c 0.842569,3.02e-4 1.524129,0.681862 1.524431,1.524431 v 2.811629 c -3.01e-4,0.842569 -0.681861,1.524129 -1.524431,1.52443 H 53.391717 v 5.854633 h 20.968607 c 0.842569,3.02e-4 1.524129,0.681862 1.524431,1.524431 v 14.526751 c -3.01e-4,0.84257 -0.681861,1.52413 -1.524431,1.524431 H 49.055658 c -0.84257,-3.01e-4 -1.52413,-0.681861 -1.524431,-1.524431 V 49.61009 c 3.01e-4,-0.842569 0.681861,-1.524129 1.524431,-1.524431 H 70.024265 V 42.231027 H 49.055658 c -0.84257,-3.03e-4 -1.52413,-0.681863 -1.524431,-1.524431 V 26.179843 c 3.01e-4,-0.84257 0.681861,-1.52413 1.524431,-1.524431 z m 29.003717,0 h 25.304665 c 0.84257,3.03e-4 1.52414,0.681862 1.52444,1.524431 v 2.811629 c -3e-4,0.842567 -0.68187,1.524127 -1.52444,1.52443 h -9.722087 v 21.905815 c -3e-4,0.842569 -0.681861,1.524129 -1.524428,1.524431 H 89.305896 C 88.463321,53.945851 87.781767,53.264291 87.78146,52.421719 V 30.515902 h -9.722085 c -0.842569,-3.01e-4 -1.524128,-0.681861 -1.524431,-1.52443 v -2.811629 c 3.03e-4,-0.84257 0.681863,-1.52413 1.524431,-1.524431 z m 29.005175,0 h 25.30467 c 0.84258,2.99e-4 1.52413,0.68186 1.52444,1.524431 v 26.241874 c -3e-4,0.842572 -0.68186,1.524132 -1.52444,1.524431 h -2.81163 c -0.84257,-3.02e-4 -1.52412,-0.681862 -1.52442,-1.524431 V 35.486044 l -18.01494,18.014932 c -0.28633,0.285868 -0.67463,0.445507 -1.07925,0.445174 h -1.87443 c -0.84257,-3.02e-4 -1.52412,-0.681862 -1.52442,-1.524431 V 26.179843 c 3e-4,-0.842569 0.68185,-1.524128 1.52442,-1.524431 z m 29.00373,0 h 2.81163 c 0.84257,3.03e-4 1.52412,0.681862 1.52443,1.524431 v 21.905814 h 16.63255 V 26.179843 c 2.9e-4,-0.842571 0.68185,-1.524132 1.52443,-1.524431 h 2.81162 c 0.84257,3.03e-4 1.52414,0.681862 1.52444,1.524431 v 26.241876 c -3e-4,0.842569 -0.68187,1.524129 -1.52444,1.524431 h -25.30466 c -0.84258,-2.99e-4 -1.52413,-0.681859 -1.52443,-1.524431 V 26.179843 c 3e-4,-0.842571 0.68185,-1.524132 1.52443,-1.524431 z m 29.00372,0 h 0.9372 c 0.40462,-3.33e-4 0.79291,0.159307 1.07925,0.445174 L 186.0406,44.05273 V 26.179843 c 3e-4,-0.842569 0.68187,-1.524128 1.52443,-1.524431 h 2.81163 c 0.84257,2.99e-4 1.52411,0.68186 1.52443,1.524431 v 26.241876 c -3.1e-4,0.842572 -0.68186,1.524132 -1.52443,1.524431 h -1.87442 c -0.40461,3.33e-4 -0.79291,-0.159306 -1.07926,-0.445174 L 169.40806,35.486044 v 16.935675 c -3.1e-4,0.842572 -0.68187,1.524132 -1.52444,1.524431 H 165.072 c -0.84257,-3.02e-4 -1.52414,-0.681862 -1.52444,-1.524431 V 26.179843 c 3e-4,-0.842569 0.68187,-1.524128 1.52444,-1.524431 z m 29.00518,0 h 25.30467 c 0.84256,3.03e-4 1.52412,0.681862 1.52443,1.524431 v 2.811629 c -3.1e-4,0.842567 -0.68187,1.524127 -1.52443,1.52443 h -9.7221 v 21.905815 c -3e-4,0.842569 -0.68186,1.524129 -1.52443,1.524431 h -2.81163 c -0.84257,-2.99e-4 -1.52412,-0.681859 -1.52442,-1.524431 V 30.515902 h -9.72209 c -0.84258,-2.99e-4 -1.52413,-0.68186 -1.52443,-1.52443 v -2.811629 c 3e-4,-0.842571 0.68185,-1.524132 1.52443,-1.524431 z m 29.00371,0 h 25.30467 c 0.84257,2.99e-4 1.52412,0.68186 1.52443,1.524431 v 26.241874 c -3.1e-4,0.842572 -0.68186,1.524132 -1.52443,1.524431 h -25.30467 c -0.84256,-3.02e-4 -1.52413,-0.681862 -1.52442,-1.524431 V 26.179843 c 2.9e-4,-0.842569 0.68186,-1.524128 1.52442,-1.524431 z m 29.00519,0 h 0.9372 c 0.40462,-3.33e-4 0.79292,0.159307 1.07926,0.445174 L 273.05469,44.05273 V 26.179843 c 2.9e-4,-0.842569 0.68186,-1.524128 1.52443,-1.524431 h 2.81163 c 0.84256,3.03e-4 1.52412,0.681862 1.52443,1.524431 v 26.241876 c -3.1e-4,0.842569 -0.68187,1.524129 -1.52443,1.524431 h -1.87443 c -0.40462,3.33e-4 -0.79291,-0.159306 -1.07924,-0.445174 L 256.42213,35.486044 v 16.935675 c -3e-4,0.842569 -0.68185,1.524129 -1.52442,1.524431 h -2.81163 c -0.84257,-3.02e-4 -1.52413,-0.681862 -1.52443,-1.524431 V 26.179843 c 3e-4,-0.842569 0.68186,-1.524128 1.52443,-1.524431 z m -203.030422,0.17426 c -0.744836,2.53e-4 -1.349916,0.605334 -1.35017,1.350169 v 14.526753 c 2.54e-4,0.744834 0.605334,1.349915 1.35017,1.350167 h 21.142868 v 6.203159 H 49.055658 c -0.744836,2.53e-4 -1.349916,0.605334 -1.35017,1.350168 v 2.811629 c 2.54e-4,0.744835 0.605334,1.349916 1.35017,1.350168 h 25.304666 c 0.744835,-2.52e-4 1.349916,-0.605333 1.350169,-1.350168 V 37.894966 C 75.71024,37.150133 75.105159,36.545051 74.360324,36.544799 H 53.217455 V 30.34164 h 21.142869 c 0.744835,-2.53e-4 1.349916,-0.605334 1.350169,-1.350168 v -2.811629 c -2.53e-4,-0.744835 -0.605334,-1.349916 -1.350169,-1.350169 z m 29.003717,0 c -0.744835,2.53e-4 -1.349916,0.605334 -1.350168,1.350169 v 2.811629 c 2.52e-4,0.744834 0.605333,1.349915 1.350168,1.350168 h 9.896354 v 22.080079 c 2.47e-4,0.744834 0.605332,1.349916 1.350167,1.350168 h 2.811629 c 0.744835,-2.52e-4 1.349913,-0.605334 1.350167,-1.350168 V 30.34164 h 9.896348 c 0.74484,-2.54e-4 1.34991,-0.605335 1.35017,-1.350168 v -2.811629 c -2.6e-4,-0.744834 -0.60533,-1.349915 -1.35017,-1.350169 z m 29.005175,0 c -0.74482,2.54e-4 -1.34991,0.605335 -1.35017,1.350169 v 26.241876 c 2.6e-4,0.744834 0.60535,1.349916 1.35017,1.350168 h 1.87443 c 0.35815,4.1e-5 0.70145,-0.142212 0.95478,-0.395384 l 18.31366,-18.313668 v 17.358884 c 2.6e-4,0.744834 0.60535,1.349916 1.35017,1.350168 h 2.81163 c 0.74484,-2.49e-4 1.34993,-0.605331 1.35017,-1.350168 V 26.179843 c -2.4e-4,-0.744837 -0.60533,-1.34992 -1.35017,-1.350169 z m 29.00373,0 c -0.74483,2.54e-4 -1.34992,0.605335 -1.35017,1.350169 v 26.241876 c 2.5e-4,0.744834 0.60534,1.349916 1.35017,1.350168 h 25.30466 c 0.74484,-2.52e-4 1.34991,-0.605334 1.35017,-1.350168 V 26.179843 c -2.6e-4,-0.744834 -0.60533,-1.349915 -1.35017,-1.350169 h -2.81162 c -0.74484,2.54e-4 -1.34992,0.605335 -1.35017,1.350169 V 48.259922 H 140.23007 V 26.179843 c -2.5e-4,-0.744834 -0.60533,-1.349915 -1.35016,-1.350169 z m 29.00372,0 c -0.74485,2.54e-4 -1.34992,0.605335 -1.35017,1.350169 v 26.241876 c 2.5e-4,0.744834 0.60532,1.349916 1.35017,1.350168 h 2.81162 c 0.74484,-2.52e-4 1.34992,-0.605334 1.35017,-1.350168 V 35.062835 l 18.31367,18.313668 c 0.25333,0.25317 0.59663,0.395425 0.95478,0.395384 h 1.87442 c 0.74484,-2.52e-4 1.34992,-0.605334 1.35017,-1.350168 V 26.179843 c -2.5e-4,-0.744834 -0.60533,-1.349915 -1.35017,-1.350169 h -2.81163 c -0.74484,2.54e-4 -1.34991,0.605335 -1.35016,1.350169 V 44.475938 L 166.96399,25.22506 c -0.25334,-0.253174 -0.59663,-0.395427 -0.95479,-0.395386 z m 29.00518,0 c -0.74483,2.54e-4 -1.34992,0.605335 -1.35017,1.350169 v 2.811629 c 2.5e-4,0.744833 0.60534,1.349915 1.35017,1.350168 h 9.89635 v 22.080079 c 2.5e-4,0.744834 0.60533,1.349916 1.35016,1.350168 h 2.81163 c 0.74483,-2.52e-4 1.34992,-0.605334 1.35017,-1.350168 V 30.34164 h 9.89636 c 0.74483,-2.54e-4 1.3499,-0.605335 1.35016,-1.350168 v -2.811629 c -2.6e-4,-0.744834 -0.60533,-1.349915 -1.35016,-1.350169 z m 29.00371,0 c -0.74484,2.54e-4 -1.34991,0.605335 -1.35017,1.350169 v 26.241876 c 2.6e-4,0.744834 0.60533,1.349916 1.35017,1.350168 h 25.30467 c 0.74484,-2.52e-4 1.34992,-0.605334 1.35017,-1.350168 V 26.179843 c -2.5e-4,-0.744834 -0.60533,-1.349915 -1.35017,-1.350169 z m 29.00519,0 c -0.74483,2.54e-4 -1.34992,0.605335 -1.35017,1.350169 v 26.241876 c 2.5e-4,0.744834 0.60534,1.349916 1.35017,1.350168 h 2.81163 c 0.74483,-2.52e-4 1.34991,-0.605334 1.35017,-1.350168 V 35.062835 l 18.31366,18.313668 c 0.25334,0.253172 0.59663,0.395425 0.95478,0.395384 h 1.87443 c 0.74483,-2.52e-4 1.3499,-0.605334 1.35016,-1.350168 V 26.179843 c -2.6e-4,-0.744834 -0.60533,-1.349915 -1.35016,-1.350169 h -2.81163 c -0.74484,2.54e-4 -1.34992,0.605335 -1.35017,1.350169 V 44.475938 L 253.97807,25.22506 c -0.25333,-0.253172 -0.59664,-0.395424 -0.95479,-0.395386 z M 49.055658,24.979042 h 25.304666 c 0.66383,2.25e-4 1.200576,0.536971 1.2008,1.200801 v 2.811629 c -2.24e-4,0.663829 -0.53697,1.200574 -1.2008,1.200801 H 53.068087 v 6.501893 h 21.292237 c 0.66383,2.25e-4 1.200576,0.536971 1.2008,1.2008 v 14.526753 c -2.24e-4,0.66383 -0.53697,1.200576 -1.2008,1.200801 H 49.055658 c -0.663831,-2.25e-4 -1.200576,-0.536971 -1.200801,-1.200801 V 49.61009 c 2.25e-4,-0.663829 0.53697,-1.200575 1.200801,-1.2008 H 70.347894 V 41.907397 H 49.055658 C 48.391827,41.90717 47.855082,41.370426 47.854857,40.706596 V 26.179843 c 2.25e-4,-0.66383 0.53697,-1.200576 1.200801,-1.200801 z m 29.003717,0 h 25.304665 c 0.66383,2.26e-4 1.20057,0.536972 1.2008,1.200801 v 2.811629 c -2.3e-4,0.663828 -0.53697,1.200574 -1.2008,1.200801 H 93.318324 v 22.229446 c -2.26e-4,0.66383 -0.536969,1.200575 -1.200799,1.200801 h -2.811629 c -0.66383,-2.26e-4 -1.200582,-0.536971 -1.200799,-1.200801 V 30.192273 H 78.059375 c -0.66383,-2.27e-4 -1.200575,-0.536972 -1.200801,-1.200801 v -2.811629 c 2.26e-4,-0.66383 0.536971,-1.200576 1.200801,-1.200801 z m 29.005175,0 h 25.30467 c 0.66384,2.22e-4 1.20059,0.536969 1.20081,1.200801 v 26.241876 c -2.2e-4,0.663832 -0.53697,1.20058 -1.20081,1.200801 h -2.81163 c -0.66382,-2.26e-4 -1.20057,-0.536971 -1.2008,-1.200801 V 34.701131 l -18.56846,18.569935 c -0.22526,0.225108 -0.5309,0.351491 -0.84935,0.351454 h -1.87443 c -0.66382,-2.26e-4 -1.20057,-0.536971 -1.2008,-1.200801 V 26.179843 c 2.3e-4,-0.663829 0.53698,-1.200575 1.2008,-1.200801 z m 29.00373,0 h 2.81163 c 0.66383,2.26e-4 1.20057,0.536972 1.2008,1.200801 V 48.40929 h 17.27981 V 26.179843 c 2.2e-4,-0.663829 0.53697,-1.200575 1.2008,-1.200801 h 2.81162 c 0.66383,2.26e-4 1.20057,0.536972 1.2008,1.200801 v 26.241876 c -2.3e-4,0.66383 -0.53697,1.200575 -1.2008,1.200801 h -25.30466 c -0.66383,-2.26e-4 -1.20058,-0.536971 -1.2008,-1.200801 V 26.179843 c 2.2e-4,-0.663829 0.53697,-1.200575 1.2008,-1.200801 z m 29.00372,0 h 0.9372 c 0.31846,-3.6e-5 0.6241,0.126345 0.84935,0.351454 l 19.50568,19.507145 V 26.179843 c 2.3e-4,-0.663829 0.53697,-1.200575 1.2008,-1.200801 h 2.81163 c 0.66383,2.26e-4 1.20057,0.536972 1.2008,1.200801 v 26.241876 c -2.3e-4,0.66383 -0.53697,1.200575 -1.2008,1.200801 h -1.87442 c -0.31845,3.5e-5 -0.62409,-0.126347 -0.84934,-0.351454 L 169.08442,34.701131 v 17.720588 c -2.3e-4,0.66383 -0.53697,1.200575 -1.2008,1.200801 H 165.072 c -0.66384,-2.26e-4 -1.20058,-0.536971 -1.20081,-1.200801 V 26.179843 c 2.3e-4,-0.663829 0.53697,-1.200575 1.20081,-1.200801 z m 29.00518,0 h 25.30467 c 0.66382,2.26e-4 1.20056,0.536972 1.20079,1.200801 v 2.811629 c -2.3e-4,0.663828 -0.53697,1.200574 -1.20079,1.200801 h -10.04573 v 22.229446 c -2.2e-4,0.66383 -0.53696,1.200575 -1.2008,1.200801 h -2.81163 c -0.66382,-2.26e-4 -1.20057,-0.536971 -1.20079,-1.200801 V 30.192273 h -10.04572 c -0.66384,-2.27e-4 -1.20058,-0.536973 -1.2008,-1.200801 v -2.811629 c 2.2e-4,-0.663829 0.53696,-1.200575 1.2008,-1.200801 z m 29.00371,0 h 25.30467 c 0.66383,2.26e-4 1.20056,0.536972 1.2008,1.200801 v 26.241876 c -2.4e-4,0.66383 -0.53697,1.200575 -1.2008,1.200801 h -25.30467 c -0.66383,-2.26e-4 -1.20057,-0.536971 -1.2008,-1.200801 V 26.179843 c 2.3e-4,-0.663829 0.53697,-1.200575 1.2008,-1.200801 z m 29.00519,0 h 0.9372 c 0.31845,-3.5e-5 0.62411,0.126348 0.84935,0.351454 l 19.50569,19.507145 V 26.179843 c 2.2e-4,-0.663829 0.53696,-1.200575 1.2008,-1.200801 h 2.81163 c 0.66382,2.26e-4 1.20056,0.536972 1.20079,1.200801 v 26.241876 c -2.3e-4,0.66383 -0.53697,1.200575 -1.20079,1.200801 h -1.87443 c -0.31845,3.7e-5 -0.62409,-0.126346 -0.84934,-0.351454 L 256.09851,34.701131 v 17.720588 c -2.3e-4,0.66383 -0.53697,1.200575 -1.2008,1.200801 h -2.81163 c -0.66384,-2.26e-4 -1.20058,-0.536971 -1.2008,-1.200801 V 26.179843 c 2.2e-4,-0.663829 0.53696,-1.200575 1.2008,-1.200801 z M 49.055658,25.178199 c -0.551898,-3.87e-4 -1.002031,0.449747 -1.001645,1.001644 v 14.526753 c -3.86e-4,0.551896 0.449747,1.002029 1.001645,1.001644 h 21.491394 v 6.900207 H 49.055658 c -0.551898,-3.86e-4 -1.002031,0.449747 -1.001645,1.001643 v 2.811629 c -3.86e-4,0.551897 0.449747,1.002031 1.001645,1.001644 h 25.304666 c 0.551897,3.87e-4 1.002031,-0.449747 1.001643,-1.001644 V 37.894966 c 3.88e-4,-0.551895 -0.449746,-1.00203 -1.001643,-1.001643 H 52.868929 v -6.900208 h 21.491395 c 0.551897,3.86e-4 1.002031,-0.449747 1.001643,-1.001643 v -2.811629 c 3.88e-4,-0.551897 -0.449746,-1.002031 -1.001643,-1.001644 z m 29.003717,0 c -0.551898,-3.87e-4 -1.002029,0.449747 -1.001644,1.001644 v 2.811629 c -3.85e-4,0.551896 0.449748,1.002029 1.001644,1.001643 h 10.244876 v 22.428604 c -3.91e-4,0.551898 0.449748,1.002032 1.001645,1.001644 h 2.811629 c 0.551889,3.84e-4 1.002012,-0.449749 1.001645,-1.001644 V 29.993115 h 10.24487 c 0.55189,3.83e-4 1.00201,-0.449749 1.00165,-1.001643 v -2.811629 c 3.7e-4,-0.551895 -0.44976,-1.002027 -1.00165,-1.001644 z m 29.005175,0 c -0.55188,-3.83e-4 -1.00203,0.449749 -1.00164,1.001644 v 26.241876 c -3.9e-4,0.551895 0.44976,1.002028 1.00164,1.001644 h 1.87443 c 0.2655,-1.08e-4 0.51971,-0.106459 0.70729,-0.294342 l 18.90968,-18.909674 v 18.202372 c -3.9e-4,0.551895 0.44975,1.002028 1.00164,1.001644 h 2.81163 c 0.5519,3.88e-4 1.00203,-0.449746 1.00165,-1.001644 V 26.179843 c 3.8e-4,-0.551899 -0.44975,-1.002032 -1.00165,-1.001644 z m 29.00373,0 c -0.5519,-3.88e-4 -1.00203,0.449745 -1.00165,1.001644 v 26.241876 c -3.8e-4,0.551898 0.44975,1.002032 1.00165,1.001644 h 25.30466 c 0.55189,3.84e-4 1.00203,-0.449749 1.00165,-1.001644 V 26.179843 c 3.8e-4,-0.551895 -0.44976,-1.002027 -1.00165,-1.001644 h -2.81162 c -0.5519,-3.88e-4 -1.00203,0.449745 -1.00165,1.001644 V 48.608447 H 139.88156 V 26.179843 c 3.7e-4,-0.551895 -0.44977,-1.002027 -1.00165,-1.001644 z m 29.00372,0 c -0.55191,-3.88e-4 -1.00203,0.449745 -1.00165,1.001644 v 26.241876 c -3.8e-4,0.551898 0.44974,1.002032 1.00165,1.001644 h 2.81162 c 0.5519,3.88e-4 1.00203,-0.449746 1.00164,-1.001644 V 34.219347 l 18.90968,18.909674 c 0.18758,0.187881 0.44181,0.294232 0.7073,0.294342 h 1.87442 c 0.5519,3.88e-4 1.00203,-0.449746 1.00164,-1.001644 V 26.179843 c 3.9e-4,-0.551899 -0.44974,-1.002032 -1.00164,-1.001644 h -2.81163 c -0.5519,-3.88e-4 -1.00202,0.449745 -1.00164,1.001644 V 45.319426 L 166.71651,25.472542 C 166.52892,25.28466 166.2747,25.17831 166.0092,25.178199 Z m 29.00518,0 c -0.5519,-3.88e-4 -1.00203,0.449745 -1.00165,1.001644 v 2.811629 c -3.8e-4,0.551897 0.44975,1.002031 1.00165,1.001643 h 10.24487 v 22.428604 c -3.8e-4,0.551898 0.44975,1.002032 1.00164,1.001644 h 2.81163 c 0.55191,3.88e-4 1.00203,-0.449746 1.00165,-1.001644 V 29.993115 h 10.24488 c 0.55189,3.88e-4 1.00202,-0.449746 1.00164,-1.001643 v -2.811629 c 3.8e-4,-0.551899 -0.44975,-1.002032 -1.00164,-1.001644 z m 29.00371,0 c -0.55189,-3.83e-4 -1.00203,0.449749 -1.00163,1.001644 v 26.241876 c -4e-4,0.551895 0.44974,1.002028 1.00163,1.001644 h 25.30467 c 0.5519,3.88e-4 1.00203,-0.449746 1.00164,-1.001644 V 26.179843 c 3.9e-4,-0.551899 -0.44974,-1.002032 -1.00164,-1.001644 z m 29.00519,0 c -0.5519,-3.88e-4 -1.00203,0.449745 -1.00165,1.001644 v 26.241876 c -3.8e-4,0.551898 0.44975,1.002032 1.00165,1.001644 h 2.81163 c 0.55189,3.88e-4 1.00203,-0.449746 1.00164,-1.001644 V 34.219347 l 18.90967,18.909674 c 0.18759,0.187881 0.44181,0.294232 0.7073,0.294342 h 1.87443 c 0.55189,3.88e-4 1.00202,-0.449746 1.00163,-1.001644 V 26.179843 c 3.9e-4,-0.551899 -0.44974,-1.002032 -1.00163,-1.001644 h -2.81163 c -0.5519,-3.88e-4 -1.00203,0.449745 -1.00165,1.001644 V 45.319426 L 253.73059,25.472542 C 253.543,25.28466 253.28878,25.17831 253.02328,25.178199 Z M 49.055658,25.403716 h 25.304666 c 0.430225,-3.02e-4 0.776429,0.345902 0.776127,0.776127 v 2.811629 c 3.02e-4,0.430223 -0.345902,0.776428 -0.776127,0.776128 h -21.71691 v 7.351239 h 21.71691 c 0.430225,-3.01e-4 0.776429,0.345904 0.776127,0.776127 v 14.526753 c 3.02e-4,0.430224 -0.345902,0.776429 -0.776127,0.776128 H 49.055658 c -0.430225,3.01e-4 -0.77643,-0.345904 -0.776128,-0.776128 V 49.61009 c -3.02e-4,-0.430223 0.345903,-0.776428 0.776128,-0.776127 h 21.71691 v -7.35124 h -21.71691 c -0.430225,3.01e-4 -0.77643,-0.345904 -0.776128,-0.776127 V 26.179843 c -3.02e-4,-0.430225 0.345903,-0.776429 0.776128,-0.776127 z m 29.003717,0 h 25.304665 c 0.43022,-2.99e-4 0.77643,0.345904 0.77612,0.776127 v 2.811629 c 3.1e-4,0.430222 -0.3459,0.776424 -0.77612,0.776128 H 92.893648 v 22.654119 c 3.07e-4,0.430222 -0.345906,0.776426 -0.776123,0.776128 h -2.811629 c -0.430225,3.01e-4 -0.77643,-0.345903 -0.77613,-0.776128 V 29.7676 H 78.059375 c -0.430224,3e-4 -0.776428,-0.345905 -0.776127,-0.776128 v -2.811629 c -3.01e-4,-0.430225 0.345903,-0.776429 0.776127,-0.776127 z m 29.005175,0 h 25.30467 c 0.43023,-3.03e-4 0.77644,0.345901 0.77613,0.776127 v 26.241876 c 3.1e-4,0.430225 -0.3459,0.77643 -0.77613,0.776128 h -2.81163 c -0.43021,2.98e-4 -0.77642,-0.345906 -0.77612,-0.776128 V 33.677521 l -19.29334,19.293345 c -0.14549,0.145708 -0.34325,0.226895 -0.54915,0.226981 h -1.87443 c -0.43021,2.98e-4 -0.77642,-0.345906 -0.77612,-0.776128 V 26.179843 c -3e-4,-0.430223 0.34591,-0.776426 0.77612,-0.776127 z m 29.00373,0 h 2.81163 c 0.43021,-2.99e-4 0.77643,0.345904 0.77612,0.776127 v 22.65412 h 18.12916 v -22.65412 c -3e-4,-0.430226 0.3459,-0.77643 0.77613,-0.776127 h 2.81162 c 0.43022,-2.99e-4 0.77643,0.345904 0.77612,0.776127 v 26.241876 c 3.1e-4,0.430222 -0.3459,0.776426 -0.77612,0.776128 h -25.30466 c -0.43022,3.01e-4 -0.77643,-0.345903 -0.77613,-0.776128 V 26.179843 c -3e-4,-0.430226 0.34591,-0.77643 0.77613,-0.776127 z m 29.00372,0 h 0.9372 c 0.2059,8.5e-5 0.40367,0.08128 0.54914,0.226979 l 20.23057,20.230556 V 26.179843 c -3.1e-4,-0.430226 0.34589,-0.77643 0.77612,-0.776127 h 2.81163 c 0.43022,-3.03e-4 0.77643,0.345901 0.77613,0.776127 v 26.241876 c 3e-4,0.430225 -0.34591,0.77643 -0.77613,0.776128 h -1.87442 c -0.20589,-8.6e-5 -0.40367,-0.08128 -0.54915,-0.226981 L 168.65975,33.677521 v 18.744198 c 3e-4,0.430225 -0.3459,0.77643 -0.77613,0.776128 H 165.072 c -0.43024,3.01e-4 -0.77644,-0.345903 -0.77613,-0.776128 V 26.179843 c -3.1e-4,-0.430226 0.34589,-0.77643 0.77613,-0.776127 z m 29.00518,0 h 25.30467 c 0.43022,-3.03e-4 0.77642,0.345901 0.77612,0.776127 v 2.811629 c 3e-4,0.430224 -0.3459,0.776429 -0.77612,0.776128 h -10.4704 v 22.654119 c 3.1e-4,0.430225 -0.3459,0.77643 -0.77613,0.776128 h -2.81163 c -0.43022,3.01e-4 -0.77642,-0.345903 -0.77613,-0.776128 V 29.7676 h -10.47038 c -0.43023,3.02e-4 -0.77643,-0.345904 -0.77613,-0.776128 v -2.811629 c -3e-4,-0.430226 0.3459,-0.77643 0.77613,-0.776127 z m 29.00371,0 h 25.30467 c 0.43022,-3.03e-4 0.77643,0.345901 0.77613,0.776127 v 26.241876 c 3e-4,0.430225 -0.34591,0.77643 -0.77613,0.776128 h -25.30467 c -0.43022,2.98e-4 -0.77643,-0.345906 -0.77612,-0.776128 V 26.179843 c -3.1e-4,-0.430223 0.3459,-0.776426 0.77612,-0.776127 z m 29.00519,0 h 0.9372 c 0.20591,8.5e-5 0.40367,0.08128 0.54916,0.226979 l 20.23055,20.230556 V 26.179843 c -3e-4,-0.430226 0.34589,-0.77643 0.77613,-0.776127 h 2.81163 c 0.43022,-3.03e-4 0.77642,0.345901 0.77612,0.776127 v 26.241876 c 3e-4,0.430225 -0.3459,0.77643 -0.77612,0.776128 h -1.87443 c -0.2059,-8.6e-5 -0.40366,-0.08128 -0.54914,-0.226981 L 255.67384,33.677521 v 18.744198 c 3e-4,0.430225 -0.34591,0.77643 -0.77613,0.776128 h -2.81163 c -0.43023,3.01e-4 -0.77644,-0.345903 -0.77613,-0.776128 V 26.179843 c -3.1e-4,-0.430226 0.3459,-0.77643 0.77613,-0.776127 z M 49.055658,25.670235 c -0.279741,3.81e-4 -0.509228,0.229868 -0.509609,0.509608 v 14.526753 c 3.81e-4,0.279739 0.229868,0.509227 0.509609,0.509608 h 21.983428 v 7.884278 H 49.055658 c -0.279741,3.81e-4 -0.509228,0.229869 -0.509609,0.509608 v 2.811629 c 3.81e-4,0.279739 0.229868,0.509228 0.509609,0.509609 h 25.304666 c 0.279739,-3.82e-4 0.509227,-0.22987 0.509608,-0.509609 V 37.894966 C 74.869551,37.615228 74.640063,37.38574 74.360324,37.385359 H 52.376895 V 29.50108 h 21.983429 c 0.279739,-3.81e-4 0.509227,-0.229869 0.509608,-0.509608 v -2.811629 c -3.81e-4,-0.27974 -0.229869,-0.509226 -0.509608,-0.509608 z m 29.003717,0 c -0.279741,3.81e-4 -0.509227,0.229868 -0.509608,0.509608 v 2.811629 c 3.81e-4,0.279739 0.229867,0.509227 0.509608,0.509608 h 10.736911 v 22.920639 c 3.83e-4,0.27974 0.229871,0.509228 0.50961,0.509609 h 2.811629 c 0.279739,-3.81e-4 0.509235,-0.229869 0.509603,-0.509609 V 29.50108 h 10.736912 c 0.27974,-3.81e-4 0.50924,-0.229868 0.50961,-0.509608 v -2.811629 c -3.8e-4,-0.27974 -0.22987,-0.509228 -0.50961,-0.509608 z m 29.005175,0 c -0.27972,3.86e-4 -0.50921,0.229871 -0.5096,0.509608 v 26.241876 c 3.9e-4,0.279736 0.22988,0.509223 0.5096,0.509609 h 1.87443 c 0.13521,-1.8e-5 0.26455,-0.05384 0.36023,-0.149368 l 19.74878,-19.74877 v 19.388529 c 3.9e-4,0.279736 0.22987,0.509223 0.5096,0.509609 h 2.81163 c 0.27974,-3.81e-4 0.50923,-0.229869 0.50961,-0.509609 V 26.179843 c -3.8e-4,-0.27974 -0.22987,-0.509228 -0.50961,-0.509608 z m 29.00373,0 c -0.27974,3.8e-4 -0.50923,0.229868 -0.50961,0.509608 v 26.241876 c 3.8e-4,0.27974 0.22987,0.509228 0.50961,0.509609 h 25.30466 c 0.27974,-3.81e-4 0.50923,-0.229869 0.50962,-0.509609 V 26.179843 c -3.9e-4,-0.27974 -0.22988,-0.509228 -0.50962,-0.509608 h -2.81162 c -0.27974,3.8e-4 -0.50924,0.229868 -0.50962,0.509608 V 49.100482 H 139.38952 V 26.179843 c -3.9e-4,-0.27974 -0.22988,-0.509228 -0.50961,-0.509608 z m 29.00372,0 c -0.27975,3.8e-4 -0.50924,0.229868 -0.50962,0.509608 v 26.241876 c 3.8e-4,0.27974 0.22987,0.509228 0.50962,0.509609 h 2.81162 c 0.27974,-3.81e-4 0.50923,-0.229869 0.50961,-0.509609 V 33.03319 L 188.142,52.78196 c 0.0957,0.09552 0.22503,0.149347 0.36024,0.149368 h 1.87442 c 0.27974,-3.81e-4 0.50923,-0.229869 0.50961,-0.509609 V 26.179843 c -3.8e-4,-0.27974 -0.22987,-0.509228 -0.50961,-0.509608 h -2.81163 c -0.27974,3.8e-4 -0.50923,0.229868 -0.50961,0.509608 v 20.325739 l -20.68598,-20.68598 c -0.0957,-0.09552 -0.22503,-0.149349 -0.36024,-0.149367 z m 29.00518,0 c -0.27975,3.8e-4 -0.50923,0.229868 -0.50961,0.509608 v 2.811629 c 3.8e-4,0.27974 0.22986,0.509227 0.50961,0.509608 h 10.73691 v 22.920639 c 3.8e-4,0.27974 0.22987,0.509228 0.5096,0.509609 h 2.81163 c 0.27975,-3.81e-4 0.50924,-0.229869 0.50961,-0.509609 V 29.50108 h 10.73692 c 0.27973,-3.81e-4 0.50922,-0.229868 0.50961,-0.509608 v -2.811629 c -3.9e-4,-0.27974 -0.22988,-0.509228 -0.50961,-0.509608 z m 29.00371,0 c -0.27974,3.8e-4 -0.50923,0.229868 -0.50961,0.509608 v 26.241876 c 3.8e-4,0.27974 0.22987,0.509228 0.50961,0.509609 h 25.30467 c 0.27974,-3.81e-4 0.50923,-0.229869 0.50961,-0.509609 V 26.179843 c -3.8e-4,-0.27974 -0.22987,-0.509228 -0.50961,-0.509608 z m 29.00519,0 c -0.27975,3.8e-4 -0.50923,0.229868 -0.50961,0.509608 v 26.241876 c 3.8e-4,0.27974 0.22986,0.509228 0.50961,0.509609 h 2.81163 c 0.27973,-3.81e-4 0.50922,-0.229869 0.5096,-0.509609 V 33.03319 l 19.74878,19.74877 c 0.0957,0.09552 0.22503,0.149347 0.36023,0.149368 h 1.87443 c 0.27973,-3.81e-4 0.50922,-0.229869 0.50961,-0.509609 V 26.179843 c -3.9e-4,-0.27974 -0.22988,-0.509228 -0.50961,-0.509608 h -2.81163 c -0.27975,3.8e-4 -0.50924,0.229868 -0.50962,0.509608 v 20.325739 l -20.68597,-20.68598 c -0.0957,-0.09552 -0.22504,-0.149346 -0.36025,-0.149367 z M 49.055658,25.96897 h 25.304666 c 0.117947,1.61e-4 0.210712,0.09293 0.210873,0.210873 v 2.811629 c -1.61e-4,0.117946 -0.09293,0.210711 -0.210873,0.210872 H 52.078159 v 8.48175 h 22.282165 c 0.117947,1.61e-4 0.210712,0.09293 0.210873,0.210872 v 14.526753 c -1.61e-4,0.117947 -0.09293,0.210713 -0.210873,0.210873 H 49.055658 c -0.117948,-1.6e-4 -0.210713,-0.09293 -0.210873,-0.210873 V 49.61009 c 1.6e-4,-0.117946 0.09293,-0.210712 0.210873,-0.210872 h 22.282165 v -8.48175 H 49.055658 c -0.117948,-1.61e-4 -0.210713,-0.09293 -0.210873,-0.210872 V 26.179843 c 1.6e-4,-0.117947 0.09293,-0.210712 0.210873,-0.210873 z m 29.003717,0 h 25.304665 c 0.11795,1.6e-4 0.21071,0.09293 0.21088,0.210873 v 2.811629 c -1.7e-4,0.117946 -0.0929,0.210711 -0.21088,0.210872 H 92.328398 v 23.219375 c -1.66e-4,0.117947 -0.09293,0.210713 -0.210873,0.210873 h -2.811629 c -0.117947,-1.6e-4 -0.210715,-0.09293 -0.210872,-0.210873 V 29.202344 H 78.059375 c -0.117946,-1.61e-4 -0.210713,-0.09293 -0.210872,-0.210872 v -2.811629 c 1.6e-4,-0.117947 0.09293,-0.210712 0.210872,-0.210873 z m 29.005175,0 h 25.30467 c 0.11795,1.6e-4 0.21071,0.09293 0.21087,0.210873 v 26.241876 c -1.6e-4,0.117947 -0.0929,0.210713 -0.21087,0.210873 h -2.81163 c -0.11793,-1.62e-4 -0.21071,-0.09293 -0.21087,-0.210873 V 32.311246 l -20.25837,20.259842 c -0.0396,0.03948 -0.0935,0.06149 -0.14937,0.0615 h -1.87443 c -0.11793,-1.62e-4 -0.2107,-0.09293 -0.21087,-0.210872 V 26.179842 c 1.7e-4,-0.117945 0.0929,-0.21071 0.21087,-0.210872 z m 29.00373,0 h 2.81163 c 0.11794,1.6e-4 0.2107,0.09293 0.21087,0.210873 v 23.219375 h 19.25966 V 26.179843 c 1.6e-4,-0.117948 0.0929,-0.210713 0.21088,-0.210873 h 2.81162 c 0.11795,1.6e-4 0.21071,0.09293 0.21088,0.210873 v 26.241876 c -1.7e-4,0.117947 -0.0929,0.210713 -0.21088,0.210873 h -25.30466 c -0.11795,-1.6e-4 -0.21072,-0.09293 -0.21087,-0.210873 V 26.179843 c 1.5e-4,-0.117948 0.0929,-0.210713 0.21087,-0.210873 z m 29.00372,0 h 0.9372 c 0.0558,8e-6 0.10982,0.02202 0.14937,0.0615 l 21.19559,21.197053 v -21.04768 c 1.6e-4,-0.117948 0.0929,-0.210713 0.21087,-0.210873 h 2.81163 c 0.11795,1.6e-4 0.21072,0.09293 0.21088,0.210873 v 26.241876 c -1.6e-4,0.117947 -0.0929,0.210713 -0.21088,0.210873 h -1.87442 c -0.0558,-9e-6 -0.10982,-0.02202 -0.14937,-0.0615 L 168.09449,32.311246 v 20.110473 c -1.5e-4,0.117947 -0.0929,0.210713 -0.21087,0.210873 H 165.072 c -0.11796,-1.6e-4 -0.21072,-0.09293 -0.21088,-0.210873 V 26.179843 c 1.6e-4,-0.117948 0.0929,-0.210713 0.21088,-0.210873 z m 29.00518,0 h 25.30467 c 0.11794,1.6e-4 0.2107,0.09293 0.21087,0.210873 v 2.811629 c -1.7e-4,0.117946 -0.0929,0.210711 -0.21087,0.210872 H 208.3462 v 23.219375 c -1.6e-4,0.117947 -0.0929,0.210713 -0.21088,0.210873 h -2.81163 c -0.11794,-1.6e-4 -0.21071,-0.09293 -0.21087,-0.210873 V 29.202344 h -11.03564 c -0.11794,-1.61e-4 -0.21072,-0.09293 -0.21087,-0.210872 v -2.811629 c 1.5e-4,-0.117948 0.0929,-0.210713 0.21087,-0.210873 z m 29.00371,0 h 25.30467 c 0.11795,1.6e-4 0.21072,0.09293 0.21087,0.210873 v 26.241876 c -1.5e-4,0.117947 -0.0929,0.210713 -0.21087,0.210873 h -25.30467 c -0.11795,-1.6e-4 -0.21071,-0.09293 -0.21087,-0.210873 V 26.179843 c 1.6e-4,-0.117948 0.0929,-0.210713 0.21087,-0.210873 z m 29.00519,0 h 0.9372 c 0.0558,9e-6 0.10982,0.02202 0.14937,0.0615 l 21.19559,21.197053 v -21.04768 c 1.6e-4,-0.117948 0.0929,-0.210713 0.21088,-0.210873 h 2.81163 c 0.11794,1.6e-4 0.21071,0.09293 0.21087,0.210873 v 26.241876 c -1.6e-4,0.117947 -0.0929,0.210713 -0.21087,0.210873 h -1.87443 c -0.0559,-9e-6 -0.10982,-0.02202 -0.14937,-0.0615 L 255.10858,32.311246 v 20.110473 c -1.6e-4,0.117947 -0.0929,0.210713 -0.21087,0.210873 h -2.81163 c -0.11795,-1.6e-4 -0.21071,-0.09293 -0.21087,-0.210873 V 26.179843 c 1.6e-4,-0.117948 0.0929,-0.210713 0.21087,-0.210873 z M 49.055658,26.179843 V 40.706596 H 71.548695 V 49.61009 H 49.055658 v 2.811629 H 74.360324 V 37.894966 H 51.867287 v -8.903494 h 22.493037 v -2.811629 z m 29.003717,0 v 2.811629 h 11.246521 v 23.430247 h 2.811629 V 28.991472 h 11.246515 v -2.811629 z m 29.005175,0 v 26.241876 h 1.87443 l 20.61861,-20.618618 v 20.618618 h 2.81163 V 26.179843 Z m 29.00373,0 v 26.241876 h 25.30466 V 26.179843 h -2.81162 V 49.61009 H 138.87991 V 26.179843 Z m 29.00372,0 v 26.241876 h 2.81162 V 31.803101 l 20.61862,20.618618 h 1.87442 V 26.179843 h -2.81163 V 47.73567 L 166.0092,26.179843 Z m 29.00518,0 v 2.811629 h 11.24651 v 23.430247 h 2.81163 V 28.991472 h 11.24653 v -2.811629 z m 29.00371,0 v 26.241876 h 25.30467 V 26.179843 Z m 29.00519,0 v 26.241876 h 2.81163 V 31.803101 l 20.61861,20.618618 h 1.87443 V 26.179843 h -2.81163 V 47.73567 L 253.02328,26.179843 Z m -142.2099,2.811629 h 18.74421 L 109.87618,47.73567 Z m 116.01635,0 h 19.6814 V 49.61009 h -19.6814 z m -115.80548,0.210872 v 0.149368 17.875815 l 18.02519,-18.025183 z m 116.01634,0 v 0.149368 20.047506 h 19.25967 V 29.202344 Z m -115.7176,0.298736 h 17.00451 l -17.00451,17.004502 z m 116.01634,0 h 18.66219 V 49.100482 H 226.40213 Z M 110.65231,29.7676 v 0.112757 15.980894 L 126.74596,29.7676 Z m 116.01634,0 v 0.112757 18.953606 h 18.12916 V 29.7676 Z m -115.79082,0.225515 h 15.32632 l -15.32632,15.326311 z m 116.01633,0 h 17.67814 v 18.615332 h -17.67814 z m -115.81717,0.199158 v 0.07468 14.570686 l 14.64537,-14.645368 z m 116.01633,0 v 0.07468 18.142335 h 17.27981 V 30.192273 Z M 111.22636,30.34164 h 14.13429 l -14.13429,14.134298 z m 116.01633,0 h 16.98108 v 17.918282 h -16.98108 z m -115.84207,0.174262 v 0.03808 13.498751 L 124.93745,30.5159 Z m 116.01634,0 v 0.03808 17.531682 H 244.0495 V 30.515902 Z m -115.9402,0.07615 h 13.2791 l -13.2791,13.279093 z m 116.01635,0 h 16.48024 v 17.41746 h -16.48024 z" /><path
     id="path1022"
     style="font-style:normal;font-variant:normal;font-weight:normal;font-stretch:normal;font-size:40px;line-height:0.75;font-family:'Amsterdam Superstar';-inkscape-font-specification:'Amsterdam Superstar';letter-spacing:-0.3px;fill:#ffffff;stroke:none;stroke-width:3.42364;stroke-miterlimit:4;stroke-dasharray:none"
     d="m 49.589844,-17.107859 c -1.177792,4.22e-4 -2.134344,0.956974 -2.134766,2.134766 v 35 c 4.22e-4,1.177792 0.956974,2.134344 2.134766,2.134766 h 33.75 c 1.177791,-4.22e-4 2.134343,-0.956975 2.134765,-2.134766 v -3.749999 c -4.21e-4,-1.177791 -0.956974,-2.134344 -2.134765,-2.134766 H 60.994141 L 84.849609,-9.7133265 c 0.399986,-0.4006535 0.625465,-0.9436295 0.625,-1.5097665 v -3.75 c -4.22e-4,-1.177791 -0.956974,-2.134344 -2.134765,-2.134766 z m 38.683594,0 c -1.177792,4.22e-4 -2.134344,0.956974 -2.134766,2.134766 v 35 c 4.22e-4,1.177792 0.956974,2.134344 2.134766,2.134766 h 33.750002 c 1.17779,-4.25e-4 2.13434,-0.956976 2.13476,-2.134766 v -35 c -4.2e-4,-1.17779 -0.95697,-2.134341 -2.13476,-2.134766 z m 38.685542,0 c -1.17779,4.25e-4 -2.13434,0.956976 -2.13476,2.134766 v 35 c 4.2e-4,1.17779 0.95697,2.134341 2.13476,2.134766 h 33.75 c 1.1778,-4.19e-4 2.13435,-0.956972 2.13477,-2.134766 V 0.65190789 c -4.2e-4,-1.177794 -0.95697,-2.13434699 -2.13477,-2.13476599 h -17.5 c -1.17779,4.25e-4 -2.13434,0.95697599 -2.13476,2.13476599 V 3.7769079 c -4.6e-4,0.566138 0.22501,1.109113 0.625,1.509766 l 8.85547,8.8554681 H 132.84375 V -9.0883265 h 27.86523 c 1.1778,-4.19e-4 2.13435,-0.9569735 2.13477,-2.1347665 v -3.75 c -4.2e-4,-1.177794 -0.95697,-2.134347 -2.13477,-2.134766 z m 38.6836,0 c -1.1778,4.19e-4 -2.13435,0.956972 -2.13477,2.134766 v 35 c 4.2e-4,1.177794 0.95697,2.134347 2.13477,2.134766 h 3.75 c 1.17779,-4.25e-4 2.13434,-0.956976 2.13476,-2.134766 V 6.5366739 h 21.98047 V 20.026907 c 4.2e-4,1.177794 0.95697,2.134347 2.13477,2.134766 h 3.75 c 1.17779,-4.25e-4 2.13434,-0.956976 2.13476,-2.134766 v -35 c -4.2e-4,-1.17779 -0.95697,-2.134341 -2.13476,-2.134766 h -3.75 c -1.1778,4.19e-4 -2.13435,0.956972 -2.13477,2.134766 V -1.4828581 H 171.52734 V -14.973093 c -4.2e-4,-1.17779 -0.95697,-2.134341 -2.13476,-2.134766 z m 38.68359,0 c -1.17779,4.25e-4 -2.13434,0.956976 -2.13476,2.134766 v 35 c 4.2e-4,1.17779 0.95697,2.134341 2.13476,2.134766 h 2.5 c 0.56614,4.64e-4 1.10911,-0.225014 1.50977,-0.625 L 232.19141,-2.3187955 V 20.026907 c 4.2e-4,1.17779 0.95697,2.134341 2.13476,2.134766 h 3.75 c 1.1778,-4.19e-4 2.13435,-0.956972 2.13477,-2.134766 v -35 c -4.2e-4,-1.177794 -0.95697,-2.134347 -2.13477,-2.134766 z m 38.68555,0 c -1.17779,4.19e-4 -2.13434,0.956972 -2.13477,2.134766 v 35 c 4.3e-4,1.177794 0.95698,2.134347 2.13477,2.134766 h 3.75 c 1.17779,-4.25e-4 2.13434,-0.956976 2.13476,-2.134766 V -2.3187955 l 23.85547,23.8554685 c 0.40066,0.399986 0.94363,0.625464 1.50977,0.625 h 2.5 c 1.17779,-4.25e-4 2.13434,-0.956976 2.13476,-2.134766 v -35 c -4.2e-4,-1.17779 -0.95697,-2.134341 -2.13476,-2.134766 h -3.75 c -1.17779,4.19e-4 -2.13434,0.956972 -2.13477,2.134766 V 8.6226109 L 245.77148,-16.482859 c -0.40065,-0.399985 -0.94362,-0.625465 -1.50976,-0.625 z m -193.421876,0.101563 h 33.75 c 1.123772,4.02e-4 2.0328,0.90943 2.033203,2.033203 v 3.75 c 4.43e-4,0.539654 -0.212475,1.057542 -0.59375,1.4394535 L 60.751953,14.243705 h 22.587891 c 1.123772,4.03e-4 2.0328,0.90943 2.033203,2.033203 v 3.749999 c -4.03e-4,1.123773 -0.909431,2.0328 -2.033203,2.033203 h -33.75 c -1.123773,-4.02e-4 -2.032801,-0.90943 -2.033203,-2.033203 v -35 c 4.02e-4,-1.123773 0.90943,-2.032801 2.033203,-2.033203 z m 38.683594,0 h 33.750002 c 1.12377,4.05e-4 2.0328,0.909432 2.0332,2.033203 v 35 c -4e-4,1.123771 -0.90943,2.032798 -2.0332,2.033203 H 88.273438 c -1.123773,-4.02e-4 -2.032801,-0.90943 -2.033204,-2.033203 v -35 c 4.03e-4,-1.123773 0.909431,-2.032801 2.033204,-2.033203 z m 38.685542,0 h 33.75 c 1.12378,3.99e-4 2.0328,0.909428 2.03321,2.033203 v 3.75 c -4.1e-4,1.123775 -0.90943,2.0328045 -2.03321,2.0332035 H 132.74219 V 14.243705 h 18.05469 l -9.02735,-9.0273441 c -0.38128,-0.38191 -0.59419,-0.899798 -0.59375,-1.439453 V 0.65190789 c 4e-4,-1.123771 0.90943,-2.03279799 2.0332,-2.03320299 h 17.5 c 1.12378,3.99e-4 2.0328,0.90942799 2.03321,2.03320299 V 20.026907 c -4.1e-4,1.123775 -0.90943,2.032804 -2.03321,2.033203 h -33.75 c -1.12377,-4.05e-4 -2.0328,-0.909432 -2.0332,-2.033203 v -35 c 4e-4,-1.123771 0.90943,-2.032798 2.0332,-2.033203 z m 38.6836,0 h 3.75 c 1.12377,4.05e-4 2.0328,0.909432 2.0332,2.033203 v 13.5917979 h 22.1836 V -14.973093 c 4e-4,-1.123775 0.90942,-2.032804 2.0332,-2.033203 h 3.75 c 1.12377,4.05e-4 2.0328,0.909432 2.0332,2.033203 v 35 c -4e-4,1.123771 -0.90943,2.032798 -2.0332,2.033203 h -3.75 c -1.12378,-3.99e-4 -2.0328,-0.909428 -2.0332,-2.033203 V 6.4351109 h -22.1836 V 20.026907 c -4e-4,1.123771 -0.90943,2.032798 -2.0332,2.033203 h -3.75 c -1.12378,-3.99e-4 -2.0328,-0.909428 -2.0332,-2.033203 v -35 c 4e-4,-1.123775 0.90942,-2.032804 2.0332,-2.033203 z m 38.68359,0 h 33.75 c 1.12378,3.99e-4 2.03278,0.909428 2.03321,2.033203 v 35 c -4.1e-4,1.123775 -0.90943,2.032804 -2.03321,2.033203 h -3.75 c -1.12377,-4.05e-4 -2.0328,-0.909432 -2.0332,-2.033203 V -2.5609835 L 208.26562,21.46636 c -0.38191,0.381276 -0.89979,0.594193 -1.43945,0.59375 h -2.5 c -1.12377,-4.05e-4 -2.0328,-0.909432 -2.0332,-2.033203 v -35 c 4e-4,-1.123771 0.90943,-2.032798 2.0332,-2.033203 z m 38.68555,0 h 1.25 c 0.53965,-4.44e-4 1.05754,0.212475 1.43945,0.59375 L 270.97852,8.8647989 V -14.973093 c 4e-4,-1.123775 0.90942,-2.032804 2.0332,-2.033203 h 3.75 c 1.12377,4.05e-4 2.0328,0.909432 2.0332,2.033203 v 35 c -4e-4,1.123771 -0.90943,2.032798 -2.0332,2.033203 h -2.5 c -0.53966,4.43e-4 -1.05754,-0.212474 -1.43945,-0.59375 L 248.79492,-2.5609835 V 20.026907 c -4e-4,1.123771 -0.90943,2.032798 -2.0332,2.033203 h -3.75 c -1.12378,-3.99e-4 -2.0328,-0.909428 -2.0332,-2.033203 v -35 c 4e-4,-1.123775 0.90942,-2.032804 2.0332,-2.033203 z m -193.421876,0.232422 c -0.99342,3.37e-4 -1.800444,0.807362 -1.800782,1.800781 v 35 c 3.38e-4,0.993419 0.807362,1.800444 1.800782,1.800781 h 33.75 c 0.993419,-3.37e-4 1.800444,-0.807362 1.800781,-1.800781 v -3.749999 c -3.37e-4,-0.993419 -0.807362,-1.800444 -1.800781,-1.800781 H 60.1875 L 84.613281,-9.9496555 c 0.337667,-0.3378825 0.527397,-0.7957515 0.527344,-1.2734375 v -3.75 c -3.37e-4,-0.993419 -0.807362,-1.800444 -1.800781,-1.800781 z m 38.683594,0 c -0.993421,3.37e-4 -1.800445,0.807362 -1.800782,1.800781 v 35 c 3.37e-4,0.993419 0.80736,1.800444 1.800782,1.800781 h 33.750002 c 0.99342,-3.38e-4 1.80044,-0.807363 1.80078,-1.800781 v -35 c -3.4e-4,-0.993419 -0.80736,-1.800443 -1.80078,-1.800781 z m 38.685542,0 c -0.99341,3.38e-4 -1.80044,0.807362 -1.80078,1.800781 v 35 c 3.4e-4,0.993418 0.80737,1.800443 1.80078,1.800781 h 33.75 c 0.99343,-3.32e-4 1.80045,-0.807358 1.80079,-1.800781 V 0.65190789 c -3.4e-4,-0.993423 -0.80736,-1.80044899 -1.80079,-1.80078099 h -17.5 c -0.99341,3.38e-4 -1.80044,0.80736199 -1.80078,1.80078099 V 3.7769079 c -5e-5,0.477686 0.18968,0.935555 0.52735,1.273437 l 9.42578,9.4257821 H 132.50977 V -9.4223115 h 28.19921 c 0.99343,-3.32e-4 1.80045,-0.8073595 1.80079,-1.8007815 v -3.75 c -3.4e-4,-0.993423 -0.80736,-1.800449 -1.80079,-1.800781 z m 38.6836,0 c -0.99342,3.38e-4 -1.80045,0.807362 -1.80078,1.800781 v 35 c 3.3e-4,0.993418 0.80736,1.800443 1.80078,1.800781 h 3.75 c 0.99342,-3.38e-4 1.80044,-0.807363 1.80078,-1.800781 V 6.2026889 H 193.8418 V 20.026907 c 3.3e-4,0.993418 0.80736,1.800443 1.80078,1.800781 h 3.75 c 0.99342,-3.38e-4 1.80044,-0.807363 1.80078,-1.800781 v -35 c -3.4e-4,-0.993419 -0.80736,-1.800443 -1.80078,-1.800781 h -3.75 c -0.99342,3.38e-4 -1.80045,0.807362 -1.80078,1.800781 V -1.1488731 H 171.19336 V -14.973093 c -3.4e-4,-0.993419 -0.80736,-1.800443 -1.80078,-1.800781 z m 38.68359,0 c -0.99342,3.38e-4 -1.80044,0.807362 -1.80078,1.800781 v 35 c 3.4e-4,0.993418 0.80736,1.800443 1.80078,1.800781 h 2.5 c 0.47769,5.5e-5 0.93556,-0.189675 1.27344,-0.527343 L 232.52539,-3.1254365 V 20.026907 c 3.4e-4,0.993418 0.80736,1.800443 1.80078,1.800781 h 3.75 c 0.99342,-3.38e-4 1.80045,-0.807363 1.80078,-1.800781 v -35 c -3.3e-4,-0.993419 -0.80736,-1.800443 -1.80078,-1.800781 z m 38.68555,0 c -0.99342,3.38e-4 -1.80045,0.807362 -1.80078,1.800781 v 35 c 3.3e-4,0.993418 0.80736,1.800443 1.80078,1.800781 h 3.75 c 0.99342,-3.38e-4 1.80044,-0.807363 1.80078,-1.800781 V -3.1254365 l 24.42578,24.4257815 c 0.33789,0.337668 0.79575,0.527398 1.27344,0.527343 h 2.5 c 0.99342,-3.38e-4 1.80044,-0.807363 1.80078,-1.800781 v -35 c -3.4e-4,-0.993419 -0.80736,-1.800443 -1.80078,-1.800781 h -3.75 c -0.99342,3.38e-4 -1.80045,0.807362 -1.80078,1.800781 V 9.4292519 L 245.53516,-16.246531 c -0.33789,-0.337666 -0.79576,-0.527395 -1.27344,-0.527343 z m -193.421876,0.199218 h 33.75 c 0.885379,3.01e-4 1.601262,0.716184 1.601562,1.601563 v 3.75 c 4.8e-5,0.424734 -0.168513,0.832384 -0.46875,1.132812 L 59.705078,14.675346 h 23.634766 c 0.885379,3e-4 1.601262,0.716183 1.601562,1.601562 v 3.749999 c -3e-4,0.885379 -0.716183,1.601262 -1.601562,1.601563 h -33.75 c -0.885379,-3.01e-4 -1.601262,-0.716184 -1.601563,-1.601563 v -35 c 3.01e-4,-0.885379 0.716183,-1.601262 1.601563,-1.601563 z m 38.683594,0 h 33.750002 c 0.88538,3.02e-4 1.60126,0.716184 1.60156,1.601563 v 35 c -3e-4,0.885379 -0.71618,1.601261 -1.60156,1.601563 H 88.273438 c -0.88538,-3.01e-4 -1.601263,-0.716184 -1.601563,-1.601563 v -35 c 3e-4,-0.885379 0.716183,-1.601262 1.601563,-1.601563 z m 38.685542,0 h 33.75 c 0.88539,2.97e-4 1.60127,0.716181 1.60157,1.601563 v 3.75 c -3e-4,0.885382 -0.71618,1.6012665 -1.60157,1.6015625 H 132.31055 V 14.675346 h 19.5332 l -9.76758,-9.7656261 c -0.30024,-0.300427 -0.46879,-0.708078 -0.46875,-1.132812 V 0.65190789 c 3e-4,-0.885379 0.71619,-1.601261 1.60156,-1.601563 h 17.5 c 0.88539,2.97e-4 1.60127,0.716181 1.60157,1.601563 V 20.026907 c -3e-4,0.885382 -0.71618,1.601266 -1.60157,1.601563 h -33.75 c -0.88537,-3.02e-4 -1.60126,-0.716184 -1.60156,-1.601563 v -35 c 3e-4,-0.885379 0.71619,-1.601261 1.60156,-1.601563 z m 38.6836,0 h 3.75 c 0.88538,3.02e-4 1.60126,0.716184 1.60156,1.601563 v 14.02343789 h 23.04688 V -14.973093 c 3e-4,-0.885379 0.71618,-1.601261 1.60156,-1.601563 h 3.75 c 0.88538,3.02e-4 1.60126,0.716184 1.60156,1.601563 v 35 c -3e-4,0.885379 -0.71618,1.601261 -1.60156,1.601563 h -3.75 c -0.88538,-3.02e-4 -1.60126,-0.716184 -1.60156,-1.601563 V 6.0034709 H 170.99414 V 20.026907 c -3e-4,0.885379 -0.71618,1.601261 -1.60156,1.601563 h -3.75 c -0.88538,-3.02e-4 -1.60126,-0.716184 -1.60156,-1.601563 v -35 c 3e-4,-0.885379 0.71618,-1.601261 1.60156,-1.601563 z m 38.68359,0 h 33.75 c 0.88538,3.02e-4 1.60126,0.716184 1.60156,1.601563 v 35 c -3e-4,0.885379 -0.71618,1.601261 -1.60156,1.601563 h -3.75 c -0.88538,-3.02e-4 -1.60126,-0.716184 -1.60156,-1.601563 V -3.6078585 L 207.95898,21.15972 c -0.30042,0.300237 -0.70807,0.468798 -1.13281,0.46875 h -2.5 c -0.88538,-3.02e-4 -1.60126,-0.716184 -1.60156,-1.601563 v -35 c 3e-4,-0.885379 0.71618,-1.601261 1.60156,-1.601563 z m 38.68555,0 h 1.25 c 0.42473,-4.6e-5 0.83238,0.168515 1.13281,0.46875 L 271.41016,9.9116739 V -14.973093 c 3e-4,-0.885379 0.71618,-1.601261 1.60156,-1.601563 h 3.75 c 0.88538,3.02e-4 1.60126,0.716184 1.60156,1.601563 v 35 c -3e-4,0.885379 -0.71618,1.601261 -1.60156,1.601563 h -2.5 c -0.42474,4.8e-5 -0.83238,-0.168513 -1.13281,-0.46875 L 248.36328,-3.6078585 V 20.026907 c -3e-4,0.885379 -0.71618,1.601261 -1.60156,1.601563 h -3.75 c -0.88538,-3.02e-4 -1.60126,-0.716184 -1.60156,-1.601563 v -35 c 3e-4,-0.885379 0.71618,-1.601261 1.60156,-1.601563 z m -193.421876,0.265625 c -0.73609,-5.15e-4 -1.336453,0.599848 -1.335938,1.335938 v 35 c -5.15e-4,0.73609 0.599848,1.336453 1.335938,1.335938 h 33.75 c 0.736089,5.15e-4 1.336453,-0.599848 1.335937,-1.335938 v -3.749999 c 5.16e-4,-0.73609 -0.599848,-1.336453 -1.335937,-1.335937 H 59.0625 l 25.220703,-25.220705 c 0.250587,-0.250191 0.392431,-0.589255 0.392578,-0.943359 v -3.75 c 5.16e-4,-0.73609 -0.599848,-1.336453 -1.335937,-1.335938 z m 38.683594,0 c -0.736092,-5.15e-4 -1.336453,0.599848 -1.335938,1.335938 v 35 c -5.15e-4,0.73609 0.599848,1.336453 1.335938,1.335938 h 33.750002 c 0.73608,5.1e-4 1.33643,-0.599851 1.33594,-1.335938 v -35 c 5e-4,-0.736087 -0.59986,-1.336449 -1.33594,-1.335938 z m 38.685542,0 c -0.73608,-5.11e-4 -1.33645,0.599851 -1.33593,1.335938 v 35 c -5.2e-4,0.736087 0.59985,1.336448 1.33593,1.335938 h 33.75 c 0.7361,5.17e-4 1.33646,-0.599847 1.33594,-1.335938 V 0.65190789 c 5.2e-4,-0.736091 -0.59984,-1.336455 -1.33594,-1.335938 h -17.5 c -0.73608,-5.11e-4 -1.33645,0.599851 -1.33593,1.335938 V 3.7769079 c 1.4e-4,0.354103 0.14199,0.693166 0.39257,0.943359 L 152.48633,14.940971 H 132.04492 V -9.8871555 h 28.66406 c 0.7361,5.18e-4 1.33646,-0.5998465 1.33594,-1.3359375 v -3.75 c 5.2e-4,-0.736091 -0.59984,-1.336455 -1.33594,-1.335938 z m 38.6836,0 c -0.73609,-5.17e-4 -1.33645,0.599847 -1.33594,1.335938 v 35 c -5.1e-4,0.736091 0.59985,1.336455 1.33594,1.335938 h 3.75 c 0.73608,5.1e-4 1.33645,-0.599851 1.33594,-1.335938 V 5.7378459 h 23.57812 V 20.026907 c -5.1e-4,0.736091 0.59985,1.336455 1.33594,1.335938 h 3.75 c 0.73608,5.1e-4 1.33645,-0.599851 1.33594,-1.335938 v -35 c 5.1e-4,-0.736087 -0.59986,-1.336449 -1.33594,-1.335938 h -3.75 c -0.73609,-5.17e-4 -1.33645,0.599847 -1.33594,1.335938 V -0.68403011 H 170.72852 V -14.973093 c 5.1e-4,-0.736087 -0.59986,-1.336449 -1.33594,-1.335938 z m 38.68359,0 c -0.73609,-5.17e-4 -1.33645,0.599847 -1.33594,1.335938 v 35 c -5.1e-4,0.736091 0.59985,1.336455 1.33594,1.335938 h 2.5 c 0.35411,-1.48e-4 0.69317,-0.141992 0.94336,-0.392579 l 25.2207,-25.2207025 V 20.026907 c -5.1e-4,0.736091 0.59985,1.336455 1.33594,1.335938 h 3.75 c 0.73609,5.17e-4 1.33645,-0.599847 1.33594,-1.335938 v -35 c 5.1e-4,-0.736091 -0.59985,-1.336455 -1.33594,-1.335938 z m 38.68555,0 c -0.73609,-5.17e-4 -1.33645,0.599847 -1.33594,1.335938 v 35 c -5.1e-4,0.736091 0.59985,1.336455 1.33594,1.335938 h 3.75 c 0.73609,5.17e-4 1.33645,-0.599847 1.33594,-1.335938 V -4.2504365 l 25.2207,25.2207025 c 0.25019,0.250587 0.58925,0.392431 0.94336,0.392579 h 2.5 c 0.73609,5.17e-4 1.33645,-0.599847 1.33594,-1.335938 v -35 c 5.1e-4,-0.736091 -0.59985,-1.336455 -1.33594,-1.335938 h -3.75 c -0.73609,-5.17e-4 -1.33645,0.599847 -1.33594,1.335938 v 25.527345 l -26.4707,-26.470705 c -0.25019,-0.250586 -0.58926,-0.392431 -0.94336,-0.392578 z m -193.421876,0.300782 h 33.75 c 0.573809,-4.02e-4 1.035558,0.461347 1.035156,1.035156 v 3.75 c -1.14e-4,0.274616 -0.108399,0.538392 -0.302734,0.732422 L 58.339844,15.241752 h 25 c 0.573809,-4.02e-4 1.035558,0.461347 1.035156,1.035156 v 3.749999 c 4.02e-4,0.573809 -0.461347,1.035558 -1.035156,1.035156 h -33.75 c -0.573809,4.02e-4 -1.035559,-0.461347 -1.035156,-1.035156 v -35 c -4.03e-4,-0.573809 0.461347,-1.035558 1.035156,-1.035156 z m 38.683594,0 h 33.750002 c 0.5738,-3.99e-4 1.03556,0.461349 1.03515,1.035156 v 35 c 4.1e-4,0.573807 -0.46135,1.035555 -1.03515,1.035156 H 88.273438 c -0.57381,4.02e-4 -1.035558,-0.461347 -1.035157,-1.035156 v -35 c -4.01e-4,-0.573809 0.461347,-1.035558 1.035157,-1.035156 z m 38.685542,0 h 33.75 c 0.57381,-4.04e-4 1.03556,0.461346 1.03516,1.035156 v 3.75 c 4e-4,0.57381 -0.46135,1.035559 -1.03516,1.035156 h -28.96484 v 25.429689 h 21.46484 L 142.47656,4.5093299 c -0.19433,-0.194031 -0.30262,-0.457807 -0.30273,-0.732422 V 0.65190789 c -4e-4,-0.573807 0.46135,-1.035555 1.03515,-1.035156 h 17.5 c 0.57381,-4.04e-4 1.03556,0.461346 1.03516,1.035156 V 20.026907 c 4e-4,0.57381 -0.46135,1.035559 -1.03516,1.035156 h -33.75 c -0.5738,3.99e-4 -1.03555,-0.461349 -1.03515,-1.035156 v -35 c -4e-4,-0.573807 0.46135,-1.035555 1.03515,-1.035156 z m 38.6836,0 h 3.75 c 0.5738,-3.99e-4 1.03556,0.461349 1.03515,1.035156 v 14.58984489 h 24.17969 V -14.973093 c -4e-4,-0.57381 0.46135,-1.03556 1.03516,-1.035156 h 3.75 c 0.5738,-3.99e-4 1.03556,0.461349 1.03515,1.035156 v 35 c 4.1e-4,0.573807 -0.46135,1.035555 -1.03515,1.035156 h -3.75 c -0.57381,4.03e-4 -1.03556,-0.461346 -1.03516,-1.035156 V 5.4370639 H 170.42773 V 20.026907 c 4.1e-4,0.573807 -0.46135,1.035555 -1.03515,1.035156 h -3.75 c -0.57381,4.03e-4 -1.03556,-0.461346 -1.03516,-1.035156 v -35 c -4e-4,-0.57381 0.46135,-1.03556 1.03516,-1.035156 z m 38.68359,0 h 33.75 c 0.57381,-4.04e-4 1.03556,0.461346 1.03516,1.035156 v 35 c 4e-4,0.57381 -0.46135,1.035559 -1.03516,1.035156 h -3.75 c -0.57381,4.03e-4 -1.03556,-0.461346 -1.03515,-1.035156 V -4.9730925 L 207.55859,20.759329 c -0.19403,0.194336 -0.4578,0.30262 -0.73242,0.302734 h -2.5 c -0.57381,4.03e-4 -1.03556,-0.461346 -1.03515,-1.035156 v -35 c -4.1e-4,-0.57381 0.46134,-1.03556 1.03515,-1.035156 z m 38.68555,0 h 1.25 c 0.27461,1.14e-4 0.53839,0.108398 0.73242,0.302734 l 26.98242,26.982423 v -26.250001 c -4e-4,-0.57381 0.46135,-1.03556 1.03516,-1.035156 h 3.75 c 0.57381,-4.04e-4 1.03556,0.461346 1.03516,1.035156 v 35 c 4e-4,0.57381 -0.46135,1.035559 -1.03516,1.035156 h -2.5 c -0.27462,-1.14e-4 -0.53839,-0.108398 -0.73242,-0.302734 L 247.79688,-4.9730925 V 20.026907 c 4e-4,0.57381 -0.46135,1.035559 -1.03516,1.035156 h -3.75 c -0.57381,4.03e-4 -1.03556,-0.461346 -1.03516,-1.035156 v -35 c -4e-4,-0.57381 0.46135,-1.03556 1.03516,-1.035156 z m -193.421876,0.355468 c -0.373101,5.09e-4 -0.67918,0.306587 -0.679688,0.679688 v 35 c 5.09e-4,0.373101 0.306587,0.679179 0.679688,0.679688 h 33.75 c 0.3731,-5.09e-4 0.679179,-0.306587 0.679687,-0.679688 V 16.276908 C 84.019023,15.903807 83.712944,15.59773 83.339844,15.597221 H 57.480469 l 26.339843,-26.339845 c 0.127404,-0.127624 0.199194,-0.300138 0.199219,-0.480469 v -3.75 c -5.08e-4,-0.373101 -0.306587,-0.679179 -0.679687,-0.679688 z m 38.683594,0 c -0.373104,5.09e-4 -0.67918,0.306587 -0.679688,0.679688 v 35 c 5.08e-4,0.373101 0.306584,0.679179 0.679688,0.679688 h 33.750002 c 0.3731,-5.08e-4 0.67919,-0.306586 0.67968,-0.679688 v -35 c -5e-4,-0.373102 -0.30658,-0.67918 -0.67968,-0.679688 z m 38.685542,0 c -0.37309,5.16e-4 -0.67917,0.306591 -0.67968,0.679688 v 35 c 5.1e-4,0.373096 0.30659,0.679172 0.67968,0.679688 h 33.75 c 0.37311,-5.08e-4 0.67918,-0.306586 0.67969,-0.679688 V 0.65190789 c -5.1e-4,-0.373102 -0.30658,-0.67918 -0.67969,-0.679688 h -17.5 c -0.37309,5.16e-4 -0.67917,0.306591 -0.67968,0.679688 V 3.7769079 c 2e-5,0.180331 0.0718,0.352844 0.19922,0.480469 l 11.33984,11.3398441 h -22.67969 v -26.140627 h 29.32031 c 0.37311,-5.07e-4 0.67918,-0.306585 0.67969,-0.679687 v -3.75 c -5.1e-4,-0.373102 -0.30658,-0.67918 -0.67969,-0.679688 z m 38.6836,0 c -0.3731,5.08e-4 -0.67918,0.306586 -0.67969,0.679688 v 35 c 5.1e-4,0.373102 0.30659,0.67918 0.67969,0.679688 h 3.75 c 0.3731,-5.08e-4 0.67918,-0.306586 0.67969,-0.679688 V 5.0815949 h 24.89062 V 20.026907 c 5.1e-4,0.373102 0.30659,0.67918 0.67969,0.679688 h 3.75 c 0.3731,-5.08e-4 0.67918,-0.306586 0.67969,-0.679688 v -35 c -5.1e-4,-0.373102 -0.30659,-0.67918 -0.67969,-0.679688 h -3.75 c -0.3731,5.08e-4 -0.67918,0.306586 -0.67969,0.679688 V -0.02778011 H 170.07227 V -14.973093 c -5.1e-4,-0.373102 -0.30659,-0.67918 -0.67969,-0.679688 z m 38.68359,0 c -0.3731,5.08e-4 -0.67918,0.306586 -0.67969,0.679688 v 35 c 5.1e-4,0.373102 0.30659,0.67918 0.67969,0.679688 h 2.5 c 0.18034,-2.4e-5 0.35284,-0.07181 0.48047,-0.199219 L 233.64648,-5.8324675 V 20.026907 c 5.1e-4,0.373102 0.30659,0.67918 0.67969,0.679688 h 3.75 c 0.3731,-5.08e-4 0.67918,-0.306586 0.67969,-0.679688 v -35 c -5.1e-4,-0.373102 -0.30659,-0.67918 -0.67969,-0.679688 z m 38.68555,0 c -0.3731,5.08e-4 -0.67918,0.306586 -0.67969,0.679688 v 35 c 5.1e-4,0.373102 0.30659,0.67918 0.67969,0.679688 h 3.75 c 0.3731,-5.08e-4 0.67918,-0.306586 0.67969,-0.679688 V -5.8324675 l 26.33984,26.3398435 c 0.12762,0.127402 0.30014,0.199191 0.48047,0.199219 h 2.5 c 0.3731,-5.08e-4 0.67918,-0.306586 0.67969,-0.679688 v -35 c -5.1e-4,-0.373102 -0.30659,-0.67918 -0.67969,-0.679688 h -3.75 c -0.3731,5.08e-4 -0.67918,0.306586 -0.67969,0.679688 v 27.109376 l -27.58984,-27.589845 c -0.12762,-0.127402 -0.30014,-0.199191 -0.48047,-0.199219 z m -193.421876,0.398438 h 33.75 c 0.15731,2.14e-4 0.281035,0.123939 0.28125,0.28125 v 3.75 c -1.1e-5,0.07454 -0.02937,0.146467 -0.08203,0.199219 L 56.51758,15.995658 h 26.822266 c 0.15731,2.15e-4 0.281035,0.12394 0.28125,0.28125 v 3.749999 c -2.15e-4,0.15731 -0.12394,0.281035 -0.28125,0.28125 h -33.75 c -0.157311,-2.14e-4 -0.281036,-0.123939 -0.28125,-0.28125 v -35 c 2.14e-4,-0.157311 0.123939,-0.281036 0.28125,-0.28125 z m 38.683594,0 h 33.750002 c 0.15731,2.14e-4 0.28103,0.123939 0.28125,0.28125 v 35 c -2.2e-4,0.157311 -0.12394,0.281036 -0.28125,0.28125 H 88.273438 c -0.157311,-2.14e-4 -0.281038,-0.123939 -0.28125,-0.28125 v -35 c 2.13e-4,-0.157311 0.123939,-0.281036 0.28125,-0.28125 z m 38.685542,0 h 33.75 c 0.15732,2.14e-4 0.28104,0.123939 0.28125,0.28125 v 3.75 c -2.1e-4,0.157311 -0.12393,0.281036 -0.28125,0.28125 h -29.71875 v 26.937501 h 24.04102 L 143.00977,3.9761269 c -0.0527,-0.05275 -0.082,-0.124682 -0.082,-0.199219 V 0.65190789 c 2.2e-4,-0.157309 0.12395,-0.281033 0.28125,-0.28125 h 17.5 c 0.15732,2.14e-4 0.28104,0.123939 0.28125,0.28125 V 20.026907 c -2.1e-4,0.157311 -0.12393,0.281036 -0.28125,0.28125 h -33.75004 c -0.1573,-2.17e-4 -0.28103,-0.123942 -0.28125,-0.28125 v -35 c 2.2e-4,-0.157309 0.12395,-0.281033 0.28125,-0.28125 z m 38.6836,0 h 3.75 c 0.15731,2.14e-4 0.28103,0.123939 0.28125,0.28125 V 0.37065789 h 25.6875 V -14.973093 c 2.1e-4,-0.157311 0.12394,-0.281036 0.28125,-0.28125 h 3.75 c 0.15731,2.14e-4 0.28103,0.123939 0.28125,0.28125 v 35 c -2.2e-4,0.157311 -0.12394,0.281036 -0.28125,0.28125 h -3.75 c -0.15731,-2.14e-4 -0.28104,-0.123939 -0.28125,-0.28125 V 4.6831579 h -25.6875 V 20.026907 c -2.2e-4,0.157311 -0.12394,0.281036 -0.28125,0.28125 h -3.75 c -0.15731,-2.14e-4 -0.28104,-0.123939 -0.28125,-0.28125 v -35 c 2.1e-4,-0.157311 0.12394,-0.281036 0.28125,-0.28125 z m 38.68359,0 h 33.75 c 0.15731,2.14e-4 0.28104,0.123939 0.28125,0.28125 v 35 c -2.1e-4,0.157311 -0.12394,0.281036 -0.28125,0.28125 h -3.75 c -0.15731,-2.14e-4 -0.28103,-0.123939 -0.28125,-0.28125 V -6.7953585 L 207.02539,20.226126 c -0.0528,0.05266 -0.12468,0.08202 -0.19922,0.08203 h -2.5 c -0.15731,-2.14e-4 -0.28103,-0.123939 -0.28125,-0.28125 v -35 c 2.2e-4,-0.157311 0.12394,-0.281036 0.28125,-0.281249 z m 38.68555,0 h 1.25 c 0.0745,1.1e-5 0.14647,0.02937 0.19922,0.08203 l 28.26953,28.271486 v -28.072267 c 2.1e-4,-0.157311 0.12394,-0.281036 0.28125,-0.28125 h 3.75 c 0.15731,2.14e-4 0.28103,0.123939 0.28125,0.28125 v 35 c -2.2e-4,0.157311 -0.12394,0.281036 -0.28125,0.28125 h -2.5 c -0.0745,-1.1e-5 -0.14647,-0.02937 -0.19922,-0.08203 L 247.04297,-6.7953585 V 20.026907 c -2.2e-4,0.157311 -0.12394,0.281036 -0.28125,0.28125 h -3.75 c -0.15731,-2.14e-4 -0.28104,-0.123939 -0.28125,-0.28125 v -35 c 2.1e-4,-0.157311 0.12394,-0.281036 0.28125,-0.28125 z m -193.421876,0.28125 v 35 h 33.75 v -3.749999 h -27.5 l 27.5,-27.500001 v -3.75 z m 38.683594,0 v 35 h 33.750002 v -35 z m 38.685542,0 v 35 h 33.75 V 0.65190789 h -17.5 V 3.7769079 l 12.5,12.5000001 h -25 v -27.500001 h 30 v -3.75 z m 38.6836,0 v 35 h 3.75 V 4.4019079 h 26.25 V 20.026907 h 3.75 v -35 h -3.75 V 0.65190789 h -26.25 V -14.973093 Z m 38.68359,0 v 35 h 2.5 l 27.5,-27.4999995 V 20.026907 h 3.75 v -35 z m 38.68555,0 v 35 h 3.75 V -7.4730925 l 27.5,27.4999995 h 2.5 v -35 h -3.75 v 28.750001 l -28.75,-28.750001 z m -189.671876,3.75 h 25 l -25,25.000001 z m 38.683594,0 H 118.27344 V 16.276908 H 92.023438 Z m 116.052732,0 h 25 l -25,25.000001 z m -154.455076,0.28125 v 0.199219 23.841798 l 24.041015,-24.041017 z m 38.683594,0 v 0.199219 26.738282 h 25.687502 v -26.937501 z m 116.052732,0 v 0.199219 23.841798 l 24.04102,-24.041017 z M 54.019531,-10.543406 H 76.699219 L 54.019531,12.136283 Z m 38.683594,0 H 117.59375 V 15.597221 H 92.703125 Z m 116.052735,0 h 22.67969 L 208.75586,12.136283 Z M 54.375,-10.187937 v 0.150391 21.314454 l 21.464844,-21.464845 z m 38.683594,0 v 0.150391 25.279298 h 24.179686 v -25.429689 z m 116.052736,0 v 0.150391 21.314454 l 21.46484,-21.464845 z M 54.675781,-9.8871555 H 75.117188 L 54.675781,10.554252 Z m 38.683594,0 H 116.9375 V 14.940971 H 93.359375 Z m 116.052735,0 h 20.44141 L 209.41211,10.554252 Z m -154.470704,0.265625 v 0.09961 19.4335944 L 74.474609,-9.6215305 Z m 38.683594,0 v 0.09961 24.1972665 h 23.04688 V -9.6215305 Z m 116.05273,0 v 0.09961 19.4335944 L 229.21094,-9.6215305 Z M 55.140625,-9.4223115 H 73.992188 L 55.140625,9.4292519 Z m 38.683594,0 H 116.47266 V 14.476127 H 93.824219 Z m 116.052731,0 h 18.85157 L 209.87695,9.4292519 Z m -154.503903,0.232422 v 0.05078 18.0039074 L 73.427734,-9.1898905 Z m 38.683594,0 v 0.05078 23.3828135 H 116.24023 V -9.1898905 Z m 116.052739,0 v 0.05078 18.0039074 L 228.16406,-9.1898905 Z M 55.474609,-9.0883265 H 73.185547 L 55.474609,8.6226109 Z m 38.683594,0 H 116.13867 V 14.142142 H 94.158203 Z m 116.052737,0 h 17.71094 L 210.21094,8.6226109 Z M 148.83398,4.4019079 h 8.125 v 8.1250001 z m 0.67774,0.28125 0.3418,0.339844 6.82421,6.8261721 V 4.6831579 Z m 0.96289,0.398437 h 5.80469 v 5.8046881 z m 0.85937,0.355469 0.25586,0.25586 4.33399,4.3339841 V 5.4370639 Z m 0.72266,0.300782 h 3.56641 v 3.566406 z m 0.64258,0.265625 0.17187,0.169921 2.48633,2.488282 v -2.658203 z m 0.48242,0.199218 h 1.97656 v 1.976563 z m 0.56445,0.232422 0.0859,0.08594 1.09375,1.09375 v -1.179688 z m 0.24219,0.101563 h 0.83594 v 0.835937 z" /></g><text
   id="text836"
   y="28.354374"
   x="284.59784"
   style="font-size:40px;line-height:1.25;font-family:'Nordic Alternative';-inkscape-font-specification:'Nordic Alternative'"
   xml:space="preserve"><tspan
     y="28.354374"
     x="284.59784"
     id="tspan834"
     sodipodi:role="line"></tspan></text><text
   id="text840"
   y="32.484428"
   x="-2.1870298"
   style="font-style:normal;font-variant:normal;font-weight:normal;font-stretch:normal;font-size:35.8323px;line-height:1.25;font-family:'Agency FB';-inkscape-font-specification:'Agency FB';fill:#ffffff;stroke-width:0.895809"
   xml:space="preserve"><tspan
     style="stroke-width:0.895809"
     y="32.484428"
     x="-2.1870298"
     id="tspan838"
     sodipodi:role="line">Design: </tspan></text></svg>
