<?xml version="1.0" encoding="UTF-8" standalone="no"?>
<svg
   xmlns:dc="http://purl.org/dc/elements/1.1/"
   xmlns:cc="http://creativecommons.org/ns#"
   xmlns:rdf="http://www.w3.org/1999/02/22-rdf-syntax-ns#"
   xmlns:svg="http://www.w3.org/2000/svg"
   xmlns="http://www.w3.org/2000/svg"
   xmlns:xlink="http://www.w3.org/1999/xlink"
   xmlns:sodipodi="http://sodipodi.sourceforge.net/DTD/sodipodi-0.dtd"
   xmlns:inkscape="http://www.inkscape.org/namespaces/inkscape"
   version="1.1"
   id="svg2"
   width="192"
   height="192"
   viewBox="0 0 192 192"
   sodipodi:docname="android-chrome-192x192.svg"
   inkscape:version="1.0 (4035a4fb49, 2020-05-01)"
   inkscape:export-filename="D:\Eoghan\EoghanStaunton.github.io\static\favicon\android-chrome-192x192.png"
   inkscape:export-xdpi="96"
   inkscape:export-ydpi="96">
  <metadata
     id="metadata8">
    <rdf:RDF>
      <cc:Work
         rdf:about="">
        <dc:format>image/svg+xml</dc:format>
        <dc:type
           rdf:resource="http://purl.org/dc/dcmitype/StillImage" />
        <dc:title />
      </cc:Work>
    </rdf:RDF>
  </metadata>
  <defs
     id="defs6">
    <linearGradient
       gradientTransform="matrix(6.896618,0,0,6.896618,-1500.8028,62.031282)"
       inkscape:collect="always"
       xlink:href="#linearGradient1431"
       id="linearGradient1433-5"
       x1="218.6898"
       y1="9.7354679"
       x2="237.3262"
       y2="1.6656761"
       gradientUnits="userSpaceOnUse" />
    <linearGradient
       id="linearGradient1431"
       inkscape:collect="always">
      <stop
         id="stop1427"
         offset="0"
         style="stop-color:#00b5ae;stop-opacity:1" />
      <stop
         id="stop1429"
         offset="1"
         style="stop-color:#90009e;stop-opacity:1" />
    </linearGradient>
  </defs>
  <sodipodi:namedview
     inkscape:document-rotation="0"
     pagecolor="#ffffff"
     bordercolor="#666666"
     borderopacity="1"
     objecttolerance="10"
     gridtolerance="10"
     guidetolerance="10"
     inkscape:pageopacity="0"
     inkscape:pageshadow="2"
     inkscape:window-width="1920"
     inkscape:window-height="1001"
     id="namedview4"
     showgrid="false"
     inkscape:zoom="2.1614583"
     inkscape:cx="82.841579"
     inkscape:cy="176.06684"
     inkscape:window-x="-9"
     inkscape:window-y="-9"
     inkscape:window-maximized="1"
     inkscape:current-layer="g10" />
  <g
     inkscape:groupmode="layer"
     inkscape:label="Image"
     id="g10">
    <path
       inkscape:export-ydpi="300"
       inkscape:export-xdpi="300"
       d="m 80.102612,4.980236 c -3.22072,0.01643 -6.379506,1.7497201 -8.122217,4.4584745 a 0.11035691,0.11035691 0 0 0 0,0.028297 L 44.381377,52.544186 c -1.618269,2.522433 -1.985205,5.796125 -0.944429,8.606881 1.040698,2.810703 3.458663,5.066506 6.3295,5.926798 l 64.752972,19.409152 44.23546,69.197193 -9.55132,-2.86896 -37.27155,-58.124068 c -1.37196,-2.140593 -3.60322,-3.710767 -6.08715,-4.255334 -2.48389,-0.544557 -5.1749,-0.06553 -7.316761,1.304406 -2.140599,1.371957 -3.710759,3.606799 -4.255326,6.090747 -0.544847,2.483839 -0.06191,5.171329 1.307979,7.313169 l 39.210238,61.16768 c 1.24041,1.93341 3.18795,3.407 5.38865,4.06643 l 38.05206,11.43663 c 3.77357,1.13486 8.16939,-0.29183 10.54574,-3.43561 2.37624,-3.14373 2.55259,-7.76282 0.43101,-11.08381 L 128.94259,73.004811 v -0.0144 a 0.11035691,0.11035691 0 0 0 0,-0.0144 c -1.24173,-1.931853 -3.1998,-3.394164 -5.39928,-4.052195 L 67.668058,52.166234 80.156055,32.689376 94.08387,54.511286 c 1.371986,2.140592 3.603246,3.710766 6.08721,4.255344 2.48381,0.544557 5.17489,0.06204 7.31675,-1.307963 2.14369,-1.368982 3.7214,-3.602992 4.26955,-6.087192 0.54832,-2.484244 0.0619,-5.169275 -1.30793,-7.313171 L 88.345909,9.4671621 C 86.583998,6.7142831 83.37134,4.9564084 80.102612,4.9801703 Z m 0,0.2174035 c 3.188576,-0.023247 6.335309,1.6905158 8.0545,4.3765041 L 110.26056,44.165603 c 1.33627,2.093313 1.81442,4.728238 1.27944,7.1528 -0.53516,2.424609 -2.06971,4.618734 -4.16264,5.955333 -2.09095,1.337509 -4.72826,1.811022 -7.15281,1.279444 -2.424492,-0.531526 -4.612216,-2.061938 -5.951777,-4.151966 L 80.248735,32.433155 a 0.11035691,0.11035691 0 0 0 -0.185466,0 L 67.400574,52.180881 a 0.11035691,0.11035691 0 0 0 0.06873,0.160348 l 56.021356,16.796784 c 2.14813,0.642628 4.05538,2.063165 5.26744,3.948831 a 0.11035691,0.11035691 0 0 0 0,0.01112 l 60.26135,94.305056 c 2.06802,3.2376 1.88527,7.77675 -0.43102,10.84147 -2.31662,3.06467 -6.62422,4.4637 -10.30345,3.35722 l -38.052,-11.43658 c -2.14855,-0.6438 -4.04189,-2.07149 -5.25321,-3.9595 L 95.766092,105.03786 c -1.337568,-2.09092 -1.811089,-4.72827 -1.27948,-7.152806 0.531731,-2.424452 2.058429,-4.615785 4.148394,-5.955338 2.090874,-1.337499 4.728304,-1.811022 7.152824,-1.279444 2.42448,0.531515 4.61577,2.05838 5.95533,4.148414 l 37.29647,58.163274 a 0.11035691,0.11035691 0 0 0 0.069,0.0538 l 9.87559,2.96517 a 0.11035691,0.11035691 0 0 0 0.12154,-0.16035 L 114.67992,86.341181 a 0.11035691,0.11035691 0 0 0 -0.0687,-0.05378 L 49.818979,66.86397 c -2.80168,-0.839543 -5.153669,-3.052356 -6.169151,-5.794957 -1.015433,-2.74257 -0.66348,-5.956196 0.915901,-8.417996 L 72.168362,9.5595992 a 0.11035691,0.11035691 0 0 0 0,-0.011116 c 1.700111,-2.642574 4.791001,-4.3352167 7.933315,-4.3515629 z m 0,0.2957905 C 77.05114,5.5088436 74.062477,7.1435328 72.411617,9.7095577 L 44.809032,52.800985 c -1.533116,2.389715 -1.873395,5.512818 -0.887376,8.175642 0.98592,2.662738 3.274538,4.801722 5.994502,5.616758 l 64.924062,19.462602 45.05867,70.501583 -11.01968,-3.31088 -37.37847,-58.298707 c -1.29964,-2.02786 -3.42424,-3.497168 -5.77704,-4.012994 -2.35321,-0.515931 -4.91012,-0.0614 -6.938981,1.236708 -2.02791,1.299695 -3.497222,3.42786 -4.013015,5.780686 -0.515864,2.353157 -0.06191,4.906567 1.2367,6.935407 l 39.213856,61.16765 c 1.1751,1.83156 3.01905,3.21375 5.10353,3.83835 l 38.05205,11.43662 c 3.5756,1.07538 7.73123,-0.29324 9.98263,-3.27166 2.25134,-2.97849 2.42678,-7.3494 0.41726,-10.49578 a 0.13794617,0.13794617 0 0 0 0,-0.0111 L 128.51134,73.24731 c -1.17931,-1.834735 -3.02679,-3.217532 -5.11776,-3.838352 L 66.887565,52.462477 80.156055,31.759619 94.515085,54.240873 a 0.13794617,0.13794617 0 0 0 0,0.0144 c 1.299751,2.027857 3.424331,3.497165 5.777155,4.012991 2.34918,0.515032 4.89782,0.0559 6.92468,-1.236696 2.03078,-1.29689 3.50805,-3.427574 4.02731,-5.780696 0.5193,-2.352976 0.0705,-4.879583 -1.22604,-6.910442 a 0.13794617,0.13794617 0 0 0 0,-0.02476 L 87.914747,9.7242789 C 86.245435,7.1161885 83.199191,5.4713735 80.102612,5.4938947 Z m 0,0.2709276 C 83.099411,5.74237 86.05674,7.3600111 87.672401,9.8842478 L 109.77585,44.475714 a 0.13794617,0.13794617 0 0 0 0,0.0144 c 1.25623,1.96754 1.70392,4.428171 1.20104,6.70731 -0.50277,2.279014 -1.95324,4.332039 -3.92027,5.588236 -1.96393,1.252575 -4.43663,1.713914 -6.71091,1.215291 -2.27895,-0.499587 -4.32929,-1.941752 -5.588278,-3.906056 a 0.13794617,0.13794617 0 0 0 0,-0.0144 L 80.277261,31.410362 a 0.13794617,0.13794617 0 0 0 -0.242312,0 L 66.538392,52.462477 a 0.13794617,0.13794617 0 0 0 0.08212,0.217402 l 56.694888,16.99636 c 2.02591,0.601522 3.81115,1.95364 4.95385,3.731432 l 60.26609,94.276549 v 0.0144 a 0.13794617,0.13794617 0 0 0 0,0.0283 c 1.94354,3.04256 1.78492,7.28786 -0.3916,10.16787 -2.17708,2.8801 -6.2262,4.20447 -9.68324,3.16477 l -38.05208,-11.43303 c -2.01957,-0.60518 -3.80468,-1.95694 -4.94315,-3.73142 L 96.254969,104.72735 c -1.257163,-1.96535 -1.714913,-4.44298 -1.215327,-6.721581 0.500002,-2.278923 1.941722,-4.332804 3.906028,-5.591795 1.96538,-1.257181 4.44304,-1.711289 6.7216,-1.211735 2.27892,0.499587 4.33277,1.941752 5.59177,3.906063 l 37.40704,58.337888 a 0.13794617,0.13794617 0 0 0 0.0786,0.0538 l 11.45095,3.43562 a 0.13794617,0.13794617 0 0 0 0.16069,-0.21381 L 115.0575,85.856457 a 0.13794617,0.13794617 0 0 0 -0.0821,-0.05378 L 49.997949,66.322208 c -2.633017,-0.788973 -4.851215,-2.875184 -5.80565,-5.452809 -0.954411,-2.57752 -0.622065,-5.59475 0.86241,-7.908353 L 72.653803,9.8696229 C 74.251707,7.3859135 77.149429,5.778901 80.102385,5.7639807 Z m 0,0.3635255 c -2.846651,0.015414 -5.626904,1.5369802 -7.167019,3.9310179 l -27.599099,43.09142 c -1.430174,2.229185 -1.743065,5.114203 -0.823245,7.598288 0.919869,2.484276 3.054229,4.492848 5.591734,5.253237 l 65.141457,19.516063 46.10653,72.119601 -12.87645,-3.8526 -37.49963,-58.48758 c -1.21223,-1.891382 -3.19376,-3.275196 -5.38868,-3.756394 -2.19498,-0.481177 -4.56195,-0.0524 -6.454246,1.158284 -1.891407,1.212242 -3.275219,3.193756 -3.756361,5.388646 -0.481376,2.194974 -0.05509,4.558444 1.158266,6.450714 l 39.210201,61.16766 c 1.0961,1.70839 2.82428,3.01338 4.7686,3.59601 l 38.05205,11.43664 c 3.337,1.00358 7.19395,-0.27857 9.29471,-3.05786 2.10114,-2.77963 2.2678,-6.84294 0.39243,-9.7794 L 127.98792,73.596572 c -1.10003,-1.711331 -2.8323,-3.016891 -4.78282,-3.596002 L 65.904249,52.826013 80.156456,30.587121 95.039368,53.905872 c 1.212291,1.891367 3.193831,3.27517 5.388662,3.75639 2.19503,0.481177 4.562,0.0524 6.45429,-1.158284 1.89446,-1.20985 3.27216,-3.194196 3.75639,-5.388651 0.4841,-2.194742 0.0619,-4.556289 -1.14404,-6.450708 L 87.391199,10.073159 C 85.833548,7.6395474 82.991817,6.1068864 80.102993,6.1278831 Z m 0,0.4026936 c 2.739599,-0.02022 5.458726,1.4528386 6.935397,3.7599503 L 109.14503,44.87843 c 1.14822,1.798858 1.5504,4.074533 1.09054,6.158463 -0.46001,2.084188 -1.77276,3.969395 -3.57105,5.117791 -1.79711,1.150017 -4.07153,1.561568 -6.15491,1.104813 -2.08339,-0.456765 -3.966587,-1.774901 -5.117733,-3.571054 L 80.330705,30.102386 a 0.20691922,0.20691922 0 0 0 -0.348945,0 L 65.405288,52.840237 a 0.20691922,0.20691922 0 0 0 0.121032,0.310061 l 57.5717,17.25653 c 1.8523,0.549935 3.49551,1.781518 4.5404,3.407111 l 60.26245,94.301511 c 1.77591,2.78026 1.62593,6.69137 -0.36342,9.32321 -1.98968,2.63221 -5.70449,3.84398 -8.86352,2.89391 l -38.05205,-11.43664 c -1.84656,-0.55331 -3.48522,-1.78457 -4.52617,-3.40711 L 96.885396,104.32116 c -1.14993,-1.79712 -1.561537,-4.07156 -1.104723,-6.154903 0.456533,-2.083427 1.774801,-3.966584 3.570948,-5.117796 1.797139,-1.150017 4.071579,-1.561557 6.154999,-1.104813 2.08339,0.456765 3.96655,1.774901 5.11774,3.571049 l 37.54235,58.551733 a 0.20691922,0.20691922 0 0 0 0.12153,0.0962 l 13.48236,4.0415 a 0.20691922,0.20691922 0 0 0 0.22816,-0.31006 L 115.55645,85.236304 a 0.20691922,0.20691922 0 0 0 -0.12153,-0.09623 L 50.211562,65.595535 c -2.406947,-0.72123 -4.44855,-2.626131 -5.320992,-4.982366 -0.872467,-2.356383 -0.562054,-5.133761 0.79482,-7.24902 L 73.28441,10.276292 c 1.4606,-2.270401 4.118175,-3.7316006 6.817775,-3.7456994 z m 0.01264,0.3100644 c -2.610556,0.0139 -5.162434,1.3997332 -6.575428,3.5960139 a 0.27589229,0.27589229 0 0 0 0,0.0144 0.27589229,0.27589229 0 0 0 -0.01264,0.0144 L 45.942362,53.542616 c -1.305757,2.04293 -1.597749,4.689461 -0.755503,6.963918 0.843308,2.277568 2.779848,4.110377 5.107076,4.807735 L 115.70263,84.898052 162.996,158.87804 148.01671,154.40531 110.36746,95.675365 c -1.1114,-1.734039 -2.9168,-2.994491 -4.92894,-3.43562 -2.01256,-0.441235 -4.17762,-0.04425 -5.912523,1.065612 a 0.27589229,0.27589229 0 0 0 -0.01264,0 c -1.734048,1.111377 -2.994393,2.916745 -3.435596,4.928896 -0.435186,1.983927 -0.04854,4.111947 1.026396,5.834167 a 0.27589229,0.27589229 0 0 0 0,0.004 0.27589229,0.27589229 0 0 0 0.04145,0.0748 0.27589229,0.27589229 0 0 0 0,0.0144 l 39.210313,61.16764 c 1.00468,1.5661 2.56936,2.75191 4.35149,3.28594 l 38.05208,11.43664 c 1.52671,0.45918 3.18541,0.44146 4.70081,-0.0538 1.51553,-0.49505 2.87671,-1.4756 3.83831,-2.74779 0.96151,-1.27196 1.51616,-2.82702 1.57893,-4.41928 0.0619,-1.59281 -0.36747,-3.19704 -1.22611,-4.54044 L 127.41128,74.042359 a 0.27589229,0.27589229 0 0 0 -0.0283,-0.05378 0.27589229,0.27589229 0 0 0 0,-0.0144 c -1.0084,-1.568406 -2.57801,-2.755072 -4.36574,-3.285877 L 64.800405,53.23215 80.157446,29.268311 95.621306,53.460236 a 0.27589229,0.27589229 0 0 0 0.02828,0.05382 0.27589229,0.27589229 0 0 0 0,0.0144 c 1.111428,1.734042 2.920365,2.994494 4.932554,3.435623 2.01254,0.441246 4.1775,0.04415 5.91248,-1.065601 1.73654,-1.108948 3.00575,-2.916197 3.44992,-4.928914 0.44413,-2.012053 0.055,-4.17543 -1.05142,-5.91256 L 86.789018,10.465233 C 85.360815,8.2337749 82.771258,6.8214482 80.12093,6.8407205 Z m 0,0.5381415 c 2.449673,-0.018187 4.887145,1.3180275 6.208341,3.3821584 l 22.103437,34.591463 c 1.02744,1.609358 1.38094,3.641413 0.96941,5.506274 -0.41107,1.864177 -1.59445,3.555357 -3.20394,4.583213 -1.60804,1.028634 -3.64585,1.388757 -5.50987,0.980075 -1.851897,-0.406004 -3.52272,-1.574101 -4.554679,-3.164778 a 0.27589229,0.27589229 0 0 0 -0.01006,-0.0144 c -0.0026,-0.0055 -0.01264,-0.0053 -0.01264,-0.01038 a 0.27589229,0.27589229 0 0 0 0,-0.0144 L 80.384703,28.609113 a 0.27589229,0.27589229 0 0 0 -0.455858,0 L 64.140616,53.242969 a 0.27589229,0.27589229 0 0 0 0.149585,0.420556 l 58.565989,17.563028 c 1.64556,0.48862 3.10547,1.580157 4.04143,3.018649 0.0106,0.01112 0.0177,0.0144 0.0283,0.02477 a 0.27589229,0.27589229 0 0 0 0,0.0144 l 60.26596,94.305048 c 0.79625,1.24659 1.2025,2.73804 1.14403,4.21613 -0.055,1.47863 -0.57656,2.94015 -1.46832,4.11988 -0.8916,1.1795 -2.1617,2.08546 -3.56747,2.54466 -1.40601,0.45917 -2.96372,0.46876 -4.38011,0.0428 l -38.05207,-11.43668 c -1.65285,-0.49525 -3.12057,-1.59151 -4.05217,-3.0436 L 97.630443,103.90416 v -0.0144 a 0.27589229,0.27589229 0 0 0 -0.02828,-0.0248 0.27589229,0.27589229 0 0 0 0,-0.0144 c -1.028643,-1.60803 -1.388813,-3.64584 -0.980107,-5.509833 0.406231,-1.851896 1.574078,-3.519199 3.164803,-4.551146 a 0.27589229,0.27589229 0 0 0 0.01263,-0.0144 c 0.0026,-0.0032 0.0026,-0.01111 0.01264,-0.0144 a 0.27589229,0.27589229 0 0 0 0.01264,0 c 1.608031,-1.028645 3.645821,-1.392325 5.509841,-0.983632 1.86448,0.408756 3.54947,1.586053 4.57963,3.193269 l 37.70274,58.811912 a 0.27589229,0.27589229 0 0 0 0.1463,0.12118 l 15.78792,4.7255 a 0.27589229,0.27589229 0 0 0 0.31027,-0.41696 L 116.10186,84.523659 a 0.27589229,0.27589229 0 0 0 -0.14958,-0.121181 L 50.447512,64.776149 c -2.152983,-0.645179 -3.973543,-2.350042 -4.754264,-4.458453 -0.779053,-2.103922 -0.509674,-4.588304 0.698474,-6.47924 L 73.99436,10.747041 a 0.27589229,0.27589229 0 0 0 0,-0.0144 c 1.306134,-2.0301935 3.700671,-3.3410605 6.115706,-3.3536539 z m 0,0.4169691 A 6.8973072,6.8973072 0 0 0 74.348765,10.96409 L 46.74974,54.051954 a 6.8973072,6.8973072 0 0 0 3.824136,10.331826 l 65.747254,19.70851 48.88276,76.4676 -17.80888,-5.34945 -37.83459,-59.01149 a 6.896618,6.896618 0 0 0 -9.52286,-2.084899 6.896618,6.896618 0 0 0 -2.088443,9.522819 l 39.210233,61.16765 a 6.8973072,6.8973072 0 0 0 3.82414,2.87966 l 38.05202,11.43664 a 6.8973072,6.8973072 0 0 0 7.80147,-10.31756 L 126.57114,74.501749 A 6.8973072,6.8973072 0 0 0 122.7328,71.61852 L 63.290081,53.795344 80.154611,27.475749 96.452408,53.000582 a 6.896618,6.896618 0 0 0 9.522882,2.088458 6.896618,6.896618 0 0 0 2.10271,-9.52281 L 85.974543,10.97477 A 6.8973072,6.8973072 0 0 0 80.115448,7.7957369 Z M 38.827139,69.220025 a 0.11035691,0.11035691 0 0 0 -0.07858,0.03949 c -3.152848,0.09009 -6.222264,1.790189 -7.922551,4.447782 L 3.4693358,116.40669 c -1.6182685,2.52245 -1.9816173,5.79614 -0.9408669,8.60687 1.0407503,2.81073 3.4586121,5.06653 6.3295252,5.92682 l 96.9958459,29.13511 c 2.43689,0.73382 5.15307,0.46406 7.39512,-0.74131 2.24195,-1.20531 3.96884,-3.32876 4.70085,-5.76643 0.73309,-2.43962 0.45724,-5.16343 -0.75199,-7.40583 -1.20711,-2.23882 -3.33041,-3.9601 -5.76642,-4.69014 a 0.11035691,0.11035691 0 0 0 -0.0283,0 l -84.6433,-25.44287 3.891727,-6.03372 53.637151,16.17667 c 3.778877,1.14313 8.18139,-0.29897 10.55999,-3.4499 2.375919,-3.1474 2.547587,-7.76365 0.420678,-11.0838 a 0.11035691,0.11035691 0 0 0 0,-0.0144 L 77.300001,83.607779 v -0.0144 a 0.11035691,0.11035691 0 0 0 0,-0.0144 c -1.196346,-1.862011 -3.043237,-3.29956 -5.146237,-3.988217 a 0.11035691,0.11035691 0 0 0 -0.04144,0 L 42.047023,69.690266 a 0.11035691,0.11035691 0 0 0 -0.0283,0 h -0.0283 c -1.002268,-0.322955 -2.047389,-0.470273 -3.100596,-0.456204 -0.01769,3.07e-4 -0.04143,-0.0144 -0.06873,-0.0144 z m 0,0.213842 c 1.060079,-0.02202 2.116849,0.145942 3.125509,0.47401 a 0.11035691,0.11035691 0 0 0 0.04143,0 l 30.061789,9.900602 a 0.11035691,0.11035691 0 0 0 0.01264,0 c 2.053603,0.672491 3.871283,2.059703 5.039431,3.877553 a 0.11035691,0.11035691 0 0 0 0,0.0144 l 17.955075,28.005318 a 0.11035691,0.11035691 0 0 0 0.01264,0.0395 c 2.073745,3.23697 1.899242,7.7731 -0.417217,10.84148 -2.319019,3.07195 -6.637188,4.48236 -10.32116,3.3679 L 30.621742,109.75296 a 0.11035691,0.11035691 0 0 0 -0.121537,0.0538 l -4.016523,6.23688 a 0.11035691,0.11035691 0 0 0 0.06898,0.16034 l 84.809698,25.48563 a 0.11035691,0.11035691 0 0 0 0.0283,0 c 2.37422,0.71454 4.44024,2.39755 5.61682,4.57964 1.18005,2.18872 1.44269,4.86392 0.72697,7.24547 -0.71458,2.37979 -2.40549,4.45448 -4.59388,5.63101 -2.18825,1.17644 -4.85533,1.42931 -7.23479,0.71279 L 8.909637,130.72276 c -2.8016525,-0.83954 -5.1535927,-3.04879 -6.1691509,-5.7914 -1.0154312,-2.74256 -0.6634532,-5.95617 0.9159024,-8.41798 L 31.01311,73.813971 c 1.675676,-2.618965 4.703904,-4.323531 7.812156,-4.380062 z m 0.01264,0.299369 c -3.018349,0.05452 -5.957131,1.684029 -7.583989,4.226825 L 3.9003275,116.65948 c -1.5331413,2.38971 -1.8734205,5.51639 -0.8874254,8.1792 0.9859188,2.66271 3.274639,4.8017 5.9945508,5.61676 l 96.9958271,29.13507 c 2.30879,0.69532 4.8797,0.42884 7.00309,-0.71276 2.1237,-1.14171 3.76496,-3.14701 4.45853,-5.45639 0.69448,-2.31099 0.43242,-4.89323 -0.71283,-7.01736 -1.14528,-2.12419 -3.1583,-3.75814 -5.4706,-4.44778 l -85.302609,-25.63178 4.444203,-6.93538 54.014872,16.29782 c 3.577526,1.07575 7.742393,-0.29336 9.993214,-3.27524 2.253697,-2.98548 2.429081,-7.37054 0.406253,-10.51714 L 76.868047,83.84996 C 75.733052,82.083655 73.974698,80.7269 71.978322,80.07576 L 41.873485,70.175159 c -0.977404,-0.317927 -2.004838,-0.463318 -3.032853,-0.441934 z m 0,0.267281 c 0.996531,-0.02043 2.00274,0.13706 2.950985,0.445523 l 30.104464,9.900591 c 1.934087,0.630824 3.629418,1.951988 4.729368,3.663711 l 17.969255,28.044538 c 1.955768,3.04238 1.801362,7.30977 -0.377926,10.19639 -2.176353,2.88301 -6.238438,4.20484 -9.697379,3.16478 L 30.407298,109.08969 a 0.13794617,0.13794617 0 0 0 -0.160198,0.0538 l -4.622417,7.18131 a 0.13794617,0.13794617 0 0 0 0.08212,0.21387 l 85.495047,25.68879 c 2.24,0.66807 4.19749,2.25162 5.30669,4.30878 1.10922,2.05723 1.36054,4.56508 0.68756,6.80353 -0.67172,2.23656 -2.2696,4.18654 -4.32659,5.29243 -2.05719,1.10603 -4.54961,1.36125 -6.7857,0.6878 L 9.0852735,130.1845 C 6.4522811,129.39552 4.2340326,127.30575 3.2795973,124.72813 2.325288,122.15063 2.6575576,119.13696 4.142109,116.82334 L 31.498805,74.123947 c 1.574757,-2.461293 4.420401,-4.070541 7.341723,-4.123461 z m 0.01264,0.363532 c -2.815728,0.05103 -5.552874,1.576346 -7.070803,3.948852 L 4.420917,117.0123 c -1.4301762,2.22917 -1.7394768,5.11061 -0.8196575,7.59473 0.9198183,2.48426 3.0506402,4.49282 5.5881711,5.25321 L 106.17457,158.9989 c 2.15382,0.64855 4.55187,0.40208 6.53271,-0.66291 1.98102,-1.06506 3.51579,-2.9496 4.16264,-5.10353 0.64758,-2.15533 0.40898,-4.5374 -0.65933,-6.51842 -1.06827,-1.98147 -2.96053,-3.51929 -5.11772,-4.16267 l -86.100838,-25.86342 5.156978,-8.02952 54.460348,16.43326 c 3.341698,1.01092 7.216492,-0.26821 9.3197,-3.05428 2.103101,-2.786 2.265449,-6.85712 0.377926,-9.79366 L 76.336899,84.19918 C 75.278386,82.551779 73.647809,81.2782 71.785864,80.670888 L 41.68135,70.770297 c -0.912163,-0.296638 -1.872108,-0.426213 -2.829752,-0.40628 z m 0,0.406279 c 0.912364,-0.01916 1.827736,0.120906 2.694366,0.402691 l 30.104437,9.900612 c 1.768584,0.576834 3.33149,1.774129 4.33737,3.33938 l 17.969275,28.044549 c 1.787236,2.78024 1.642202,6.69586 -0.348945,9.33392 -1.991367,2.638 -5.728836,3.85438 -8.891995,2.89747 L 30.110308,108.21649 a 0.20691922,0.20691922 0 0 0 -0.228167,0.0927 l -5.388583,8.39304 a 0.20691922,0.20691922 0 0 0 0.121537,0.31007 l 86.368125,25.94179 c 2.04782,0.61077 3.83647,2.06804 4.85056,3.94885 1.01432,1.88124 1.24951,4.17565 0.63447,6.2226 -0.61381,2.04512 -2.06828,3.82526 -3.94876,4.83624 -1.88077,1.01112 -4.19266,1.24641 -6.23694,0.63084 L 9.3019974,129.4575 C 6.8950755,128.73626 4.8534469,126.83136 3.9810307,124.47515 3.1084875,122.11874 3.418977,119.34137 4.7757999,117.22613 L 32.132471,74.526712 c 1.439398,-2.249759 4.050836,-3.708026 6.721603,-3.756384 z m 0.01264,0.310061 c -2.583114,0.04764 -5.087241,1.445341 -6.479236,3.620964 L 5.0315902,117.39007 c -1.3118462,2.04484 -1.5990385,4.69655 -0.7555037,6.97459 0.8433093,2.27757 2.7763864,4.11396 5.1035134,4.8113 L 106.379,158.31106 c 1.97424,0.59455 4.17806,0.37068 5.99449,-0.60587 1.81604,-0.97636 3.21666,-2.68628 3.80987,-4.66162 0.59449,-1.97715 0.3594,-4.19221 -0.62,-6.00879 -0.97927,-1.81607 -2.68049,-3.20933 -4.65801,-3.79914 l -87.016804,-26.14495 5.951723,-9.28046 54.973561,16.59719 c 1.529447,0.4627 3.196987,0.42725 4.715122,-0.0675 1.518235,-0.49505 2.875868,-1.45859 3.838338,-2.73352 0.962444,-1.27498 1.515147,-2.83795 1.575262,-4.43353 0.06191,-1.596 -0.376716,-3.20734 -1.240263,-4.55114 L 75.732979,84.577109 c -0.970881,-1.510934 -2.467636,-2.651179 -4.173357,-3.20755 l -30.108056,-9.90058 c -0.790475,-0.257035 -1.614605,-0.365385 -2.448488,-0.363532 a 0.27589229,0.27589229 0 0 0 -0.06873,-0.0144 c -0.01769,2.65e-4 -0.04852,-0.01112 -0.06873,-0.01112 z m 0,0.538142 c 0.81463,-0.01641 1.646012,0.110679 2.423472,0.363532 l 30.104539,9.900591 c 1.583851,0.516619 2.981462,1.590055 3.88109,2.99015 l 17.969002,28.044536 c 0.801131,1.2462 1.214008,2.74959 1.158319,4.23037 -0.05509,1.48119 -0.575901,2.95175 -1.468382,4.13416 -0.892554,1.18244 -2.162027,2.0852 -3.571002,2.54463 -1.409176,0.45946 -2.97322,0.47159 -4.390812,0.0428 L 29.798232,107.21857 a 0.27589229,0.27589229 0 0 0 -0.310262,0.12118 l -6.261757,9.76515 a 0.27589229,0.27589229 0 0 0 0.1463,0.41696 l 87.366037,26.25546 c 1.83255,0.54655 3.42957,1.84477 4.33731,3.52828 0.90746,1.68302 1.11677,3.74703 0.56688,5.57754 -0.54963,1.8294 -1.85958,3.43252 -3.54251,4.33729 -1.68255,0.90457 -3.7337,1.1034 -5.56331,0.55242 L 9.5429892,128.63419 C 7.3899309,127.98901 5.5693443,126.28414 4.7886506,124.17573 4.0081823,122.06777 4.273442,119.57749 5.4872003,117.6858 L 32.843858,74.997112 c 1.28769,-2.012637 3.634881,-3.334892 6.023028,-3.378634 z m 0.01264,0.416971 a 6.8973072,6.8973072 0 0 0 -5.684467,3.17903 L 5.8326953,117.91394 a 6.8973072,6.8973072 0 0 0 3.8276478,10.33182 L 106.6562,157.38085 a 6.896618,6.896618 0 0 0 8.59262,-4.61887 6.896618,6.896618 0 0 0 -4.63312,-8.59616 l -88.239253,-26.50849 7.042302,-10.97689 55.672103,16.79678 A 6.8973072,6.8973072 0 0 0 92.888734,113.1454 L 74.921805,85.100853 A 6.8973072,6.8973072 0 0 0 71.25456,82.271084 L 41.150122,72.370493 A 6.8973072,6.8973072 0 0 0 38.87631,72.035544 Z m 3.043642,15.114606 22.709289,7.459306 6.571944,10.264106 -34.049797,-10.274809 z m 0.267509,0.538152 a 0.27589229,0.27589229 0 0 0 -0.199363,0.121181 l -4.002322,6.23688 a 0.27589229,0.27589229 0 0 0 0.149585,0.416971 l 31.408572,9.483588 a 0.27589229,0.27589229 0 0 0 0.310256,-0.42056 L 64.412343,95.040656 A 0.27589229,0.27589229 0 0 0 64.266296,94.933745 L 42.298353,87.698963 a 0.27589229,0.27589229 0 0 0 -0.11042,-0.01059 z m 0.149584,0.591581 21.672228,7.138553 4.985895,7.772936 -30.35031,-9.15929 z m 0.217302,0.409868 a 0.20691922,0.20691922 0 0 0 -0.05508,0.0064 0.20691922,0.20691922 0 0 0 -0.135182,0.09623 l -3.097058,4.846947 a 0.20691922,0.20691922 0 0 0 0.121538,0.31005 l 28.368843,8.553424 a 0.20691922,0.20691922 0 0 0 0.228166,-0.31006 L 63.852845,95.742033 A 0.20691922,0.20691922 0 0 0 63.74571,95.645803 L 42.606871,88.69678 a 0.20691922,0.20691922 0 0 0 -0.04852,-0.0064 z m 0.06191,0.466907 20.920264,6.867682 3.79917,5.912562 -27.574149,-8.311078 z m 0.213765,0.438344 a 0.13794617,0.13794617 0 0 0 -0.04143,0.0042 0.13794617,0.13794617 0 0 0 -0.07858,0.05727 l -2.31659,3.620964 a 0.13794617,0.13794617 0 0 0 0.07858,0.217399 l 25.703053,7.758667 a 0.13794617,0.13794617 0 0 0 0.159692,-0.21741 l -2.990082,-4.686521 a 0.13794617,0.13794617 0 0 0 -0.08212,-0.05378 L 42.870829,89.59874 a 0.13794617,0.13794617 0 0 0 -0.04143,-0.0042 z m 0.07126,0.313586 20.228788,6.64317 2.762008,4.323034 -25.146963,-7.598293 z m 0.163986,0.356397 a 0.11035691,0.11035691 0 0 0 -0.04143,0.0064 0.11035691,0.11035691 0 0 0 -0.05508,0.05727 l -1.710671,2.665819 a 0.11035691,0.11035691 0 0 0 0.06873,0.16035 l 23.628855,7.127858 a 0.11035691,0.11035691 0 0 0 0.121523,-0.16398 l -2.117303,-3.300245 a 0.11035691,0.11035691 0 0 0 -0.05508,-0.05378 L 43.10504,90.27157 a 0.11035691,0.11035691 0 0 0 -0.03613,-0.0064 z m 0.03613,0.249476 19.694302,6.454268 1.924486,3.015081 -23.194027,-7.003102 z"
       style="color:#000000;font-style:normal;font-variant:normal;font-weight:normal;font-stretch:normal;font-size:medium;line-height:normal;font-family:sans-serif;font-variant-ligatures:normal;font-variant-position:normal;font-variant-caps:normal;font-variant-numeric:normal;font-variant-alternates:normal;font-variant-east-asian:normal;font-feature-settings:normal;font-variation-settings:normal;text-indent:0;text-align:start;text-decoration:none;text-decoration-line:none;text-decoration-style:solid;text-decoration-color:#000000;letter-spacing:normal;word-spacing:normal;text-transform:none;writing-mode:lr-tb;direction:ltr;text-orientation:mixed;dominant-baseline:auto;baseline-shift:baseline;text-anchor:start;white-space:normal;shape-padding:0;shape-margin:0;inline-size:0;clip-rule:nonzero;display:inline;overflow:visible;visibility:visible;isolation:auto;mix-blend-mode:normal;color-interpolation:sRGB;color-interpolation-filters:linearRGB;solid-color:#000000;solid-opacity:1;vector-effect:none;fill:url(#linearGradient1433-5);fill-opacity:1;fill-rule:nonzero;stroke:none;stroke-width:7.55907;stroke-linecap:round;stroke-linejoin:round;stroke-miterlimit:4;stroke-dasharray:none;stroke-dashoffset:0;stroke-opacity:1;color-rendering:auto;image-rendering:auto;shape-rendering:auto;text-rendering:auto;enable-background:accumulate;stop-color:#000000"
       id="path1423-4" />
  </g>
</svg>
