<?xml version="1.0" encoding="UTF-8" standalone="no"?>
<svg
   xmlns:dc="http://purl.org/dc/elements/1.1/"
   xmlns:cc="http://creativecommons.org/ns#"
   xmlns:rdf="http://www.w3.org/1999/02/22-rdf-syntax-ns#"
   xmlns:svg="http://www.w3.org/2000/svg"
   xmlns="http://www.w3.org/2000/svg"
   xmlns:sodipodi="http://sodipodi.sourceforge.net/DTD/sodipodi-0.dtd"
   xmlns:inkscape="http://www.inkscape.org/namespaces/inkscape"
   inkscape:version="1.0 (4035a4fb49, 2020-05-01)"
   sodipodi:docname="safari-pinned-tab.svg"
   id="svg24"
   preserveAspectRatio="xMidYMid meet"
   viewBox="0 0 270.000000 270.000000"
   height="270.000000pt"
   width="270.000000pt"
   version="1.0">
  <defs
     id="defs28" />
  <sodipodi:namedview
     inkscape:current-layer="svg24"
     inkscape:window-maximized="1"
     inkscape:window-y="-9"
     inkscape:window-x="-9"
     inkscape:cy="270.32727"
     inkscape:cx="114.63796"
     inkscape:zoom="1.1527778"
     showgrid="false"
     id="namedview26"
     inkscape:window-height="1001"
     inkscape:window-width="1920"
     inkscape:pageshadow="2"
     inkscape:pageopacity="0"
     guidetolerance="10"
     gridtolerance="10"
     objecttolerance="10"
     borderopacity="1"
     bordercolor="#666666"
     pagecolor="#ffffff" />
  <metadata
     id="metadata2">
Created by potrace 1.14, written by Peter Selinger 2001-2017
<rdf:RDF>
  <cc:Work
     rdf:about="">
    <dc:format>image/svg+xml</dc:format>
    <dc:type
       rdf:resource="http://purl.org/dc/dcmitype/StillImage" />
  </cc:Work>
</rdf:RDF>
</metadata>
  <path
     id="path1423-4"
     style="color:#000000;font-style:normal;font-variant:normal;font-weight:normal;font-stretch:normal;font-size:medium;line-height:normal;font-family:sans-serif;font-variant-ligatures:normal;font-variant-position:normal;font-variant-caps:normal;font-variant-numeric:normal;font-variant-alternates:normal;font-variant-east-asian:normal;font-feature-settings:normal;font-variation-settings:normal;text-indent:0;text-align:start;text-decoration:none;text-decoration-line:none;text-decoration-style:solid;text-decoration-color:#000000;letter-spacing:normal;word-spacing:normal;text-transform:none;writing-mode:lr-tb;direction:ltr;text-orientation:mixed;dominant-baseline:auto;baseline-shift:baseline;text-anchor:start;white-space:normal;shape-padding:0;shape-margin:0;inline-size:0;clip-rule:nonzero;display:inline;overflow:visible;visibility:visible;isolation:auto;mix-blend-mode:normal;color-interpolation:sRGB;color-interpolation-filters:linearRGB;solid-color:#000000;solid-opacity:1;vector-effect:none;fill:#000000;fill-opacity:1;fill-rule:nonzero;stroke:none;stroke-width:5.6693;stroke-linecap:round;stroke-linejoin:round;stroke-miterlimit:4;stroke-dasharray:none;stroke-dashoffset:0;stroke-opacity:1;color-rendering:auto;image-rendering:auto;shape-rendering:auto;text-rendering:auto;enable-background:accumulate;stop-color:#000000"
     d="m 114.65418,30.105519 c -3.84805,0.01963 -7.62212,2.090535 -9.70427,5.326907 a 0.13185251,0.13185251 0 0 0 0,0.03381 l -32.974828,51.46786 c -1.933478,3.013756 -2.371888,6.92511 -1.128387,10.283354 1.243409,3.35818 4.13235,6.05338 7.562376,7.08123 l 77.365719,23.18973 52.85175,82.6756 -11.41174,-3.42779 -44.5314,-69.44562 c -1.6392,-2.55754 -4.30506,-4.43356 -7.27282,-5.0842 -2.96771,-0.65064 -6.18288,-0.0783 -8.74194,1.55848 -2.55755,1.63918 -4.43355,4.30933 -5.08419,7.27711 -0.65098,2.96765 -0.074,6.17861 1.56275,8.73765 l 46.84771,73.08207 c 1.48202,2.31 3.80891,4.07063 6.43827,4.85851 l 45.46392,13.66428 c 4.5086,1.35591 9.76064,-0.34867 12.59987,-4.10481 2.83909,-3.75607 3.04979,-9.27487 0.51497,-13.24274 L 173.00733,111.3801 v -0.0173 a 0.13185251,0.13185251 0 0 0 0,-0.0172 c -1.48359,-2.30815 -3.82305,-4.05529 -6.45095,-4.8415 L 99.797601,86.482427 114.71804,63.211816 131.35876,89.284254 c 1.63921,2.55754 4.30509,4.433565 7.27288,5.084213 2.96762,0.65062 6.18287,0.07415 8.74194,-1.562735 2.56123,-1.635639 4.44625,-4.304789 5.10118,-7.27287 0.65511,-2.96813 0.074,-6.176159 -1.56269,-8.737648 L 124.50313,35.466421 c -2.10509,-3.289093 -5.94352,-5.389371 -9.84895,-5.360981 z m 0,0.25975 c 3.80967,-0.02778 7.56932,2.019798 9.62338,5.22897 l 26.40882,41.329275 c 1.59656,2.501053 2.16784,5.649215 1.52867,8.546039 -0.63943,2.896882 -2.47288,5.518378 -4.97346,7.115326 -2.49824,1.598035 -5.64924,2.163781 -8.54607,1.528663 -2.89673,-0.635055 -5.51059,-2.463574 -7.11107,-4.960699 L 114.82877,62.905788 a 0.13185251,0.13185251 0 0 0 -0.22158,0 l -15.129179,23.59424 a 0.13185251,0.13185251 0 0 0 0.0821,0.191581 l 66.933329,20.068501 c 2.56655,0.7678 4.84532,2.46505 6.29347,4.718 a 0.13185251,0.13185251 0 0 0 0,0.0133 l 71.99919,112.67402 c 2.47085,3.86822 2.25249,9.29154 -0.51496,12.95321 -2.76786,3.66161 -7.91452,5.33316 -12.31039,4.01113 L 186.49692,227.4656 c -2.56707,-0.76919 -4.82919,-2.47497 -6.27646,-4.73076 l -46.85182,-73.08217 c -1.59811,-2.49818 -2.16385,-5.64924 -1.5287,-8.54604 0.6353,-2.89669 2.45937,-5.51486 4.95642,-7.11533 2.49814,-1.59803 5.64932,-2.16378 8.54607,-1.52867 2.89674,0.63506 5.51485,2.45933 7.11534,4.95646 l 44.56116,69.49247 a 0.13185251,0.13185251 0 0 0 0.0824,0.0643 l 11.79918,3.54274 a 0.13185251,0.13185251 0 0 0 0.1452,-0.19158 l -53.07919,-83.01283 a 0.13185251,0.13185251 0 0 0 -0.0821,-0.0643 L 78.471835,104.04312 c -3.347398,-1.00306 -6.157515,-3.64689 -7.370796,-6.923711 -1.21322,-3.276775 -0.792712,-7.116358 1.094305,-10.057672 L 105.17449,35.576862 a 0.13185251,0.13185251 0 0 0 0,-0.01328 c 2.03125,-3.157302 5.7242,-5.179642 9.47858,-5.199172 z m 0,0.353405 c -3.64584,0.01841 -7.21664,1.971513 -9.18906,5.037356 L 72.486038,87.240916 c -1.831741,2.855197 -2.2383,6.586624 -1.060222,9.768112 1.17796,3.181402 3.912362,5.737012 7.162127,6.710812 l 77.570137,23.25357 53.83531,84.23406 -13.16613,-3.95579 -44.65914,-69.65426 c -1.55279,-2.42286 -4.09123,-4.17835 -6.90231,-4.79465 -2.81156,-0.61643 -5.86652,-0.0733 -8.29057,1.47759 -2.42291,1.55286 -4.17842,4.09555 -4.79468,6.90665 -0.61634,2.81151 -0.0739,5.86229 1.47759,8.28631 l 46.85204,73.08204 c 1.40398,2.18831 3.6071,3.83973 6.0976,4.586 l 45.46393,13.66428 c 4.27206,1.28484 9.23712,-0.35036 11.92706,-3.90892 2.68987,-3.55866 2.89948,-8.78094 0.49855,-12.54018 a 0.16481569,0.16481569 0 0 0 0,-0.0133 l -72.00524,-112.6734 c -1.40902,-2.1921 -3.61635,-3.84426 -6.11461,-4.58599 L 98.865081,86.836483 114.71804,62.101069 131.87396,88.96128 a 0.16481569,0.16481569 0 0 0 0,0.0172 c 1.55291,2.422845 4.09133,4.178353 6.90244,4.794646 2.80676,0.615358 5.85184,0.06676 8.27348,-1.477584 2.42636,-1.549499 4.19137,-4.095199 4.81178,-6.906668 0.62044,-2.811295 0.0842,-5.830041 -1.46487,-8.256476 a 0.16481569,0.16481569 0 0 0 0,-0.02959 l -26.4088,-41.329184 c -1.99447,-3.116101 -5.63406,-5.081296 -9.33381,-5.054388 z m 0,0.323699 c 3.58053,-0.02626 7.11389,1.906459 9.04426,4.922374 l 26.40882,41.32928 a 0.16481569,0.16481569 0 0 0 0,0.0172 c 1.50092,2.350784 2.03582,5.290702 1.43498,8.013777 -0.6007,2.722928 -2.33369,5.175847 -4.68387,6.676729 -2.34647,1.496545 -5.30081,2.047754 -8.01808,1.452006 -2.72285,-0.596901 -5.17256,-2.31997 -6.67678,-4.666886 a 0.16481569,0.16481569 0 0 0 0,-0.01721 l -17.30066,-27.08587 a 0.16481569,0.16481569 0 0 0 -0.2895,0 l -16.125459,25.1527 a 0.16481569,0.16481569 0 0 0 0.0981,0.259749 l 67.738059,20.306968 c 2.42052,0.71868 4.5535,2.33416 5.91878,4.45824 L 244.2077,224.5014 v 0.0172 a 0.16481569,0.16481569 0 0 0 0,0.0338 c 2.32212,3.63519 2.13259,8.7074 -0.46787,12.14839 -2.60115,3.44109 -7.43897,5.02342 -11.56938,3.78122 L 186.7065,226.82203 c -2.41295,-0.72306 -4.54577,-2.33811 -5.90598,-4.45824 l -46.8478,-73.08212 c -1.50204,-2.34817 -2.04894,-5.30841 -1.45205,-8.03083 0.59739,-2.72282 2.31993,-5.17675 4.66685,-6.68098 2.3482,-1.50206 5.30848,-2.04462 8.03085,-1.44775 2.72282,0.59689 5.17674,2.31997 6.68095,4.6669 l 44.69327,69.70109 a 0.16481569,0.16481569 0 0 0 0.0939,0.0643 l 13.6814,4.10483 a 0.16481569,0.16481569 0 0 0 0.19199,-0.25548 l -54.12222,-84.66867 a 0.16481569,0.16481569 0 0 0 -0.0981,-0.0643 L 78.685665,103.39584 c -3.145882,-0.94265 -5.796146,-3.435223 -6.936489,-6.51492 -1.140314,-3.079578 -0.743233,-6.68451 1.030392,-9.448766 L 105.75448,35.947273 c 1.90915,-2.967494 5.37129,-4.887523 8.89944,-4.905349 z m 0,0.434335 c -3.40112,0.01842 -6.72292,1.836356 -8.56303,4.696711 L 73.11624,87.658297 c -1.708747,2.663393 -2.082583,6.110365 -0.983599,9.078306 1.099044,2.968165 3.649139,5.367967 6.680907,6.276467 l 77.829882,23.31746 55.08726,86.16725 -15.38456,-4.60303 -44.80388,-69.87994 c -1.44837,-2.25979 -3.81585,-3.91314 -6.43831,-4.48807 -2.62252,-0.5749 -5.45054,-0.0626 -7.71142,1.3839 -2.25982,1.44836 -3.91318,3.81584 -4.48804,6.43826 -0.57515,2.62251 -0.0658,5.44634 1.38387,7.70719 l 46.84768,73.08206 c 1.3096,2.04115 3.37439,3.60033 5.69743,4.29644 l 45.46393,13.6643 c 3.98698,1.19907 8.5952,-0.33283 11.10515,-3.65347 2.5104,-3.32105 2.70954,-8.17582 0.46887,-11.68426 L 171.86673,112.08713 c -1.31431,-2.04467 -3.38399,-3.60454 -5.71443,-4.29645 L 97.690231,87.27082 114.71852,60.700179 132.50037,88.561017 c 1.44841,2.259774 3.81593,3.913115 6.43827,4.488069 2.62259,0.574905 5.4506,0.06261 7.71148,-1.383902 2.26347,-1.445503 3.90951,-3.816365 4.48807,-6.438263 0.5784,-2.622239 0.0739,-5.443773 -1.36689,-7.707192 L 123.36246,36.190455 c -1.86105,-2.907638 -5.2563,-4.738834 -8.70782,-4.713747 z m 0,0.481131 c 3.27323,-0.02415 6.522,1.735826 8.2863,4.492323 l 26.41309,41.325023 c 1.37187,2.149245 1.8524,4.868182 1.30295,7.358025 -0.5496,2.490153 -2.11806,4.742562 -4.26663,6.114643 -2.14716,1.374023 -4.8646,1.865733 -7.35377,1.320017 -2.4892,-0.54573 -4.73921,-2.120619 -6.11458,-4.266633 L 114.92671,60.121026 a 0.24722347,0.24722347 0 0 0 -0.41691,0 L 97.094081,87.287813 a 0.24722347,0.24722347 0 0 0 0.1446,0.370457 l 68.785679,20.6178 c 2.21309,0.65705 4.17636,2.12853 5.42478,4.07076 l 72.00053,112.66979 c 2.12183,3.32181 1.94263,7.99473 -0.43422,11.13922 -2.37723,3.14492 -6.81561,4.59271 -10.58997,3.4576 l -45.46392,-13.6643 c -2.20624,-0.6611 -4.16409,-2.13218 -5.40779,-4.07077 l -46.8478,-73.08205 c -1.37392,-2.14716 -1.86571,-4.86463 -1.31991,-7.35377 0.54546,-2.48923 2.1205,-4.7392 4.2665,-6.11465 2.1472,-1.37401 4.86466,-1.86572 7.3539,-1.32001 2.48919,0.54574 4.73915,2.12062 6.11457,4.26663 l 44.85496,69.95659 a 0.24722347,0.24722347 0 0 0 0.1452,0.11494 l 16.10847,4.82871 a 0.24722347,0.24722347 0 0 0 0.27261,-0.37046 l -55.48845,-86.81022 a 0.24722347,0.24722347 0 0 0 -0.1452,-0.11493 L 78.940886,102.52762 c -2.875778,-0.8617 -5.315049,-3.137659 -6.357427,-5.952844 -1.042409,-2.815368 -0.671533,-6.133722 0.949636,-8.661001 L 106.50792,36.433153 c 1.74509,-2.712635 4.92033,-4.45845 8.14575,-4.475296 z m 0.0151,0.37046 c -3.11904,0.0166 -6.16799,1.672376 -7.8562,4.296454 a 0.32963131,0.32963131 0 0 0 0,0.01721 0.32963131,0.32963131 0 0 0 -0.0151,0.01721 L 73.840121,88.127006 c -1.560095,2.440861 -1.908964,5.602881 -0.902662,8.320365 1.007571,2.721206 3.321313,4.911009 6.101845,5.744209 l 78.149166,23.39836 56.50529,88.38999 -17.89698,-5.34393 -44.98267,-70.16952 c -1.32788,-2.07179 -3.48495,-3.57777 -5.88902,-4.10482 -2.40457,-0.52718 -4.99135,-0.0528 -7.06418,1.27318 a 0.32963131,0.32963131 0 0 0 -0.0151,0 c -2.07181,1.32785 -3.57765,3.48488 -4.10479,5.88896 -0.51995,2.37035 -0.058,4.91287 1.22632,6.97055 a 0.32963131,0.32963131 0 0 0 0,0.004 0.32963131,0.32963131 0 0 0 0.0495,0.0893 0.32963131,0.32963131 0 0 0 0,0.0171 l 46.8478,73.08204 c 1.2004,1.87114 3.06984,3.28794 5.19909,3.92598 l 45.46396,13.66431 c 1.8241,0.54861 3.80588,0.52743 5.61645,-0.0643 1.81073,-0.59146 3.43704,-1.763 4.58595,-3.283 1.1488,-1.51972 1.81148,-3.37767 1.88647,-5.28007 0.0739,-1.90307 -0.43904,-3.81977 -1.46492,-5.42485 L 171.17777,112.61974 a 0.32963131,0.32963131 0 0 0 -0.0338,-0.0643 0.32963131,0.32963131 0 0 0 0,-0.0173 c -1.20482,-1.87391 -3.08015,-3.29171 -5.21611,-3.9259 L 96.371341,87.756014 114.71966,59.124435 133.19561,88.028527 a 0.32963131,0.32963131 0 0 0 0.0338,0.06431 0.32963131,0.32963131 0 0 0 0,0.0172 c 1.32791,2.071805 3.4892,3.577769 5.89333,4.104818 2.40455,0.527197 4.99121,0.05277 7.06413,-1.273164 2.07479,-1.324945 3.59124,-3.484216 4.1219,-5.888975 0.53064,-2.403966 0.0658,-4.988731 -1.25621,-7.064223 L 122.64299,36.658865 c -1.7064,-2.666107 -4.80035,-4.35353 -7.96692,-4.330504 z m 0,0.64296 c 2.92683,-0.02174 5.83907,1.574756 7.41762,4.040944 l 26.40881,41.329278 c 1.22757,1.922833 1.64991,4.350698 1.15823,6.5788 -0.49113,2.227288 -1.90501,4.24788 -3.82801,5.475938 -1.92127,1.228997 -4.35601,1.659274 -6.5831,1.170986 -2.21262,-0.485092 -4.20889,-1.880711 -5.44186,-3.781224 a 0.32963131,0.32963131 0 0 0 -0.012,-0.01721 c -0.003,-0.0066 -0.0151,-0.0063 -0.0151,-0.01238 a 0.32963131,0.32963131 0 0 0 0,-0.01721 L 114.99126,58.336888 a 0.32963131,0.32963131 0 0 0 -0.54466,0 L 95.583101,87.768993 a 0.32963131,0.32963131 0 0 0 0.17873,0.502471 l 69.973619,20.983996 c 1.96608,0.5838 3.71036,1.88795 4.82863,3.60663 0.012,0.0133 0.0212,0.0171 0.0338,0.0295 a 0.32963131,0.32963131 0 0 0 0,0.0173 l 72.0047,112.67403 c 0.95135,1.4894 1.43673,3.27136 1.36688,5.03736 -0.0658,1.76663 -0.68886,3.51283 -1.75434,4.92236 -1.06526,1.40924 -2.58276,2.49167 -4.26234,3.04031 -1.67989,0.54861 -3.541,0.56007 -5.23328,0.0511 l -45.46391,-13.66431 c -1.97478,-0.59172 -3.72839,-1.90152 -4.84145,-3.63644 l -46.81796,-73.03522 v -0.0171 a 0.32963131,0.32963131 0 0 0 -0.0338,-0.0295 0.32963131,0.32963131 0 0 0 0,-0.0171 c -1.22901,-1.92124 -1.65933,-4.35598 -1.17102,-6.58304 0.48536,-2.21262 1.88069,-4.20467 3.78126,-5.43763 a 0.32963131,0.32963131 0 0 0 0.0151,-0.0172 c 0.003,-0.004 0.003,-0.0133 0.0151,-0.0171 a 0.32963131,0.32963131 0 0 0 0.0151,0 c 1.92125,-1.22901 4.35596,-1.66353 6.58306,-1.17524 2.22765,0.48839 4.24085,1.89499 5.47167,3.81528 l 45.04656,70.26744 a 0.32963131,0.32963131 0 0 0 0.1748,0.14478 l 18.86313,5.64595 a 0.32963131,0.32963131 0 0 0 0.3707,-0.49818 l -57.06244,-89.2367 a 0.32963131,0.32963131 0 0 0 -0.17872,-0.14479 L 79.222795,101.54864 c -2.572346,-0.77086 -4.74752,-2.807794 -5.680311,-5.326894 -0.930798,-2.51372 -0.60895,-5.482023 0.834525,-7.741277 L 107.35616,36.995596 a 0.32963131,0.32963131 0 0 0 0,-0.01721 c 1.56054,-2.425641 4.4215,-3.99184 7.30694,-4.006887 z m 0,0.498188 a 8.2407825,8.2407825 0 0 0 -6.88969,3.785476 l -32.974858,51.48063 a 8.2407825,8.2407825 0 0 0 4.56901,12.344287 l 78.553668,23.54739 58.40426,91.36215 -21.27773,-6.39144 -45.20411,-70.50588 a 8.2399591,8.2399591 0 0 0 -11.37774,-2.49101 8.2399591,8.2399591 0 0 0 -2.49524,11.37769 l 46.84771,73.08205 a 8.2407825,8.2407825 0 0 0 4.56901,3.44057 l 45.46389,13.6643 a 8.2407825,8.2407825 0 0 0 9.32105,-12.32726 L 170.17397,113.16862 a 8.2407825,8.2407825 0 0 0 -4.58598,-3.44483 L 94.566861,88.428959 114.71632,56.982766 134.18864,87.479392 a 8.2399591,8.2399591 0 0 0 11.37777,2.495254 8.2399591,8.2399591 0 0 0 2.5123,-11.377687 L 121.66987,37.267684 A 8.2407825,8.2407825 0 0 0 114.66952,33.46943 Z M 65.338976,106.8581 a 0.13185251,0.13185251 0 0 0 -0.09389,0.0471 c -3.766969,0.10762 -7.434253,2.13889 -9.465725,5.31413 L 23.094088,163.2358 c -1.933479,3.01377 -2.367602,6.92513 -1.124132,10.28335 1.243471,3.35819 4.132291,6.05339 7.562407,7.08124 l 115.888947,34.81017 c 2.91156,0.87677 6.1568,0.55447 8.83556,-0.88568 2.67864,-1.44008 4.7419,-3.97716 5.61649,-6.88964 0.87589,-2.91481 0.54631,-6.16917 -0.89847,-8.84836 -1.44224,-2.6749 -3.9791,-4.73146 -6.8896,-5.6037 a 0.13185251,0.13185251 0 0 0 -0.0338,0 l -101.130337,-30.3987 4.649767,-7.20898 64.08473,19.3276 c 4.51494,1.3658 9.77498,-0.3572 12.61689,-4.12188 2.83871,-3.76045 3.04381,-9.27587 0.50262,-13.24271 a 0.13185251,0.13185251 0 0 0 0,-0.0172 l -21.46949,-33.47299 v -0.0172 a 0.13185251,0.13185251 0 0 0 0,-0.0171 c -1.42937,-2.2247 -3.63601,-3.94227 -6.14863,-4.76507 a 0.13185251,0.13185251 0 0 0 -0.0495,0 L 69.186037,107.41994 a 0.13185251,0.13185251 0 0 0 -0.03381,0 h -0.03381 c -1.197487,-0.38586 -2.446179,-0.56188 -3.704533,-0.54507 -0.02114,3.7e-4 -0.04951,-0.0172 -0.08211,-0.0172 z m 0,0.2555 c 1.266565,-0.0263 2.529175,0.17438 3.734305,0.56633 a 0.13185251,0.13185251 0 0 0 0.04951,0 L 105.04008,119.509 a 0.13185251,0.13185251 0 0 0 0.0151,0 c 2.45362,0.80348 4.62535,2.4609 6.02103,4.63283 a 0.13185251,0.13185251 0 0 0 0,0.0172 l 21.45241,33.46027 a 0.13185251,0.13185251 0 0 0 0.0151,0.0472 c 2.47767,3.86747 2.2692,9.28713 -0.49848,12.9532 -2.77072,3.6703 -7.92999,5.35543 -12.33153,4.0239 L 55.535348,155.2862 a 0.13185251,0.13185251 0 0 0 -0.14521,0.0643 l -4.798872,7.45172 a 0.13185251,0.13185251 0 0 0 0.08242,0.19157 l 101.329134,30.44977 a 0.13185251,0.13185251 0 0 0 0.0338,0 c 2.83669,0.85372 5.30513,2.86457 6.71089,5.4717 1.4099,2.61502 1.72369,5.81132 0.86857,8.65674 -0.85378,2.84333 -2.87404,5.32215 -5.4887,6.72783 -2.61448,1.40558 -5.80106,1.70772 -8.644,0.85165 L 29.59407,180.34054 c -3.347367,-1.00306 -6.157424,-3.64263 -7.370794,-6.91946 -1.213221,-3.27676 -0.792682,-7.11633 1.094304,-10.05766 l 32.685334,-51.0165 c 2.002069,-3.12909 5.620144,-5.16568 9.333828,-5.23322 z m 0.0151,0.35769 c -3.606271,0.0651 -7.117476,2.01204 -9.061218,5.05013 l -32.683831,51.01651 c -1.83177,2.85519 -2.23833,6.59089 -1.060281,9.77237 1.17796,3.18136 3.912482,5.73698 7.162187,6.7108 l 115.888917,34.81008 c 2.75851,0.83076 5.83019,0.51236 8.36718,-0.8516 2.53735,-1.36409 4.4983,-3.75999 5.32696,-6.51919 0.82977,-2.76113 0.51666,-5.84636 -0.85167,-8.38423 -1.36836,-2.53794 -3.77348,-4.49015 -6.53617,-5.31413 l -101.918075,-30.62439 5.309857,-8.28629 64.536018,19.47236 c 4.27437,1.28528 9.25048,-0.3505 11.93972,-3.91319 2.69268,-3.56699 2.90223,-8.80619 0.48538,-12.5657 l -21.46946,-33.50713 c -1.35607,-2.11034 -3.45693,-3.73137 -5.84216,-4.50934 L 68.978697,107.99928 c -1.167786,-0.37985 -2.395345,-0.55357 -3.6236,-0.52802 z m 0,0.31934 c 1.190639,-0.0245 2.392839,0.16375 3.525786,0.53229 l 35.968278,11.82906 c 2.31082,0.7537 4.33638,2.3322 5.65057,4.37734 l 21.46936,33.50712 c 2.33671,3.63498 2.15222,8.73357 -0.45154,12.18248 -2.60027,3.44455 -7.45358,5.02386 -11.58626,3.78121 L 55.279095,154.49369 a 0.16481569,0.16481569 0 0 0 -0.1914,0.0643 l -5.522783,8.5801 a 0.16481569,0.16481569 0 0 0 0.09812,0.25553 l 102.147978,30.69251 c 2.67632,0.79821 5.01509,2.69021 6.34035,5.14807 1.32528,2.45792 1.62555,5.45426 0.82149,8.12874 -0.80256,2.67219 -2.71168,5.002 -5.16933,6.32329 -2.45791,1.32146 -5.43581,1.6264 -8.10744,0.82178 L 29.803916,179.69745 c -3.145852,-0.94267 -5.796178,-3.43949 -6.93652,-6.51919 -1.140192,-3.07954 -0.743203,-6.68022 1.030514,-9.4445 l 32.685304,-51.01648 c 1.881492,-2.94072 5.281419,-4.86342 8.771763,-4.92664 z m 0.0151,0.43433 c -3.364183,0.061 -6.634477,1.8834 -8.448072,4.71803 l -32.690088,51.01648 c -1.708749,2.66339 -2.078297,6.10608 -0.979314,9.07405 1.098984,2.96814 3.644854,5.36795 6.676651,6.27644 l 115.876167,34.81436 c 2.57334,0.7749 5.43849,0.48041 7.80515,-0.79202 2.36691,-1.27251 4.20061,-3.52414 4.97346,-6.0976 0.77372,-2.57516 0.48864,-5.42121 -0.78776,-7.78811 -1.27634,-2.36743 -3.5372,-4.20477 -6.11455,-4.97347 l -102.871791,-30.90117 6.161469,-9.59354 65.068272,19.63418 c 3.99261,1.20784 8.62214,-0.32046 11.13501,-3.6492 2.51275,-3.32866 2.70673,-8.19276 0.45154,-11.7013 l -21.47034,-33.50715 c -1.26469,-1.96829 -3.21288,-3.48994 -5.4375,-4.21555 L 68.749137,108.71034 c -1.089837,-0.35442 -2.236761,-0.50922 -3.380938,-0.48542 z m 0,0.48542 c 1.090077,-0.0229 2.183748,0.14445 3.219182,0.48113 l 35.968262,11.82907 c 2.11307,0.68919 3.9804,2.1197 5.18221,3.98984 l 21.46938,33.50713 c 2.13535,3.32177 1.96207,8.00009 -0.41693,11.15201 -2.37925,3.15182 -6.8447,4.60514 -10.62399,3.46184 L 54.924249,153.45039 a 0.24722347,0.24722347 0 0 0 -0.272611,0.11076 l -6.438184,10.02786 a 0.24722347,0.24722347 0 0 0 0.14521,0.37047 l 103.191126,30.99481 c 2.4467,0.72972 4.58374,2.47085 5.79537,4.71801 1.21189,2.24767 1.49289,4.989 0.75805,7.43465 -0.73337,2.44348 -2.47116,4.57034 -4.71791,5.77826 -2.24711,1.20806 -5.00932,1.48919 -7.45179,0.75371 L 30.06285,178.82877 c -2.875748,-0.86174 -5.315049,-3.13767 -6.357398,-5.95285 -1.042499,-2.81538 -0.671531,-6.13374 0.949577,-8.66099 l 32.685274,-51.01652 c 1.719768,-2.68797 4.839869,-4.43028 8.030855,-4.48806 z m 0.0151,0.37046 c -3.086259,0.0569 -6.078146,1.72686 -7.741279,4.32626 l -32.682356,51.00372 c -1.567371,2.44315 -1.910503,5.61138 -0.902662,8.33313 1.007571,2.72119 3.317178,4.91529 6.097589,5.74845 l 115.893192,34.81012 c 2.35878,0.71035 4.99187,0.44288 7.16212,-0.72389 2.16977,-1.16653 3.8432,-3.20953 4.55195,-5.56962 0.71029,-2.36228 0.42942,-5.00878 -0.74076,-7.17919 -1.17001,-2.16982 -3.2026,-3.83446 -5.56531,-4.53915 L 47.490605,164.05314 54.60162,152.965 l 65.68145,19.83004 c 1.82735,0.55282 3.8197,0.51047 5.63354,-0.0807 1.81396,-0.59146 3.43604,-1.74268 4.58598,-3.26595 1.14991,-1.52332 1.81027,-3.39074 1.88209,-5.2971 0.0739,-1.90688 -0.45008,-3.83208 -1.48184,-5.43762 l -21.46942,-33.50716 c -1.15999,-1.80523 -2.94829,-3.16758 -4.98624,-3.83232 L 68.474595,109.54511 c -0.944445,-0.30709 -1.929101,-0.43655 -2.92541,-0.43433 a 0.32963131,0.32963131 0 0 0 -0.08211,-0.0172 c -0.02114,3.2e-4 -0.05797,-0.0133 -0.08211,-0.0133 z m 0,0.64296 c 0.973305,-0.0196 1.966627,0.13223 2.895523,0.43433 l 35.968371,11.82906 c 1.89236,0.61725 3.56219,1.89977 4.63706,3.57258 l 21.46905,33.50712 c 0.95718,1.48893 1.45048,3.28516 1.38393,5.05438 -0.0658,1.7697 -0.68806,3.52668 -1.7544,4.93941 -1.06641,1.41275 -2.58315,2.49137 -4.26656,3.04029 -1.68366,0.54895 -3.55235,0.56344 -5.24607,0.0511 l -65.9198,-19.89395 a 0.32963131,0.32963131 0 0 0 -0.370696,0.1448 l -7.481439,11.66721 a 0.32963131,0.32963131 0 0 0 0.174797,0.4982 l 104.383418,31.36954 c 2.18949,0.65301 4.09758,2.20411 5.18214,4.21553 1.08421,2.01085 1.33431,4.47689 0.67729,6.66395 -0.65669,2.18575 -2.22179,4.10112 -4.23251,5.18212 -2.01029,1.08077 -4.46097,1.31832 -6.64696,0.66002 L 30.350767,177.84513 c -2.572437,-0.77085 -4.747641,-2.8078 -5.680402,-5.32689 -0.932489,-2.51855 -0.615562,-5.4939 0.834616,-7.75405 l 32.685273,-51.0037 c 1.538512,-2.40466 4.342892,-3.98447 7.19621,-4.03673 z m 0.01509,0.49819 a 8.2407825,8.2407825 0 0 0 -6.791712,3.79825 l -32.689871,51.01649 a 8.2407825,8.2407825 0 0 0 4.573206,12.34429 l 115.888941,34.81009 a 8.2399591,8.2399591 0 0 0 10.26633,-5.51853 8.2399591,8.2399591 0 0 0 -5.53558,-10.27055 l -105.42671,-31.6719 8.414018,-13.11498 66.516062,20.0685 a 8.2407825,8.2407825 0 0 0 9.31677,-12.34428 l -21.46658,-33.50714 a 8.2407825,8.2407825 0 0 0 -4.38156,-3.38095 L 68.114436,110.62222 a 8.2407825,8.2407825 0 0 0 -2.716712,-0.40018 z m 3.636491,18.05866 27.132664,8.91225 7.852029,12.26337 -40.682091,-12.27615 z m 0.319615,0.64297 a 0.32963131,0.32963131 0 0 0 -0.238195,0.14479 l -4.781906,7.45171 a 0.32963131,0.32963131 0 0 0 0.178721,0.4982 l 37.526408,11.33082 a 0.32963131,0.32963131 0 0 0 0.37069,-0.50248 l -6.503479,-10.13852 a 0.32963131,0.32963131 0 0 0 -0.1745,-0.12773 l -26.246917,-8.64399 a 0.32963131,0.32963131 0 0 0 -0.131927,-0.0124 z m 0.178721,0.70682 25.893598,8.52902 5.957059,9.28697 -36.262019,-10.94337 z m 0.259629,0.48971 a 0.24722347,0.24722347 0 0 0 -0.06581,0.009 0.24722347,0.24722347 0 0 0 -0.161513,0.11493 l -3.700311,5.79104 a 0.24722347,0.24722347 0 0 0 0.145211,0.37045 l 33.894592,10.21948 a 0.24722347,0.24722347 0 0 0 0.272609,-0.37046 l -4.939369,-7.70714 a 0.24722347,0.24722347 0 0 0 -0.12801,-0.11493 l -25.256316,-8.30345 a 0.24722347,0.24722347 0 0 0 -0.05797,-0.009 z m 0.07397,0.55784 24.995169,8.20539 4.53917,7.06422 -32.945103,-9.92993 z m 0.255401,0.52373 a 0.16481569,0.16481569 0 0 0 -0.0495,0.004 0.16481569,0.16481569 0 0 0 -0.09389,0.0684 l -2.767821,4.32627 a 0.16481569,0.16481569 0 0 0 0.09389,0.25975 l 30.709559,9.26991 a 0.16481569,0.16481569 0 0 0 0.1908,-0.25976 l -3.57249,-5.59941 a 0.16481569,0.16481569 0 0 0 -0.0981,-0.0643 L 70.170315,131.2057 a 0.16481569,0.16481569 0 0 0 -0.0495,-0.004 z m 0.08514,0.37466 24.168998,7.93715 3.3,5.16509 -30.045161,-9.07831 z m 0.195929,0.42583 a 0.13185251,0.13185251 0 0 0 -0.0495,0.009 0.13185251,0.13185251 0 0 0 -0.06581,0.0684 l -2.04388,3.18507 a 0.13185251,0.13185251 0 0 0 0.08211,0.19158 l 28.231339,8.51624 a 0.13185251,0.13185251 0 0 0 0.14522,-0.19586 l -2.52973,-3.94307 a 0.13185251,0.13185251 0 0 0 -0.0658,-0.0643 l -23.658088,-7.75818 a 0.13185251,0.13185251 0 0 0 -0.04318,-0.009 z m 0.04318,0.29806 23.530409,7.71145 2.29934,3.60237 -27.711814,-8.36719 z"
     inkscape:export-xdpi="300"
     inkscape:export-ydpi="300" />
</svg>
